<svg width="149" height="160" viewBox="0 0 149 160" fill="none" xmlns="http://www.w3.org/2000/svg">
<path opacity="0.05" d="M10.1341 149.081L11.5951 147.715L10.1341 149.081ZM10.1341 10.921L11.5951 12.2867L10.1341 10.921ZM64.6941 10.921L63.233 12.2867V12.2867L64.6941 10.921ZM64.6941 149.081L63.233 147.715L64.6941 149.081ZM37.4141 157.201C25.9202 157.201 17.4226 153.949 11.5951 147.715L8.67301 150.447C15.4589 157.706 25.1479 161.201 37.4141 161.201V157.201ZM11.5951 147.715C5.73724 141.449 2.67406 132.467 2.67406 120.481H-1.32594C-1.32594 133.135 1.91755 143.22 8.67301 150.447L11.5951 147.715ZM2.67406 120.481V39.521H-1.32594V120.481H2.67406ZM2.67406 39.521C2.67406 27.5349 5.73724 18.5533 11.5951 12.2867L8.67301 9.5552C1.91755 16.782 -1.32594 26.867 -1.32594 39.521H2.67406ZM11.5951 12.2867C17.4226 6.05273 25.9202 2.80097 37.4141 2.80097V-1.19903C25.1479 -1.19903 15.4589 2.29587 8.67301 9.5552L11.5951 12.2867ZM37.4141 2.80097C48.9079 2.80097 57.4056 6.05273 63.233 12.2867L66.1551 9.5552C59.3692 2.29587 49.6802 -1.19903 37.4141 -1.19903V2.80097ZM63.233 12.2867C69.0909 18.5533 72.1541 27.5349 72.1541 39.521H76.1541C76.1541 26.867 72.9106 16.782 66.1551 9.5552L63.233 12.2867ZM72.1541 39.521V120.481H76.1541V39.521H72.1541ZM72.1541 120.481C72.1541 132.467 69.0909 141.449 63.233 147.715L66.1551 150.447C72.9106 143.22 76.1541 133.135 76.1541 120.481H72.1541ZM63.233 147.715C57.4056 153.949 48.9079 157.201 37.4141 157.201V161.201C49.6802 161.201 59.3692 157.706 66.1551 150.447L63.233 147.715ZM37.4141 139.201C42.0137 139.201 45.7912 137.791 48.361 134.68C50.8704 131.642 51.9541 127.306 51.9541 122.021H47.9541C47.9541 126.856 46.9478 130.11 45.2771 132.132C43.667 134.081 41.1744 135.201 37.4141 135.201V139.201ZM51.9541 122.021V37.981H47.9541V122.021H51.9541ZM51.9541 37.981C51.9541 32.6957 50.8704 28.3599 48.361 25.3222C45.7912 22.2114 42.0137 20.801 37.4141 20.801V24.801C41.1744 24.801 43.667 25.9206 45.2771 27.8697C46.9478 29.8921 47.9541 33.1462 47.9541 37.981H51.9541ZM37.4141 20.801C32.8144 20.801 29.037 22.2114 26.4671 25.3222C23.9578 28.3599 22.8741 32.6957 22.8741 37.981H26.8741C26.8741 33.1462 27.8804 29.8921 29.551 27.8697C31.1612 25.9206 33.6537 24.801 37.4141 24.801V20.801ZM22.8741 37.981V122.021H26.8741V37.981H22.8741ZM22.8741 122.021C22.8741 127.306 23.9578 131.642 26.4671 134.68C29.037 137.791 32.8144 139.201 37.4141 139.201V135.201C33.6537 135.201 31.1612 134.081 29.551 132.132C27.8804 130.11 26.8741 126.856 26.8741 122.021H22.8741ZM124.4 39.521H126.4V37.521H124.4V39.521ZM99.1 39.521H97.1V41.521H99.1V39.521ZM99.1 22.361V20.361H97.1V22.361H99.1ZM115.6 20.601L115.068 18.673L115.059 18.6754L115.051 18.6779L115.6 20.601ZM125.72 14.881L127.174 16.2542L127.193 16.2346L127.21 16.2146L125.72 14.881ZM132.32 3.00097V1.00097H130.929L130.445 2.30459L132.32 3.00097ZM148.6 3.00097H150.6V1.00097H148.6V3.00097ZM148.6 157.001V159.001H150.6V157.001H148.6ZM124.4 157.001H122.4V159.001H124.4V157.001ZM124.4 37.521H99.1V41.521H124.4V37.521ZM101.1 39.521V22.361H97.1V39.521H101.1ZM99.1 24.361C106.08 24.361 111.789 23.7699 116.149 22.524L115.051 18.6779C111.198 19.7787 105.906 20.361 99.1 20.361V24.361ZM116.132 22.529C120.662 21.2794 124.381 19.2118 127.174 16.2542L124.266 13.5077C122.073 15.8301 119.045 17.5759 115.068 18.673L116.132 22.529ZM127.21 16.2146C129.929 13.1761 132.238 8.96598 134.195 3.69734L130.445 2.30459C128.589 7.30263 126.498 11.0125 124.23 13.5474L127.21 16.2146ZM132.32 5.00097H148.6V1.00097H132.32V5.00097ZM146.6 3.00097V157.001H150.6V3.00097H146.6ZM148.6 155.001H124.4V159.001H148.6V155.001ZM126.4 157.001V39.521H122.4V157.001H126.4Z" fill="#181818"/>
</svg>
