<svg width="163" height="160" viewBox="0 0 163 160" fill="none" xmlns="http://www.w3.org/2000/svg">
<path opacity="0.05" d="M10.1341 149.08L11.5951 147.714L10.1341 149.08ZM10.1341 10.92L11.5951 12.2858L10.1341 10.92ZM64.6941 10.92L63.233 12.2858V12.2858L64.6941 10.92ZM64.6941 149.08L63.233 147.714L64.6941 149.08ZM37.4141 157.2C25.9202 157.2 17.4226 153.948 11.5951 147.714L8.67301 150.446C15.4589 157.705 25.1479 161.2 37.4141 161.2V157.2ZM11.5951 147.714C5.73724 141.448 2.67406 132.466 2.67406 120.48H-1.32594C-1.32594 133.134 1.91755 143.219 8.67301 150.446L11.5951 147.714ZM2.67406 120.48V39.52H-1.32594V120.48H2.67406ZM2.67406 39.52C2.67406 27.5339 5.73724 18.5523 11.5951 12.2858L8.67301 9.55422C1.91755 16.781 -1.32594 26.8661 -1.32594 39.52H2.67406ZM11.5951 12.2858C17.4226 6.05176 25.9202 2.79999 37.4141 2.79999V-1.20001C25.1479 -1.20001 15.4589 2.2949 8.67301 9.55422L11.5951 12.2858ZM37.4141 2.79999C48.9079 2.79999 57.4056 6.05176 63.233 12.2858L66.1551 9.55423C59.3692 2.2949 49.6802 -1.20001 37.4141 -1.20001V2.79999ZM63.233 12.2858C69.0909 18.5523 72.1541 27.5339 72.1541 39.52H76.1541C76.1541 26.8661 72.9106 16.781 66.1551 9.55422L63.233 12.2858ZM72.1541 39.52V120.48H76.1541V39.52H72.1541ZM72.1541 120.48C72.1541 132.466 69.0909 141.448 63.233 147.714L66.1551 150.446C72.9106 143.219 76.1541 133.134 76.1541 120.48H72.1541ZM63.233 147.714C57.4056 153.948 48.9079 157.2 37.4141 157.2V161.2C49.6802 161.2 59.3692 157.705 66.1551 150.446L63.233 147.714ZM37.4141 139.2C42.0137 139.2 45.7912 137.79 48.361 134.679C50.8704 131.641 51.9541 127.305 51.9541 122.02H47.9541C47.9541 126.855 46.9478 130.109 45.2771 132.131C43.667 134.08 41.1744 135.2 37.4141 135.2V139.2ZM51.9541 122.02V37.98H47.9541V122.02H51.9541ZM51.9541 37.98C51.9541 32.6948 50.8704 28.3589 48.361 25.3212C45.7912 22.2104 42.0137 20.8 37.4141 20.8V24.8C41.1744 24.8 43.667 25.9196 45.2771 27.8688C46.9478 29.8911 47.9541 33.1452 47.9541 37.98H51.9541ZM37.4141 20.8C32.8144 20.8 29.037 22.2104 26.4671 25.3212C23.9578 28.3589 22.8741 32.6948 22.8741 37.98H26.8741C26.8741 33.1452 27.8804 29.8911 29.551 27.8688C31.1612 25.9196 33.6537 24.8 37.4141 24.8V20.8ZM22.8741 37.98V122.02H26.8741V37.98H22.8741ZM22.8741 122.02C22.8741 127.305 23.9578 131.641 26.4671 134.679C29.037 137.79 32.8144 139.2 37.4141 139.2V135.2C33.6537 135.2 31.1612 134.08 29.551 132.131C27.8804 130.109 26.8741 126.855 26.8741 122.02H22.8741ZM95.36 112.12L97.182 112.945L97.1876 112.932L95.36 112.12ZM114.28 85.94L115.727 87.3204L115.733 87.3145L115.738 87.3086L114.28 85.94ZM132.76 61.52L130.987 60.5949L130.979 60.6102L130.971 60.6256L132.76 61.52ZM134.74 26.76L133.161 27.9879L133.199 28.0368L133.24 28.0832L134.74 26.76ZM112.96 54.48V56.48H114.96V54.48H112.96ZM90.08 54.48H88.08V56.48H90.08V54.48ZM99.32 10.92L100.782 12.2846L100.79 12.2766L100.797 12.2685L99.32 10.92ZM153 10.92L151.523 12.2685L151.53 12.2766L151.538 12.2846L153 10.92ZM155.42 67.02L153.637 66.1139L153.631 66.1256L153.625 66.1374L155.42 67.02ZM132.32 97.82L130.87 96.443L130.864 96.4484L132.32 97.82ZM117.8 116.52L119.566 117.458L119.572 117.447L119.578 117.436L117.8 116.52ZM114.06 135H112.06V137H114.06V135ZM160.04 135H162.04V133H160.04V135ZM160.04 157V159H162.04V157H160.04ZM90.08 157H88.08V159H90.08V157ZM92.08 140.28C92.08 129.486 93.808 120.396 97.1819 112.945L93.5381 111.295C89.872 119.391 88.08 129.074 88.08 140.28H92.08ZM97.1876 112.932C100.579 105.301 106.719 96.7649 115.727 87.3204L112.833 84.5596C103.655 94.1817 97.1809 103.099 93.5324 111.308L97.1876 112.932ZM115.738 87.3086C124.736 77.7213 131.048 69.416 134.549 62.4144L130.971 60.6256C127.725 67.1173 121.718 75.092 112.822 84.5714L115.738 87.3086ZM134.533 62.4451C138.196 55.424 140.04 48.0678 140.04 40.4H136.04C136.04 47.3988 134.364 54.1227 130.987 60.5949L134.533 62.4451ZM140.04 40.4C140.04 33.7236 138.957 28.5166 136.24 25.4368L133.24 28.0832C134.923 29.99 136.04 33.8764 136.04 40.4H140.04ZM136.319 25.5321C133.8 22.2938 130.068 20.8 125.5 20.8V24.8C129.145 24.8 131.573 25.9461 133.161 27.9879L136.319 25.5321ZM125.5 20.8C120.9 20.8 117.123 22.2104 114.553 25.3212C112.044 28.3589 110.96 32.6948 110.96 37.98H114.96C114.96 33.1452 115.966 29.8911 117.637 27.8688C119.247 25.9196 121.74 24.8 125.5 24.8V20.8ZM110.96 37.98V54.48H114.96V37.98H110.96ZM112.96 52.48H90.08V56.48H112.96V52.48ZM92.08 54.48V39.52H88.08V54.48H92.08ZM92.08 39.52C92.08 27.3651 95.081 18.393 100.782 12.2846L97.8579 9.55536C91.239 16.647 88.08 26.7415 88.08 39.52H92.08ZM100.797 12.2685C106.477 6.04753 114.819 2.79999 126.16 2.79999V-1.20001C114.034 -1.20001 104.483 2.29912 97.843 9.57145L100.797 12.2685ZM126.16 2.79999C137.501 2.79999 145.843 6.04753 151.523 12.2685L154.477 9.57145C147.837 2.29912 138.286 -1.20001 126.16 -1.20001V2.79999ZM151.538 12.2846C157.239 18.393 160.24 27.3651 160.24 39.52H164.24C164.24 26.7415 161.081 16.647 154.462 9.55536L151.538 12.2846ZM160.24 39.52C160.24 48.5702 158.051 57.4281 153.637 66.1139L157.203 67.9261C161.882 58.7186 164.24 49.2431 164.24 39.52H160.24ZM153.625 66.1374C149.352 74.8274 141.804 84.9258 130.87 96.443L133.77 99.197C144.836 87.5408 152.688 77.106 157.215 67.9026L153.625 66.1374ZM130.864 96.4484C123.645 104.11 118.647 110.508 116.022 115.604L119.578 117.436C121.939 112.852 126.622 106.783 133.776 99.1916L130.864 96.4484ZM116.034 115.582C113.384 120.57 112.06 125.953 112.06 131.7H116.06C116.06 126.593 117.23 121.856 119.566 117.458L116.034 115.582ZM112.06 131.7V135H116.06V131.7H112.06ZM114.06 137H160.04V133H114.06V137ZM158.04 135V157H162.04V135H158.04ZM160.04 155H90.08V159H160.04V155ZM92.08 157V140.28H88.08V157H92.08Z" fill="#181818"/>
</svg>
