<svg width="161" height="160" viewBox="0 0 161 160" fill="none" xmlns="http://www.w3.org/2000/svg">
<path opacity="0.05" d="M10.1341 149.081L11.5951 147.715L10.1341 149.081ZM10.1341 10.921L11.5951 12.2867L10.1341 10.921ZM64.6941 10.921L63.233 12.2867V12.2867L64.6941 10.921ZM64.6941 149.081L63.233 147.715L64.6941 149.081ZM37.4141 157.201C25.9202 157.201 17.4226 153.949 11.5951 147.715L8.67301 150.447C15.4589 157.706 25.1479 161.201 37.4141 161.201V157.201ZM11.5951 147.715C5.73724 141.449 2.67406 132.467 2.67406 120.481H-1.32594C-1.32594 133.135 1.91755 143.22 8.67301 150.447L11.5951 147.715ZM2.67406 120.481V39.521H-1.32594V120.481H2.67406ZM2.67406 39.521C2.67406 27.5349 5.73724 18.5533 11.5951 12.2867L8.67301 9.5552C1.91755 16.782 -1.32594 26.867 -1.32594 39.521H2.67406ZM11.5951 12.2867C17.4226 6.05273 25.9202 2.80097 37.4141 2.80097V-1.19903C25.1479 -1.19903 15.4589 2.29587 8.67301 9.5552L11.5951 12.2867ZM37.4141 2.80097C48.9079 2.80097 57.4056 6.05273 63.233 12.2867L66.1551 9.5552C59.3692 2.29587 49.6802 -1.19903 37.4141 -1.19903V2.80097ZM63.233 12.2867C69.0909 18.5533 72.1541 27.5349 72.1541 39.521H76.1541C76.1541 26.867 72.9106 16.782 66.1551 9.5552L63.233 12.2867ZM72.1541 39.521V120.481H76.1541V39.521H72.1541ZM72.1541 120.481C72.1541 132.467 69.0909 141.449 63.233 147.715L66.1551 150.447C72.9106 143.22 76.1541 133.135 76.1541 120.481H72.1541ZM63.233 147.715C57.4056 153.949 48.9079 157.201 37.4141 157.201V161.201C49.6802 161.201 59.3692 157.706 66.1551 150.447L63.233 147.715ZM37.4141 139.201C42.0137 139.201 45.7912 137.791 48.361 134.68C50.8704 131.642 51.9541 127.306 51.9541 122.021H47.9541C47.9541 126.856 46.9478 130.11 45.2771 132.132C43.667 134.081 41.1744 135.201 37.4141 135.201V139.201ZM51.9541 122.021V37.981H47.9541V122.021H51.9541ZM51.9541 37.981C51.9541 32.6957 50.8704 28.3599 48.361 25.3222C45.7912 22.2114 42.0137 20.801 37.4141 20.801V24.801C41.1744 24.801 43.667 25.9206 45.2771 27.8697C46.9478 29.8921 47.9541 33.1462 47.9541 37.981H51.9541ZM37.4141 20.801C32.8144 20.801 29.037 22.2114 26.4671 25.3222C23.9578 28.3599 22.8741 32.6957 22.8741 37.981H26.8741C26.8741 33.1462 27.8804 29.8921 29.551 27.8697C31.1612 25.9206 33.6537 24.801 37.4141 24.801V20.801ZM22.8741 37.981V122.021H26.8741V37.981H22.8741ZM22.8741 122.021C22.8741 127.306 23.9578 131.642 26.4671 134.68C29.037 137.791 32.8144 139.201 37.4141 139.201V135.201C33.6537 135.201 31.1612 134.081 29.551 132.132C27.8804 130.11 26.8741 126.856 26.8741 122.021H22.8741ZM97.78 149.301L96.3016 150.648L96.3097 150.657L96.3179 150.666L97.78 149.301ZM88.76 108.381V106.381H86.76V108.381H88.76ZM111.64 108.381H113.64V106.381H111.64V108.381ZM133.42 133.461L131.884 132.181L131.876 132.19L133.42 133.461ZM132.98 92.321L131.426 93.5794L131.441 93.598L131.456 93.6163L132.98 92.321ZM112.74 87.701H110.74V89.701H112.74V87.701ZM112.74 65.701V63.701H110.74V65.701H112.74ZM132.32 61.961L130.906 60.5468L130.884 60.5682L130.864 60.5902L132.32 61.961ZM132.76 26.541L134.26 25.2177V25.2177L132.76 26.541ZM112.3 47.221V49.221H114.3V47.221H112.3ZM89.42 47.221H87.42V49.221H89.42V47.221ZM98.44 10.701L96.9779 9.33634L96.9697 9.34512L96.9616 9.35399L98.44 10.701ZM151.24 10.701L149.762 12.048L149.769 12.0562L149.777 12.0644L151.24 10.701ZM156.08 64.601L157.826 65.5766L157.832 65.5659L157.838 65.5552L156.08 64.601ZM143.1 75.381L142.398 73.5083L141.1 73.995V75.381H143.1ZM143.1 75.821H141.1V77.2108L142.403 77.6954L143.1 75.821ZM156.74 87.261L154.971 88.1945L156.74 87.261ZM151.68 149.521L150.218 148.156L150.217 148.158L151.68 149.521ZM124.84 157.201C113.331 157.201 104.914 154.014 99.2421 147.936L96.3179 150.666C102.966 157.788 112.589 161.201 124.84 161.201V157.201ZM99.2584 147.954C93.69 141.842 90.76 132.933 90.76 120.921H86.76C86.76 133.549 89.8433 143.56 96.3016 150.648L99.2584 147.954ZM90.76 120.921V108.381H86.76V120.921H90.76ZM88.76 110.381H111.64V106.381H88.76V110.381ZM109.64 108.381V122.021H113.64V108.381H109.64ZM109.64 122.021C109.64 127.306 110.724 131.642 113.233 134.68C115.803 137.791 119.58 139.201 124.18 139.201V135.201C120.42 135.201 117.927 134.081 116.317 132.132C114.646 130.11 113.64 126.856 113.64 122.021H109.64ZM124.18 139.201C128.708 139.201 132.431 137.808 134.964 134.732L131.876 132.19C130.302 134.101 127.865 135.201 124.18 135.201V139.201ZM134.956 134.741C137.625 131.539 138.72 126.384 138.72 119.821H134.72C134.72 126.165 133.615 130.103 131.884 132.181L134.956 134.741ZM138.72 119.821V107.281H134.72V119.821H138.72ZM138.72 107.281C138.72 100.115 137.473 94.5185 134.504 91.0257L131.456 93.6163C133.474 95.9901 134.72 100.367 134.72 107.281H138.72ZM134.535 91.0626C131.525 87.3446 126.8 85.701 120.88 85.701V89.701C126.107 89.701 129.449 91.1373 131.426 93.5794L134.535 91.0626ZM120.88 85.701H112.74V89.701H120.88V85.701ZM114.74 87.701V65.701H110.74V87.701H114.74ZM112.74 67.701H121.54V63.701H112.74V67.701ZM121.54 67.701C126.699 67.701 130.917 66.3694 133.776 63.3317L130.864 60.5902C129.029 62.5392 126.061 63.701 121.54 63.701V67.701ZM133.734 63.3752C136.786 60.3233 138.06 55.4849 138.06 49.421H134.06C134.06 55.0904 132.841 58.612 130.906 60.5468L133.734 63.3752ZM138.06 49.421V38.201H134.06V49.421H138.06ZM138.06 38.201C138.06 32.7053 136.925 28.2387 134.26 25.2177L131.26 27.8642C132.995 29.8299 134.06 33.1366 134.06 38.201H138.06ZM134.26 25.2177C131.638 22.247 128.134 20.801 123.96 20.801V24.801C127.119 24.801 129.482 25.8483 131.26 27.8642L134.26 25.2177ZM123.96 20.801C119.645 20.801 116.085 22.1439 113.665 25.1121C111.308 28.0022 110.3 32.1138 110.3 37.101H114.3C114.3 32.5548 115.235 29.5164 116.765 27.6399C118.231 25.8414 120.502 24.801 123.96 24.801V20.801ZM110.3 37.101V47.221H114.3V37.101H110.3ZM112.3 45.221H89.42V49.221H112.3V45.221ZM91.42 47.221V39.081H87.42V47.221H91.42ZM91.42 39.081C91.42 27.0688 94.35 18.1596 99.9184 12.048L96.9616 9.35399C90.5033 16.4423 87.42 26.4531 87.42 39.081H91.42ZM99.9021 12.0656C105.588 5.97318 113.797 2.80097 124.84 2.80097V-1.19903C113.003 -1.19903 103.612 2.22876 96.9779 9.33634L99.9021 12.0656ZM124.84 2.80097C136.041 2.80097 144.232 5.97906 149.762 12.048L152.718 9.35399C146.221 2.22287 136.812 -1.19903 124.84 -1.19903V2.80097ZM149.777 12.0644C155.329 18.0225 158.26 26.8452 158.26 38.861H162.26C162.26 26.2367 159.178 16.2861 152.703 9.33752L149.777 12.0644ZM158.26 38.861V44.361H162.26V38.861H158.26ZM158.26 44.361C158.26 52.5225 156.896 58.9055 154.322 63.6468L157.838 65.5552C160.837 60.0298 162.26 52.9195 162.26 44.361H158.26ZM154.334 63.6253C151.801 68.158 147.867 71.4572 142.398 73.5083L143.802 77.2536C150.066 74.9048 154.786 71.0173 157.826 65.5766L154.334 63.6253ZM141.1 75.381V75.821H145.1V75.381H141.1ZM142.403 77.6954C148.311 79.8941 152.443 83.4049 154.971 88.1945L158.509 86.3275C155.463 80.557 150.502 76.4412 143.797 73.9465L142.403 77.6954ZM154.971 88.1945C157.56 93.0992 158.92 99.497 158.92 107.501H162.92C162.92 99.0783 161.494 91.9828 158.509 86.3275L154.971 88.1945ZM158.92 107.501V121.141H162.92V107.501H158.92ZM158.92 121.141C158.92 133.142 155.923 142.044 150.218 148.156L153.142 150.886C159.757 143.798 162.92 133.78 162.92 121.141H158.92ZM150.217 148.158C144.7 154.078 136.365 157.201 124.84 157.201V161.201C137.075 161.201 146.634 157.87 153.143 150.884L150.217 148.158Z" fill="#181818"/>
</svg>
