<svg width="167" height="160" viewBox="0 0 167 160" fill="none" xmlns="http://www.w3.org/2000/svg">
<path opacity="0.05" d="M10.1341 149.08L11.5951 147.714L10.1341 149.08ZM10.1341 10.92L11.5951 12.2858L10.1341 10.92ZM64.6941 10.92L63.233 12.2858V12.2858L64.6941 10.92ZM64.6941 149.08L63.233 147.714L64.6941 149.08ZM37.4141 157.2C25.9202 157.2 17.4226 153.948 11.5951 147.714L8.67301 150.446C15.4589 157.705 25.1479 161.2 37.4141 161.2V157.2ZM11.5951 147.714C5.73724 141.448 2.67406 132.466 2.67406 120.48H-1.32594C-1.32594 133.134 1.91755 143.219 8.67301 150.446L11.5951 147.714ZM2.67406 120.48V39.52H-1.32594V120.48H2.67406ZM2.67406 39.52C2.67406 27.5339 5.73724 18.5523 11.5951 12.2858L8.67301 9.55422C1.91755 16.781 -1.32594 26.8661 -1.32594 39.52H2.67406ZM11.5951 12.2858C17.4226 6.05176 25.9202 2.79999 37.4141 2.79999V-1.20001C25.1479 -1.20001 15.4589 2.2949 8.67301 9.55422L11.5951 12.2858ZM37.4141 2.79999C48.9079 2.79999 57.4056 6.05176 63.233 12.2858L66.1551 9.55423C59.3692 2.2949 49.6802 -1.20001 37.4141 -1.20001V2.79999ZM63.233 12.2858C69.0909 18.5523 72.1541 27.5339 72.1541 39.52H76.1541C76.1541 26.8661 72.9106 16.781 66.1551 9.55422L63.233 12.2858ZM72.1541 39.52V120.48H76.1541V39.52H72.1541ZM72.1541 120.48C72.1541 132.466 69.0909 141.448 63.233 147.714L66.1551 150.446C72.9106 143.219 76.1541 133.134 76.1541 120.48H72.1541ZM63.233 147.714C57.4056 153.948 48.9079 157.2 37.4141 157.2V161.2C49.6802 161.2 59.3692 157.705 66.1551 150.446L63.233 147.714ZM37.4141 139.2C42.0137 139.2 45.7912 137.79 48.361 134.679C50.8704 131.641 51.9541 127.305 51.9541 122.02H47.9541C47.9541 126.855 46.9478 130.109 45.2771 132.131C43.667 134.08 41.1744 135.2 37.4141 135.2V139.2ZM51.9541 122.02V37.98H47.9541V122.02H51.9541ZM51.9541 37.98C51.9541 32.6948 50.8704 28.3589 48.361 25.3212C45.7912 22.2104 42.0137 20.8 37.4141 20.8V24.8C41.1744 24.8 43.667 25.9196 45.2771 27.8688C46.9478 29.8911 47.9541 33.1452 47.9541 37.98H51.9541ZM37.4141 20.8C32.8144 20.8 29.037 22.2104 26.4671 25.3212C23.9578 28.3589 22.8741 32.6948 22.8741 37.98H26.8741C26.8741 33.1452 27.8804 29.8911 29.551 27.8688C31.1612 25.9196 33.6537 24.8 37.4141 24.8V20.8ZM22.8741 37.98V122.02H26.8741V37.98H22.8741ZM22.8741 122.02C22.8741 127.305 23.9578 131.641 26.4671 134.679C29.037 137.79 32.8144 139.2 37.4141 139.2V135.2C33.6537 135.2 31.1612 134.08 29.551 132.131C27.8804 130.109 26.8741 126.855 26.8741 122.02H22.8741ZM131 129.06H133V127.06H131V129.06ZM84.8 129.06H82.8V131.06H84.8V129.06ZM84.8 107.06L82.9579 106.281L82.8 106.655V107.06H84.8ZM128.8 2.99999V0.999989H127.474L126.958 2.22109L128.8 2.99999ZM155.2 2.99999H157.2V0.999989H155.2V2.99999ZM155.2 107.06H153.2V109.06H155.2V107.06ZM166.64 107.06H168.64V105.06H166.64V107.06ZM166.64 129.06V131.06H168.64V129.06H166.64ZM155.2 129.06V127.06H153.2V129.06H155.2ZM155.2 157V159H157.2V157H155.2ZM131 157H129V159H131V157ZM131 107.06V109.06H133V107.06H131ZM131 47H133V45H131V47ZM130.56 47V45H129.2L128.7 46.2643L130.56 47ZM106.8 107.06L104.94 106.324L103.858 109.06H106.8V107.06ZM131 127.06H84.8V131.06H131V127.06ZM86.8 129.06V107.06H82.8V129.06H86.8ZM86.6421 107.839L130.642 3.77889L126.958 2.22109L82.9579 106.281L86.6421 107.839ZM128.8 4.99999H155.2V0.999989H128.8V4.99999ZM153.2 2.99999V107.06H157.2V2.99999H153.2ZM155.2 109.06H166.64V105.06H155.2V109.06ZM164.64 107.06V129.06H168.64V107.06H164.64ZM166.64 127.06H155.2V131.06H166.64V127.06ZM153.2 129.06V157H157.2V129.06H153.2ZM155.2 155H131V159H155.2V155ZM133 157V129.06H129V157H133ZM133 107.06V47H129V107.06H133ZM131 45H130.56V49H131V45ZM128.7 46.2643L104.94 106.324L108.66 107.796L132.42 47.7357L128.7 46.2643ZM106.8 109.06H131V105.06H106.8V109.06Z" fill="#181818"/>
</svg>
