<svg width="163" height="160" viewBox="0 0 163 160" fill="none" xmlns="http://www.w3.org/2000/svg">
<path opacity="0.05" d="M10.1341 149.08L11.5951 147.714L10.1341 149.08ZM10.1341 10.92L11.5951 12.2858L10.1341 10.92ZM64.6941 10.92L63.233 12.2858V12.2858L64.6941 10.92ZM64.6941 149.08L63.233 147.714L64.6941 149.08ZM37.4141 157.2C25.9202 157.2 17.4226 153.948 11.5951 147.714L8.67301 150.446C15.4589 157.705 25.1479 161.2 37.4141 161.2V157.2ZM11.5951 147.714C5.73724 141.448 2.67406 132.466 2.67406 120.48H-1.32594C-1.32594 133.134 1.91755 143.219 8.67301 150.446L11.5951 147.714ZM2.67406 120.48V39.52H-1.32594V120.48H2.67406ZM2.67406 39.52C2.67406 27.5339 5.73724 18.5523 11.5951 12.2858L8.67301 9.55422C1.91755 16.781 -1.32594 26.8661 -1.32594 39.52H2.67406ZM11.5951 12.2858C17.4226 6.05176 25.9202 2.79999 37.4141 2.79999V-1.20001C25.1479 -1.20001 15.4589 2.2949 8.67301 9.55422L11.5951 12.2858ZM37.4141 2.79999C48.9079 2.79999 57.4056 6.05176 63.233 12.2858L66.1551 9.55423C59.3692 2.2949 49.6802 -1.20001 37.4141 -1.20001V2.79999ZM63.233 12.2858C69.0909 18.5523 72.1541 27.5339 72.1541 39.52H76.1541C76.1541 26.8661 72.9106 16.781 66.1551 9.55422L63.233 12.2858ZM72.1541 39.52V120.48H76.1541V39.52H72.1541ZM72.1541 120.48C72.1541 132.466 69.0909 141.448 63.233 147.714L66.1551 150.446C72.9106 143.219 76.1541 133.134 76.1541 120.48H72.1541ZM63.233 147.714C57.4056 153.948 48.9079 157.2 37.4141 157.2V161.2C49.6802 161.2 59.3692 157.705 66.1551 150.446L63.233 147.714ZM37.4141 139.2C42.0137 139.2 45.7912 137.79 48.361 134.679C50.8704 131.641 51.9541 127.305 51.9541 122.02H47.9541C47.9541 126.855 46.9478 130.109 45.2771 132.131C43.667 134.08 41.1744 135.2 37.4141 135.2V139.2ZM51.9541 122.02V37.98H47.9541V122.02H51.9541ZM51.9541 37.98C51.9541 32.6948 50.8704 28.3589 48.361 25.3212C45.7912 22.2104 42.0137 20.8 37.4141 20.8V24.8C41.1744 24.8 43.667 25.9196 45.2771 27.8688C46.9478 29.8911 47.9541 33.1452 47.9541 37.98H51.9541ZM37.4141 20.8C32.8144 20.8 29.037 22.2104 26.4671 25.3212C23.9578 28.3589 22.8741 32.6948 22.8741 37.98H26.8741C26.8741 33.1452 27.8804 29.8911 29.551 27.8688C31.1612 25.9196 33.6537 24.8 37.4141 24.8V20.8ZM22.8741 37.98V122.02H26.8741V37.98H22.8741ZM22.8741 122.02C22.8741 127.305 23.9578 131.641 26.4671 134.679C29.037 137.79 32.8144 139.2 37.4141 139.2V135.2C33.6537 135.2 31.1612 134.08 29.551 132.131C27.8804 130.109 26.8741 126.855 26.8741 122.02H22.8741ZM99.1 149.3L97.623 150.649L97.6304 150.657L97.6379 150.665L99.1 149.3ZM89.86 108.38V106.38H87.86V108.38H89.86ZM112.74 108.38H114.74V106.38H112.74V108.38ZM112.74 89.02V91.02H114.74V89.02H112.74ZM89.86 89.02L87.8626 88.9178L87.7551 91.02H89.86V89.02ZM94.26 2.99999V0.999989H92.3597L92.2626 2.89782L94.26 2.99999ZM158.06 2.99999H160.06V0.999989H158.06V2.99999ZM158.06 25V27H160.06V25H158.06ZM115.82 25V23H113.925L113.823 24.8924L115.82 25ZM113.84 61.74L111.843 61.6324L111.729 63.74H113.84V61.74ZM114.28 61.74V63.74H115.405L115.989 62.7788L114.28 61.74ZM155.2 59.54L153.605 60.7462H153.605L155.2 59.54ZM152.78 149.3L154.242 150.665L154.25 150.657L154.257 150.649L152.78 149.3ZM125.94 157.2C114.586 157.2 106.239 154.018 100.562 147.935L97.6379 150.665C104.281 157.782 113.827 161.2 125.94 161.2V157.2ZM100.577 147.951C94.8597 141.69 91.86 132.632 91.86 120.48H87.86C87.86 133.262 91.0203 143.417 97.623 150.649L100.577 147.951ZM91.86 120.48V108.38H87.86V120.48H91.86ZM89.86 110.38H112.74V106.38H89.86V110.38ZM110.74 108.38V122.24H114.74V108.38H110.74ZM110.74 122.24C110.74 127.457 111.826 131.743 114.342 134.745C116.915 137.814 120.69 139.2 125.28 139.2V135.2C121.51 135.2 119.015 134.092 117.408 132.175C115.744 130.19 114.74 126.996 114.74 122.24H110.74ZM125.28 139.2C129.87 139.2 133.645 137.814 136.218 134.745C138.734 131.743 139.82 127.457 139.82 122.24H135.82C135.82 126.996 134.816 130.19 133.152 132.175C131.545 134.092 129.05 135.2 125.28 135.2V139.2ZM139.82 122.24V87.7H135.82V122.24H139.82ZM139.82 87.7C139.82 82.4148 138.736 78.0789 136.227 75.0412C133.657 71.9304 129.88 70.52 125.28 70.52V74.52C129.04 74.52 131.533 75.6396 133.143 77.5888C134.814 79.6111 135.82 82.8652 135.82 87.7H139.82ZM125.28 70.52C120.68 70.52 116.903 71.9304 114.333 75.0412C111.824 78.0789 110.74 82.4148 110.74 87.7H114.74C114.74 82.8652 115.746 79.6111 117.417 77.5888C119.027 75.6396 121.52 74.52 125.28 74.52V70.52ZM110.74 87.7V89.02H114.74V87.7H110.74ZM112.74 87.02H89.86V91.02H112.74V87.02ZM91.8574 89.1222L96.2574 3.10216L92.2626 2.89782L87.8626 88.9178L91.8574 89.1222ZM94.26 4.99999H158.06V0.999989H94.26V4.99999ZM156.06 2.99999V25H160.06V2.99999H156.06ZM158.06 23H115.82V27H158.06V23ZM113.823 24.8924L111.843 61.6324L115.837 61.8476L117.817 25.1076L113.823 24.8924ZM113.84 63.74H114.28V59.74H113.84V63.74ZM115.989 62.7788C120.142 55.9461 126.431 52.52 135.18 52.52V48.52C125.156 48.52 117.511 52.5739 112.571 60.7012L115.989 62.7788ZM135.18 52.52C143.472 52.52 149.502 55.3205 153.605 60.7462L156.795 58.3338C151.804 51.7328 144.488 48.52 135.18 48.52V52.52ZM153.605 60.7462C157.784 66.2737 160.02 74.502 160.02 85.72H164.02C164.02 74.058 161.709 64.8329 156.795 58.3338L153.605 60.7462ZM160.02 85.72V120.48H164.02V85.72H160.02ZM160.02 120.48C160.02 132.632 157.02 141.69 151.303 147.951L154.257 150.649C160.86 143.417 164.02 133.262 164.02 120.48H160.02ZM151.318 147.935C145.641 154.018 137.294 157.2 125.94 157.2V161.2C138.053 161.2 147.599 157.782 154.242 150.665L151.318 147.935Z" fill="#181818"/>
</svg>
