<svg width="163" height="160" viewBox="0 0 163 160" fill="none" xmlns="http://www.w3.org/2000/svg">
<path opacity="0.05" d="M10.1341 149.08L11.5951 147.714L10.1341 149.08ZM10.1341 10.92L11.5951 12.2858L10.1341 10.92ZM64.6941 10.92L63.233 12.2858V12.2858L64.6941 10.92ZM64.6941 149.08L63.233 147.714L64.6941 149.08ZM37.4141 157.2C25.9202 157.2 17.4226 153.948 11.5951 147.714L8.67301 150.446C15.4589 157.705 25.1479 161.2 37.4141 161.2V157.2ZM11.5951 147.714C5.73724 141.448 2.67406 132.466 2.67406 120.48H-1.32594C-1.32594 133.134 1.91755 143.219 8.67301 150.446L11.5951 147.714ZM2.67406 120.48V39.52H-1.32594V120.48H2.67406ZM2.67406 39.52C2.67406 27.5339 5.73724 18.5523 11.5951 12.2858L8.67301 9.55422C1.91755 16.781 -1.32594 26.8661 -1.32594 39.52H2.67406ZM11.5951 12.2858C17.4226 6.05176 25.9202 2.79999 37.4141 2.79999V-1.20001C25.1479 -1.20001 15.4589 2.2949 8.67301 9.55422L11.5951 12.2858ZM37.4141 2.79999C48.9079 2.79999 57.4056 6.05176 63.233 12.2858L66.1551 9.55423C59.3692 2.2949 49.6802 -1.20001 37.4141 -1.20001V2.79999ZM63.233 12.2858C69.0909 18.5523 72.1541 27.5339 72.1541 39.52H76.1541C76.1541 26.8661 72.9106 16.781 66.1551 9.55422L63.233 12.2858ZM72.1541 39.52V120.48H76.1541V39.52H72.1541ZM72.1541 120.48C72.1541 132.466 69.0909 141.448 63.233 147.714L66.1551 150.446C72.9106 143.219 76.1541 133.134 76.1541 120.48H72.1541ZM63.233 147.714C57.4056 153.948 48.9079 157.2 37.4141 157.2V161.2C49.6802 161.2 59.3692 157.705 66.1551 150.446L63.233 147.714ZM37.4141 139.2C42.0137 139.2 45.7912 137.79 48.361 134.679C50.8704 131.641 51.9541 127.305 51.9541 122.02H47.9541C47.9541 126.855 46.9478 130.109 45.2771 132.131C43.667 134.08 41.1744 135.2 37.4141 135.2V139.2ZM51.9541 122.02V37.98H47.9541V122.02H51.9541ZM51.9541 37.98C51.9541 32.6948 50.8704 28.3589 48.361 25.3212C45.7912 22.2104 42.0137 20.8 37.4141 20.8V24.8C41.1744 24.8 43.667 25.9196 45.2771 27.8688C46.9478 29.8911 47.9541 33.1452 47.9541 37.98H51.9541ZM37.4141 20.8C32.8144 20.8 29.037 22.2104 26.4671 25.3212C23.9578 28.3589 22.8741 32.6948 22.8741 37.98H26.8741C26.8741 33.1452 27.8804 29.8911 29.551 27.8688C31.1612 25.9196 33.6537 24.8 37.4141 24.8V20.8ZM22.8741 37.98V122.02H26.8741V37.98H22.8741ZM22.8741 122.02C22.8741 127.305 23.9578 131.641 26.4671 134.679C29.037 137.79 32.8144 139.2 37.4141 139.2V135.2C33.6537 135.2 31.1612 134.08 29.551 132.131C27.8804 130.109 26.8741 126.855 26.8741 122.02H22.8741ZM98.88 149.08L97.4189 150.446L98.88 149.08ZM153.22 10.92L151.743 12.2685L151.75 12.2766L151.758 12.2846L153.22 10.92ZM162.46 42.38V44.38H164.46V42.38H162.46ZM139.58 42.38H137.58V44.38H139.58V42.38ZM113.62 71.2H111.62V73.2H113.62V71.2ZM114.06 71.2V73.2H115.324L115.866 72.0587L114.06 71.2ZM153.44 149.08L154.901 150.446L153.44 149.08ZM126.16 157.2C114.666 157.2 106.168 153.948 100.341 147.714L97.4189 150.446C104.205 157.705 113.894 161.2 126.16 161.2V157.2ZM100.341 147.714C94.4832 141.448 91.42 132.466 91.42 120.48H87.42C87.42 133.134 90.6635 143.219 97.4189 150.446L100.341 147.714ZM91.42 120.48V40.84H87.42V120.48H91.42ZM91.42 40.84C91.42 27.7637 94.441 18.3293 100.13 12.1666C105.79 6.03409 114.411 2.79999 126.38 2.79999V-1.20001C113.709 -1.20001 103.85 2.23923 97.1904 9.45343C90.5591 16.6374 87.42 27.223 87.42 40.84H91.42ZM126.38 2.79999C137.721 2.79999 146.063 6.04753 151.743 12.2685L154.697 9.57145C148.057 2.29912 138.506 -1.20001 126.38 -1.20001V2.79999ZM151.758 12.2846C157.459 18.393 160.46 27.3651 160.46 39.52H164.46C164.46 26.7415 161.301 16.647 154.682 9.55536L151.758 12.2846ZM160.46 39.52V42.38H164.46V39.52H160.46ZM162.46 40.38H139.58V44.38H162.46V40.38ZM141.58 42.38V37.98H137.58V42.38H141.58ZM141.58 37.98C141.58 32.6948 140.496 28.3589 137.987 25.3212C135.417 22.2104 131.64 20.8 127.04 20.8V24.8C130.8 24.8 133.293 25.9196 134.903 27.8688C136.574 29.8911 137.58 33.1452 137.58 37.98H141.58ZM127.04 20.8C122.068 20.8 118.032 22.3437 115.35 25.7407L118.49 28.2193C120.208 26.043 122.918 24.8 127.04 24.8V20.8ZM115.35 25.7407C112.705 29.0908 111.62 34.6038 111.62 41.72H115.62C115.62 34.7562 116.735 30.4425 118.49 28.2193L115.35 25.7407ZM111.62 41.72V71.2H115.62V41.72H111.62ZM113.62 73.2H114.06V69.2H113.62V73.2ZM115.866 72.0587C117.852 67.8814 120.505 64.8469 123.792 62.8424C127.084 60.8341 131.143 59.78 136.06 59.78V55.78C130.564 55.78 125.75 56.9626 121.708 59.4276C117.661 61.8964 114.521 65.5719 112.254 70.3413L115.866 72.0587ZM136.06 59.78C144.352 59.78 150.382 62.5805 154.485 68.0062L157.675 65.5938C152.684 58.9928 145.368 55.78 136.06 55.78V59.78ZM154.485 68.0062C158.664 73.5337 160.9 81.762 160.9 92.98H164.9C164.9 81.318 162.589 72.0929 157.675 65.5938L154.485 68.0062ZM160.9 92.98V120.48H164.9V92.98H160.9ZM160.9 120.48C160.9 132.466 157.837 141.448 151.979 147.714L154.901 150.446C161.657 143.219 164.9 133.134 164.9 120.48H160.9ZM151.979 147.714C146.152 153.948 137.654 157.2 126.16 157.2V161.2C138.426 161.2 148.115 157.705 154.901 150.446L151.979 147.714ZM126.16 139.2C130.75 139.2 134.525 137.814 137.098 134.745C139.614 131.743 140.7 127.457 140.7 122.24H136.7C136.7 126.996 135.696 130.19 134.032 132.175C132.425 134.092 129.93 135.2 126.16 135.2V139.2ZM140.7 122.24V94.96H136.7V122.24H140.7ZM140.7 94.96C140.7 89.6748 139.616 85.3389 137.107 82.3012C134.537 79.1904 130.76 77.78 126.16 77.78V81.78C129.92 81.78 132.413 82.8996 134.023 84.8488C135.694 86.8711 136.7 90.1252 136.7 94.96H140.7ZM126.16 77.78C121.56 77.78 117.783 79.1904 115.213 82.3012C112.704 85.3389 111.62 89.6748 111.62 94.96H115.62C115.62 90.1252 116.626 86.8711 118.297 84.8488C119.907 82.8996 122.4 81.78 126.16 81.78V77.78ZM111.62 94.96V122.24H115.62V94.96H111.62ZM111.62 122.24C111.62 127.457 112.706 131.743 115.222 134.745C117.795 137.814 121.57 139.2 126.16 139.2V135.2C122.39 135.2 119.895 134.092 118.288 132.175C116.624 130.19 115.62 126.996 115.62 122.24H111.62Z" fill="#181818"/>
</svg>
