<svg width="24" height="24" viewBox="0 0 24 24" fill="none" xmlns="http://www.w3.org/2000/svg">
<path d="M23.6 8H20.96C20.0173 8.00102 19.0922 7.74531 18.2838 7.26031C17.4755 6.7753 16.8145 6.07932 16.3718 5.24707L15.8824 4.32939C15.3888 3.40175 14.579 2.68177 13.6 2.3001V1.6C13.6 1.17565 13.4314 0.768687 13.1314 0.468629C12.8313 0.168571 12.4243 0 12 0C11.5757 0 11.1687 0.168571 10.8686 0.468629C10.5686 0.768687 10.4 1.17565 10.4 1.6V2.3001C9.42098 2.68178 8.61122 3.40175 8.11763 4.3294L7.62825 5.24707C7.18553 6.07933 6.52452 6.7753 5.71618 7.2603C4.90783 7.74531 3.98267 8.00102 3.03999 8H0.4C0.293914 8 0.192173 8.04214 0.117158 8.11716C0.0421441 8.19217 1.06085e-06 8.29391 0 8.4V10C1.06085e-06 10.1061 0.0421441 10.2078 0.117158 10.2828C0.192173 10.3579 0.293914 10.4 0.4 10.4H3.02891L1.71981 14H1.2C1.09391 14 0.992173 14.0421 0.917159 14.1172C0.842144 14.1922 0.800001 14.2939 0.8 14.4C0.8 15.2487 1.13714 16.0626 1.73726 16.6627C2.33737 17.2629 3.15131 17.6 4 17.6C4.84869 17.6 5.66263 17.2629 6.26274 16.6627C6.86286 16.0626 7.2 15.2487 7.2 14.4C7.2 14.2939 7.15786 14.1922 7.08284 14.1172C7.00783 14.0421 6.90609 14 6.8 14H6.28019L4.97109 10.4H5.94678C7.10947 10.4001 8.23267 9.97811 9.10759 9.21235L10.1603 8.29121C10.2367 8.22462 10.3168 8.16224 10.4 8.10435V18.7056L9.75278 20H8.8C8.7379 20 8.67666 20.0145 8.62111 20.0422C8.56557 20.07 8.51726 20.1103 8.48001 20.16L7.40001 21.6H5.6C5.49391 21.6 5.39217 21.6421 5.31716 21.7172C5.24214 21.7922 5.2 21.8939 5.2 22V23.6C5.2 23.7061 5.24214 23.8078 5.31716 23.8828C5.39217 23.9579 5.49391 24 5.6 24H18.4C18.5061 24 18.6078 23.9579 18.6828 23.8828C18.7579 23.8078 18.8 23.7061 18.8 23.6V22C18.8 21.8939 18.7579 21.7922 18.6828 21.7172C18.6078 21.6421 18.5061 21.6 18.4 21.6H16.6L15.52 20.16C15.4827 20.1103 15.4344 20.07 15.3789 20.0422C15.3233 20.0145 15.2621 20 15.2 20H14.2472L13.6 18.7056V8.10435C13.6832 8.16224 13.7633 8.22462 13.8397 8.29121H13.8397L14.8924 9.21235C15.7673 9.97811 16.8905 10.4001 18.0532 10.4H19.0289L17.7198 14H17.2C17.0939 14 16.9922 14.0421 16.9172 14.1172C16.8421 14.1922 16.8 14.2939 16.8 14.4C16.8 15.2487 17.1371 16.0626 17.7373 16.6627C18.3374 17.2629 19.1513 17.6 20 17.6C20.8487 17.6 21.6626 17.2629 22.2627 16.6627C22.8629 16.0626 23.2 15.2487 23.2 14.4C23.2 14.2939 23.1579 14.1922 23.0828 14.1172C23.0078 14.0421 22.9061 14 22.8 14H22.2802L20.9711 10.4H23.6C23.7061 10.4 23.8078 10.3579 23.8828 10.2828C23.9579 10.2078 24 10.1061 24 10V8.4C24 8.29391 23.9579 8.19217 23.8828 8.11716C23.8078 8.04214 23.7061 8 23.6 8V8ZM11.2 1.6C11.2 1.38783 11.2843 1.18434 11.4343 1.03431C11.5843 0.884285 11.7878 0.8 12 0.8C12.2122 0.8 12.4157 0.884285 12.5657 1.03431C12.7157 1.18434 12.8 1.38783 12.8 1.6V2.07339C12.2712 1.97554 11.7288 1.97554 11.2 2.07339V1.6ZM4 16.8C3.433 16.7993 2.88451 16.5982 2.45144 16.2322C2.01837 15.8662 1.7286 15.3589 1.63333 14.8H6.36667C6.2714 15.3589 5.98163 15.8662 5.54856 16.2322C5.11549 16.5982 4.567 16.7993 4 16.8V16.8ZM5.42891 14H2.57109L3.88019 10.4H4.11981L5.42891 14ZM18 23.2H6V22.4H18V23.2ZM15.6 21.6H8.4L9 20.8H15L15.6 21.6ZM12.8422 18.9789L13.3528 20H10.6472L11.1578 18.9789C11.1855 18.9234 11.2 18.8621 11.2 18.8V7.71768C11.7218 7.56077 12.2782 7.56077 12.8 7.71768V18.8C12.8 18.8621 12.8145 18.9234 12.8422 18.9789V18.9789ZM20 16.8C19.433 16.7993 18.8845 16.5982 18.4514 16.2322C18.0184 15.8662 17.7286 15.3589 17.6333 14.8H22.3667C22.2714 15.3589 21.9816 15.8662 21.5486 16.2322C21.1155 16.5982 20.567 16.7993 20 16.8V16.8ZM21.4289 14H18.5711L19.8802 10.4H20.1198L21.4289 14ZM23.2 9.6H18.0532C17.0843 9.60012 16.1483 9.24843 15.4192 8.6103L14.3665 7.68916H14.3665C13.7114 7.11595 12.8705 6.8 12 6.8C11.1295 6.8 10.2886 7.11595 9.6335 7.68916L8.58079 8.6103C7.85169 9.24843 6.91569 9.60012 5.94678 9.6H0.8V8.8H3.03999C4.1277 8.80118 5.1952 8.50613 6.1279 7.94651C7.06061 7.38689 7.82331 6.58383 8.33413 5.62354L8.82351 4.70586C9.13057 4.13015 9.58831 3.64871 10.1478 3.31302C10.7073 2.97733 11.3475 2.8 12 2.8C12.6525 2.8 13.2927 2.97733 13.8522 3.31302C14.4117 3.64871 14.8694 4.13015 15.1765 4.70586L15.6659 5.62354C16.1767 6.58383 16.9394 7.38689 17.8721 7.94651C18.8048 8.50613 19.8723 8.80119 20.96 8.8H23.2V9.6Z" fill="#5D5D5D"/>
<path d="M12 3.59993C11.7627 3.59993 11.5307 3.67031 11.3334 3.80217C11.136 3.93402 10.9822 4.12144 10.8914 4.34071C10.8006 4.55998 10.7768 4.80126 10.8231 5.03404C10.8694 5.26682 10.9837 5.48063 11.1515 5.64846C11.3193 5.81628 11.5332 5.93057 11.7659 5.97687C11.9987 6.02317 12.24 5.99941 12.4593 5.90859C12.6785 5.81776 12.866 5.66395 12.9978 5.46661C13.1297 5.26927 13.2 5.03727 13.2 4.79993C13.1997 4.48178 13.0731 4.17676 12.8482 3.9518C12.6232 3.72683 12.3182 3.60029 12 3.59993V3.59993ZM12 5.19993C11.9209 5.19993 11.8436 5.17647 11.7778 5.13252C11.712 5.08856 11.6608 5.02609 11.6305 4.953C11.6002 4.87991 11.5923 4.79949 11.6077 4.72189C11.6232 4.6443 11.6613 4.57303 11.7172 4.51709C11.7731 4.46115 11.8444 4.42305 11.922 4.40762C11.9996 4.39218 12.08 4.4001 12.1531 4.43038C12.2262 4.46065 12.2887 4.51192 12.3326 4.5777C12.3766 4.64348 12.4 4.72082 12.4 4.79993C12.3999 4.90598 12.3577 5.00765 12.2828 5.08264C12.2078 5.15763 12.1061 5.19981 12 5.19993V5.19993Z" fill="#5D5D5D"/>
</svg>
