<svg width="61" height="16" viewBox="0 0 61 16" fill="none" xmlns="http://www.w3.org/2000/svg">
<path d="M60.7386 7.37538L53.443 0.255597C53.2742 0.0907923 53.049 0 52.8088 0C52.5686 0 52.3434 0.0907923 52.1746 0.255597L51.6374 0.779799C51.2877 1.12138 51.2877 1.67654 51.6374 2.01759L57.7637 7.99636L51.6306 13.9818C51.4618 14.1466 51.3687 14.3663 51.3687 14.6005C51.3687 14.835 51.4618 15.0547 51.6306 15.2197L52.1678 15.7437C52.3367 15.9086 52.5618 15.9993 52.802 15.9993C53.0422 15.9993 53.2674 15.9086 53.4362 15.7437L60.7386 8.61746C60.9078 8.45214 61.0007 8.2314 61.0001 7.99675C61.0007 7.76118 60.9078 7.54057 60.7386 7.37538Z" fill="url(#paint0_linear_64_61)"/>
<path opacity="0.6" d="M43.6146 7.37538L36.3189 0.255597C36.1502 0.0907923 35.925 0 35.6848 0C35.4446 0 35.2193 0.0907923 35.0506 0.255597L34.5133 0.779799C34.1637 1.12138 34.1637 1.67654 34.5133 2.01759L40.6397 7.99636L34.5065 13.9818C34.3378 14.1466 34.2446 14.3663 34.2446 14.6005C34.2446 14.835 34.3378 15.0547 34.5065 15.2197L35.0438 15.7437C35.2127 15.9086 35.4378 15.9993 35.678 15.9993C35.9182 15.9993 36.1434 15.9086 36.3122 15.7437L43.6146 8.61746C43.7837 8.45214 43.8766 8.2314 43.8761 7.99675C43.8766 7.76118 43.7837 7.54057 43.6146 7.37538Z" fill="url(#paint1_linear_64_61)"/>
<path opacity="0.4" d="M26.4925 7.37538L19.1969 0.255597C19.0281 0.0907923 18.8029 0 18.5627 0C18.3225 0 18.0973 0.0907923 17.9285 0.255597L17.3913 0.779799C17.0417 1.12138 17.0417 1.67654 17.3913 2.01759L23.5176 7.99636L17.3845 13.9818C17.2157 14.1466 17.1226 14.3663 17.1226 14.6005C17.1226 14.835 17.2157 15.0547 17.3845 15.2197L17.9217 15.7437C18.0906 15.9086 18.3157 15.9993 18.5559 15.9993C18.7961 15.9993 19.0213 15.9086 19.1901 15.7437L26.4925 8.61746C26.6617 8.45214 26.7546 8.2314 26.754 7.99675C26.7546 7.76118 26.6617 7.54057 26.4925 7.37538Z" fill="url(#paint2_linear_64_61)"/>
<path opacity="0.2" d="M9.36996 7.37636L2.07432 0.256574C1.90558 0.0917689 1.68033 0.000976562 1.44015 0.000976562C1.19997 0.000976562 0.974716 0.0917689 0.805977 0.256574L0.268703 0.780776C-0.0809041 1.12235 -0.0809041 1.67751 0.268703 2.01857L6.39503 7.99733L0.261906 13.9827C0.0931665 14.1475 0 14.3672 0 14.6015C0 14.836 0.0931665 15.0557 0.261906 15.2207L0.799179 15.7447C0.968052 15.9095 1.19317 16.0003 1.43335 16.0003C1.67353 16.0003 1.89878 15.9095 2.06752 15.7447L9.36996 8.61844C9.5391 8.45312 9.632 8.23238 9.63147 7.99772C9.632 7.76216 9.5391 7.54155 9.36996 7.37636Z" fill="url(#paint3_linear_64_61)"/>
<defs>
<linearGradient id="paint0_linear_64_61" x1="51.3687" y1="9.62924" x2="61.0001" y2="9.62924" gradientUnits="userSpaceOnUse">
<stop stop-color="#0068F3"/>
<stop offset="1" stop-color="#238FFF"/>
</linearGradient>
<linearGradient id="paint1_linear_64_61" x1="34.2446" y1="9.62924" x2="43.8761" y2="9.62924" gradientUnits="userSpaceOnUse">
<stop stop-color="#0068F3"/>
<stop offset="1" stop-color="#238FFF"/>
</linearGradient>
<linearGradient id="paint2_linear_64_61" x1="17.1226" y1="9.62924" x2="26.754" y2="9.62924" gradientUnits="userSpaceOnUse">
<stop stop-color="#0068F3"/>
<stop offset="1" stop-color="#238FFF"/>
</linearGradient>
<linearGradient id="paint3_linear_64_61" x1="8.23174e-09" y1="9.63021" x2="9.63147" y2="9.63021" gradientUnits="userSpaceOnUse">
<stop stop-color="#0068F3"/>
<stop offset="1" stop-color="#238FFF"/>
</linearGradient>
</defs>
</svg>
