<svg width="12" height="19" viewBox="0 0 12 19" fill="none" xmlns="http://www.w3.org/2000/svg">
<path d="M6.68502 18.7301L6.68594 18.7292L11.7182 13.9204C12.0952 13.5602 12.0938 12.9775 11.7149 12.6189C11.3361 12.2603 10.7234 12.2617 10.3463 12.6219L6.96774 15.8506L6.96774 0.920312C6.96774 0.412023 6.53448 -2.38905e-07 6 -2.62268e-07C5.46552 -2.85631e-07 5.03226 0.412023 5.03226 0.920311L5.03226 15.8505L1.65367 12.622C1.27664 12.2617 0.663916 12.2604 0.285094 12.6189C-0.0938259 12.9775 -0.0951315 13.5603 0.281803 13.9205L5.31406 18.7293L5.31498 18.7301C5.69327 19.0905 6.30798 19.0894 6.68502 18.7301Z" fill="white"/>
</svg>
