<svg width="56" height="56" viewBox="0 0 56 56" fill="none" xmlns="http://www.w3.org/2000/svg">
<g clip-path="url(#clip0_1109_2230)">
<path d="M51.4872 54.6033C52.143 53.0127 51.9884 51.1226 51.0476 49.6686C50.7271 49.1722 50.352 48.7454 49.9354 48.3912L44.5991 43.7363L40.5933 47.7422L45.2426 53.0836C45.3378 53.1964 45.4382 53.3058 45.5446 53.4118C47.1515 55.0182 49.5086 55.4138 51.4872 54.6033V54.6033Z" fill="#91552C"/>
<path d="M40.5931 47.743L44.6708 43.665L41.3656 40.7832L41.3626 40.7866L37.7144 44.4344L40.5931 47.743Z" fill="#57555C"/>
<path d="M25.0064 11.1953L11.0854 25.1163L15.9757 30.0061L16.7486 30.7794L20.5955 26.9329C20.6019 26.9252 20.6083 26.9184 20.6152 26.912L26.8021 20.725C26.8085 20.7182 26.8154 20.7118 26.8231 20.7054L30.6696 16.8585L25.0064 11.1953Z" fill="#FEB756"/>
<path d="M27.0601 26.6548C27.4877 26.228 27.7009 25.6683 27.7009 25.1082C27.7009 24.5481 27.4877 23.9884 27.0601 23.5607C26.2111 22.7131 24.8418 22.7062 23.9869 23.5411L20.5958 26.9321C20.181 27.3551 19.9746 27.9062 19.9746 28.4578C19.9746 29.0175 20.1878 29.5776 20.6155 30.0053C21.4695 30.8594 22.8551 30.8594 23.7096 30.0053L24.4825 29.232L37.7135 44.4326L37.7331 44.415L41.4698 40.6784L41.4728 40.6749L26.2867 27.4282L27.0601 26.6548Z" fill="#91552C"/>
<path d="M25.1555 49.5449H12.3228C9.90668 49.5449 7.94775 51.5034 7.94775 53.9195V55.0132H29.5301V53.9195C29.5301 51.5034 27.5716 49.5449 25.1555 49.5449V49.5449Z" fill="#91552C"/>
<path d="M27.343 46.8105C27.343 45.3002 26.119 44.0762 24.6087 44.0762H12.8696C12.1147 44.0762 11.4302 44.3825 10.9359 44.8768C10.4416 45.3712 10.1353 46.056 10.1353 46.8105C10.1353 48.3209 11.3589 49.5449 12.8696 49.5449H24.6087C25.3632 49.5449 26.048 49.2386 26.5424 48.7443C27.0367 48.2499 27.343 47.5651 27.343 46.8105Z" fill="#91552C"/>
<path d="M25.2878 6.8363C24.0069 8.11719 24.0069 10.1949 25.2878 11.4758L29.8965 16.0849C31.1774 17.3654 33.2551 17.3654 34.536 16.0845C35.8177 14.8027 35.8177 12.7259 34.536 11.4442L29.9281 6.8363C29.2873 6.19543 28.4473 5.875 27.6073 5.875C26.7686 5.875 25.9287 6.19543 25.2878 6.8363V6.8363Z" fill="#91552C"/>
<path d="M15.976 34.6451C17.2565 33.3643 17.2565 31.2866 15.976 30.0057L11.3669 25.3965C10.7273 24.757 9.88733 24.4365 9.04736 24.4365C8.2074 24.4365 7.36743 24.757 6.72742 25.3965C5.44568 26.6787 5.44568 28.7556 6.72742 30.0373L11.3353 34.6451C12.617 35.9269 14.6939 35.9269 15.976 34.6451V34.6451Z" fill="#91552C"/>
<path d="M11.3354 19.1782C10.9077 19.6059 10.9077 20.298 11.3354 20.7248C11.7618 21.1525 12.4552 21.1525 12.882 20.7248C13.3093 20.298 13.3093 19.6059 12.882 19.1782C12.4552 18.7518 11.7618 18.7518 11.3354 19.1782Z" fill="black"/>
<path d="M27.6937 49.0779C28.1761 48.4251 28.4367 47.6377 28.4367 46.8105C28.4367 44.7 26.7191 42.9824 24.6085 42.9824H6.0152C4.99238 42.9824 4.03107 43.3806 3.3086 44.1035C2.5857 44.826 2.1875 45.7877 2.1875 46.8105C2.1875 47.6582 2.46479 48.4418 2.93262 49.0767C1.19116 49.9922 0 51.8192 0 53.9195V55.0132C0 55.6174 0.489624 56.107 1.09375 56.107H29.53C30.1341 56.107 30.6237 55.6174 30.6237 55.0132V53.9195C30.6237 51.82 29.4339 49.9944 27.6937 49.0779V49.0779ZM4.85523 45.6501C5.16498 45.3404 5.57685 45.1699 6.0152 45.1699H24.6085C25.513 45.1699 26.2492 45.9056 26.2492 46.8105C26.2492 47.2489 26.0783 47.6608 25.7685 47.9705C25.4592 48.2803 25.0469 48.4507 24.6085 48.4507H6.0152C5.11072 48.4507 4.375 47.715 4.375 46.8105C4.375 46.3718 4.54548 45.9599 4.85523 45.6501ZM2.1875 53.9195C2.1875 52.1105 3.65937 50.6387 5.46876 50.6387H25.1554C26.9644 50.6387 28.4367 52.1105 28.4367 53.9195H2.1875Z" fill="black"/>
<path d="M54.9821 46.0602C54.6108 45.4847 54.1678 44.9758 53.6649 44.5473L48.5542 40.0898C48.5145 40.03 48.4683 39.9732 48.4158 39.9202C48.3269 39.8318 48.2261 39.7626 48.1193 39.7104L45.0286 37.0149L30.7235 24.5364C31.3088 23.9241 31.6314 23.1234 31.6314 22.2724C31.6314 21.3952 31.29 20.5711 30.6697 19.9507C30.3992 19.6807 30.0916 19.4679 29.7626 19.3124L31.0862 17.9888C31.4562 18.0875 31.836 18.1375 32.2167 18.1375C33.3365 18.1375 34.4568 17.7111 35.3096 16.8587C36.1363 16.032 36.5913 14.9331 36.5913 13.765C36.5913 12.5965 36.1363 11.4976 35.3096 10.6713L26.0293 1.39112C25.203 0.564393 24.1042 0.109375 22.9352 0.109375C21.7671 0.109375 20.6687 0.564393 19.8424 1.39112C18.6999 2.53315 18.3239 4.1554 18.7119 5.61445L5.50741 18.8189C5.14254 18.722 4.76272 18.6707 4.3752 18.6707C3.20626 18.6707 2.10781 19.1253 1.28194 19.9511C-0.424057 21.6571 -0.424057 24.4325 1.28194 26.1385L10.5622 35.4188C11.4149 36.2715 12.5356 36.6979 13.6559 36.6979C14.7761 36.6979 15.8963 36.2715 16.7495 35.4188C17.8916 34.2763 18.268 32.6545 17.88 31.1954L19.2007 29.8744C19.3592 30.2059 19.5745 30.5118 19.8424 30.7793C20.4619 31.3988 21.286 31.7402 22.1628 31.7402C23.013 31.7402 23.8132 31.4184 24.4263 30.8335L39.6628 48.3395C39.7046 48.4049 39.7538 48.4673 39.811 48.525C39.8307 48.5442 39.8516 48.5621 39.8721 48.5801L44.4125 53.7963C44.5253 53.9296 44.6462 54.0608 44.7714 54.186C46.0181 55.4323 47.6651 56.109 49.3946 56.109C49.6992 56.109 50.0068 56.0881 50.3153 56.0454C52.3746 55.7604 54.1545 54.5282 55.1983 52.665C56.3412 50.6223 56.2562 48.0294 54.9821 46.0602V46.0602ZM39.2095 44.4862L44.3608 39.3345L46.0134 40.7756L40.6489 46.1401L39.2095 44.4862ZM25.9781 29.2843L29.1743 26.0877L42.7086 37.8934L37.7701 42.8319L25.9781 29.2843ZM21.389 2.93775C21.8022 2.5246 22.3516 2.29688 22.9352 2.29688C23.5197 2.29688 24.0696 2.5246 24.4827 2.93775L33.7629 12.218C34.1765 12.6311 34.4038 13.1806 34.4038 13.765C34.4038 14.3491 34.1765 14.8985 33.7629 15.3117C32.9106 16.1645 31.5229 16.1645 30.6701 15.3117L21.3894 6.03101C21.3894 6.03101 21.3894 6.03101 21.389 6.03059C20.5362 5.1778 20.5362 3.79053 21.389 2.93775V2.93775ZM15.2025 33.8721C14.3497 34.7249 12.9616 34.7249 12.1088 33.8721L2.82857 24.5919C1.97579 23.7391 1.97579 22.351 2.82857 21.4982C3.24129 21.0855 3.7903 20.8582 4.3752 20.8582C4.95925 20.8582 5.50826 21.0855 5.92098 21.4978L15.2025 30.7793C16.0553 31.6321 16.0553 33.0193 15.2025 33.8721V33.8721ZM7.46847 19.9516L19.8424 7.57722L29.123 16.8583L26.0592 19.9225C26.0494 19.9319 26.0396 19.9409 26.0293 19.9511L19.8454 26.1351C19.8326 26.1479 19.8202 26.1612 19.8078 26.1744L16.7495 29.2326L7.46847 19.9516ZM22.1628 29.5527C21.8701 29.5527 21.5954 29.439 21.389 29.2326C21.1822 29.0259 21.0682 28.7507 21.0682 28.458C21.0682 28.1718 21.1775 27.9026 21.3758 27.6993L27.5884 21.4867C28.0143 21.0727 28.7026 21.0778 29.1235 21.4982C29.3302 21.705 29.4439 21.9797 29.4439 22.2724C29.4439 22.5646 29.3307 22.8389 29.1235 23.0453L28.3578 23.8113C28.3523 23.8164 28.3471 23.8216 28.342 23.8267L23.7128 28.4559C23.7107 28.458 23.7085 28.4602 23.7064 28.4623L22.9365 29.2326C22.7297 29.439 22.455 29.5527 22.1628 29.5527V29.5527ZM53.2898 51.596C52.5836 52.8564 51.3903 53.6882 50.0154 53.8784C48.6435 54.0685 47.2955 53.6165 46.3176 52.6389C46.2338 52.5552 46.1531 52.4676 46.0783 52.3787C46.0745 52.3745 46.071 52.3702 46.0676 52.3663L42.0887 47.794L47.6655 42.2171L52.2319 46.1999C52.2354 46.2029 52.2388 46.2059 52.2426 46.2089C52.5844 46.4998 52.8878 46.8485 53.145 47.2475C53.9721 48.5254 54.0298 50.2733 53.2898 51.596V51.596Z" fill="black"/>
<path d="M20.6152 11.4441C20.188 11.0173 19.4959 11.0173 19.0682 11.4441L14.4279 16.0849C14.0006 16.5121 14.0006 17.2047 14.4279 17.6315C14.6415 17.8451 14.9213 17.952 15.2012 17.952C15.481 17.952 15.7609 17.8451 15.9745 17.6315L20.6152 12.9908C21.0425 12.564 21.0425 11.8714 20.6152 11.4441Z" fill="black"/>
</g>
<defs>
<clipPath id="clip0_1109_2230">
<rect width="56" height="56" fill="white"/>
</clipPath>
</defs>
</svg>
