<svg width="54" height="54" viewBox="0 0 54 54" fill="none" xmlns="http://www.w3.org/2000/svg">
<g clip-path="url(#clip0_1109_2312)">
<path d="M37.5469 44.1914V10.7578L28.346 1.05469H14.4492C13.2841 1.05469 12.3398 1.99896 12.3398 3.16406V44.1914C12.3398 45.3565 13.2841 46.3008 14.4492 46.3008H35.4375C36.6026 46.3008 37.5469 45.3565 37.5469 44.1914Z" fill="#C0E3F0"/>
<path d="M50.2031 20.0391V50.8359C50.2031 52.0014 49.2593 52.9453 48.0938 52.9453H22.7812C21.6157 52.9453 20.6719 52.0014 20.6719 50.8359V20.0391C20.6719 18.8736 21.6157 17.9297 22.7812 17.9297H48.0938C49.2593 17.9297 50.2031 18.8736 50.2031 20.0391Z" fill="white"/>
<path d="M50.203 50.8359V20.0391C50.203 18.8736 49.2591 17.9297 48.0936 17.9297H31.7109C30.5454 17.9297 29.6016 18.8736 29.6016 20.0391V50.8359C29.6016 52.0014 30.5454 52.9453 31.7109 52.9453H48.0936C49.2591 52.9453 50.203 52.0014 50.203 50.8359Z" fill="#57555C"/>
<path d="M41.7656 35.7539H45.9844V48.4102H41.7656V35.7539Z" fill="#C0E3F0"/>
<path d="M45.9844 22.4648V31.5352H24.8906V22.4648H45.9844Z" fill="white"/>
<path d="M45.9844 22.4648V31.5352H29.7422V22.4648H45.9844Z" fill="#3BCD92"/>
<path d="M33.3281 44.1914H37.5469V48.4102H33.3281V44.1914Z" fill="#C0E3F0"/>
<path d="M33.3281 35.7539H37.5469V39.9727H33.3281V35.7539Z" fill="#C0E3F0"/>
<path d="M37.5469 10.5038V11.6017H31.2188C30.0532 11.6017 29.1094 10.6579 29.1094 9.49237V1.19824C29.3912 1.30701 29.6495 1.47675 29.8633 1.69839L36.954 9.03795C37.3347 9.4314 37.5469 9.95627 37.5469 10.5038V10.5038Z" fill="#FEB756"/>
<path d="M24.8906 44.1914H29.1094V48.4102H24.8906V44.1914Z" fill="#C0E3F0"/>
<path d="M24.8906 35.7539H29.1094V39.9727H24.8906V35.7539Z" fill="#C0E3F0"/>
<path d="M29.1094 27.7383C29.6915 27.7383 30.1641 27.2657 30.1641 26.6836C30.1641 26.1015 29.6915 25.6289 29.1094 25.6289C28.5272 25.6289 28.0547 26.1015 28.0547 26.6836C28.0547 27.2657 28.5272 27.7383 29.1094 27.7383Z" fill="black"/>
<path d="M10.1252 14.7656C9.67444 14.7656 9.18788 14.4822 8.75571 13.968C8.3808 13.5218 7.71544 13.4642 7.26967 13.8391C6.82349 14.214 6.76622 14.8793 7.14113 15.3251C7.70473 15.9958 8.36803 16.4634 9.07046 16.6987V17.9297C9.07046 18.5122 9.5426 18.9844 10.1252 18.9844C10.7077 18.9844 11.1798 18.5122 11.1798 17.9297V16.6937C12.4076 16.2583 13.2892 15.0857 13.2892 13.7109C13.2892 11.9662 11.8699 10.5469 10.1252 10.5469C9.54343 10.5469 9.07046 10.0739 9.07046 9.49219C9.07046 8.91046 9.54343 8.4375 10.1252 8.4375C10.4988 8.4375 10.8931 8.62825 11.2659 8.98874C11.6845 9.39372 12.3524 9.3826 12.7573 8.96443C13.1623 8.54544 13.1512 7.87802 12.7326 7.47304C12.1974 6.95476 11.6619 6.66183 11.1798 6.50198V5.27344C11.1798 4.69089 10.7077 4.21875 10.1252 4.21875C9.5426 4.21875 9.07046 4.69089 9.07046 5.27344V6.5094C7.84274 6.94487 6.96109 8.11739 6.96109 9.49219C6.96109 11.237 8.38039 12.6562 10.1252 12.6562C10.7069 12.6562 11.1798 13.1292 11.1798 13.7109C11.1798 14.2927 10.7069 14.7656 10.1252 14.7656Z" fill="black"/>
<path d="M29.1094 34.6992H24.8906C24.3081 34.6992 23.8359 35.1714 23.8359 35.7539V39.9727C23.8359 40.5552 24.3081 41.0273 24.8906 41.0273H29.1094C29.6919 41.0273 30.1641 40.5552 30.1641 39.9727V35.7539C30.1641 35.1714 29.6919 34.6992 29.1094 34.6992ZM28.0547 38.918H25.9453V36.8086H28.0547V38.918Z" fill="black"/>
<path d="M37.5469 34.6992H33.3281C32.7456 34.6992 32.2734 35.1714 32.2734 35.7539V39.9727C32.2734 40.5552 32.7456 41.0273 33.3281 41.0273H37.5469C38.1294 41.0273 38.6016 40.5552 38.6016 39.9727V35.7539C38.6016 35.1714 38.1294 34.6992 37.5469 34.6992ZM36.4922 38.918H34.3828V36.8086H36.4922V38.918Z" fill="black"/>
<path d="M29.1094 43.1367H24.8906C24.3081 43.1367 23.8359 43.6089 23.8359 44.1914V48.4102C23.8359 48.9927 24.3081 49.4648 24.8906 49.4648H29.1094C29.6919 49.4648 30.1641 48.9927 30.1641 48.4102V44.1914C30.1641 43.6089 29.6919 43.1367 29.1094 43.1367ZM28.0547 47.3555H25.9453V45.2461H28.0547V47.3555Z" fill="black"/>
<path d="M37.5469 43.1367H33.3281C32.7456 43.1367 32.2734 43.6089 32.2734 44.1914V48.4102C32.2734 48.9927 32.7456 49.4648 33.3281 49.4648H37.5469C38.1294 49.4648 38.6016 48.9927 38.6016 48.4102V44.1914C38.6016 43.6089 38.1294 43.1367 37.5469 43.1367ZM36.4922 47.3555H34.3828V45.2461H36.4922V47.3555Z" fill="black"/>
<path d="M45.9844 34.6992H41.7656C41.1831 34.6992 40.7109 35.1714 40.7109 35.7539V48.4102C40.7109 48.9927 41.1831 49.4648 41.7656 49.4648H45.9844C46.5669 49.4648 47.0391 48.9927 47.0391 48.4102V35.7539C47.0391 35.1714 46.5669 34.6992 45.9844 34.6992ZM44.9297 47.3555H42.8203V36.8086H44.9297V47.3555Z" fill="black"/>
<path d="M45.9844 21.4102H24.8906C24.3081 21.4102 23.8359 21.8823 23.8359 22.4648V31.5352C23.8359 32.1177 24.3081 32.5898 24.8906 32.5898H45.9844C46.5669 32.5898 47.0391 32.1177 47.0391 31.5352V22.4648C47.0391 21.8823 46.5669 21.4102 45.9844 21.4102ZM44.9297 30.4805H25.9453V23.5195H44.9297V30.4805Z" fill="black"/>
<path d="M48.0938 16.875H38.6016V10.5036C38.6016 9.67799 38.2856 8.89687 37.7125 8.30484L30.6218 0.964874C30.3169 0.649292 29.942 0.39798 29.5395 0.235245C29.5251 0.228653 29.5107 0.222885 29.4958 0.217117C29.495 0.216705 29.4942 0.216293 29.4929 0.215881C29.1267 0.0725098 28.7406 0 28.346 0H5.90625C4.16148 0 2.74219 1.4193 2.74219 3.16406V44.1914C2.74219 45.9362 4.16148 47.3555 5.90625 47.3555H19.6172V50.8359C19.6172 52.5807 21.0365 54 22.7812 54H48.0938C49.8385 54 51.2578 52.5807 51.2578 50.8359V20.0391C51.2578 18.2943 49.8385 16.875 48.0938 16.875ZM36.1964 9.7711C36.3871 9.96844 36.4922 10.2284 36.4922 10.5036V10.5469H31.2188C30.637 10.5469 30.1641 10.0739 30.1641 9.49219V3.52702L36.1964 9.7711ZM5.90625 45.2461C5.32452 45.2461 4.85156 44.7731 4.85156 44.1914V3.16406C4.85156 2.58234 5.32452 2.10938 5.90625 2.10938H28.0547V9.49219C28.0547 11.237 29.474 12.6562 31.2188 12.6562H36.4922V16.875H22.7812C21.0365 16.875 19.6172 18.2943 19.6172 20.0391V45.2461H5.90625ZM49.1484 50.8359C49.1484 51.4177 48.6755 51.8906 48.0938 51.8906H22.7812C22.1995 51.8906 21.7266 51.4177 21.7266 50.8359V20.0391C21.7266 19.4573 22.1995 18.9844 22.7812 18.9844H48.0938C48.6755 18.9844 49.1484 19.4573 49.1484 20.0391V50.8359Z" fill="black"/>
<path d="M33.3281 27.7383H41.7656C42.3482 27.7383 42.8203 27.2661 42.8203 26.6836C42.8203 26.101 42.3482 25.6289 41.7656 25.6289H33.3281C32.7456 25.6289 32.2734 26.101 32.2734 26.6836C32.2734 27.2661 32.7456 27.7383 33.3281 27.7383Z" fill="black"/>
<path d="M16.4531 14.7656H24.8906C25.4732 14.7656 25.9453 14.2935 25.9453 13.7109C25.9453 13.1284 25.4732 12.6562 24.8906 12.6562H16.4531C15.8706 12.6562 15.3984 13.1284 15.3984 13.7109C15.3984 14.2935 15.8706 14.7656 16.4531 14.7656Z" fill="black"/>
<path d="M16.4531 10.5469H24.8906C25.4732 10.5469 25.9453 10.0747 25.9453 9.49219C25.9453 8.90964 25.4732 8.4375 24.8906 8.4375H16.4531C15.8706 8.4375 15.3984 8.90964 15.3984 9.49219C15.3984 10.0747 15.8706 10.5469 16.4531 10.5469Z" fill="black"/>
<path d="M16.4531 21.4102H8.01562C7.43307 21.4102 6.96094 21.8823 6.96094 22.4648C6.96094 23.0474 7.43307 23.5195 8.01562 23.5195H16.4531C17.0357 23.5195 17.5078 23.0474 17.5078 22.4648C17.5078 21.8823 17.0357 21.4102 16.4531 21.4102Z" fill="black"/>
<path d="M10.125 25.6289H8.01562C7.43307 25.6289 6.96094 26.101 6.96094 26.6836C6.96094 27.2661 7.43307 27.7383 8.01562 27.7383H10.125C10.7076 27.7383 11.1797 27.2661 11.1797 26.6836C11.1797 26.101 10.7076 25.6289 10.125 25.6289Z" fill="black"/>
<path d="M16.4531 25.6289H14.3438C13.7612 25.6289 13.2891 26.101 13.2891 26.6836C13.2891 27.2661 13.7612 27.7383 14.3438 27.7383H16.4531C17.0357 27.7383 17.5078 27.2661 17.5078 26.6836C17.5078 26.101 17.0357 25.6289 16.4531 25.6289Z" fill="black"/>
<path d="M10.125 30.4805H8.01562C7.43307 30.4805 6.96094 30.9526 6.96094 31.5352C6.96094 32.1177 7.43307 32.5898 8.01562 32.5898H10.125C10.7076 32.5898 11.1797 32.1177 11.1797 31.5352C11.1797 30.9526 10.7076 30.4805 10.125 30.4805Z" fill="black"/>
<path d="M16.4531 30.4805H14.3438C13.7612 30.4805 13.2891 30.9526 13.2891 31.5352C13.2891 32.1177 13.7612 32.5898 14.3438 32.5898H16.4531C17.0357 32.5898 17.5078 32.1177 17.5078 31.5352C17.5078 30.9526 17.0357 30.4805 16.4531 30.4805Z" fill="black"/>
<path d="M10.125 34.6992H8.01562C7.43307 34.6992 6.96094 35.1714 6.96094 35.7539C6.96094 36.3365 7.43307 36.8086 8.01562 36.8086H10.125C10.7076 36.8086 11.1797 36.3365 11.1797 35.7539C11.1797 35.1714 10.7076 34.6992 10.125 34.6992Z" fill="black"/>
<path d="M16.4531 34.6992H14.3438C13.7612 34.6992 13.2891 35.1714 13.2891 35.7539C13.2891 36.3365 13.7612 36.8086 14.3438 36.8086H16.4531C17.0357 36.8086 17.5078 36.3365 17.5078 35.7539C17.5078 35.1714 17.0357 34.6992 16.4531 34.6992Z" fill="black"/>
<path d="M10.125 38.918H8.01562C7.43307 38.918 6.96094 39.3901 6.96094 39.9727C6.96094 40.5552 7.43307 41.0273 8.01562 41.0273H10.125C10.7076 41.0273 11.1797 40.5552 11.1797 39.9727C11.1797 39.3901 10.7076 38.918 10.125 38.918Z" fill="black"/>
<path d="M16.4531 38.918H14.3438C13.7612 38.918 13.2891 39.3901 13.2891 39.9727C13.2891 40.5552 13.7612 41.0273 14.3438 41.0273H16.4531C17.0357 41.0273 17.5078 40.5552 17.5078 39.9727C17.5078 39.3901 17.0357 38.918 16.4531 38.918Z" fill="black"/>
</g>
<defs>
<clipPath id="clip0_1109_2312">
<rect width="54" height="54" fill="white"/>
</clipPath>
</defs>
</svg>
