<svg width="42" height="42" viewBox="0 0 42 42" fill="none" xmlns="http://www.w3.org/2000/svg">
<path d="M13.125 21C13.8499 21 14.4375 20.4124 14.4375 19.6875C14.4375 18.9626 13.8499 18.375 13.125 18.375C12.4001 18.375 11.8125 18.9626 11.8125 19.6875C11.8125 20.4124 12.4001 21 13.125 21Z" fill="#006BF6"/>
<path d="M18.375 34.125C19.0999 34.125 19.6875 33.5374 19.6875 32.8125C19.6875 32.0876 19.0999 31.5 18.375 31.5C17.6501 31.5 17.0625 32.0876 17.0625 32.8125C17.0625 33.5374 17.6501 34.125 18.375 34.125Z" fill="#006BF6"/>
<path d="M15.75 10.5C7.05075 10.5 0 17.5508 0 26.25C0 34.9492 7.05075 42 15.75 42C24.4492 42 31.5 34.9492 31.5 26.25C31.5 17.5508 24.4492 10.5 15.75 10.5ZM13.125 15.75C15.2959 15.75 17.0625 17.5166 17.0625 19.6875C17.0625 21.8584 15.2959 23.625 13.125 23.625C10.9541 23.625 9.1875 21.8584 9.1875 19.6875C9.1875 17.5166 10.9541 15.75 13.125 15.75ZM18.375 36.75C16.2041 36.75 14.4375 34.9834 14.4375 32.8125C14.4375 30.6416 16.2041 28.875 18.375 28.875C20.5459 28.875 22.3125 30.6416 22.3125 32.8125C22.3125 34.9834 20.5459 36.75 18.375 36.75ZM22.0264 20.5091L11.5264 33.6341C11.2665 33.957 10.8832 34.125 10.5 34.125C10.2139 34.125 9.9225 34.0305 9.681 33.8389C9.11662 33.3847 9.02475 32.5605 9.47625 31.9935L19.9763 18.8685C20.433 18.3094 21.2546 18.2123 21.8216 18.6638C22.386 19.1179 22.4779 19.9421 22.0264 20.5091Z" fill="#006BF6"/>
<path d="M39.375 0H15.75C14.3036 0 13.125 1.176 13.125 2.625V8.085C13.986 7.96162 14.8575 7.875 15.75 7.875C16.6425 7.875 17.514 7.96162 18.375 8.085V6.5625C18.375 5.838 18.963 5.25 19.6875 5.25H35.4375C36.162 5.25 36.75 5.838 36.75 6.5625V11.8125C36.75 12.537 36.162 13.125 35.4375 13.125H28.5836C31.9987 16.464 34.125 21.1103 34.125 26.25H36.75V28.875H34.125V26.25C34.125 30.1534 32.8913 33.7706 30.807 36.75H39.375C40.824 36.75 42 35.574 42 34.125V2.625C42 1.176 40.824 0 39.375 0ZM36.75 21H34.125V18.375H36.75V21Z" fill="#006BF6"/>
</svg>
