<svg width="26" height="23" viewBox="0 0 26 23" fill="none" xmlns="http://www.w3.org/2000/svg">
<path d="M14.9177 7.01659C14.3259 6.45818 14 5.71511 14 4.92434C14 4.13337 14.3259 3.39049 14.9177 2.83209L17.6166 0.285297C18.0226 -0.0974903 18.6774 -0.0947973 19.0797 0.291645C19.4817 0.677895 19.4789 1.30151 19.073 1.6843L16.7353 3.89023H20.3079C23.4427 3.89023 25.9949 6.31815 25.9976 9.30235L26 12.0144C26.0004 12.5584 25.5377 12.9996 24.9663 13C24.3953 13 23.9314 12.5597 23.931 12.0161L23.9286 9.30408C23.927 7.40495 22.3027 5.85995 20.3079 5.85995H16.6309L19.073 8.16418C19.4789 8.54716 19.4817 9.17059 19.0797 9.55703C18.8774 9.75131 18.6111 9.84864 18.3448 9.84864C18.0816 9.84864 17.8183 9.75362 17.6166 9.56318L14.9177 7.01659Z" fill="white"/>
<path d="M19.8592 17.2894L17.3112 14.2694C16.4011 13.1909 14.6751 13.443 14.1662 14.6999C13.7909 15.5681 12.7531 15.9793 11.8744 15.7038C9.92653 15.0364 7.46096 12.2236 7.14232 10.0952C6.92045 9.17573 7.60283 8.23382 8.52411 8.01278C9.85203 7.72654 10.395 6.07234 9.48499 4.99378L6.93694 1.9738C6.20041 1.21027 5.00611 1.10778 4.24978 1.7432L2.19688 3.46792C0.135452 5.29196 1.77376 10.735 6.05085 15.8043C10.3279 20.8735 15.4152 23.5112 17.5762 21.6956L19.6291 19.9709C20.394 19.2362 20.4963 18.0444 19.8592 17.2894Z" fill="white"/>
</svg>
