<svg width="17" height="17" viewBox="0 0 17 17" fill="none" xmlns="http://www.w3.org/2000/svg">
<path opacity="0.5" d="M11.7358 8.5L16.5653 13.3295C16.8551 13.6193 17 14.0057 17 14.392C17 14.8267 16.8551 15.2131 16.5653 15.5028L15.5028 16.5653C15.1648 16.8551 14.7784 17 14.392 17C13.9574 17 13.6193 16.8551 13.3295 16.5653L8.5 11.7358L3.67045 16.5653C3.38068 16.8551 2.99432 17 2.60795 17C2.1733 17 1.78693 16.8551 1.49716 16.5653L0.434659 15.5028C0.144886 15.2131 0 14.8267 0 14.392C0 14.0057 0.144886 13.6193 0.434659 13.3295L5.2642 8.5L0.434659 3.67045C0.144886 3.38068 0 3.04261 0 2.60795C0 2.22159 0.144886 1.83523 0.434659 1.49716L1.49716 0.434659C1.78693 0.144886 2.1733 0 2.60795 0C2.99432 0 3.38068 0.144886 3.67045 0.434659L8.5 5.2642L13.3295 0.434659C13.6193 0.144886 13.9574 0 14.392 0C14.7784 0 15.1648 0.144886 15.5028 0.434659L16.5653 1.49716C16.8551 1.83523 17 2.22159 17 2.60795C17 3.04261 16.8551 3.38068 16.5653 3.67045L11.7358 8.5Z" fill="url(#paint0_linear_1109_13437)"/>
<defs>
<linearGradient id="paint0_linear_1109_13437" x1="1.45294e-08" y1="10.2315" x2="17" y2="10.2315" gradientUnits="userSpaceOnUse">
<stop stop-color="#0068F3"/>
<stop offset="1" stop-color="#238FFF"/>
</linearGradient>
</defs>
</svg>
