<svg width="90" height="90" viewBox="0 0 90 90" fill="none" xmlns="http://www.w3.org/2000/svg">
<path d="M14.5161 62.4194H55.1613V72.5807H14.5161V62.4194Z" fill="url(#paint0_linear_64_66)"/>
<path d="M47.9034 81.2905H21.7743L18.8711 88.5486H50.8066L47.9034 81.2905Z" fill="url(#paint1_linear_64_66)"/>
<path d="M45.0002 23.4214V14.5161H37.7421C36.1381 14.5161 34.8389 13.2169 34.8389 11.6129V2.90323C34.8389 1.29922 36.1381 0 37.7421 0H66.7743C68.3783 0 69.6776 1.29922 69.6776 2.90323V11.6129C69.6776 13.2169 68.3783 14.5161 66.7743 14.5161H55.6867L45.0002 23.4214Z" fill="url(#paint2_linear_64_66)"/>
<path d="M40.6455 5.80664H43.5487V8.70987H40.6455V5.80664Z" fill="#181818"/>
<path d="M46.4517 5.80664H58.0646V8.70987H46.4517V5.80664Z" fill="#181818"/>
<path d="M60.9678 5.80664H63.871V8.70987H60.9678V5.80664Z" fill="#181818"/>
<path d="M73.894 87.097L72.7203 75.3459C77.567 74.5797 81.2903 70.3829 81.2903 65.3228V46.4518H75.4839V44.4459C75.4839 42.4727 74.3994 40.7007 72.6558 39.792C74.3895 38.1993 75.4839 35.922 75.4839 33.3873V30.4841C75.4839 25.6806 71.5777 21.7744 66.7742 21.7744C61.9707 21.7744 58.0645 25.6806 58.0645 30.4841V33.3873C58.0645 37.1453 60.461 40.3448 63.8029 41.564L56.0118 49.3551H47.8713C47.709 46.9352 46.0469 44.8259 43.6923 44.1525L37.7419 42.4542V39.8615C39.5189 38.266 40.6452 35.9595 40.6452 33.3873V30.4841C40.6452 25.6806 36.739 21.7744 31.9355 21.7744C27.132 21.7744 23.2258 25.6806 23.2258 30.4841V33.3873C23.2258 35.9581 24.3521 38.2645 26.129 39.8615V42.4556L20.1787 44.1539C17.6993 44.8606 15.9677 47.1571 15.9677 49.7371V55.1615H10.1613V63.8712H13.0645V87.097H0V90.0002H90V87.097H73.894ZM60.9677 63.8712V57.2142L71.2538 46.9281C71.9973 46.1846 72.4396 45.1859 72.5388 44.144C72.5516 44.2453 72.5806 44.341 72.5806 44.4459V62.4196C72.5806 64.8203 70.6265 66.7744 68.2258 66.7744H56.6129V63.8712H60.9677ZM56.6129 75.4841H64.0092L65.1702 87.097H56.6129V75.4841ZM66.9266 75.4841H69.8156L70.9766 87.097H68.0876L66.9266 75.4841ZM75.4839 62.4196V49.3551H78.3871V65.3228C78.3871 69.3246 75.1309 72.5809 71.129 72.5809H56.6129V69.6776H68.2258C72.2277 69.6776 75.4839 66.4214 75.4839 62.4196ZM60.9677 33.3873V30.4841C60.9677 27.2818 63.5719 24.6776 66.7742 24.6776C69.9765 24.6776 72.5806 27.2818 72.5806 30.4841V33.3873C72.5806 36.5897 69.9765 39.1938 66.7742 39.1938C63.5719 39.1938 60.9677 36.5897 60.9677 33.3873ZM57.214 52.2583L66.8989 42.5733C67.2023 42.2699 67.6219 42.097 68.05 42.097C68.9474 42.097 69.6774 42.827 69.6774 43.7244C69.6774 44.1525 69.5045 44.5721 69.2011 44.8755L58.9151 55.1615H43.5484C42.7474 55.1615 42.0968 54.5108 42.0968 53.7099C42.0968 52.909 42.7474 52.2583 43.5484 52.2583H57.214ZM26.129 30.4841C26.129 27.2818 28.7331 24.6776 31.9355 24.6776C35.1378 24.6776 37.7419 27.2818 37.7419 30.4841V33.3873C37.7419 36.5897 35.1378 39.1938 31.9355 39.1938C28.7331 39.1938 26.129 36.5897 26.129 33.3873V30.4841ZM31.9355 42.097C32.9547 42.097 33.9286 41.9113 34.8387 41.5888V43.1481C34.4786 43.7038 33.4785 45.0002 31.9355 45.0002C30.3924 45.0002 29.3923 43.7038 29.0323 43.1481V41.5888C29.9424 41.9113 30.9162 42.097 31.9355 42.097ZM18.871 49.7371C18.871 48.4464 19.7378 47.2995 20.9761 46.9451L26.9562 45.237C27.7982 46.3342 29.437 47.9034 31.9355 47.9034C34.434 47.9034 36.0727 46.3342 36.9148 45.2355L42.8949 46.9437C44.007 47.262 44.7824 48.2288 44.9376 49.3536H43.5484C41.1477 49.3536 39.1935 51.3078 39.1935 53.7085C39.1935 54.2195 39.2977 54.7043 39.4608 55.1601H18.871V49.7371ZM13.0645 58.0647H58.0645V60.968H13.0645V58.0647ZM15.9677 69.6776H20.3226V66.7744H15.9677V63.8712H53.7097V66.7744H23.2258V69.6776H53.7097V87.097H15.9677V69.6776Z" fill="#181818"/>
<defs>
<linearGradient id="paint0_linear_64_66" x1="14.5161" y1="68.535" x2="55.1613" y2="68.535" gradientUnits="userSpaceOnUse">
<stop stop-color="#0068F3"/>
<stop offset="1" stop-color="#238FFF"/>
</linearGradient>
<linearGradient id="paint1_linear_64_66" x1="18.8711" y1="85.6588" x2="50.8066" y2="85.6588" gradientUnits="userSpaceOnUse">
<stop stop-color="#0068F3"/>
<stop offset="1" stop-color="#238FFF"/>
</linearGradient>
<linearGradient id="paint2_linear_64_66" x1="34.8389" y1="14.0962" x2="69.6776" y2="14.0962" gradientUnits="userSpaceOnUse">
<stop stop-color="#0068F3"/>
<stop offset="1" stop-color="#238FFF"/>
</linearGradient>
</defs>
</svg>
