<svg width="54" height="54" viewBox="0 0 54 54" fill="none" xmlns="http://www.w3.org/2000/svg">
<path d="M8.64844 1.05469C6.31865 1.05469 4.42969 2.94365 4.42969 5.27344V9.49219H9.49219L9.38672 1.05469H8.64844Z" fill="#C0E3F0"/>
<path d="M52.9453 48.7266V46.6172H48.0938V5.27344C48.0938 2.94365 46.2048 1.05469 43.875 1.05469H17.1914L17.2969 9.49219V48.7266C17.2969 51.0564 19.1858 52.9453 21.5156 52.9453H48.7266C51.0564 52.9453 52.9453 51.0564 52.9453 48.7266Z" fill="#C0E3F0"/>
<path d="M35.4375 41.3425C34.1562 40.3809 33.3281 38.8496 33.3281 37.125C33.3281 34.2131 35.6896 31.8516 38.6016 31.8516C41.5135 31.8516 43.875 34.2131 43.875 37.125C43.875 38.8496 43.0469 40.3809 41.7656 41.3425C40.884 42.0062 39.7881 42.3984 38.6016 42.3984C37.415 42.3984 36.3192 42.0062 35.4375 41.3425V41.3425Z" fill="white"/>
<path d="M40.6055 32.2466C38.6873 33.0359 37.3359 34.9224 37.3359 37.1249C37.3359 38.8495 38.164 40.3809 39.4453 41.3424C39.8 41.6094 40.1898 41.8315 40.6055 42.0029C41.0212 41.8315 41.4109 41.6094 41.7656 41.3424C43.0469 40.3809 43.875 38.8495 43.875 37.1249C43.875 34.9224 42.5237 33.0359 40.6055 32.2466V32.2466Z" fill="#FEB756"/>
<path d="M41.7656 46.6174V49.9059L38.6016 47.7966L35.4375 49.9059V41.3428C36.3192 42.0065 37.415 42.3987 38.6016 42.3987C39.7881 42.3987 40.884 42.0065 41.7656 41.3428V46.6174Z" fill="white"/>
<path d="M41.7656 42.388C41.661 42.3942 41.5555 42.3983 41.4492 42.3983C40.9557 42.3983 40.4786 42.3295 40.0254 42.2026C39.5722 42.3295 39.0951 42.3983 38.6016 42.3983C38.4953 42.3983 38.3898 42.3942 38.2852 42.388V48.0071L38.6016 47.7962L41.7656 49.9056V42.388Z" fill="#FD3A4E"/>
<path d="M15.8203 22.043C16.4025 22.043 16.875 21.5704 16.875 20.9883C16.875 20.4061 16.4025 19.9336 15.8203 19.9336C15.2382 19.9336 14.7656 20.4061 14.7656 20.9883C14.7656 21.5704 15.2382 22.043 15.8203 22.043Z" fill="black"/>
<path d="M52.9453 45.5625H49.1484V5.27344C49.1484 2.36563 46.7828 0 43.875 0H5.27344C2.36563 0 0 2.36563 0 5.27344V9.49219C0 10.0747 0.472137 10.5469 1.05469 10.5469H8.4375V48.7266C8.4375 51.6344 10.8031 54 13.7109 54H48.7266C51.6344 54 54 51.6344 54 48.7266V46.6172C54 46.0346 53.5279 45.5625 52.9453 45.5625ZM2.10938 5.27344C2.10938 3.52867 3.52867 2.10938 5.27344 2.10938C6.11801 2.10938 6.91232 2.43855 7.51053 3.03635C8.10832 3.63455 8.4375 4.42886 8.4375 5.27344V8.4375H2.10938V5.27344ZM10.5469 48.7266V5.27344C10.5469 4.11699 10.1761 3.0174 9.49178 2.10938H43.875C45.6198 2.10938 47.0391 3.52867 47.0391 5.27344V45.5625H42.8203V41.8381C44.1663 40.6388 44.9297 38.9505 44.9297 37.125C44.9297 33.6355 42.0911 30.7969 38.6016 30.7969C36.7316 30.7969 35.0494 31.6126 33.8901 32.9062H15.8203C15.2378 32.9062 14.7656 33.3784 14.7656 33.9609C14.7656 34.5435 15.2378 35.0156 15.8203 35.0156H32.6364C32.402 35.676 32.2734 36.3855 32.2734 37.125C32.2734 37.8579 32.3974 38.5682 32.6315 39.2344H15.8203C15.2378 39.2344 14.7656 39.7065 14.7656 40.2891C14.7656 40.8716 15.2378 41.3438 15.8203 41.3438H33.3281C33.4942 41.3438 33.6503 41.3042 33.79 41.2362C33.9725 41.448 34.1706 41.649 34.3828 41.8381V45.5625H17.9297C17.3471 45.5625 16.875 46.0346 16.875 46.6172V48.7266C16.875 50.4713 15.4557 51.8906 13.7109 51.8906C11.9662 51.8906 10.5469 50.4713 10.5469 48.7266ZM41.1316 40.5C40.3978 41.0521 39.5228 41.3438 38.6016 41.3438C37.6812 41.3438 36.8069 41.0525 36.0736 40.5016C36.0724 40.5004 36.0715 40.4996 36.0699 40.4988C34.9979 39.6937 34.3828 38.464 34.3828 37.125C34.3828 34.7989 36.2755 32.9062 38.6016 32.9062C40.9276 32.9062 42.8203 34.7989 42.8203 37.125C42.8203 38.4644 42.2052 39.6942 41.1316 40.5V40.5ZM36.4922 43.0926C37.1625 43.3299 37.8723 43.4531 38.6016 43.4531C39.3312 43.4531 40.041 43.3299 40.7109 43.093V47.9347L39.1866 46.9188C38.8323 46.6823 38.3708 46.6823 38.0165 46.9188L36.4922 47.9347V43.0926ZM51.8906 48.7266C51.8906 50.4713 50.4713 51.8906 48.7266 51.8906H17.9268C18.5905 51.0086 18.9844 49.9127 18.9844 48.7266V47.6719H34.3828V49.9057C34.3828 50.2946 34.597 50.6522 34.9398 50.8355C35.283 51.0193 35.6991 50.9991 36.0225 50.7832L38.6016 49.064L41.1806 50.7832C41.3569 50.901 41.5609 50.9604 41.7656 50.9604C41.9362 50.9604 42.1072 50.9192 42.2633 50.8355C42.6061 50.6522 42.8203 50.2946 42.8203 49.9057V47.6719H51.8906V48.7266Z" fill="black"/>
<path d="M22.1484 8.4375H33.3281C33.9107 8.4375 34.3828 7.96536 34.3828 7.38281C34.3828 6.80026 33.9107 6.32812 33.3281 6.32812H22.1484C21.5659 6.32812 21.0938 6.80026 21.0938 7.38281C21.0938 7.96536 21.5659 8.4375 22.1484 8.4375Z" fill="black"/>
<path d="M41.7656 19.9336H20.0391C19.4565 19.9336 18.9844 20.4057 18.9844 20.9883C18.9844 21.5708 19.4565 22.043 20.0391 22.043H41.7656C42.3482 22.043 42.8203 21.5708 42.8203 20.9883C42.8203 20.4057 42.3482 19.9336 41.7656 19.9336Z" fill="black"/>
<path d="M15.8203 28.6875H41.7656C42.3482 28.6875 42.8203 28.2154 42.8203 27.6328C42.8203 27.0503 42.3482 26.5781 41.7656 26.5781H15.8203C15.2378 26.5781 14.7656 27.0503 14.7656 27.6328C14.7656 28.2154 15.2378 28.6875 15.8203 28.6875Z" fill="black"/>
<path d="M15.8203 15.082H41.7656C42.3482 15.082 42.8203 14.6099 42.8203 14.0273C42.8203 13.4448 42.3482 12.9727 41.7656 12.9727H15.8203C15.2378 12.9727 14.7656 13.4448 14.7656 14.0273C14.7656 14.6099 15.2378 15.082 15.8203 15.082Z" fill="black"/>
</svg>
