<svg width="33" height="43" viewBox="0 0 33 43" fill="none" xmlns="http://www.w3.org/2000/svg">
<path d="M31.9865 9.21972L23.0303 0.263543C22.8681 0.100865 22.644 0 22.3959 0H3.58336C1.60796 0 0 1.60704 0 3.58336V39.4167C0 41.393 1.60796 43 3.58336 43H28.6667C30.642 43 32.25 41.393 32.25 39.4166V9.85414C32.25 9.60605 32.1491 9.38189 31.9865 9.21972ZM6.27086 8.95836H17.0209C17.516 8.95836 17.9167 9.35905 17.9167 9.85422C17.9167 10.3494 17.516 10.7501 17.0209 10.7501H6.27086C5.77569 10.7501 5.375 10.3494 5.375 9.85422C5.375 9.35905 5.77569 8.95836 6.27086 8.95836ZM19.4406 33.7845C15.5406 37.625 14.6325 37.625 14.3334 37.625C13.2206 37.625 12.8216 36.3478 12.4087 34.9795C11.784 36.2472 11.0649 37.625 9.85414 37.625C9.23123 37.625 8.48586 37.2147 7.78426 36.5901C7.45009 36.9225 7.11759 37.2138 6.80794 37.4457C6.64694 37.5665 6.45798 37.625 6.27078 37.625C5.99959 37.625 5.73009 37.5016 5.55338 37.2663C5.25767 36.8709 5.33813 36.3092 5.73361 36.0127C6.01706 35.7992 6.3058 35.542 6.58925 35.2586C5.87714 34.2761 5.375 33.1564 5.375 32.25C5.375 30.2055 7.00572 28.6666 8.0625 28.6666C9.10181 28.6666 10.75 29.3963 10.75 31.3541C10.75 32.4949 9.95735 33.9708 8.97054 35.2454C9.33621 35.5866 9.6687 35.8131 9.86287 35.8333C10.0606 35.6942 10.6047 34.5866 10.8672 34.0547C11.4026 32.9682 11.756 32.2499 12.5416 32.2499C13.4603 32.2499 13.7454 33.2026 14.1094 34.409C14.2161 34.7668 14.3928 35.3564 14.5485 35.709C15.2064 35.2645 16.8668 33.8035 18.1844 32.5071C18.5378 32.1615 19.1047 32.1632 19.4511 32.5176C19.7976 32.8702 19.7941 33.4371 19.4406 33.7845ZM25.9791 26.875H13.4375C12.9423 26.875 12.5416 26.4743 12.5416 25.9791C12.5416 25.484 12.9423 25.0833 13.4375 25.0833H25.9791C26.4743 25.0833 26.875 25.484 26.875 25.9791C26.875 26.4743 26.4743 26.875 25.9791 26.875ZM25.9791 21.5H6.27086C5.77569 21.5 5.375 21.0993 5.375 20.6041C5.375 20.109 5.77569 19.7083 6.27086 19.7083H25.9792C26.4744 19.7083 26.8751 20.109 26.8751 20.6041C26.875 21.0993 26.4743 21.5 25.9791 21.5ZM25.9791 16.125H6.27086C5.77569 16.125 5.375 15.7243 5.375 15.2291C5.375 14.734 5.77569 14.3333 6.27086 14.3333H25.9792C26.4744 14.3333 26.8751 14.734 26.8751 15.2291C26.875 15.7243 26.4743 16.125 25.9791 16.125ZM25.0834 8.95836C24.0948 8.95836 23.2917 8.15438 23.2917 7.16672V3.05846L29.1916 8.95836H25.0834Z" fill="#006BF6"/>
<path d="M8.06237 30.4584C7.96788 30.5178 7.1665 31.1574 7.1665 32.25C7.1665 32.7084 7.42543 33.2841 7.78942 33.8387C8.47532 32.8896 8.95823 31.9255 8.95823 31.3542C8.95823 30.5012 8.2111 30.4584 8.06237 30.4584Z" fill="#006BF6"/>
</svg>
