<svg width="66" height="75" viewBox="0 0 66 75" fill="none" xmlns="http://www.w3.org/2000/svg">
<path fill-rule="evenodd" clip-rule="evenodd" d="M13.2126 16.401L10.2713 13.1184H8.00697C7.29897 13.1184 6.71807 13.7583 6.71807 14.47L6.71484 16.7553C6.71484 18.244 7.91236 19.0635 10.2681 19.0635L13.2126 16.401Z" fill="#E5C093"/>
<path fill-rule="evenodd" clip-rule="evenodd" d="M38.6354 14.47C38.6354 13.7583 38.0546 13.1184 37.3465 13.1184H35.082L32.4375 16.091L35.082 19.0636C37.4411 19.0636 38.6353 18.2442 38.6353 16.7554V14.47H38.6354Z" fill="#E5C093"/>
<path fill-rule="evenodd" clip-rule="evenodd" d="M38.2212 46.2521C38.2212 47.5711 37.1542 48.6387 35.836 48.6387C34.5211 48.6387 33.4509 47.5711 33.4509 46.2521C33.4508 43.1115 38.2212 43.1115 38.2212 46.2521V46.2521ZM44.4793 56.5883C44.4793 51.9099 44.4989 48.766 44.4826 44.1823C44.352 41.5967 39.1118 36.9966 35.1474 35.2826L31.9171 33.8918H13.4329L9.06069 35.7724L5.33769 37.372C2.36844 38.6486 0.887099 39.8141 0.870735 43.7155C0.851145 48.5538 0.873962 51.75 0.873962 56.5883C0.873962 57.4372 1.5331 58.1293 2.34228 58.1358H2.35208H8.45364H22.6766H43.0011H43.0109C43.8202 58.1293 44.4793 57.4372 44.4793 56.5883Z" fill="#ECEAED"/>
<path fill-rule="evenodd" clip-rule="evenodd" d="M19.1198 45.4589L21.4495 44.6724V41.4955L19.8214 38.4593L17.6679 38.2471L16.9663 41.0776L19.1198 45.4589Z" fill="#B6B1B7"/>
<path fill-rule="evenodd" clip-rule="evenodd" d="M17.2373 27.2873V34.6036L22.6765 36.9966L28.1157 34.6036V27.2873C28.1157 27.2677 28.0179 27.3461 27.9949 27.3591C24.2526 29.5726 20.9537 29.5367 17.2373 27.2873V27.2873Z" fill="#F1D0A5"/>
<path fill-rule="evenodd" clip-rule="evenodd" d="M35.0819 16.5659C27.636 4.91082 22.1608 1.72435 10.2676 16.5659V19.0634C10.2676 19.6511 10.3426 20.255 10.4894 20.872C11.191 23.8658 13.5109 27.0651 16.5257 29.135C16.5551 29.1284 17.1555 29.543 17.2371 29.592C17.981 30.0426 18.7642 30.4212 19.5668 30.7151C20.6957 31.1231 21.6845 31.3256 22.6763 31.3256C23.6649 31.3256 24.6536 31.1231 25.7825 30.7151C26.5885 30.4212 27.3683 30.0426 28.1155 29.592C28.1611 29.5626 28.6343 29.259 28.6375 29.259C31.7405 27.1989 34.1452 23.9277 34.863 20.8719C35.0066 20.2548 35.0816 19.6508 35.0816 19.0633V16.5659H35.0819Z" fill="#FFE4C1"/>
<path fill-rule="evenodd" clip-rule="evenodd" d="M15.2923 11.8288C15.8176 12.2369 16.4016 12.5635 17.0118 12.8312C21.5276 14.8096 28.8887 14.1338 30.4386 11.8126C31.0846 14.0359 32.8139 16.566 35.0817 16.566V14.0685V13.1185V11.5122C35.0817 4.8031 30.0406 1.25768 24.8428 0.895264H23.0711C20.1768 1.09773 17.4099 2.29905 15.6252 4.5028C11.8794 5.06756 10.2773 8.62947 10.274 11.5122L10.2708 13.1184L10.2676 16.566C14.1208 16.4321 14.4178 14.0914 15.2923 11.8288V11.8288Z" fill="#D19A6E"/>
<path fill-rule="evenodd" clip-rule="evenodd" d="M32.5532 15.4397C32.5532 16.7979 32.6479 18.1723 32.3346 19.501C31.3493 23.6995 27.4435 27.8294 23.254 29.3443C22.1251 29.7523 21.1364 29.958 20.1478 29.958C19.1592 29.958 18.1705 29.7523 17.0415 29.3443C16.8817 29.2887 16.725 29.2267 16.5684 29.1614C16.787 29.3115 17.0089 29.4552 17.2373 29.5924C17.9813 30.0429 18.7644 30.4216 19.567 30.7154C20.6959 31.1235 21.6847 31.326 22.6765 31.326C23.6651 31.326 24.6538 31.1235 25.7828 30.7154C26.5887 30.4216 27.3685 30.0429 28.1157 29.5924C31.1795 27.738 34.0378 24.3818 34.8634 20.8722C35.0069 20.2551 35.082 19.6512 35.082 19.0636V16.5661C34.1325 16.5661 33.2744 16.1221 32.5532 15.4397Z" fill="#F1D0A5"/>
<path fill-rule="evenodd" clip-rule="evenodd" d="M35.0822 11.5122C35.0822 6.39958 32.1521 3.12184 28.4585 1.69189C30.8763 3.45487 32.5535 6.27236 32.5535 10.141V11.7473V12.6973V12.8638V15.1947V15.4428C33.2746 16.1219 34.1328 16.5659 35.0822 16.5659V14.0684V13.1184V11.5122Z" fill="#C38C66"/>
<path fill-rule="evenodd" clip-rule="evenodd" d="M26.2303 45.4589L28.3838 41.0776L27.502 38.2471L25.5287 38.4593L23.9038 41.4955L24.1029 44.7877L26.2303 45.4589Z" fill="#B6B1B7"/>
<path fill-rule="evenodd" clip-rule="evenodd" d="M23.9036 41.4956L25.5285 38.4594L26.1437 36.2601L22.6768 35.8442L19.8218 36.4989V38.4594L21.4499 41.4956H22.6768H23.9036Z" fill="#FFE07D"/>
<path fill-rule="evenodd" clip-rule="evenodd" d="M28.383 41.0775L31.9168 33.8918L28.1155 33.4543L22.6763 35.8441L25.528 38.4592L28.383 41.0775Z" fill="#C3DDFF"/>
<path fill-rule="evenodd" clip-rule="evenodd" d="M19.8213 38.4592L22.6764 35.8441L17.2371 33.4543L13.4326 33.8918L16.9663 41.0775L19.8213 38.4592Z" fill="#C3DDFF"/>
<path fill-rule="evenodd" clip-rule="evenodd" d="M35.8358 48.6387C37.154 48.6387 38.2209 47.5712 38.2209 46.2522C38.2209 44.9333 37.154 43.8657 35.8358 43.8657C34.5209 43.8657 33.4507 44.9333 33.4507 46.2522C33.4507 47.5712 34.5209 48.6387 35.8358 48.6387Z" fill="#B6B1B7"/>
<path fill-rule="evenodd" clip-rule="evenodd" d="M26.23 45.459L23.9035 41.4956L22.6751 40.3704L21.4498 41.4956L19.1201 45.459L22.6767 52.6871L26.23 45.459Z" fill="#FFE07D"/>
<path fill-rule="evenodd" clip-rule="evenodd" d="M26.2298 45.459L23.9033 41.4956H22.6765H21.4496L20.5752 42.9843H21.7041H22.9309L25.388 47.1696L26.2298 45.459Z" fill="#FFD064"/>
<path fill-rule="evenodd" clip-rule="evenodd" d="M25.5285 38.4594L23.5252 36.6246L22.6768 35.8442L21.8252 36.6246L19.8218 38.4594L20.5559 39.824L22.592 37.9566L24.7422 39.9285L25.5285 38.4594Z" fill="#FFD064"/>
<path fill-rule="evenodd" clip-rule="evenodd" d="M31.9167 33.8918L28.1154 33.4543L27.117 33.8918L26.9212 33.9767L25.2734 34.7014L26.8038 35.1814L30.6866 36.3926L31.9167 33.8918Z" fill="#9DC6FB"/>
<path fill-rule="evenodd" clip-rule="evenodd" d="M35.1474 35.2826L31.9171 33.8918L30.687 36.3927L33.7541 37.3492C34.5666 37.6006 35.255 37.888 35.8358 38.247C35.8326 37.9695 35.8162 37.6953 35.7902 37.4244C35.4182 36.7615 35.2028 36.027 35.1474 35.2826V35.2826Z" fill="#DAD8DB"/>
<path fill-rule="evenodd" clip-rule="evenodd" d="M44.4793 56.5882C44.4793 51.9098 44.4989 48.7659 44.4825 44.1822L43.892 44.7699C43.6505 44.9592 43.5298 45.0637 43.409 45.067C43.2882 45.0637 43.1676 44.9592 42.9228 44.7699L41.1349 42.9939C41.1414 47.3131 41.1283 52.6347 41.1283 56.5882C41.1283 57.4371 40.4659 58.1292 39.6567 58.1357H43.0012H43.011C43.8202 58.1292 44.4793 57.4371 44.4793 56.5882V56.5882Z" fill="#DAD8DB"/>
<path fill-rule="evenodd" clip-rule="evenodd" d="M20.5753 31.0354C20.05 30.895 19.5246 30.7121 19.0156 30.5C18.4054 30.2421 17.8083 29.9385 17.2373 29.5924V31.5937C22.0827 33.9084 24.9704 32.9485 25.7241 32.609C25.9787 32.4947 25.9265 32.609 25.9265 32.9061V33.892V34.4144L26.9216 33.977L28.1158 33.4546V29.5923C28.093 29.6053 28.0668 29.6184 28.044 29.6347C28.044 29.6347 28.0408 29.6347 28.0374 29.6379C27.3229 30.0656 26.5691 30.4312 25.7828 30.7153C24.7778 31.0777 23.7532 31.3258 22.6765 31.3258C21.9914 31.3259 21.3061 31.2279 20.5753 31.0354Z" fill="#E5C093"/>
<path d="M17.9976 20.8614C18.475 20.8614 18.8618 20.4745 18.8618 19.9972V19.3899C18.8618 18.9126 18.475 18.5256 17.9976 18.5256C17.5201 18.5256 17.1333 18.9126 17.1333 19.3899V19.9972C17.1333 20.4745 17.5203 20.8614 17.9976 20.8614Z" fill="black"/>
<path d="M27.665 20.8451C28.1425 20.8451 28.5293 20.4581 28.5293 19.9808V19.3899C28.5293 18.9126 28.1425 18.5256 27.665 18.5256C27.1876 18.5256 26.8008 18.9126 26.8008 19.3899V19.9808C26.8008 20.4581 27.1877 20.8451 27.665 20.8451V20.8451Z" fill="black"/>
<path d="M22.7794 26.8773C22.7981 26.8776 22.8167 26.8777 22.8353 26.8777C23.6482 26.8777 24.4253 26.5333 25.0292 25.904C25.3597 25.5595 25.3485 25.0125 25.0039 24.6819C24.6596 24.3515 24.1126 24.3627 23.782 24.7072C23.5042 24.9967 23.1772 25.1492 22.8352 25.1492C22.8278 25.1492 22.8204 25.1492 22.8129 25.149C22.4869 25.1426 22.1788 24.9945 21.9457 24.7318C21.6287 24.3747 21.0825 24.3422 20.7256 24.6591C20.3686 24.976 20.3361 25.5222 20.6529 25.8792C21.2103 26.507 21.9654 26.8615 22.7794 26.8773V26.8773Z" fill="black"/>
<path d="M23.7039 10.7549C25.3 10.7549 27.0856 10.4827 28.9819 9.82809C29.433 9.67229 29.6726 9.18035 29.5169 8.7291C29.361 8.27795 28.8693 8.03826 28.4179 8.19418C25.3733 9.24523 22.9822 9.11375 21.5128 8.8184C19.7277 8.45956 18.583 7.70017 18.2403 7.10659C18.0016 6.69313 17.4732 6.55162 17.0597 6.79027C16.6463 7.02892 16.5047 7.5575 16.7434 7.97085C17.5875 9.43341 20.1864 10.7549 23.7039 10.7549V10.7549Z" fill="black"/>
<path d="M34.7862 32.4298C34.7862 32.4298 32.2062 29.7046 30.4846 28.9656C33.047 26.856 35.0245 23.9658 35.7055 21.068C35.798 20.6702 35.8633 20.2771 35.9026 19.8918C39.128 19.6071 39.4998 17.6389 39.4998 16.7552V14.47C39.4998 13.2688 38.5138 12.2541 37.3467 12.2541H35.9465V11.5121C35.9465 6.44666 33.1349 2.42681 28.4255 0.759022C26.1132 -0.0598356 23.5208 -0.222316 21.1255 0.301656C18.6927 0.833809 16.6397 2.00794 15.1661 3.70569C11.2197 4.48583 9.41375 8.25527 9.41006 11.5111L9.40914 12.2543H8.00662C6.83952 12.2543 5.85346 13.269 5.85346 14.4689L5.85023 16.7556C5.85023 17.6393 6.22198 19.6076 9.44774 19.8921C9.48762 20.28 9.55411 20.6738 9.64825 21.0694C10.3032 23.8667 12.1696 26.6567 14.6047 28.745C12.95 29.3422 11.4581 30.3651 10.2926 31.7238C9.42666 32.7334 8.77454 33.8935 8.35866 35.1327L4.99646 36.5782C1.69257 37.9986 0.0135987 39.4923 0.00656943 43.7144L9.26479e-07 48.2523C-0.000690481 48.7296 0.385692 49.1171 0.862994 49.1178H0.864261C1.34099 49.1178 1.72783 48.7317 1.72852 48.2548L1.73509 43.7171C1.74097 40.224 2.94137 39.3433 5.67911 38.1663L7.896 37.2132C7.85232 37.5942 7.82778 37.9783 7.82778 38.3647V41.0456C5.83479 41.4145 4.03621 43.1418 4.03621 46.1217V48.5801C4.03621 49.0574 4.42305 49.4444 4.90047 49.4444C5.37789 49.4444 5.76473 49.0574 5.76473 48.5801V46.1217C5.76473 43.7571 7.20943 42.6986 8.64133 42.6986C9.38748 42.6986 10.0818 42.9872 10.5964 43.5115C11.1993 44.1257 11.5179 45.0283 11.5179 46.1216V48.58C11.5179 49.0573 11.9048 49.4443 12.3822 49.4443C12.8596 49.4443 13.2465 49.0573 13.2465 48.58V46.1216C13.2465 43.1923 11.5084 41.4737 9.55618 41.0658V38.3647C9.55618 37.6913 9.64019 37.032 9.79541 36.3965L13.0197 35.0103L16.1821 41.4402C16.1846 41.4457 21.901 53.0684 21.901 53.0684C22.2107 53.6994 23.1426 53.6987 23.4522 53.0683L32.3301 35.0107L34.3496 35.8802C34.4509 36.5003 34.6488 37.1063 34.9418 37.6729C34.96 37.9084 34.9716 38.141 34.9716 38.3647V43.1192C33.5982 43.4989 32.5864 44.7592 32.5864 46.2523C32.5864 48.0448 34.0441 49.5031 35.8359 49.5031C37.6277 49.5031 39.0854 48.0448 39.0854 46.2523C39.0854 44.7592 38.0737 43.4989 36.7002 43.1192V39.8122L36.7052 39.8171L42.3142 45.3835C42.6542 45.7206 43.1306 46.0075 43.623 45.9078C43.6269 48.0533 43.6237 49.9389 43.6202 51.9104C43.6177 53.3611 43.6151 54.8715 43.6151 56.5885C43.6151 56.9588 43.334 57.2717 43.0013 57.2717H37.7607V52.6871C37.7607 52.2098 37.3738 51.8228 36.8964 51.8228C36.419 51.8228 36.0322 52.2098 36.0322 52.6871V57.2716H22.6766H9.31788V52.687C9.31788 52.2097 8.93103 51.8227 8.45362 51.8227C7.9762 51.8227 7.58936 52.2097 7.58936 52.687V57.2716H2.35206C2.01926 57.2716 1.7382 56.9587 1.7382 56.5884C1.7382 55.8208 1.73947 55.199 1.74051 54.6204C1.74212 53.8446 1.74339 53.1465 1.74154 52.2803C1.7405 51.8036 1.35378 51.4179 0.877282 51.4179H0.875323C0.398021 51.4189 0.0119855 51.8067 0.0129074 52.284C0.0148664 53.1476 0.0134834 53.8436 0.0119853 54.6169C0.010833 55.1965 0.00956542 55.8194 0.00956542 56.5883C0.00956542 57.9181 1.06039 59 2.35194 59H22.6765H43.0011C44.2926 59 45.3435 57.9181 45.3435 56.5883C45.3435 54.8724 45.346 53.363 45.3486 51.9132C45.3528 49.5343 45.3567 47.2803 45.348 44.5424L45.2177 45.2269C45.5565 44.8907 45.5585 44.3434 45.2223 44.0046C44.8858 43.6658 44.3388 43.6639 44 44L43.4073 44.0331L37.9213 38.5886L37.1623 37.8389C35.9737 36.6007 36.5089 35.2765 35.8358 33.6428C35.5914 33.0498 34.7862 32.4298 34.7862 32.4298ZM35.9464 14.0684V13.9827H37.3466C37.5609 13.9827 37.7712 14.2241 37.7712 14.47V16.7553C37.7712 17.0691 37.7705 17.9459 35.9465 18.1542L35.9464 14.0684ZM9.40349 16.5653V18.1542C7.57944 17.9459 7.57875 17.0692 7.57875 16.7566L7.58198 14.47C7.58198 14.2241 7.79228 13.9827 8.00662 13.9827H9.40684L9.40349 16.5653ZM11.1386 11.5131C11.1415 8.88307 12.5873 5.83488 15.7543 5.35735C15.9677 5.3252 16.1613 5.21434 16.2971 5.04667C18.7584 2.00759 23.6163 0.889583 27.8484 2.38832C31.8963 3.82184 34.2178 7.14729 34.2178 11.512V15.5259C32.8762 14.9847 31.7625 13.2699 31.2689 11.5713C31.0704 10.8839 30.1163 10.7306 29.7204 11.332C29.0376 12.3534 26.4926 13.0925 23.5313 13.1292C21.6093 13.154 19.8205 12.8945 18.342 12.4116C15.6129 11.321 15.1192 10.5103 14.9058 10.2077C14.6308 9.81762 14.0917 9.72428 13.7014 9.99934C13.3113 10.2744 13.2181 10.8136 13.4931 11.2037C13.7193 11.5245 13.9812 11.8198 14.2715 12.0927C14.2386 12.1848 14.2054 12.2775 14.1735 12.3679C13.5665 14.0869 13.1401 15.2909 11.1333 15.6181L11.1386 11.5131ZM11.3304 20.672C11.1987 20.1188 11.132 19.5775 11.132 19.0635V17.364C14.269 16.9653 15.0788 14.9837 15.7296 13.1524C17.8958 14.3822 20.807 14.8594 23.3096 14.8594C23.391 14.8594 23.4724 14.8589 23.5528 14.8579C25.8065 14.8299 28.4504 14.3968 30.0775 13.3239C30.9157 15.1942 32.3761 16.9103 34.2178 17.3307V19.0636C34.2178 19.5744 34.1519 20.1171 34.0221 20.6746C33.1236 24.4984 29.455 28.4657 25.489 29.9026C24.434 30.284 23.5403 30.4616 22.6765 30.4616C21.8105 30.4616 20.9158 30.2839 19.8614 29.9028C15.8935 28.4651 12.2263 24.4982 11.3304 20.672ZM18.1016 32.8901V31.0369C18.4874 31.2198 18.8783 31.3849 19.2732 31.5281C20.5226 31.9797 21.6041 32.1901 22.6766 32.1901C23.7469 32.1901 24.8273 31.9798 26.0773 31.5278C26.4731 31.3844 26.8649 31.2189 27.2516 31.0354V32.8901L22.6766 34.9002L18.1016 32.8901ZM24.4497 38.643L23.3856 40.6311H21.9668L20.901 38.6437L22.6762 37.0167L24.4497 38.643ZM13.0804 33.1026L10.7194 34.1176C11.9143 32.077 13.9352 30.5443 16.3374 30.0468C16.3494 30.0547 16.3611 30.0628 16.373 30.0706V32.6837L13.3396 33.0326C13.3091 33.036 13.134 33.0788 13.0804 33.1026ZM14.7493 34.6105L17.1038 34.3398L21.1157 36.1024L17.2332 39.6609L14.7493 34.6105ZM18.028 41.277L19.586 39.849L20.4585 41.476L19.1885 43.6367L18.028 41.277ZM22.6765 50.7283L20.102 45.4939L21.9441 42.3598H23.4085L25.2492 45.4954L22.6765 50.7283ZM26.1628 43.6373L24.8941 41.4759L25.7649 39.849L27.3228 41.2778L26.1628 43.6373ZM28.1175 39.6612L24.237 36.1026L28.2493 34.3398L30.6007 34.6104L28.1175 39.6612ZM32.2695 33.1027C32.1884 33.0662 32.0994 33.0426 32.0112 33.0328L28.9801 32.684V30.2503C30.8401 30.8282 32.4422 32.0364 33.5241 33.6428L32.2695 33.1027ZM37.3567 46.2522C37.3567 47.0915 36.6744 47.7744 35.8358 47.7744C34.9972 47.7744 34.3149 47.0915 34.3149 46.2522C34.3149 45.4128 34.9972 44.7299 35.8358 44.7299C36.6744 44.7299 37.3567 45.4128 37.3567 46.2522Z" fill="black"/>
<path d="M53.6985 33.0002H45L44.125 54.0002L45 75.0002H53.6985L66 62.6988V45.3017L53.6985 33.0002Z" fill="#EFE2DD"/>
<path d="M36.3016 33.0002L24 45.3017V62.6988L36.3016 75.0002H45V33.0002H36.3016Z" fill="#F7F0EB"/>
<path d="M52.6791 35.4612H45L44.125 54.0002L45 72.5393H52.6791L63.5391 61.6794V46.3211L52.6791 35.4612Z" fill="#C6001C"/>
<path d="M37.321 35.4612L26.4609 46.3211V61.6794L37.321 72.5393H45V35.4612H37.321Z" fill="#FF1F3D"/>
<path d="M31.8995 59.113C30.5182 59.113 29.2202 58.555 28.3384 57.5819L30.1619 55.9293C30.572 56.3819 31.2216 56.6521 31.8995 56.6521C32.5425 56.6521 32.9076 56.273 32.952 56.0169C32.9716 55.9037 33.0237 55.6031 32.3623 55.3545C31.9338 55.1935 31.6173 55.116 31.3111 55.041C30.8424 54.9263 30.3577 54.8076 29.8015 54.446C28.8151 53.8051 28.4819 52.7182 28.499 51.9149C28.5247 50.7009 29.3582 49.5805 30.573 49.1272C32.6264 48.3609 34.2776 49.5874 35.2642 50.3202L33.7969 52.2958C32.3451 51.2177 31.9017 51.2581 31.4333 51.4329C31.0936 51.5597 30.9623 51.8279 30.9594 51.9671C30.9564 52.109 31.0195 52.3027 31.1425 52.3826C31.3387 52.5101 31.4894 52.551 31.8963 52.6507C32.2373 52.7342 32.6618 52.8382 33.2279 53.0509C34.7882 53.6371 35.6317 54.9663 35.3768 56.437C35.1083 57.9876 33.6458 59.113 31.8995 59.113V59.113Z" fill="#FFFBF5"/>
<path d="M42.9916 48.9685H36.332V51.4294H38.4228V59.0319H40.8838V51.4294H42.9916V48.9685Z" fill="#FFFBF5"/>
<path d="M58.3747 48.9685H55.0273V59.032H57.4883V55.7232C57.8288 55.7216 58.1636 55.7203 58.3747 55.7203C60.2594 55.7203 61.7926 54.206 61.7926 52.3444C61.7926 50.4829 60.2594 48.9685 58.3747 48.9685ZM58.3747 53.2594C58.1617 53.2594 57.8323 53.2606 57.4964 53.2622C57.4948 52.9091 57.4928 51.7997 57.4918 51.4294H58.3747C58.8934 51.4294 59.3317 51.8485 59.3317 52.3444C59.3317 52.8404 58.8934 53.2594 58.3747 53.2594Z" fill="#F7F0EB"/>
<path d="M48.4908 59.0319C45.7162 59.0319 43.459 56.7747 43.459 54.0002C43.459 51.2258 45.7162 48.9685 48.4908 48.9685C51.2652 48.9685 53.5225 51.2258 53.5225 54.0002C53.5225 56.7747 51.2652 59.0319 48.4908 59.0319ZM48.4908 51.4294C47.0732 51.4294 45.9199 52.5827 45.9199 54.0002C45.9199 55.4177 47.0732 56.571 48.4908 56.571C49.9083 56.571 51.0616 55.4177 51.0616 54.0002C51.0616 52.5827 49.9083 51.4294 48.4908 51.4294Z" fill="#F7F0EB"/>
</svg>
