<svg width="80" height="80" viewBox="0 0 80 80" fill="none" xmlns="http://www.w3.org/2000/svg">
<path d="M5.16113 55.4829H23.2256V60.6442H5.16113V55.4829Z" fill="url(#paint0_linear_1109_19918)"/>
<path d="M30.9676 5.16016V21.9343H5.16113V32.2569H23.2256V49.0311H51.6127V5.16016H30.9676Z" fill="#2886FF"/>
<path d="M12.9031 51.6118C8.63328 51.6118 5.16113 48.1396 5.16113 43.8699C5.16113 39.6001 8.63328 36.1279 12.9031 36.1279C17.1729 36.1279 20.645 39.6001 20.645 43.8699C20.645 48.1396 17.1729 51.6118 12.9031 51.6118Z" fill="#006BF6"/>
<path d="M80 39.3154C80.0013 37.7743 79.4002 36.3253 78.3096 35.2365C77.2196 34.1472 75.7668 33.5474 74.2206 33.5474H74.0581C72.5485 33.5474 71.1303 34.1346 70.0655 35.2019L56.7742 48.4945V-0.000976562H13.6593L0 13.6583V79.999H56.7742V65.0494L73.5484 48.2752L73.8477 48.5745C74.4777 49.2052 74.8387 50.0765 74.8387 50.9668C74.8387 51.857 74.4777 52.7284 73.8477 53.359L64.5161 62.6906C63.6838 63.5228 63.2258 64.6286 63.2258 65.8055C63.2258 66.9824 63.6838 68.0894 64.5161 68.9204L66.1845 70.5887L68.0091 68.7641L66.3407 67.0958C65.9961 66.7499 65.8064 66.2931 65.8064 65.8055C65.8064 65.3178 65.9961 64.861 66.3407 64.5152L75.6723 55.1836C76.783 54.0729 77.4194 52.5368 77.4194 50.9668C77.4194 49.3967 76.783 47.8607 75.6723 46.7499L75.373 46.4506L78.2863 43.5373C79.3907 42.4329 80 40.9642 80 39.3154V39.3154ZM12.9032 4.40427V12.9022H4.40524L12.9032 4.40427ZM54.1935 77.4184H2.58065V15.4829H15.4839V2.57967H54.1935V51.0764L41.4308 63.8404L39.0272 72.2571H37.151C37.013 72.2571 36.8889 72.1796 36.8271 72.0574L34.7404 67.884L35.8556 66.0984C36.8788 64.4597 37.4194 62.5746 37.4194 60.6442C37.4194 58.5102 35.6823 56.7732 33.5484 56.7732C31.4144 56.7732 29.6774 58.5102 29.6774 60.6442V61.101C29.6774 62.6893 30.0529 64.2814 30.7636 65.7021L31.7843 67.7422L29.0682 72.0882C29.0039 72.1928 28.8855 72.2571 28.7613 72.2571H27.0968C26.9304 72.2571 26.7855 72.1437 26.7458 71.9824L26.0799 69.323C25.7523 68.0119 24.5779 67.0958 23.2258 67.0958C21.8737 67.0958 20.6993 68.0119 20.3717 69.3242L19.7058 71.9836C19.6661 72.1437 19.5212 72.2571 19.3548 72.2571H15.4839V74.8377H19.3548C20.7069 74.8377 21.8813 73.9217 22.2089 72.6093L22.8749 69.9499C22.9549 69.6273 23.4967 69.6273 23.578 69.9499L24.244 72.6093C24.5703 73.9217 25.7447 74.8377 27.0968 74.8377H28.7613C29.7833 74.8377 30.7176 74.3217 31.2569 73.4561L33.137 70.4482L34.5186 73.2122C35.0208 74.2146 36.0295 74.8377 37.151 74.8377H40.1808L49.7083 72.1166L54.1935 67.6301V77.4184ZM43.2195 66.9786L46.5688 70.3279L41.8788 71.6686L43.2195 66.9786ZM33.6681 64.7294L33.3871 65.1786L33.0721 64.5485C32.5391 63.4831 32.2581 62.2905 32.2581 61.101V60.6442C32.2581 59.9322 32.8364 59.3539 33.5484 59.3539C34.2603 59.3539 34.8387 59.9322 34.8387 60.6442C34.8387 62.0908 34.4349 63.5033 33.6681 64.7294ZM49.0323 69.1422L44.4052 64.5152L67.0955 41.8224L71.7238 46.4506L49.0323 69.1422ZM76.4617 41.7127L73.5484 44.626L68.9201 39.9978L71.8914 37.0259C72.4685 36.4469 73.2384 36.1281 74.0581 36.1281H74.2206C75.0788 36.1281 75.8839 36.4595 76.4875 37.0637C77.088 37.6635 77.4194 38.4636 77.4194 39.403C77.4194 40.275 77.0785 41.0959 76.4617 41.7127V41.7127Z" fill="black"/>
<path d="M10.3223 72.2573H12.9029V74.838H10.3223V72.2573Z" fill="black"/>
<path d="M49.0322 5.16016H51.6129V7.7408H49.0322V5.16016Z" fill="black"/>
<path d="M30.9678 5.16016H46.4516V7.7408H30.9678V5.16016Z" fill="black"/>
<path d="M49.0322 10.3213H51.6129V12.9019H49.0322V10.3213Z" fill="black"/>
<path d="M30.9678 10.3213H46.4516V12.9019H30.9678V10.3213Z" fill="black"/>
<path d="M49.0322 15.4829H51.6129V18.0636H49.0322V15.4829Z" fill="black"/>
<path d="M30.9678 15.4829H46.4516V18.0636H30.9678V15.4829Z" fill="black"/>
<path d="M5.16113 20.644H51.6127V23.2247H5.16113V20.644Z" fill="black"/>
<path d="M5.16113 25.8052H51.6127V28.3858H5.16113V25.8052Z" fill="black"/>
<path d="M5.16113 30.9663H51.6127V33.547H5.16113V30.9663Z" fill="black"/>
<path d="M23.2261 37.418H25.8067V39.9986H23.2261V37.418Z" fill="black"/>
<path d="M28.3867 37.418H51.6125V39.9986H28.3867V37.418Z" fill="black"/>
<path d="M23.2261 42.5801H51.6132V45.1607H23.2261V42.5801Z" fill="black"/>
<path d="M23.2261 47.7407H51.6132V50.3214H23.2261V47.7407Z" fill="black"/>
<path d="M5.16113 54.1929H23.2256V56.7735H5.16113V54.1929Z" fill="black"/>
<path d="M5.16113 59.354H23.2256V61.9346H5.16113V59.354Z" fill="black"/>
<defs>
<linearGradient id="paint0_linear_1109_19918" x1="5.16113" y1="58.5892" x2="23.2256" y2="58.5892" gradientUnits="userSpaceOnUse">
<stop stop-color="#0068F3"/>
<stop offset="1" stop-color="#238FFF"/>
</linearGradient>
</defs>
</svg>
