<svg width="36" height="41" viewBox="0 0 36 41" fill="none" xmlns="http://www.w3.org/2000/svg">
<path d="M35.5108 5.73816C35.4384 5.20954 35.0644 4.7747 34.5587 4.63178L18.3531 0.0490395C18.1221 -0.0163465 17.8781 -0.0163465 17.6469 0.0490395L1.44128 4.63178C0.935644 4.7747 0.561601 5.20936 0.489217 5.73816C0.395224 6.42543 -1.74907 22.664 3.75089 30.7422C9.24434 38.8108 17.3484 40.8785 17.6906 40.9627C17.7923 40.9877 17.896 41 18 41C18.104 41 18.2077 40.9875 18.3094 40.9627C18.6518 40.8785 26.7558 38.8108 32.2491 30.7422C37.7491 22.6642 35.6048 6.42561 35.5108 5.73816ZM28.4505 15.2184L17.3967 26.4586C17.1395 26.7201 16.8021 26.8511 16.465 26.8511C16.1279 26.8511 15.7905 26.7203 15.5333 26.4586L8.69883 19.5089C8.45163 19.2577 8.31284 18.9168 8.31284 18.5615C8.31284 18.2062 8.45181 17.8653 8.69883 17.6141L10.0559 16.2342C10.5704 15.7111 11.4048 15.711 11.9192 16.2342L16.465 20.8566L25.2301 11.9436C25.4772 11.6922 25.8124 11.5511 26.1618 11.5511C26.5113 11.5511 26.8465 11.6922 27.0935 11.9436L28.4505 13.3235C28.9651 13.8467 28.9651 14.6952 28.4505 15.2184Z" fill="#006BF6"/>
</svg>
