<svg width="28" height="28" viewBox="0 0 28 28" fill="none" xmlns="http://www.w3.org/2000/svg">
<path d="M14 28C21.732 28 28 21.732 28 14C28 6.26801 21.732 0 14 0C6.26801 0 0 6.26801 0 14C0 21.732 6.26801 28 14 28Z" fill="#006BF6"/>
<path d="M10.4229 20.3155L17.6216 27.5143C23.5837 25.9244 28.0001 20.4922 28.0001 14.0001C28.0001 13.8676 28.0001 13.7351 28.0001 13.6026L22.3471 8.39124L10.4229 20.3155Z" fill="#0057E2"/>
<path d="M14.3535 17.1356C14.9718 17.7539 14.9718 18.8139 14.3535 19.4322L13.0727 20.7129C12.4544 21.3312 11.3945 21.3312 10.7762 20.7129L5.16734 15.0599C4.54904 14.4416 4.54904 13.3817 5.16734 12.7634L6.44809 11.4826C7.06639 10.8643 8.12633 10.8643 8.74463 11.4826L14.3535 17.1356Z" fill="white"/>
<path d="M19.2555 7.37547C19.8738 6.75717 20.9337 6.75717 21.552 7.37547L22.8328 8.65622C23.4511 9.27452 23.4511 10.3345 22.8328 10.9528L13.1167 20.6247C12.4984 21.243 11.4385 21.243 10.8202 20.6247L9.53941 19.3439C8.92111 18.7256 8.92111 17.6657 9.53941 17.0474L19.2555 7.37547Z" fill="white"/>
</svg>
