<svg width="270" height="70" viewBox="0 0 270 70" fill="none" xmlns="http://www.w3.org/2000/svg">
<path d="M61.0418 0H270L251 70H50L61.0418 0Z" fill="white"/>
<path d="M80.864 41.48C80.656 41.48 80.472 41.384 80.312 41.192C80.152 41.016 80.072 40.768 80.072 40.448C80.072 39.744 80.464 38.6 81.248 37.016C82.048 35.416 83.088 33.464 84.368 31.16L84.92 30.176H80.72C80.288 30.176 79.96 30.208 79.736 30.272C79.528 30.336 79.352 30.488 79.208 30.728C79.08 30.968 78.984 31.344 78.92 31.856C78.888 31.984 78.832 32.08 78.752 32.144C78.688 32.192 78.56 32.216 78.368 32.216C78.096 32.216 77.96 32.08 77.96 31.808L78.056 29C78.056 28.648 78.288 28.472 78.752 28.472H86.072C86.536 28.472 86.768 28.624 86.768 28.928C86.768 29.168 86.592 29.584 86.24 30.176C85.648 31.168 85.096 32.28 84.584 33.512C84.088 34.728 83.536 36.176 82.928 37.856C82.432 39.216 82.072 40.168 81.848 40.712C81.608 41.224 81.28 41.48 80.864 41.48ZM98.7305 44.96C97.0185 43.792 95.7065 42.272 94.7945 40.4C93.8825 38.528 93.4265 36.472 93.4265 34.232C93.4265 32.024 93.8825 29.992 94.7945 28.136C95.7065 26.28 97.0265 24.744 98.7545 23.528C98.8825 23.464 98.9705 23.432 99.0185 23.432C99.1465 23.432 99.2585 23.528 99.3545 23.72C99.3865 23.816 99.4025 23.888 99.4025 23.936C99.4025 24.096 99.3305 24.24 99.1865 24.368C98.0665 25.44 97.1625 26.864 96.4745 28.64C95.8025 30.4 95.4665 32.272 95.4665 34.256C95.4665 36.24 95.8025 38.12 96.4745 39.896C97.1465 41.656 98.0425 43.064 99.1625 44.12C99.3065 44.248 99.3785 44.392 99.3785 44.552C99.3785 44.6 99.3625 44.672 99.3305 44.768C99.2345 44.96 99.1225 45.056 98.9945 45.056C98.9465 45.056 98.8585 45.024 98.7305 44.96ZM106.764 41.288C106.492 41.288 106.252 41.248 106.044 41.168C105.836 41.088 105.724 40.976 105.708 40.832V37.16H99.9718C99.7158 37.16 99.5238 37.08 99.3958 36.92C99.2678 36.76 99.2038 36.56 99.2038 36.32C99.2038 36.112 99.2598 35.936 99.3718 35.792L106.116 28.424C106.276 28.264 106.524 28.184 106.86 28.184C107.116 28.184 107.332 28.256 107.508 28.4C107.684 28.528 107.78 28.736 107.796 29.024V35.984H109.236C109.46 35.984 109.62 36.016 109.716 36.08C109.812 36.128 109.868 36.288 109.884 36.56C109.884 36.736 109.844 36.88 109.764 36.992C109.7 37.104 109.588 37.16 109.428 37.16H107.796V40.832C107.796 40.976 107.692 41.088 107.484 41.168C107.276 41.248 107.036 41.288 106.764 41.288ZM100.596 35.984H105.708V30.296L100.596 35.984ZM114.302 41.528C114.222 41.544 114.102 41.552 113.942 41.552C113.622 41.552 113.462 41.408 113.462 41.12C113.462 40.864 113.606 40.696 113.894 40.616C116.822 39.704 118.566 38.064 119.126 35.696C118.598 36.048 118.07 36.296 117.542 36.44C117.03 36.584 116.494 36.656 115.934 36.656C115.166 36.656 114.462 36.488 113.822 36.152C113.182 35.8 112.678 35.328 112.31 34.736C111.942 34.128 111.758 33.44 111.758 32.672C111.758 31.808 111.99 31.048 112.454 30.392C112.918 29.72 113.526 29.2 114.278 28.832C115.03 28.464 115.83 28.28 116.678 28.28C118.198 28.28 119.406 28.752 120.302 29.696C121.214 30.64 121.67 31.928 121.67 33.56C121.67 34.856 121.358 36.064 120.734 37.184C120.126 38.304 119.262 39.248 118.142 40.016C117.022 40.768 115.742 41.272 114.302 41.528ZM116.75 35.576C117.15 35.576 117.566 35.48 117.998 35.288C118.43 35.08 118.838 34.808 119.222 34.472C119.318 34.088 119.366 33.776 119.366 33.536C119.366 32.896 119.278 32.232 119.102 31.544C118.942 30.856 118.654 30.272 118.238 29.792C117.838 29.296 117.318 29.048 116.678 29.048C115.926 29.048 115.302 29.368 114.806 30.008C114.31 30.632 114.062 31.448 114.062 32.456C114.062 33.4 114.31 34.16 114.806 34.736C115.302 35.296 115.95 35.576 116.75 35.576ZM126.49 41.528C126.41 41.544 126.29 41.552 126.13 41.552C125.81 41.552 125.65 41.408 125.65 41.12C125.65 40.864 125.794 40.696 126.082 40.616C129.01 39.704 130.754 38.064 131.314 35.696C130.786 36.048 130.258 36.296 129.73 36.44C129.218 36.584 128.682 36.656 128.122 36.656C127.354 36.656 126.65 36.488 126.01 36.152C125.37 35.8 124.866 35.328 124.498 34.736C124.13 34.128 123.946 33.44 123.946 32.672C123.946 31.808 124.178 31.048 124.642 30.392C125.106 29.72 125.714 29.2 126.465 28.832C127.218 28.464 128.018 28.28 128.866 28.28C130.386 28.28 131.594 28.752 132.49 29.696C133.402 30.64 133.858 31.928 133.858 33.56C133.858 34.856 133.546 36.064 132.922 37.184C132.314 38.304 131.45 39.248 130.33 40.016C129.21 40.768 127.93 41.272 126.49 41.528ZM128.938 35.576C129.338 35.576 129.754 35.48 130.186 35.288C130.618 35.08 131.026 34.808 131.41 34.472C131.506 34.088 131.554 33.776 131.554 33.536C131.554 32.896 131.466 32.232 131.29 31.544C131.13 30.856 130.842 30.272 130.426 29.792C130.026 29.296 129.506 29.048 128.866 29.048C128.114 29.048 127.49 29.368 126.994 30.008C126.498 30.632 126.25 31.448 126.25 32.456C126.25 33.4 126.498 34.16 126.994 34.736C127.49 35.296 128.138 35.576 128.938 35.576ZM135.097 44.96C134.969 45.024 134.881 45.056 134.833 45.056C134.705 45.056 134.593 44.96 134.497 44.768C134.465 44.672 134.449 44.6 134.449 44.552C134.449 44.392 134.521 44.248 134.665 44.12C135.785 43.064 136.681 41.656 137.353 39.896C138.025 38.12 138.361 36.24 138.361 34.256C138.361 32.272 138.017 30.4 137.329 28.64C136.657 26.864 135.761 25.44 134.641 24.368C134.497 24.24 134.425 24.096 134.425 23.936C134.425 23.888 134.441 23.816 134.473 23.72C134.569 23.528 134.681 23.432 134.809 23.432C134.857 23.432 134.945 23.464 135.073 23.528C136.801 24.744 138.121 26.28 139.033 28.136C139.945 29.992 140.401 32.024 140.401 34.232C140.401 36.472 139.945 38.528 139.033 40.4C138.121 42.272 136.809 43.792 135.097 44.96ZM152.056 41.48C150.888 41.48 149.896 41.256 149.08 40.808C148.28 40.344 147.88 39.672 147.88 38.792C147.88 38.328 148.024 37.928 148.312 37.592C148.6 37.256 149 37.088 149.512 37.088C149.816 37.088 150.072 37.168 150.28 37.328C150.504 37.488 150.616 37.624 150.616 37.736C150.616 37.752 150.544 37.816 150.4 37.928C150.256 38.024 150.12 38.16 149.992 38.336C149.88 38.512 149.824 38.736 149.824 39.008C149.824 39.504 150.032 39.896 150.448 40.184C150.88 40.456 151.44 40.592 152.128 40.592C153.84 40.592 154.696 39.64 154.696 37.736C154.696 36.952 154.488 36.328 154.072 35.864C153.656 35.384 153.032 35.12 152.2 35.072H151.312C151.2 35.072 151.112 35.024 151.048 34.928C150.984 34.832 150.952 34.72 150.952 34.592C150.952 34.448 150.984 34.328 151.048 34.232C151.112 34.12 151.2 34.056 151.312 34.04H152.2C152.824 33.976 153.32 33.696 153.688 33.2C154.072 32.704 154.264 32.104 154.264 31.4C154.264 30.632 154.048 30.048 153.616 29.648C153.184 29.232 152.68 29.024 152.104 29.024C151.56 29.024 151.088 29.184 150.688 29.504C150.304 29.808 150.112 30.232 150.112 30.776C150.112 31.128 150.176 31.368 150.304 31.496C150.448 31.608 150.584 31.68 150.712 31.712C150.84 31.728 150.904 31.744 150.904 31.76C150.904 31.872 150.792 32.008 150.568 32.168C150.36 32.328 150.104 32.408 149.8 32.408C149.288 32.408 148.888 32.248 148.6 31.928C148.312 31.608 148.168 31.2 148.168 30.704C148.168 29.92 148.536 29.312 149.272 28.88C150.008 28.448 150.96 28.232 152.128 28.232C153.376 28.232 154.408 28.504 155.224 29.048C156.04 29.592 156.448 30.376 156.448 31.4C156.448 32.072 156.208 32.696 155.728 33.272C155.264 33.848 154.592 34.256 153.712 34.496V34.592C154.608 34.688 155.384 34.976 156.04 35.456C156.696 35.92 157.024 36.664 157.024 37.688C157.024 38.984 156.552 39.944 155.608 40.568C154.664 41.176 153.48 41.48 152.056 41.48ZM161.904 41.528C161.824 41.544 161.704 41.552 161.544 41.552C161.224 41.552 161.064 41.408 161.064 41.12C161.064 40.864 161.208 40.696 161.496 40.616C164.424 39.704 166.168 38.064 166.728 35.696C166.2 36.048 165.672 36.296 165.144 36.44C164.632 36.584 164.096 36.656 163.536 36.656C162.768 36.656 162.064 36.488 161.424 36.152C160.784 35.8 160.28 35.328 159.912 34.736C159.544 34.128 159.36 33.44 159.36 32.672C159.36 31.808 159.592 31.048 160.056 30.392C160.52 29.72 161.128 29.2 161.88 28.832C162.632 28.464 163.432 28.28 164.28 28.28C165.8 28.28 167.008 28.752 167.904 29.696C168.816 30.64 169.272 31.928 169.272 33.56C169.272 34.856 168.96 36.064 168.336 37.184C167.728 38.304 166.864 39.248 165.744 40.016C164.624 40.768 163.344 41.272 161.904 41.528ZM164.352 35.576C164.752 35.576 165.168 35.48 165.6 35.288C166.032 35.08 166.44 34.808 166.824 34.472C166.92 34.088 166.968 33.776 166.968 33.536C166.968 32.896 166.88 32.232 166.704 31.544C166.544 30.856 166.256 30.272 165.84 29.792C165.44 29.296 164.92 29.048 164.28 29.048C163.528 29.048 162.904 29.368 162.408 30.008C161.912 30.632 161.664 31.448 161.664 32.456C161.664 33.4 161.912 34.16 162.408 34.736C162.904 35.296 163.552 35.576 164.352 35.576ZM178.459 41.288C178.187 41.288 177.947 41.248 177.739 41.168C177.531 41.088 177.419 40.976 177.403 40.832V37.16H171.667C171.411 37.16 171.219 37.08 171.091 36.92C170.963 36.76 170.899 36.56 170.899 36.32C170.899 36.112 170.955 35.936 171.067 35.792L177.811 28.424C177.971 28.264 178.219 28.184 178.555 28.184C178.811 28.184 179.027 28.256 179.203 28.4C179.379 28.528 179.475 28.736 179.491 29.024V35.984H180.931C181.155 35.984 181.315 36.016 181.411 36.08C181.507 36.128 181.563 36.288 181.579 36.56C181.579 36.736 181.539 36.88 181.459 36.992C181.395 37.104 181.283 37.16 181.123 37.16H179.491V40.832C179.491 40.976 179.387 41.088 179.179 41.168C178.971 41.248 178.731 41.288 178.459 41.288ZM172.291 35.984H177.403V30.296L172.291 35.984ZM184.437 36.224C184.277 36.224 184.141 36.144 184.029 35.984C183.933 35.808 183.885 35.632 183.885 35.456C183.885 35.28 183.933 35.112 184.029 34.952C184.141 34.776 184.277 34.688 184.437 34.688H189.693C189.853 34.688 189.981 34.776 190.077 34.952C190.189 35.112 190.245 35.28 190.245 35.456C190.245 35.632 190.189 35.808 190.077 35.984C189.981 36.144 189.853 36.224 189.693 36.224H184.437ZM192.053 41C191.493 41 191.213 40.712 191.213 40.136C191.229 39.8 191.317 39.528 191.477 39.32C191.653 39.112 191.933 38.88 192.317 38.624C193.581 37.776 194.557 37.08 195.245 36.536C195.949 35.976 196.581 35.272 197.141 34.424C197.701 33.576 197.981 32.624 197.981 31.568C197.981 30.8 197.773 30.208 197.357 29.792C196.957 29.36 196.389 29.144 195.653 29.144C195.029 29.144 194.509 29.304 194.093 29.624C193.693 29.928 193.493 30.352 193.493 30.896C193.493 31.168 193.557 31.4 193.685 31.592C193.813 31.768 193.941 31.912 194.069 32.024C194.213 32.136 194.285 32.2 194.285 32.216C194.285 32.328 194.173 32.464 193.949 32.624C193.741 32.784 193.485 32.864 193.181 32.864C192.685 32.864 192.285 32.712 191.981 32.408C191.693 32.088 191.549 31.688 191.549 31.208C191.549 30.568 191.765 30.024 192.197 29.576C192.629 29.128 193.173 28.8 193.829 28.592C194.501 28.384 195.181 28.28 195.869 28.28C197.069 28.28 198.101 28.576 198.965 29.168C199.845 29.76 200.285 30.664 200.285 31.88C200.285 32.76 200.045 33.56 199.565 34.28C199.085 35 198.509 35.616 197.837 36.128C197.181 36.624 196.317 37.216 195.245 37.904C194.397 38.432 193.765 38.856 193.349 39.176V39.296H199.781C200.181 39.296 200.469 39.344 200.645 39.44C200.837 39.52 200.933 39.752 200.933 40.136C200.933 40.712 200.653 41 200.093 41H192.053ZM205.762 41.48C205.554 41.48 205.37 41.384 205.21 41.192C205.05 41.016 204.97 40.768 204.97 40.448C204.97 39.744 205.362 38.6 206.146 37.016C206.946 35.416 207.986 33.464 209.266 31.16L209.818 30.176H205.618C205.186 30.176 204.858 30.208 204.634 30.272C204.426 30.336 204.25 30.488 204.106 30.728C203.978 30.968 203.882 31.344 203.818 31.856C203.786 31.984 203.73 32.08 203.65 32.144C203.586 32.192 203.458 32.216 203.266 32.216C202.994 32.216 202.858 32.08 202.858 31.808L202.954 29C202.954 28.648 203.186 28.472 203.65 28.472H210.97C211.434 28.472 211.666 28.624 211.666 28.928C211.666 29.168 211.49 29.584 211.138 30.176C210.546 31.168 209.994 32.28 209.482 33.512C208.986 34.728 208.434 36.176 207.826 37.856C207.33 39.216 206.97 40.168 206.746 40.712C206.506 41.224 206.178 41.48 205.762 41.48ZM212.867 36.224C212.707 36.224 212.571 36.144 212.459 35.984C212.363 35.808 212.315 35.632 212.315 35.456C212.315 35.28 212.363 35.112 212.459 34.952C212.571 34.776 212.707 34.688 212.867 34.688H218.123C218.283 34.688 218.411 34.776 218.507 34.952C218.619 35.112 218.675 35.28 218.675 35.456C218.675 35.632 218.619 35.808 218.507 35.984C218.411 36.144 218.283 36.224 218.123 36.224H212.867ZM220.483 41C219.923 41 219.643 40.712 219.643 40.136C219.659 39.8 219.747 39.528 219.907 39.32C220.083 39.112 220.363 38.88 220.747 38.624C222.011 37.776 222.987 37.08 223.675 36.536C224.379 35.976 225.011 35.272 225.571 34.424C226.131 33.576 226.411 32.624 226.411 31.568C226.411 30.8 226.203 30.208 225.787 29.792C225.387 29.36 224.819 29.144 224.083 29.144C223.459 29.144 222.939 29.304 222.523 29.624C222.123 29.928 221.923 30.352 221.923 30.896C221.923 31.168 221.987 31.4 222.115 31.592C222.243 31.768 222.371 31.912 222.499 32.024C222.643 32.136 222.715 32.2 222.715 32.216C222.715 32.328 222.603 32.464 222.379 32.624C222.171 32.784 221.915 32.864 221.611 32.864C221.115 32.864 220.715 32.712 220.411 32.408C220.123 32.088 219.979 31.688 219.979 31.208C219.979 30.568 220.195 30.024 220.627 29.576C221.059 29.128 221.603 28.8 222.259 28.592C222.931 28.384 223.611 28.28 224.299 28.28C225.499 28.28 226.531 28.576 227.395 29.168C228.275 29.76 228.715 30.664 228.715 31.88C228.715 32.76 228.475 33.56 227.995 34.28C227.515 35 226.939 35.616 226.267 36.128C225.611 36.624 224.747 37.216 223.675 37.904C222.827 38.432 222.195 38.856 221.779 39.176V39.296H228.211C228.611 39.296 228.899 39.344 229.075 39.44C229.267 39.52 229.363 39.752 229.363 40.136C229.363 40.712 229.083 41 228.523 41H220.483ZM238.248 41.288C237.976 41.288 237.736 41.248 237.528 41.168C237.32 41.088 237.208 40.976 237.192 40.832V37.16H231.456C231.2 37.16 231.008 37.08 230.88 36.92C230.752 36.76 230.688 36.56 230.688 36.32C230.688 36.112 230.744 35.936 230.856 35.792L237.6 28.424C237.76 28.264 238.008 28.184 238.344 28.184C238.6 28.184 238.816 28.256 238.992 28.4C239.168 28.528 239.264 28.736 239.28 29.024V35.984H240.72C240.944 35.984 241.104 36.016 241.2 36.08C241.296 36.128 241.352 36.288 241.368 36.56C241.368 36.736 241.328 36.88 241.248 36.992C241.184 37.104 241.072 37.16 240.912 37.16H239.28V40.832C239.28 40.976 239.176 41.088 238.968 41.168C238.76 41.248 238.52 41.288 238.248 41.288ZM232.08 35.984H237.192V30.296L232.08 35.984Z" fill="#181818"/>
<path d="M19 0H69L50 70H0L19 0Z" fill="#006BF6"/>
<path d="M46.8592 39.2894L44.3112 36.2694C43.4011 35.1909 41.6751 35.443 41.1662 36.6999C40.7909 37.5681 39.7531 37.9793 38.8744 37.7038C36.9265 37.0364 34.461 34.2236 34.1423 32.0952C33.9205 31.1757 34.6028 30.2338 35.5241 30.0128C36.852 29.7265 37.395 28.0723 36.485 26.9938L33.9369 23.9738C33.2004 23.2103 32.0061 23.1078 31.2498 23.7432L29.1969 25.4679C27.1355 27.292 28.7738 32.735 33.0508 37.8043C37.3279 42.8735 42.4152 45.5112 44.5762 43.6956L46.6291 41.9709C47.394 41.2362 47.4963 40.0444 46.8592 39.2894Z" fill="white"/>
</svg>
