<svg width="255" height="75" viewBox="0 0 255 75" fill="none" xmlns="http://www.w3.org/2000/svg">
<path opacity="0.5" d="M24 5H255L236 75H5L24 5Z" fill="url(#paint0_linear_1121_1637)"/>
<path d="M19 0H250L231 70H0L19 0Z" fill="url(#paint1_linear_1121_1637)"/>
<path d="M6.66671 65.5L24.463 4.5H243.333L225.537 65.5H6.66671Z" stroke="url(#paint2_linear_1121_1637)"/>
<path d="M78.6992 30.6924C78.6992 30.1182 78.4824 29.6611 78.0488 29.3213C77.6152 28.9814 77.0264 28.8115 76.2822 28.8115C75.6436 28.8115 75.1104 28.9814 74.6826 29.3213C74.2549 29.6553 74.041 30.0889 74.041 30.6221H71.8262C71.8262 29.9248 72.0195 29.3037 72.4062 28.7588C72.793 28.2139 73.3291 27.792 74.0146 27.4932C74.7002 27.1885 75.4561 27.0361 76.2822 27.0361C77.7471 27.0361 78.8838 27.3555 79.6924 27.9941C80.5068 28.6328 80.9141 29.5264 80.9141 30.6748C80.9141 31.2549 80.7383 31.7881 80.3867 32.2744C80.0352 32.7607 79.543 33.1445 78.9102 33.4258C79.625 33.6719 80.1699 34.0469 80.5449 34.5508C80.9258 35.0488 81.1162 35.6699 81.1162 36.4141C81.1162 37.5625 80.6768 38.4766 79.7979 39.1562C78.9189 39.8301 77.7471 40.167 76.2822 40.167C75.3799 40.167 74.5625 40.0059 73.8301 39.6836C73.1035 39.3613 72.5557 38.9219 72.1865 38.3652C71.8232 37.8086 71.6416 37.1699 71.6416 36.4492H73.8564C73.8564 37 74.085 37.4658 74.542 37.8467C74.999 38.2217 75.5791 38.4092 76.2822 38.4092C77.0674 38.4092 77.6973 38.2246 78.1719 37.8555C78.6523 37.4863 78.8926 37.0059 78.8926 36.4141C78.8926 35.6934 78.6816 35.1719 78.2598 34.8496C77.8438 34.5215 77.2314 34.3574 76.4229 34.3574H74.9199V32.5996H76.3438C77.9141 32.5996 78.6992 31.9639 78.6992 30.6924ZM88.6572 40C88.5635 39.8184 88.4814 39.5225 88.4111 39.1123C87.7314 39.8213 86.8994 40.1758 85.915 40.1758C84.96 40.1758 84.1807 39.9033 83.5771 39.3584C82.9736 38.8135 82.6719 38.1396 82.6719 37.3369C82.6719 36.3232 83.0469 35.5469 83.7969 35.0078C84.5527 34.4629 85.6309 34.1904 87.0312 34.1904H88.3408V33.5664C88.3408 33.0742 88.2031 32.6816 87.9277 32.3887C87.6523 32.0898 87.2334 31.9404 86.6709 31.9404C86.1846 31.9404 85.7861 32.0635 85.4756 32.3096C85.165 32.5498 85.0098 32.8574 85.0098 33.2324H82.874C82.874 32.7109 83.0469 32.2246 83.3926 31.7734C83.7383 31.3164 84.207 30.959 84.7988 30.7012C85.3965 30.4434 86.0615 30.3145 86.7939 30.3145C87.9072 30.3145 88.7949 30.5957 89.457 31.1582C90.1191 31.7148 90.459 32.5 90.4766 33.5137V37.8027C90.4766 38.6582 90.5967 39.3408 90.8369 39.8506V40H88.6572ZM86.3105 38.4619C86.7324 38.4619 87.1279 38.3594 87.4971 38.1543C87.8721 37.9492 88.1533 37.6738 88.3408 37.3281V35.5352H87.1895C86.3984 35.5352 85.8037 35.6729 85.4053 35.9482C85.0068 36.2236 84.8076 36.6133 84.8076 37.1172C84.8076 37.5273 84.9424 37.8555 85.2119 38.1016C85.4873 38.3418 85.8535 38.4619 86.3105 38.4619ZM96.0928 36.2383H95.0117V40H92.876V30.4902H95.0117V34.2871H95.9521L98.5801 30.4902H101.217L97.7803 35.043L101.507 40H98.7295L96.0928 36.2383ZM108.362 40C108.269 39.8184 108.187 39.5225 108.116 39.1123C107.437 39.8213 106.604 40.1758 105.62 40.1758C104.665 40.1758 103.886 39.9033 103.282 39.3584C102.679 38.8135 102.377 38.1396 102.377 37.3369C102.377 36.3232 102.752 35.5469 103.502 35.0078C104.258 34.4629 105.336 34.1904 106.736 34.1904H108.046V33.5664C108.046 33.0742 107.908 32.6816 107.633 32.3887C107.357 32.0898 106.938 31.9404 106.376 31.9404C105.89 31.9404 105.491 32.0635 105.181 32.3096C104.87 32.5498 104.715 32.8574 104.715 33.2324H102.579C102.579 32.7109 102.752 32.2246 103.098 31.7734C103.443 31.3164 103.912 30.959 104.504 30.7012C105.102 30.4434 105.767 30.3145 106.499 30.3145C107.612 30.3145 108.5 30.5957 109.162 31.1582C109.824 31.7148 110.164 32.5 110.182 33.5137V37.8027C110.182 38.6582 110.302 39.3408 110.542 39.8506V40H108.362ZM106.016 38.4619C106.438 38.4619 106.833 38.3594 107.202 38.1543C107.577 37.9492 107.858 37.6738 108.046 37.3281V35.5352H106.895C106.104 35.5352 105.509 35.6729 105.11 35.9482C104.712 36.2236 104.513 36.6133 104.513 37.1172C104.513 37.5273 104.647 37.8555 104.917 38.1016C105.192 38.3418 105.559 38.4619 106.016 38.4619ZM119.621 33.0918C119.621 33.5137 119.492 33.9033 119.234 34.2607C118.982 34.6123 118.625 34.8936 118.162 35.1045C119.252 35.4854 119.797 36.2207 119.797 37.3105C119.797 38.1836 119.442 38.8809 118.733 39.4023C118.024 39.918 117.075 40.1758 115.886 40.1758C115.159 40.1758 114.497 40.0557 113.899 39.8154C113.302 39.5693 112.836 39.2236 112.502 38.7783C112.168 38.3271 112.001 37.7939 112.001 37.1787H114.128C114.128 37.5654 114.301 37.8906 114.646 38.1543C114.992 38.4121 115.429 38.541 115.956 38.541C116.478 38.541 116.891 38.4209 117.195 38.1807C117.506 37.9346 117.661 37.6152 117.661 37.2227C117.661 36.7598 117.526 36.4258 117.257 36.2207C116.987 36.0156 116.571 35.9131 116.009 35.9131H114.479V34.375H116.062C117.017 34.3633 117.494 33.9707 117.494 33.1973C117.494 32.8105 117.356 32.5088 117.081 32.292C116.806 32.0752 116.428 31.9668 115.947 31.9668C115.479 31.9668 115.083 32.084 114.761 32.3184C114.438 32.5469 114.277 32.8369 114.277 33.1885H112.15C112.15 32.3506 112.502 31.665 113.205 31.1318C113.908 30.5928 114.802 30.3232 115.886 30.3232C117.063 30.3232 117.98 30.5635 118.637 31.0439C119.293 31.5244 119.621 32.207 119.621 33.0918ZM127.294 40C127.2 39.8184 127.118 39.5225 127.048 39.1123C126.368 39.8213 125.536 40.1758 124.552 40.1758C123.597 40.1758 122.817 39.9033 122.214 39.3584C121.61 38.8135 121.309 38.1396 121.309 37.3369C121.309 36.3232 121.684 35.5469 122.434 35.0078C123.189 34.4629 124.268 34.1904 125.668 34.1904H126.978V33.5664C126.978 33.0742 126.84 32.6816 126.564 32.3887C126.289 32.0898 125.87 31.9404 125.308 31.9404C124.821 31.9404 124.423 32.0635 124.112 32.3096C123.802 32.5498 123.646 32.8574 123.646 33.2324H121.511C121.511 32.7109 121.684 32.2246 122.029 31.7734C122.375 31.3164 122.844 30.959 123.436 30.7012C124.033 30.4434 124.698 30.3145 125.431 30.3145C126.544 30.3145 127.432 30.5957 128.094 31.1582C128.756 31.7148 129.096 32.5 129.113 33.5137V37.8027C129.113 38.6582 129.233 39.3408 129.474 39.8506V40H127.294ZM124.947 38.4619C125.369 38.4619 125.765 38.3594 126.134 38.1543C126.509 37.9492 126.79 37.6738 126.978 37.3281V35.5352H125.826C125.035 35.5352 124.44 35.6729 124.042 35.9482C123.644 36.2236 123.444 36.6133 123.444 37.1172C123.444 37.5273 123.579 37.8555 123.849 38.1016C124.124 38.3418 124.49 38.4619 124.947 38.4619ZM138.693 32.1865H135.608V40H133.473V32.1865H130.423V30.4902H138.693V32.1865ZM142.42 33.5137H144.512C145.291 33.5137 145.971 33.6484 146.551 33.918C147.131 34.1875 147.57 34.5654 147.869 35.0518C148.174 35.5381 148.326 36.1035 148.326 36.748C148.326 37.7266 147.98 38.5117 147.289 39.1035C146.598 39.6953 145.678 39.9941 144.529 40H140.284V30.4902H142.42V33.5137ZM142.42 35.2275V38.2949H144.503C145.024 38.2949 145.435 38.166 145.733 37.9082C146.038 37.6445 146.19 37.2725 146.19 36.792C146.19 36.3115 146.041 35.9336 145.742 35.6582C145.449 35.377 145.051 35.2334 144.547 35.2275H142.42ZM161.721 33.0918C161.721 33.5137 161.592 33.9033 161.334 34.2607C161.082 34.6123 160.725 34.8936 160.262 35.1045C161.352 35.4854 161.896 36.2207 161.896 37.3105C161.896 38.1836 161.542 38.8809 160.833 39.4023C160.124 39.918 159.175 40.1758 157.985 40.1758C157.259 40.1758 156.597 40.0557 155.999 39.8154C155.401 39.5693 154.936 39.2236 154.602 38.7783C154.268 38.3271 154.101 37.7939 154.101 37.1787H156.228C156.228 37.5654 156.4 37.8906 156.746 38.1543C157.092 38.4121 157.528 38.541 158.056 38.541C158.577 38.541 158.99 38.4209 159.295 38.1807C159.605 37.9346 159.761 37.6152 159.761 37.2227C159.761 36.7598 159.626 36.4258 159.356 36.2207C159.087 36.0156 158.671 35.9131 158.108 35.9131H156.579V34.375H158.161C159.116 34.3633 159.594 33.9707 159.594 33.1973C159.594 32.8105 159.456 32.5088 159.181 32.292C158.905 32.0752 158.527 31.9668 158.047 31.9668C157.578 31.9668 157.183 32.084 156.86 32.3184C156.538 32.5469 156.377 32.8369 156.377 33.1885H154.25C154.25 32.3506 154.602 31.665 155.305 31.1318C156.008 30.5928 156.901 30.3232 157.985 30.3232C159.163 30.3232 160.08 30.5635 160.736 31.0439C161.393 31.5244 161.721 32.207 161.721 33.0918ZM163.874 40V30.4902H167.732C169.033 30.4902 170.023 30.7188 170.703 31.1758C171.383 31.627 171.723 32.2773 171.723 33.127C171.723 33.5664 171.585 33.9619 171.31 34.3135C171.04 34.6592 170.639 34.9258 170.105 35.1133C170.727 35.2422 171.219 35.5029 171.582 35.8955C171.945 36.2881 172.127 36.751 172.127 37.2842C172.127 38.1689 171.799 38.8428 171.143 39.3057C170.492 39.7686 169.555 40 168.33 40H163.874ZM166.01 35.9482V38.3125H168.348C169.443 38.3125 169.991 37.9199 169.991 37.1348C169.991 36.3438 169.435 35.9482 168.321 35.9482H166.01ZM166.01 34.4189H167.768C168.98 34.4189 169.587 34.0615 169.587 33.3467C169.587 32.5967 169.013 32.21 167.864 32.1865H166.01V34.4189ZM173.577 35.1572C173.577 34.2256 173.762 33.3877 174.131 32.6436C174.5 31.8936 175.019 31.3193 175.687 30.9209C176.354 30.5166 177.122 30.3145 177.989 30.3145C179.272 30.3145 180.312 30.7275 181.109 31.5537C181.912 32.3799 182.346 33.4756 182.41 34.8408L182.419 35.3418C182.419 36.2793 182.237 37.1172 181.874 37.8555C181.517 38.5938 181.001 39.165 180.327 39.5693C179.659 39.9736 178.886 40.1758 178.007 40.1758C176.665 40.1758 175.59 39.7305 174.781 38.8398C173.979 37.9434 173.577 36.751 173.577 35.2627V35.1572ZM175.713 35.3418C175.713 36.3203 175.915 37.0879 176.319 37.6445C176.724 38.1953 177.286 38.4707 178.007 38.4707C178.728 38.4707 179.287 38.1895 179.686 37.627C180.09 37.0645 180.292 36.2412 180.292 35.1572C180.292 34.1963 180.084 33.4346 179.668 32.8721C179.258 32.3096 178.698 32.0283 177.989 32.0283C177.292 32.0283 176.738 32.3066 176.328 32.8633C175.918 33.4141 175.713 34.2402 175.713 35.3418ZM192.28 40H190.145V36.1592H186.444V40H184.309V30.4902H186.444V34.4541H190.145V30.4902H192.28V40ZM194.161 35.1572C194.161 34.2256 194.346 33.3877 194.715 32.6436C195.084 31.8936 195.603 31.3193 196.271 30.9209C196.938 30.5166 197.706 30.3145 198.573 30.3145C199.856 30.3145 200.896 30.7275 201.693 31.5537C202.496 32.3799 202.93 33.4756 202.994 34.8408L203.003 35.3418C203.003 36.2793 202.821 37.1172 202.458 37.8555C202.101 38.5938 201.585 39.165 200.911 39.5693C200.243 39.9736 199.47 40.1758 198.591 40.1758C197.249 40.1758 196.174 39.7305 195.365 38.8398C194.562 37.9434 194.161 36.751 194.161 35.2627V35.1572ZM196.297 35.3418C196.297 36.3203 196.499 37.0879 196.903 37.6445C197.308 38.1953 197.87 38.4707 198.591 38.4707C199.312 38.4707 199.871 38.1895 200.27 37.627C200.674 37.0645 200.876 36.2412 200.876 35.1572C200.876 34.1963 200.668 33.4346 200.252 32.8721C199.842 32.3096 199.282 32.0283 198.573 32.0283C197.876 32.0283 197.322 32.3066 196.912 32.8633C196.502 33.4141 196.297 34.2402 196.297 35.3418ZM208.188 36.2383H207.107V40H204.972V30.4902H207.107V34.2871H208.048L210.676 30.4902H213.312L209.876 35.043L213.603 40H210.825L208.188 36.2383Z" fill="white"/>
<path d="M47.9177 29.0166C47.3259 28.4582 47 27.7151 47 26.9243C47 26.1334 47.3259 25.3905 47.9177 24.8321L50.6166 22.2853C51.0226 21.9025 51.6774 21.9052 52.0797 22.2916C52.4817 22.6779 52.4789 23.3015 52.073 23.6843L49.7353 25.8902H53.3079C56.4427 25.8902 58.9949 28.3181 58.9976 31.3024L59 34.0144C59.0004 34.5584 58.5377 34.9996 57.9663 35C57.3953 35 56.9314 34.5597 56.931 34.0161L56.9286 31.3041C56.927 29.405 55.3027 27.86 53.3079 27.86H49.6309L52.073 30.1642C52.4789 30.5472 52.4817 31.1706 52.0797 31.557C51.8774 31.7513 51.6111 31.8486 51.3448 31.8486C51.0816 31.8486 50.8183 31.7536 50.6166 31.5632L47.9177 29.0166Z" fill="white"/>
<path d="M52.8592 39.2894L50.3112 36.2694C49.4011 35.1909 47.6751 35.443 47.1662 36.6999C46.7909 37.5681 45.7531 37.9793 44.8744 37.7038C42.9265 37.0364 40.461 34.2236 40.1423 32.0952C39.9205 31.1757 40.6028 30.2338 41.5241 30.0128C42.852 29.7265 43.395 28.0723 42.485 26.9938L39.9369 23.9738C39.2004 23.2103 38.0061 23.1078 37.2498 23.7432L35.1969 25.4679C33.1355 27.292 34.7738 32.735 39.0508 37.8043C43.3279 42.8735 48.4152 45.5112 50.5762 43.6956L52.6291 41.9709C53.394 41.2362 53.4963 40.0444 52.8592 39.2894Z" fill="white"/>
<defs>
<linearGradient id="paint0_linear_1121_1637" x1="5" y1="47.1296" x2="255" y2="47.1296" gradientUnits="userSpaceOnUse">
<stop stop-color="#0068F3"/>
<stop offset="1" stop-color="#238FFF"/>
</linearGradient>
<linearGradient id="paint1_linear_1121_1637" x1="2.13668e-07" y1="42.1296" x2="250" y2="42.1296" gradientUnits="userSpaceOnUse">
<stop stop-color="#0068F3"/>
<stop offset="1" stop-color="#238FFF"/>
</linearGradient>
<linearGradient id="paint2_linear_1121_1637" x1="6" y1="41.3148" x2="244" y2="41.3148" gradientUnits="userSpaceOnUse">
<stop stop-color="#238FFF"/>
<stop offset="1" stop-color="#0068F3"/>
</linearGradient>
</defs>
</svg>
