<svg width="56" height="56" viewBox="0 0 56 56" fill="none" xmlns="http://www.w3.org/2000/svg">
<path d="M54.9062 50.9688V20.3438H13.125V50.9688C13.125 52.1774 14.1038 53.1562 15.3125 53.1562H52.7188C53.9274 53.1562 54.9062 52.1774 54.9062 50.9688Z" fill="#C0E3F0"/>
<path d="M52.7188 11.5938H15.2031C13.9944 11.5938 13.0156 12.5726 13.0156 13.7812V20.3438H54.9062V13.7812C54.9062 12.5726 53.9274 11.5938 52.7188 11.5938Z" fill="#4DBBEB"/>
<path d="M32.375 11.5938V13.7812H23.625V7.21875C23.625 4.80267 25.5839 2.84375 28 2.84375C29.2074 2.84375 30.3011 3.3338 31.0933 4.12549C31.8849 4.9176 32.375 6.01135 32.375 7.21875V11.5938Z" fill="white"/>
<path d="M32.375 7.21832C32.375 6.01093 31.8849 4.91718 31.0933 4.12506C30.7233 3.75549 30.2866 3.45215 29.8043 3.2334C28.2888 3.92084 27.2344 5.44611 27.2344 7.21832V13.7808H32.375V7.21832Z" fill="#C0E3F0"/>
<path d="M25.8125 24.7188H7.65625C6.44757 24.7188 5.46875 25.6976 5.46875 26.9062V44.4062C5.46875 45.6149 6.44757 46.5938 7.65625 46.5938H25.8125C27.0212 46.5938 28 45.6149 28 44.4062V26.9062C28 25.6976 27.0212 24.7188 25.8125 24.7188Z" fill="white"/>
<path d="M28 44.4062V26.9062C28 25.6976 27.0212 24.7188 25.8125 24.7188H16.4062C15.1976 24.7188 14.2188 25.6976 14.2188 26.9062V44.4062C14.2188 45.6149 15.1976 46.5938 16.4062 46.5938H25.8125C27.0212 46.5938 28 45.6149 28 44.4062Z" fill="#FEB756"/>
<path d="M21.3751 39.7655C20.1874 38.5786 18.5468 37.8438 16.7344 37.8438C13.1096 37.8438 10.1719 40.7815 10.1719 44.4062V46.5938H23.2969V44.4062C23.2969 42.5939 22.562 40.9532 21.3751 39.7655Z" fill="white"/>
<path d="M21.1094 33.4688C21.1094 35.8848 19.1505 37.8438 16.7344 37.8438C14.3183 37.8438 12.3594 35.8848 12.3594 33.4688C12.3594 31.0527 14.3183 29.0938 16.7344 29.0938C19.1505 29.0938 21.1094 31.0527 21.1094 33.4688Z" fill="white"/>
<path d="M21.3751 39.7651C20.6236 39.0145 19.6909 38.4454 18.648 38.1279C15.9576 38.947 14 41.4472 14 44.4059V46.5934H23.2969V44.4059C23.2969 42.5935 22.562 40.9529 21.3751 39.7651Z" fill="#57555C"/>
<path d="M18.6484 29.5342C17.1915 30.2443 16.1875 31.7392 16.1875 33.4687C16.1875 35.1982 17.1915 36.6931 18.6484 37.4032C20.1053 36.6931 21.1094 35.1982 21.1094 33.4687C21.1094 31.7392 20.1053 30.2443 18.6484 29.5342Z" fill="#57555C"/>
<path d="M48.0156 45.5C47.4119 45.5 46.9219 45.9901 46.9219 46.5938C46.9219 47.1974 47.4119 47.6875 48.0156 47.6875C48.6193 47.6875 49.1094 47.1974 49.1094 46.5938C49.1094 45.9901 48.6193 45.5 48.0156 45.5Z" fill="black"/>
<path d="M41.125 45.5C40.5213 45.5 40.0312 45.9901 40.0312 46.5938C40.0312 47.1974 40.5213 47.6875 41.125 47.6875C41.7287 47.6875 42.2188 47.1974 42.2188 46.5938C42.2188 45.9901 41.7287 45.5 41.125 45.5Z" fill="black"/>
<path d="M34.5625 28C35.1662 28 35.6562 27.5099 35.6562 26.9062C35.6562 26.3026 35.1662 25.8125 34.5625 25.8125C33.9588 25.8125 33.4688 26.3026 33.4688 26.9062C33.4688 27.5099 33.9588 28 34.5625 28Z" fill="black"/>
<path d="M34.5625 45.5C33.9588 45.5 33.4688 45.9901 33.4688 46.5938C33.4688 47.1974 33.9588 47.6875 34.5625 47.6875C35.1662 47.6875 35.6562 47.1974 35.6562 46.5938C35.6562 45.9901 35.1662 45.5 34.5625 45.5Z" fill="black"/>
<path d="M28 6.125C27.3963 6.125 26.9062 6.61505 26.9062 7.21875C26.9062 7.82245 27.3963 8.3125 28 8.3125C28.6037 8.3125 29.0938 7.82245 29.0938 7.21875C29.0938 6.61505 28.6037 6.125 28 6.125Z" fill="black"/>
<path d="M48.0156 25.8125H38.9375C38.3334 25.8125 37.8438 26.3021 37.8438 26.9062C37.8438 27.5104 38.3334 28 38.9375 28H48.0156C48.6198 28 49.1094 27.5104 49.1094 26.9062C49.1094 26.3021 48.6198 25.8125 48.0156 25.8125Z" fill="black"/>
<path d="M48.0156 32.375H34.5625C33.9584 32.375 33.4688 32.8646 33.4688 33.4688C33.4688 34.0729 33.9584 34.5625 34.5625 34.5625H48.0156C48.6198 34.5625 49.1094 34.0729 49.1094 33.4688C49.1094 32.8646 48.6198 32.375 48.0156 32.375Z" fill="black"/>
<path d="M48.0156 38.9375H34.5625C33.9584 38.9375 33.4688 39.4271 33.4688 40.0312C33.4688 40.6354 33.9584 41.125 34.5625 41.125H48.0156C48.6198 41.125 49.1094 40.6354 49.1094 40.0312C49.1094 39.4271 48.6198 38.9375 48.0156 38.9375Z" fill="black"/>
<path d="M52.7188 10.5H33.4688V7.21875C33.4688 5.75885 32.8997 4.38568 31.8666 3.35217C30.8331 2.31909 29.4599 1.75 28 1.75C24.9845 1.75 22.5312 4.20325 22.5312 7.21875V10.5H3.28125C1.47186 10.5 0 11.9719 0 13.7812V50.9688C0 52.7781 1.47186 54.25 3.28125 54.25H52.7188C54.5281 54.25 56 52.7781 56 50.9688V13.7812C56 11.9719 54.5281 10.5 52.7188 10.5ZM24.7188 7.21875C24.7188 5.40936 26.1906 3.9375 28 3.9375C28.8759 3.9375 29.6996 4.27887 30.3199 4.8988C30.9399 5.51917 31.2812 6.3429 31.2812 7.21875V12.6875H24.7188V7.21875ZM3.28125 12.6875H22.5312V13.7812C22.5312 14.3854 23.0209 14.875 23.625 14.875H32.375C32.9791 14.875 33.4688 14.3854 33.4688 13.7812V12.6875H52.7188C53.322 12.6875 53.8125 13.178 53.8125 13.7812V19.25H2.1875V13.7812C2.1875 13.178 2.67798 12.6875 3.28125 12.6875ZM52.7188 52.0625H3.28125C2.67798 52.0625 2.1875 51.572 2.1875 50.9688V21.4375H53.8125V50.9688C53.8125 51.572 53.322 52.0625 52.7188 52.0625Z" fill="black"/>
<path d="M25.8125 23.625H7.65625C5.84686 23.625 4.375 25.0969 4.375 26.9062V44.4062C4.375 46.2156 5.84686 47.6875 7.65625 47.6875H25.8125C27.6219 47.6875 29.0938 46.2156 29.0938 44.4062V26.9062C29.0938 25.0969 27.6219 23.625 25.8125 23.625ZM13.4531 33.4688C13.4531 31.6594 14.925 30.1875 16.7344 30.1875C18.5438 30.1875 20.0156 31.6594 20.0156 33.4688C20.0156 35.2781 18.5438 36.75 16.7344 36.75C14.925 36.75 13.4531 35.2781 13.4531 33.4688ZM22.2031 45.5H11.2656V44.4062C11.2656 41.3907 13.7189 38.9375 16.7344 38.9375C18.1947 38.9375 19.5683 39.5062 20.6014 40.5388C21.6345 41.5723 22.2031 42.9459 22.2031 44.4062V45.5ZM26.9062 44.4062C26.9062 45.0095 26.4158 45.5 25.8125 45.5H24.3906V44.4062C24.3906 42.3619 23.5947 40.4393 22.148 38.9918C21.5917 38.4355 20.9641 37.9771 20.2869 37.6212C21.4584 36.6176 22.2031 35.129 22.2031 33.4688C22.2031 30.4532 19.7499 28 16.7344 28C13.7189 28 11.2656 30.4532 11.2656 33.4688C11.2656 35.1312 12.012 36.6214 13.1861 37.625C10.7465 38.9067 9.07812 41.4647 9.07812 44.4062V45.5H7.65625C7.05298 45.5 6.5625 45.0095 6.5625 44.4062V26.9062C6.5625 26.303 7.05298 25.8125 7.65625 25.8125H25.8125C26.4158 25.8125 26.9062 26.303 26.9062 26.9062V44.4062Z" fill="black"/>
</svg>
