<svg width="54" height="54" viewBox="0 0 54 54" fill="none" xmlns="http://www.w3.org/2000/svg">
<path d="M52.9453 15.0811C52.9453 13.9155 52.0014 12.9717 50.8359 12.9717H11.4961C10.914 12.9717 10.3866 13.2077 10.0047 13.5897C9.62279 13.9716 9.38672 14.4989 9.38672 15.0811C9.38672 16.2466 10.3306 17.1904 11.4961 17.1904H50.8359C51.4181 17.1904 51.9454 16.9544 52.3273 16.5724C52.7092 16.1905 52.9453 15.6632 52.9453 15.0811Z" fill="#FEB756"/>
<path d="M28.6875 1.40625C27.1978 2.05719 26.1562 3.54323 26.1562 5.27275V46.3001H31.2188V5.27275C31.2188 3.54323 30.1772 2.05719 28.6875 1.40625Z" fill="#FEB756"/>
<path d="M46.4602 37.2386C47.8622 36.7841 49.05 35.8543 49.8327 34.6381C50.468 33.6518 50.8359 32.478 50.8359 31.2178H42.082C42.082 34.0325 43.9195 36.4162 46.4602 37.2386V37.2386Z" fill="#FEB756"/>
<path d="M45.9844 46.3008H17.1914C14.8616 46.3008 12.9727 48.1897 12.9727 50.5195V52.9453H50.2031V50.5195C50.2031 48.1897 48.3142 46.3008 45.9844 46.3008Z" fill="#91552C"/>
<path d="M31.8334 12.9727C32.1165 13.6191 32.2734 14.3322 32.2734 15.082C32.2734 15.8318 32.1165 16.545 31.8334 17.1914C31.6691 17.568 31.4622 17.9214 31.2175 18.2461C30.2559 19.5274 28.7246 20.3555 27 20.3555C25.2754 20.3555 23.7441 19.5274 22.7825 18.2461C22.5378 17.9214 22.3309 17.568 22.1666 17.1914C21.8835 16.545 21.7266 15.8318 21.7266 15.082C21.7266 14.3322 21.8835 13.6191 22.1666 12.9727C22.3309 12.5961 22.5378 12.2426 22.7825 11.918C23.7441 10.6367 25.2754 9.80859 27 9.80859C28.7246 9.80859 30.2559 10.6367 31.2175 11.918C31.4622 12.2426 31.6691 12.5961 31.8334 12.9727Z" fill="white"/>
<path d="M31.2175 11.9177C30.6519 11.1638 29.8876 10.5685 29.0039 10.2051C28.1202 10.5685 27.356 11.1638 26.7903 11.9177C26.5456 12.2424 26.3388 12.5958 26.1744 12.9724C25.8913 13.6188 25.7344 14.332 25.7344 15.0818C25.7344 15.8316 25.8913 16.5447 26.1744 17.1911C26.3388 17.5677 26.5456 17.9212 26.7903 18.2458C27.356 18.9998 28.1202 19.5951 29.0039 19.9585C29.8876 19.5951 30.6519 18.9998 31.2175 18.2458C31.4622 17.9212 31.6691 17.5677 31.8334 17.1911C32.1165 16.5447 32.2734 15.8316 32.2734 15.0818C32.2734 14.332 32.1165 13.6188 31.8334 12.9724C31.6691 12.5958 31.4622 12.2424 31.2175 11.9177V11.9177Z" fill="#91552C"/>
<path d="M11.5505 37.2037C12.9063 36.7377 14.0541 35.8248 14.8171 34.6391C15.4524 33.6528 15.8203 32.479 15.8203 31.2188H7.27734C7.27734 33.9943 9.06454 36.3505 11.5505 37.2037V37.2037Z" fill="#FEB756"/>
<path d="M27 6.32812C27.5821 6.32812 28.0547 5.85558 28.0547 5.27344C28.0547 4.6913 27.5821 4.21875 27 4.21875C26.4179 4.21875 25.9453 4.6913 25.9453 5.27344C25.9453 5.85558 26.4179 6.32812 27 6.32812Z" fill="black"/>
<path d="M27 41.0273C26.4179 41.0273 25.9453 41.4999 25.9453 42.082C25.9453 42.6642 26.4179 43.1367 27 43.1367C27.5821 43.1367 28.0547 42.6642 28.0547 42.082C28.0547 41.4999 27.5821 41.0273 27 41.0273Z" fill="black"/>
<path d="M27 23.5195C26.4174 23.5195 25.9453 23.9917 25.9453 24.5742V37.5469C25.9453 38.1294 26.4174 38.6016 27 38.6016C27.5826 38.6016 28.0547 38.1294 28.0547 37.5469V24.5742C28.0547 23.9917 27.5826 23.5195 27 23.5195Z" fill="black"/>
<path d="M53.073 17.3191C53.6708 16.7213 54 15.927 54 15.082C54 13.3373 52.5807 11.918 50.8359 11.918H32.4794C32.4139 11.8047 32.3455 11.6934 32.2734 11.5847V5.27344C32.2734 2.36563 29.9078 0 27 0C24.0922 0 21.7266 2.36563 21.7266 5.27344V11.5847C21.6545 11.6934 21.5861 11.8051 21.5206 11.918H3.16406C2.31908 11.918 1.52476 12.2471 0.926971 12.8449C0.329178 13.4427 0 14.237 0 15.082C0 16.8268 1.4193 18.2461 3.16406 18.2461H7.85948L2.2029 30.7849C2.20166 30.7874 2.20084 30.7899 2.20001 30.7919C2.16747 30.8661 2.14275 30.9444 2.12791 31.0264C2.12544 31.0379 2.12421 31.0498 2.12256 31.0614C2.11844 31.089 2.11514 31.117 2.11308 31.145C2.11226 31.1598 2.11143 31.1743 2.11102 31.1891C2.11061 31.199 2.10938 31.2085 2.10938 31.2188C2.10938 35.2896 5.42134 38.6016 9.49219 38.6016C12.0148 38.6016 14.3367 37.3339 15.7041 35.2101C16.47 34.0203 16.875 32.6401 16.875 31.2188C16.875 31.2089 16.8738 31.199 16.8734 31.1891C16.8729 31.1743 16.8725 31.1594 16.8713 31.145C16.8692 31.1166 16.8659 31.089 16.8622 31.0614C16.8602 31.0498 16.8589 31.0379 16.8565 31.0264C16.8416 30.9444 16.8173 30.8661 16.7844 30.7919C16.7835 30.7899 16.7827 30.7874 16.7819 30.7849L11.1249 18.2461H21.5206C21.5861 18.3594 21.6545 18.4706 21.7266 18.5794V45.2461H8.01562C5.10782 45.2461 2.74219 47.6117 2.74219 50.5195V52.9453C2.74219 53.5279 3.21432 54 3.79688 54H50.2031C50.7857 54 51.2578 53.5279 51.2578 52.9453V50.5195C51.2578 47.6117 48.8922 45.2461 45.9844 45.2461H32.2734V18.5794C32.3455 18.4706 32.4139 18.359 32.4794 18.2461H42.8751L37.2181 30.7849C37.2173 30.7874 37.2165 30.7899 37.2156 30.7919C37.1827 30.8661 37.1584 30.9444 37.1435 31.0264C37.1411 31.0379 37.1398 31.0498 37.1378 31.0614C37.1341 31.089 37.1308 31.117 37.1287 31.145C37.1275 31.1598 37.1271 31.1743 37.1266 31.1891C37.1262 31.199 37.125 31.2085 37.125 31.2188C37.125 35.2896 40.437 38.6016 44.5078 38.6016C47.0304 38.6016 49.3524 37.3339 50.7198 35.2101C51.4856 34.0203 51.8906 32.6401 51.8906 31.2188C51.8906 31.2089 51.8894 31.199 51.889 31.1891C51.8886 31.1743 51.8882 31.1594 51.8869 31.145C51.8849 31.1166 51.8816 31.089 51.8779 31.0614C51.8758 31.0498 51.8746 31.0379 51.8721 31.0264C51.8573 30.9444 51.8329 30.8661 51.8 30.7919C51.7992 30.7899 51.7983 30.7874 51.7975 30.7849L46.1405 18.2461H50.8359C51.6809 18.2461 52.4752 17.9169 53.073 17.3191V17.3191ZM9.49219 36.4922C6.94569 36.4922 4.8149 34.6778 4.32504 32.2734H14.6593C14.53 32.9095 14.2848 33.5181 13.9305 34.0681C12.9533 35.5858 11.2942 36.4922 9.49219 36.4922ZM4.79677 30.1641L9.49219 19.756L14.1876 30.1641H4.79677ZM44.5078 36.4922C41.9613 36.4922 39.8305 34.6778 39.3407 32.2734H49.675C49.5456 32.9095 49.3005 33.5181 48.9462 34.0681C47.9689 35.5858 46.3098 36.4922 44.5078 36.4922ZM39.8124 30.1641L44.5078 19.756L49.2032 30.1641H39.8124ZM51.8906 15.082C51.8906 15.3634 51.781 15.6283 51.5816 15.8273C51.3822 16.0271 51.1173 16.1367 50.8359 16.1367H33.2391C33.2972 15.7906 33.3281 15.4388 33.3281 15.082C33.3281 14.7253 33.2972 14.3734 33.2391 14.0273H50.8359C51.4177 14.0273 51.8906 14.5003 51.8906 15.082ZM23.6246 17.6116C23.4293 17.3517 23.2637 17.0682 23.1327 16.7687C22.8995 16.2356 22.7812 15.6679 22.7812 15.082C22.7812 14.4962 22.8995 13.9285 23.1327 13.3949C23.2637 13.0958 23.4293 12.8124 23.6258 12.5512C24.4308 11.4784 25.661 10.8633 27 10.8633C28.339 10.8633 29.5692 11.4784 30.3754 12.5524C30.5707 12.8124 30.7363 13.0958 30.8673 13.3954C31.1005 13.9285 31.2188 14.4962 31.2188 15.082C31.2188 15.6679 31.1005 16.2356 30.8673 16.7691C30.7363 17.0682 30.5707 17.3517 30.3742 17.6129C29.5692 18.6857 28.339 19.3008 27 19.3008C25.661 19.3008 24.4308 18.6857 23.6246 17.6116V17.6116ZM27 2.10938C28.7448 2.10938 30.1641 3.52867 30.1641 5.27344V9.59601C29.219 9.0493 28.1358 8.75391 27 8.75391C25.8642 8.75391 24.781 9.0493 23.8359 9.59601V5.27344C23.8359 3.52867 25.2552 2.10938 27 2.10938ZM2.10938 15.082C2.10938 14.8006 2.21896 14.5357 2.41837 14.3367C2.61777 14.1369 2.88268 14.0273 3.16406 14.0273H20.7609C20.7028 14.3734 20.6719 14.7253 20.6719 15.082C20.6719 15.4388 20.7028 15.7906 20.7609 16.1367H3.16406C2.58234 16.1367 2.10938 15.6638 2.10938 15.082ZM49.1484 50.5195V51.8906H4.85156V50.5195C4.85156 48.7748 6.27086 47.3555 8.01562 47.3555H45.9844C47.7291 47.3555 49.1484 48.7748 49.1484 50.5195ZM23.8359 45.2461V20.5681C24.781 21.1148 25.8642 21.4102 27 21.4102C28.1358 21.4102 29.219 21.1148 30.1641 20.5681V45.2461H23.8359Z" fill="black"/>
</svg>
