<svg width="63" height="74" viewBox="0 0 63 74" fill="none" xmlns="http://www.w3.org/2000/svg">
<path d="M39.7144 9.81079H4.95911C2.6916 9.81079 0.853516 11.649 0.853516 13.9164V53.2989C0.853516 55.5664 2.69171 57.4045 4.95911 57.4045H39.7143C41.9818 57.4045 43.8199 55.5663 43.8199 53.2989V13.9164C43.82 11.6489 41.9818 9.81079 39.7144 9.81079Z" fill="#FFBA4D"/>
<path d="M6.04443 9.81079V14.7662C6.04443 17.5934 8.34449 19.8935 11.1717 19.8935H33.501C36.3282 19.8935 38.6283 17.5935 38.6283 14.7662V9.81079H6.04443Z" fill="#FAA330"/>
<path d="M4.95861 53.485C4.85598 53.485 4.77246 53.4015 4.77246 53.2989V13.9164C4.77246 13.8137 4.85598 13.7302 4.95861 13.7302H39.7138C39.8165 13.7302 39.9 13.8137 39.9 13.9164V53.2989C39.9 53.4015 39.8165 53.485 39.7138 53.485H4.95861V53.485Z" fill="#F0F0F0"/>
<path d="M6.04443 13.7302V14.7661C6.04443 17.5932 8.34449 19.8934 11.1717 19.8934H33.501C36.3282 19.8934 38.6283 17.5933 38.6283 14.7661V13.7302C38.6283 13.7302 6.04443 13.7302 6.04443 13.7302Z" fill="#D9D9D9"/>
<path d="M33.502 5.90249H27.3866C27.3866 3.11384 25.1261 0.853271 22.3374 0.853271C19.5488 0.853271 17.2882 3.11384 17.2882 5.90249H11.1727C10.2262 5.90249 9.45898 6.66974 9.45898 7.6162V14.7662C9.45898 15.7127 10.2262 16.48 11.1727 16.48H33.502C34.4485 16.48 35.2157 15.7127 35.2157 14.7662V7.6162C35.2156 6.66974 34.4485 5.90249 33.502 5.90249Z" fill="#BCBCBC"/>
<path d="M22.3368 7.4071C23.3308 7.4071 24.1366 6.60132 24.1366 5.60736C24.1366 4.61339 23.3308 3.80762 22.3368 3.80762C21.3429 3.80762 20.5371 4.61339 20.5371 5.60736C20.5371 6.60132 21.3429 7.4071 22.3368 7.4071Z" fill="#E3E3E3"/>
<path d="M27.1641 23.8127H24.137V20.7856H20.5374V23.8127H17.5103V27.4123H20.5374V30.4394H24.137V27.4123H27.1641V23.8127Z" fill="#FC7C81"/>
<path d="M22.3367 8.26036C23.7997 8.26036 24.9898 7.07016 24.9898 5.60723C24.9898 4.14429 23.7997 2.9541 22.3367 2.9541C20.8738 2.9541 19.6836 4.14429 19.6836 5.60723C19.6836 7.07016 20.8738 8.26036 22.3367 8.26036ZM22.3367 4.66076C22.8585 4.66076 23.2831 5.0853 23.2831 5.60712C23.2831 6.12893 22.8585 6.55347 22.3367 6.55347C21.8149 6.55347 21.3904 6.12893 21.3904 5.60712C21.3904 5.0853 21.8149 4.66076 22.3367 4.66076Z" fill="black"/>
<path d="M14.4686 9.32202C13.9973 9.32202 13.6152 9.70411 13.6152 10.1754V11.5993C13.6152 12.0706 13.9973 12.4527 14.4686 12.4527C14.9399 12.4527 15.322 12.0706 15.322 11.5993V10.1754C15.322 9.70411 14.9399 9.32202 14.4686 9.32202Z" fill="black"/>
<path d="M30.2045 12.4527C30.6758 12.4527 31.0579 12.0706 31.0579 11.5993V10.1754C31.0579 9.70411 30.6758 9.32202 30.2045 9.32202C29.7332 9.32202 29.3511 9.70411 29.3511 10.1754V11.5993C29.3511 12.0706 29.7332 12.4527 30.2045 12.4527Z" fill="black"/>
<path d="M24.8401 10.8577C24.4853 10.5474 23.9462 10.5837 23.6359 10.9385C23.3207 11.2989 22.8472 11.5058 22.3367 11.5058C21.8261 11.5058 21.3525 11.299 21.0375 10.9385C20.7273 10.5837 20.1882 10.5474 19.8333 10.8577C19.4784 11.168 19.4422 11.707 19.7524 12.0619C20.3917 12.7933 21.3337 13.2127 22.3367 13.2127C23.3397 13.2127 24.2816 12.7932 24.921 12.0619C25.2311 11.707 25.195 11.1677 24.8401 10.8577Z" fill="black"/>
<path d="M31.744 34.3035H12.9305C12.4592 34.3035 12.0771 34.6856 12.0771 35.1569C12.0771 35.6283 12.4592 36.0102 12.9305 36.0102H31.744C32.2153 36.0102 32.5974 35.6283 32.5974 35.1569C32.5974 34.6856 32.2153 34.3035 31.744 34.3035Z" fill="black"/>
<path d="M31.744 39.4548H12.9305C12.4592 39.4548 12.0771 39.8369 12.0771 40.3082C12.0771 40.7796 12.4592 41.1616 12.9305 41.1616H31.744C32.2153 41.1616 32.5974 40.7796 32.5974 40.3082C32.5974 39.8369 32.2153 39.4548 31.744 39.4548Z" fill="black"/>
<path d="M31.744 44.6062H12.9305C12.4592 44.6062 12.0771 44.9883 12.0771 45.4596C12.0771 45.9309 12.4592 46.313 12.9305 46.313H31.744C32.2153 46.313 32.5974 45.9309 32.5974 45.4596C32.5974 44.9883 32.2153 44.6062 31.744 44.6062Z" fill="black"/>
<path d="M17.5101 28.2656H19.6839V30.4394C19.6839 30.9107 20.066 31.2928 20.5373 31.2928H24.1367C24.608 31.2928 24.9901 30.9107 24.9901 30.4394V28.2656H27.1639C27.6352 28.2656 28.0173 27.8835 28.0173 27.4122V23.8127C28.0173 23.3414 27.6352 22.9593 27.1639 22.9593H24.9901V20.7855C24.9901 20.3141 24.608 19.9321 24.1367 19.9321H20.5373C20.066 19.9321 19.6839 20.3141 19.6839 20.7855V22.9593H17.5101C17.0388 22.9593 16.6567 23.3414 16.6567 23.8127V27.4122C16.6567 27.8835 17.0388 28.2656 17.5101 28.2656ZM18.3635 24.666H20.5373C21.0086 24.666 21.3907 24.284 21.3907 23.8127V21.6389H23.2834V23.8127C23.2834 24.284 23.6654 24.666 24.1367 24.666H26.3105V26.5589H24.1367C23.6654 26.5589 23.2834 26.9408 23.2834 27.4122V29.586H21.3907V27.4122C21.3907 26.9408 21.0086 26.5589 20.5373 26.5589H18.3635V24.666Z" fill="black"/>
<path d="M33.5013 5.04921H28.1778C27.763 2.19753 25.3016 0 22.3367 0C19.3718 0 16.9105 2.19753 16.4957 5.04921H11.1721C9.75662 5.04921 8.605 6.20083 8.605 7.61632V8.95751H4.9591C2.22473 8.95751 0 11.1821 0 13.9165V53.299C0 56.0334 2.22461 58.258 4.9591 58.258H9.0565C9.5278 58.258 9.90989 57.8759 9.90989 57.4046C9.90989 56.9333 9.5278 56.5512 9.0565 56.5512H4.9591C3.16584 56.5512 1.70678 55.0923 1.70678 53.299V13.9165C1.70678 12.1232 3.16573 10.6643 4.9591 10.6643H8.605V12.8769H4.9591C4.38585 12.8769 3.91956 13.3432 3.91956 13.9165V53.299C3.91956 53.8723 4.38585 54.3385 4.9591 54.3385H39.7143C40.2876 54.3385 40.7539 53.8723 40.7539 53.299V13.9165C40.7539 13.3432 40.2874 12.8769 39.7143 12.8769H36.0684V10.6643H39.7143C41.5076 10.6643 42.9666 12.1232 42.9666 13.9165V53.299C42.9666 55.0923 41.5077 56.5512 39.7143 56.5512H12.4701C11.9988 56.5512 11.6167 56.9333 11.6167 57.4046C11.6167 57.8759 11.9988 58.258 12.4701 58.258H39.7143C42.4487 58.258 44.6734 56.0334 44.6734 53.299V13.9165C44.6734 11.1821 42.4488 8.95751 39.7143 8.95751H36.0684V7.61632C36.0684 6.20083 34.9168 5.04921 33.5013 5.04921ZM39.0471 14.5837V52.6318H5.62633V14.5837H8.605V14.7662C8.605 16.1817 9.75662 17.3333 11.1721 17.3333H27.7173C28.1886 17.3333 28.5706 16.9513 28.5706 16.48C28.5706 16.0087 28.1886 15.6266 27.7173 15.6266H11.1721C10.6977 15.6266 10.3118 15.2406 10.3118 14.7662V7.61632C10.3118 7.14195 10.6977 6.75599 11.1721 6.75599H17.2876C17.7589 6.75599 18.141 6.3739 18.141 5.9026C18.1409 3.58901 20.0231 1.70678 22.3367 1.70678C24.6503 1.70678 26.5325 3.58901 26.5325 5.9026C26.5325 6.3739 26.9146 6.75599 27.3859 6.75599H33.5013C33.9757 6.75599 34.3616 7.14195 34.3616 7.61632V14.7664C34.3616 15.2407 33.9757 15.6267 33.5013 15.6267H31.1308C30.6595 15.6267 30.2774 16.0088 30.2774 16.4801C30.2774 16.9514 30.6595 17.3335 31.1308 17.3335H33.5013C34.9168 17.3335 36.0684 16.1818 36.0684 14.7664V14.5838L39.0471 14.5837Z" fill="black"/>
<path d="M50.6985 32H42L41.125 53L42 74H50.6985L63 61.6985V44.3015L50.6985 32Z" fill="#EFE2DD"/>
<path d="M33.3016 32L21 44.3015V61.6985L33.3016 74H42V32H33.3016Z" fill="#F7F0EB"/>
<path d="M49.6791 34.4609H42L41.125 53L42 71.5391H49.6791L60.5391 60.6791V45.3209L49.6791 34.4609Z" fill="#C6001C"/>
<path d="M34.321 34.4609L23.4609 45.3209V60.6791L34.321 71.5391H42V34.4609H34.321Z" fill="#FF1F3D"/>
<path d="M28.8995 58.1128C27.5182 58.1128 26.2202 57.5547 25.3384 56.5816L27.1619 54.9291C27.572 55.3817 28.2216 55.6519 28.8995 55.6519C29.5425 55.6519 29.9076 55.2728 29.952 55.0167C29.9716 54.9035 30.0237 54.6028 29.3623 54.3543C28.9338 54.1933 28.6173 54.1157 28.3111 54.0408C27.8424 53.926 27.3577 53.8074 26.8015 53.4458C25.8151 52.8048 25.4819 51.718 25.499 50.9146C25.5247 49.7007 26.3582 48.5803 27.573 48.127C29.6264 47.3606 31.2776 48.5872 32.2642 49.32L30.7969 51.2956C29.3451 50.2175 28.9017 50.2578 28.4333 50.4326C28.0936 50.5594 27.9623 50.8276 27.9594 50.9669C27.9564 51.1087 28.0195 51.3025 28.1425 51.3824C28.3387 51.5099 28.4894 51.5508 28.8963 51.6505C29.2373 51.734 29.6618 51.8379 30.2279 52.0506C31.7882 52.6369 32.6317 53.966 32.3768 55.4368C32.1083 56.9873 30.6458 58.1128 28.8995 58.1128V58.1128Z" fill="#FFFBF5"/>
<path d="M39.9916 47.9683H33.332V50.4292H35.4228V58.0317H37.8838V50.4292H39.9916V47.9683Z" fill="#FFFBF5"/>
<path d="M55.3747 47.9683H52.0273V58.0318H54.4883V54.723C54.8288 54.7214 55.1636 54.7201 55.3747 54.7201C57.2594 54.7201 58.7926 53.2057 58.7926 51.3442C58.7926 49.4826 57.2594 47.9683 55.3747 47.9683ZM55.3747 52.2591C55.1617 52.2591 54.8323 52.2604 54.4964 52.2619C54.4948 51.9089 54.4928 50.7995 54.4918 50.4292H55.3747C55.8934 50.4292 56.3317 50.8482 56.3317 51.3442C56.3317 51.8401 55.8934 52.2591 55.3747 52.2591Z" fill="#F7F0EB"/>
<path d="M45.4908 58.0317C42.7162 58.0317 40.459 55.7744 40.459 53C40.459 50.2255 42.7162 47.9683 45.4908 47.9683C48.2652 47.9683 50.5225 50.2255 50.5225 53C50.5225 55.7744 48.2652 58.0317 45.4908 58.0317ZM45.4908 50.4292C44.0732 50.4292 42.9199 51.5825 42.9199 53C42.9199 54.4175 44.0732 55.5708 45.4908 55.5708C46.9083 55.5708 48.0616 54.4175 48.0616 53C48.0616 51.5825 46.9083 50.4292 45.4908 50.4292Z" fill="#F7F0EB"/>
</svg>
