<svg width="84" height="84" viewBox="0 0 84 84" fill="none" xmlns="http://www.w3.org/2000/svg">
<path d="M35.0004 14H63.0004C63.7732 14 64.4004 13.3742 64.4004 12.6V1.4C64.4004 0.625799 63.7732 0 63.0004 0H35.0004C34.2276 0 33.6004 0.625799 33.6004 1.4V12.6C33.6004 13.3742 34.2276 14 35.0004 14ZM61.6004 11.2H36.4004V2.8H61.6004V11.2Z" fill="black"/>
<path d="M22.4 78.3998H76.9999C77.7727 78.3998 78.3999 77.774 78.3999 76.9998V9.7999C78.3999 9.0257 77.7727 8.3999 76.9999 8.3999H62.9999C62.2271 8.3999 61.5999 9.0257 61.5999 9.7999V11.1999H36.4V9.7999C36.4 9.0257 35.7728 8.3999 35 8.3999H22.4C21.6272 8.3999 21 9.0257 21 9.7999V76.9998C21 77.774 21.6272 78.3998 22.4 78.3998ZM75.5999 75.5998H23.8V11.1999H33.6V12.5999C33.6 13.3741 34.2272 13.9999 35 13.9999H62.9999C63.7727 13.9999 64.3999 13.3741 64.3999 12.5999V11.1999H75.5999V75.5998Z" fill="black"/>
<path d="M20.4751 84.0002H78.925C81.7236 84.0002 84 81.7238 84 78.9252V7.87529C84 5.07669 81.7236 2.80029 78.925 2.80029H63C62.2272 2.80029 61.6 3.42609 61.6 4.20029V11.2003H36.4001V4.20029C36.4001 3.42609 35.7729 2.80029 35.0001 2.80029H20.4751C17.6765 2.80029 15.4001 5.07669 15.4001 7.87529V78.9252C15.4001 81.7238 17.6765 84.0002 20.4751 84.0002ZM78.925 5.60029C80.1794 5.60029 81.2 6.62089 81.2 7.87529V78.9252C81.2 80.1796 80.1794 81.2002 78.925 81.2002H20.4751C19.2207 81.2002 18.2001 80.1796 18.2001 78.9252V7.87529C18.2001 6.62089 19.2207 5.60029 20.4751 5.60029H33.6001V12.6003C33.6001 13.3745 34.2273 14.0003 35.0001 14.0003H63C63.7728 14.0003 64.4 13.3745 64.4 12.6003V5.60029H78.925Z" fill="black"/>
<path d="M5.6002 79.8002C6.0412 79.8002 6.4556 79.593 6.7202 79.2402L10.9202 73.6402C11.1022 73.398 11.2002 73.104 11.2002 72.8002V6.34369C11.2002 4.39069 9.6112 2.80029 7.6568 2.80029H3.5436C1.5892 2.80029 0.000208855 4.39069 0.000208855 6.34369V72.8002C0.000208855 73.104 0.0982098 73.398 0.28021 73.6402L4.4802 79.2402C4.7448 79.593 5.1592 79.8002 5.6002 79.8002ZM8.4002 72.334L5.6002 76.0664L2.80021 72.334V6.34369C2.80021 5.93349 3.1334 5.60029 3.5436 5.60029H7.6568C8.067 5.60029 8.4002 5.93349 8.4002 6.34369V72.334ZM1.40021 72.8002H1.38621H1.40021Z" fill="#006BF6"/>
<path d="M5.64199 84.0005C6.41479 84.0005 7.04199 83.3747 7.04199 82.6005V78.4005C7.04199 77.6263 6.41479 77.0005 5.64199 77.0005C4.86919 77.0005 4.242 77.6263 4.242 78.4005V82.6005C4.242 83.3747 4.86919 84.0005 5.64199 84.0005Z" fill="black"/>
<path d="M1.40021 14.0003H9.8002C10.573 14.0003 11.2002 13.3745 11.2002 12.6003V6.34369C11.2002 4.39069 9.6112 2.80029 7.6568 2.80029H3.5436C1.5892 2.80029 0.000208855 4.39069 0.000208855 6.34369V12.6003C0.000208855 13.3745 0.627408 14.0003 1.40021 14.0003ZM8.4002 11.2003H2.80021V6.34369C2.80021 5.93349 3.1334 5.60029 3.5436 5.60029H7.6568C8.067 5.60029 8.4002 5.93349 8.4002 6.34369V11.2003Z" fill="#006BF6"/>
<path d="M5.64171 79.8C6.08271 79.8 6.49711 79.5928 6.76171 79.24L10.9617 73.64C11.1437 73.3978 11.2417 73.1038 11.2417 72.8V64.4C11.2417 63.6258 10.6145 63 9.8417 63H1.44171C0.668912 63 0.0417128 63.6258 0.0417128 64.4V72.8C0.0417128 73.1038 0.139714 73.3978 0.321713 73.64L4.52171 79.24C4.78631 79.5928 5.20071 79.8 5.64171 79.8ZM8.4417 72.3338L5.64171 76.0662L2.84171 72.3338V65.8H8.4417V72.3338Z" fill="#006BF6"/>
<path d="M1.40021 43.3999H9.8002C10.573 43.3999 11.2002 42.7741 11.2002 41.9999V30.7999C11.2002 30.0257 10.573 29.3999 9.8002 29.3999H1.40021C0.627408 29.3999 0.000208855 30.0257 0.000208855 30.7999V41.9999C0.000208855 42.7741 0.627408 43.3999 1.40021 43.3999ZM8.4002 40.5999H2.80021V32.1999H8.4002V40.5999Z" fill="#006BF6"/>
<path d="M49.0004 48.9997C57.4914 48.9997 64.4004 42.0907 64.4004 33.5997C64.4004 25.1087 57.4914 18.1997 49.0004 18.1997C40.5094 18.1997 33.6004 25.1087 33.6004 33.5997C33.6004 42.0907 40.5094 48.9997 49.0004 48.9997ZM49.0004 20.9997C55.9486 20.9997 61.6004 26.6515 61.6004 33.5997C61.6004 40.5479 55.9486 46.1997 49.0004 46.1997C42.0522 46.1997 36.4004 40.5479 36.4004 33.5997C36.4004 26.6515 42.0522 20.9997 49.0004 20.9997Z" fill="#006BF6"/>
<path d="M46.1998 43.4003H51.7998C52.5726 43.4003 53.1998 42.7745 53.1998 42.0003V37.8003H57.3998C58.1726 37.8003 58.7998 37.1745 58.7998 36.4003V30.8003C58.7998 30.0261 58.1726 29.4003 57.3998 29.4003H53.1998V25.2003C53.1998 24.4261 52.5726 23.8003 51.7998 23.8003H46.1998C45.427 23.8003 44.7998 24.4261 44.7998 25.2003V29.4003H40.5998C39.827 29.4003 39.1998 30.0261 39.1998 30.8003V36.4003C39.1998 37.1745 39.827 37.8003 40.5998 37.8003H44.7998V42.0003C44.7998 42.7745 45.427 43.4003 46.1998 43.4003ZM50.3998 40.6003H47.5998V36.4003C47.5998 35.6261 46.9726 35.0003 46.1998 35.0003H41.9998V32.2003H46.1998C46.9726 32.2003 47.5998 31.5745 47.5998 30.8003V26.6003H50.3998V30.8003C50.3998 31.5745 51.027 32.2003 51.7998 32.2003H55.9998V35.0003H51.7998C51.027 35.0003 50.3998 35.6261 50.3998 36.4003V40.6003Z" fill="#006BF6"/>
<path d="M36.4001 64.4001H53.2001C53.9729 64.4001 54.6001 63.7743 54.6001 63.0001C54.6001 62.2259 53.9729 61.6001 53.2001 61.6001H36.4001C35.6273 61.6001 35.0001 62.2259 35.0001 63.0001C35.0001 63.7743 35.6273 64.4001 36.4001 64.4001Z" fill="#006BF6"/>
<path d="M58.7998 64.4001H71.3998C72.1726 64.4001 72.7998 63.7743 72.7998 63.0001C72.7998 62.2259 72.1726 61.6001 71.3998 61.6001H58.7998C58.027 61.6001 57.3998 62.2259 57.3998 63.0001C57.3998 63.7743 58.027 64.4001 58.7998 64.4001Z" fill="#006BF6"/>
<path d="M28.0002 64.4001H30.8002C31.573 64.4001 32.2002 63.7743 32.2002 63.0001C32.2002 62.2259 31.573 61.6001 30.8002 61.6001H28.0002C27.2274 61.6001 26.6002 62.2259 26.6002 63.0001C26.6002 63.7743 27.2274 64.4001 28.0002 64.4001Z" fill="#006BF6"/>
<path d="M46.2004 57.4001H63.0004C63.7732 57.4001 64.4004 56.7743 64.4004 56.0001C64.4004 55.2259 63.7732 54.6001 63.0004 54.6001H46.2004C45.4276 54.6001 44.8004 55.2259 44.8004 56.0001C44.8004 56.7743 45.4276 57.4001 46.2004 57.4001Z" fill="#006BF6"/>
<path d="M28 57.4001H40.6C41.3728 57.4001 42 56.7743 42 56.0001C42 55.2259 41.3728 54.6001 40.6 54.6001H28C27.2272 54.6001 26.6 55.2259 26.6 56.0001C26.6 56.7743 27.2272 57.4001 28 57.4001Z" fill="#006BF6"/>
<path d="M68.5998 57.4001H71.3998C72.1726 57.4001 72.7998 56.7743 72.7998 56.0001C72.7998 55.2259 72.1726 54.6001 71.3998 54.6001H68.5998C67.827 54.6001 67.1998 55.2259 67.1998 56.0001C67.1998 56.7743 67.827 57.4001 68.5998 57.4001Z" fill="#006BF6"/>
<path d="M46.2004 71.3996H63.0004C63.7732 71.3996 64.4004 70.7738 64.4004 69.9996C64.4004 69.2254 63.7732 68.5996 63.0004 68.5996H46.2004C45.4276 68.5996 44.8004 69.2254 44.8004 69.9996C44.8004 70.7738 45.4276 71.3996 46.2004 71.3996Z" fill="#006BF6"/>
<path d="M28 71.3996H40.6C41.3728 71.3996 42 70.7738 42 69.9996C42 69.2254 41.3728 68.5996 40.6 68.5996H28C27.2272 68.5996 26.6 69.2254 26.6 69.9996C26.6 70.7738 27.2272 71.3996 28 71.3996Z" fill="#006BF6"/>
<path d="M68.5998 71.3996H71.3998C72.1726 71.3996 72.7998 70.7738 72.7998 69.9996C72.7998 69.2254 72.1726 68.5996 71.3998 68.5996H68.5998C67.827 68.5996 67.1998 69.2254 67.1998 69.9996C67.1998 70.7738 67.827 71.3996 68.5998 71.3996Z" fill="#006BF6"/>
</svg>
