<svg width="200" height="45" viewBox="0 0 200 45" fill="none" xmlns="http://www.w3.org/2000/svg">
<path d="M1 10C1 5.02944 5.02944 1 10 1H190C194.971 1 199 5.02944 199 10V35C199 39.9706 194.971 44 190 44H10C5.02944 44 1 39.9706 1 35V10Z" stroke="url(#paint0_linear_114_18949)" stroke-width="2"/>
<path d="M51.2617 19.7197C51.2617 19.1911 51.068 18.7718 50.6807 18.4619C50.2979 18.1475 49.7578 17.9902 49.0605 17.9902C48.4772 17.9902 47.9873 18.152 47.5908 18.4756C47.1989 18.7946 47.0029 19.1911 47.0029 19.665H45.6904C45.6904 19.1364 45.834 18.6624 46.1211 18.2432C46.4128 17.8239 46.8184 17.498 47.3379 17.2656C47.8574 17.0286 48.4316 16.9102 49.0605 16.9102C50.1725 16.9102 51.0361 17.1608 51.6514 17.6621C52.2666 18.1589 52.5742 18.8516 52.5742 19.7402C52.5742 20.2005 52.4329 20.6198 52.1504 20.998C51.8678 21.3763 51.4736 21.6748 50.9678 21.8936C52.139 22.2855 52.7246 23.0625 52.7246 24.2246C52.7246 25.1178 52.3919 25.8265 51.7266 26.3506C51.0612 26.8747 50.1725 27.1367 49.0605 27.1367C48.3997 27.1367 47.7982 27.0205 47.2559 26.7881C46.7181 26.5511 46.2988 26.2161 45.998 25.7832C45.6973 25.3503 45.5469 24.8353 45.5469 24.2383H46.8594C46.8594 24.7624 47.0667 25.1999 47.4814 25.5508C47.8962 25.8971 48.4225 26.0703 49.0605 26.0703C49.776 26.0703 50.3457 25.904 50.7695 25.5713C51.1979 25.2386 51.4121 24.7988 51.4121 24.252C51.4121 23.0853 50.6898 22.4906 49.2451 22.4678H48.0146V21.3877H49.2383C49.9036 21.374 50.4072 21.2236 50.749 20.9365C51.0908 20.6494 51.2617 20.2438 51.2617 19.7197ZM58.8359 27C58.763 26.8542 58.7038 26.5944 58.6582 26.2207C58.0703 26.8314 57.3685 27.1367 56.5527 27.1367C55.8236 27.1367 55.2243 26.9316 54.7549 26.5215C54.29 26.1068 54.0576 25.5827 54.0576 24.9492C54.0576 24.179 54.3493 23.582 54.9326 23.1582C55.5205 22.7298 56.3454 22.5156 57.4072 22.5156H58.6377V21.9346C58.6377 21.4925 58.5055 21.1416 58.2412 20.8818C57.9769 20.6175 57.5872 20.4854 57.0723 20.4854C56.6211 20.4854 56.2428 20.5993 55.9375 20.8271C55.6322 21.055 55.4795 21.3307 55.4795 21.6543H54.208C54.208 21.2852 54.3379 20.9297 54.5977 20.5879C54.862 20.2415 55.2174 19.9681 55.6641 19.7676C56.1152 19.5671 56.6097 19.4668 57.1475 19.4668C57.9997 19.4668 58.6673 19.681 59.1504 20.1094C59.6335 20.5332 59.8841 21.1188 59.9023 21.8662V25.2705C59.9023 25.9495 59.9889 26.4896 60.1621 26.8906V27H58.8359ZM56.7373 26.0361C57.1338 26.0361 57.5098 25.9336 57.8652 25.7285C58.2207 25.5234 58.4782 25.2568 58.6377 24.9287V23.4111H57.6465C56.097 23.4111 55.3223 23.8646 55.3223 24.7715C55.3223 25.168 55.4544 25.4779 55.7188 25.7012C55.9831 25.9245 56.3226 26.0361 56.7373 26.0361ZM64.1885 23.8486H63.2656V27H61.9941V19.6035H63.2656V22.7344H64.0928L66.5811 19.6035H68.1123L65.1865 23.1582L68.3584 27H66.752L64.1885 23.8486ZM74.0117 27C73.9388 26.8542 73.8796 26.5944 73.834 26.2207C73.2461 26.8314 72.5443 27.1367 71.7285 27.1367C70.9993 27.1367 70.4001 26.9316 69.9307 26.5215C69.4658 26.1068 69.2334 25.5827 69.2334 24.9492C69.2334 24.179 69.5251 23.582 70.1084 23.1582C70.6963 22.7298 71.5212 22.5156 72.583 22.5156H73.8135V21.9346C73.8135 21.4925 73.6813 21.1416 73.417 20.8818C73.1527 20.6175 72.763 20.4854 72.248 20.4854C71.7969 20.4854 71.4186 20.5993 71.1133 20.8271C70.8079 21.055 70.6553 21.3307 70.6553 21.6543H69.3838C69.3838 21.2852 69.5137 20.9297 69.7734 20.5879C70.0378 20.2415 70.3932 19.9681 70.8398 19.7676C71.291 19.5671 71.7855 19.4668 72.3232 19.4668C73.1755 19.4668 73.8431 19.681 74.3262 20.1094C74.8092 20.5332 75.0599 21.1188 75.0781 21.8662V25.2705C75.0781 25.9495 75.1647 26.4896 75.3379 26.8906V27H74.0117ZM71.9131 26.0361C72.3096 26.0361 72.6855 25.9336 73.041 25.7285C73.3965 25.5234 73.654 25.2568 73.8135 24.9287V23.4111H72.8223C71.2728 23.4111 70.498 23.8646 70.498 24.7715C70.498 25.168 70.6302 25.4779 70.8945 25.7012C71.1589 25.9245 71.4984 26.0361 71.9131 26.0361ZM81.1279 21.627C81.1279 21.2806 80.9958 21.0072 80.7314 20.8066C80.4671 20.6016 80.1048 20.499 79.6445 20.499C79.1979 20.499 78.8242 20.6152 78.5234 20.8477C78.2272 21.0801 78.0791 21.3535 78.0791 21.668H76.8213C76.8213 21.0254 77.0902 20.499 77.6279 20.0889C78.1657 19.6787 78.8379 19.4736 79.6445 19.4736C80.5104 19.4736 81.1849 19.6605 81.668 20.0342C82.151 20.4033 82.3926 20.932 82.3926 21.6201C82.3926 21.9528 82.2923 22.2581 82.0918 22.5361C81.8913 22.8141 81.6064 23.0352 81.2373 23.1992C82.0986 23.4909 82.5293 24.0651 82.5293 24.9219C82.5293 25.6009 82.2673 26.1387 81.7432 26.5352C81.2191 26.9316 80.5195 27.1299 79.6445 27.1299C78.7923 27.1299 78.0882 26.9225 77.5322 26.5078C76.9808 26.0885 76.7051 25.5234 76.7051 24.8125H77.9629C77.9629 25.1725 78.1224 25.4824 78.4414 25.7422C78.765 25.9974 79.166 26.125 79.6445 26.125C80.1276 26.125 80.5173 26.0133 80.8135 25.79C81.1097 25.5667 81.2578 25.2773 81.2578 24.9219C81.2578 24.5072 81.1325 24.2109 80.8818 24.0332C80.6357 23.8509 80.2507 23.7598 79.7266 23.7598H78.4619V22.6934H79.8359C80.6973 22.6706 81.1279 22.3151 81.1279 21.627ZM88.7363 27C88.6634 26.8542 88.6042 26.5944 88.5586 26.2207C87.9707 26.8314 87.2689 27.1367 86.4531 27.1367C85.724 27.1367 85.1247 26.9316 84.6553 26.5215C84.1904 26.1068 83.958 25.5827 83.958 24.9492C83.958 24.179 84.2497 23.582 84.833 23.1582C85.4209 22.7298 86.2458 22.5156 87.3076 22.5156H88.5381V21.9346C88.5381 21.4925 88.4059 21.1416 88.1416 20.8818C87.8773 20.6175 87.4876 20.4854 86.9727 20.4854C86.5215 20.4854 86.1432 20.5993 85.8379 20.8271C85.5326 21.055 85.3799 21.3307 85.3799 21.6543H84.1084C84.1084 21.2852 84.2383 20.9297 84.498 20.5879C84.7624 20.2415 85.1178 19.9681 85.5645 19.7676C86.0156 19.5671 86.5101 19.4668 87.0479 19.4668C87.9001 19.4668 88.5677 19.681 89.0508 20.1094C89.5339 20.5332 89.7845 21.1188 89.8027 21.8662V25.2705C89.8027 25.9495 89.8893 26.4896 90.0625 26.8906V27H88.7363ZM86.6377 26.0361C87.0342 26.0361 87.4102 25.9336 87.7656 25.7285C88.1211 25.5234 88.3786 25.2568 88.5381 24.9287V23.4111H87.5469C85.9974 23.4111 85.2227 23.8646 85.2227 24.7715C85.2227 25.168 85.3548 25.4779 85.6191 25.7012C85.8835 25.9245 86.223 26.0361 86.6377 26.0361ZM97.1719 20.6289H94.6904V27H93.4258V20.6289H90.9922V19.6035H97.1719V20.6289ZM99.7832 22.1533H101.704C102.543 22.1624 103.206 22.3812 103.693 22.8096C104.181 23.238 104.425 23.819 104.425 24.5527C104.425 25.291 104.174 25.8835 103.673 26.3301C103.172 26.7767 102.497 27 101.649 27H98.5186V19.6035H99.7832V22.1533ZM99.7832 23.1855V25.9678H101.663C102.137 25.9678 102.504 25.847 102.764 25.6055C103.023 25.3594 103.153 25.0244 103.153 24.6006C103.153 24.1904 103.026 23.8555 102.771 23.5957C102.52 23.3314 102.167 23.1947 101.711 23.1855H99.7832ZM113.544 21.627C113.544 21.2806 113.412 21.0072 113.147 20.8066C112.883 20.6016 112.521 20.499 112.061 20.499C111.614 20.499 111.24 20.6152 110.939 20.8477C110.643 21.0801 110.495 21.3535 110.495 21.668H109.237C109.237 21.0254 109.506 20.499 110.044 20.0889C110.582 19.6787 111.254 19.4736 112.061 19.4736C112.926 19.4736 113.601 19.6605 114.084 20.0342C114.567 20.4033 114.809 20.932 114.809 21.6201C114.809 21.9528 114.708 22.2581 114.508 22.5361C114.307 22.8141 114.022 23.0352 113.653 23.1992C114.515 23.4909 114.945 24.0651 114.945 24.9219C114.945 25.6009 114.683 26.1387 114.159 26.5352C113.635 26.9316 112.936 27.1299 112.061 27.1299C111.208 27.1299 110.504 26.9225 109.948 26.5078C109.397 26.0885 109.121 25.5234 109.121 24.8125H110.379C110.379 25.1725 110.538 25.4824 110.857 25.7422C111.181 25.9974 111.582 26.125 112.061 26.125C112.544 26.125 112.933 26.0133 113.229 25.79C113.526 25.5667 113.674 25.2773 113.674 24.9219C113.674 24.5072 113.549 24.2109 113.298 24.0332C113.052 23.8509 112.667 23.7598 112.143 23.7598H110.878V22.6934H112.252C113.113 22.6706 113.544 22.3151 113.544 21.627ZM116.702 27V19.6035H119.587C120.571 19.6035 121.326 19.7767 121.85 20.123C122.378 20.4648 122.643 20.9684 122.643 21.6338C122.643 21.9756 122.54 22.2855 122.335 22.5635C122.13 22.8369 121.827 23.0465 121.426 23.1924C121.872 23.2972 122.23 23.5023 122.499 23.8076C122.772 24.113 122.909 24.4775 122.909 24.9014C122.909 25.5804 122.659 26.0999 122.157 26.46C121.66 26.82 120.956 27 120.045 27H116.702ZM117.967 23.7529V25.9814H120.059C120.587 25.9814 120.981 25.8835 121.241 25.6875C121.506 25.4915 121.638 25.2158 121.638 24.8604C121.638 24.1221 121.095 23.7529 120.011 23.7529H117.967ZM117.967 22.7412H119.601C120.785 22.7412 121.378 22.3949 121.378 21.7021C121.378 21.0094 120.817 20.6517 119.696 20.6289H117.967V22.7412ZM124.249 23.2334C124.249 22.5088 124.39 21.8571 124.673 21.2783C124.96 20.6995 125.356 20.2529 125.862 19.9385C126.373 19.624 126.954 19.4668 127.605 19.4668C128.613 19.4668 129.426 19.8154 130.046 20.5127C130.67 21.21 130.982 22.1374 130.982 23.2949V23.3838C130.982 24.1038 130.843 24.751 130.565 25.3252C130.292 25.8949 129.898 26.3392 129.383 26.6582C128.872 26.9772 128.285 27.1367 127.619 27.1367C126.617 27.1367 125.803 26.7881 125.179 26.0908C124.559 25.3936 124.249 24.4707 124.249 23.3223V23.2334ZM125.521 23.3838C125.521 24.2041 125.71 24.8626 126.088 25.3594C126.471 25.8561 126.981 26.1045 127.619 26.1045C128.262 26.1045 128.772 25.8538 129.15 25.3525C129.529 24.8467 129.718 24.1403 129.718 23.2334C129.718 22.4222 129.524 21.766 129.137 21.2646C128.754 20.7588 128.243 20.5059 127.605 20.5059C126.981 20.5059 126.478 20.7542 126.095 21.251C125.712 21.7477 125.521 22.4587 125.521 23.3838ZM138.611 27H137.347V23.8418H133.949V27H132.678V19.6035H133.949V22.8096H137.347V19.6035H138.611V27ZM140.313 23.2334C140.313 22.5088 140.455 21.8571 140.737 21.2783C141.024 20.6995 141.421 20.2529 141.927 19.9385C142.437 19.624 143.018 19.4668 143.67 19.4668C144.677 19.4668 145.491 19.8154 146.11 20.5127C146.735 21.21 147.047 22.1374 147.047 23.2949V23.3838C147.047 24.1038 146.908 24.751 146.63 25.3252C146.356 25.8949 145.962 26.3392 145.447 26.6582C144.937 26.9772 144.349 27.1367 143.684 27.1367C142.681 27.1367 141.868 26.7881 141.243 26.0908C140.623 25.3936 140.313 24.4707 140.313 23.3223V23.2334ZM141.585 23.3838C141.585 24.2041 141.774 24.8626 142.152 25.3594C142.535 25.8561 143.046 26.1045 143.684 26.1045C144.326 26.1045 144.837 25.8538 145.215 25.3525C145.593 24.8467 145.782 24.1403 145.782 23.2334C145.782 22.4222 145.589 21.766 145.201 21.2646C144.818 20.7588 144.308 20.5059 143.67 20.5059C143.046 20.5059 142.542 20.7542 142.159 21.251C141.776 21.7477 141.585 22.4587 141.585 23.3838ZM150.937 23.8486H150.014V27H148.742V19.6035H150.014V22.7344H150.841L153.329 19.6035H154.86L151.935 23.1582L155.106 27H153.5L150.937 23.8486Z" fill="white"/>
<defs>
<linearGradient id="paint0_linear_114_18949" x1="1.70934e-07" y1="27.0833" x2="200" y2="27.0833" gradientUnits="userSpaceOnUse">
<stop stop-color="#0068F3"/>
<stop offset="1" stop-color="#238FFF"/>
</linearGradient>
</defs>
</svg>
