<svg width="142" height="22" viewBox="0 0 142 22" fill="none" xmlns="http://www.w3.org/2000/svg">
<path d="M20.8951 17.36C20.7391 17.36 20.6011 17.288 20.4811 17.144C20.3611 17.012 20.3011 16.826 20.3011 16.586C20.3011 16.058 20.5951 15.2 21.1831 14.012C21.7831 12.812 22.5631 11.348 23.5231 9.62L23.9371 8.882H20.7871C20.4631 8.882 20.2171 8.906 20.0491 8.954C19.8931 9.002 19.7611 9.116 19.6531 9.296C19.5571 9.476 19.4851 9.758 19.4371 10.142C19.4131 10.238 19.3711 10.31 19.3111 10.358C19.2631 10.394 19.1671 10.412 19.0231 10.412C18.8191 10.412 18.7171 10.31 18.7171 10.106L18.7891 8C18.7891 7.736 18.9631 7.604 19.3111 7.604H24.8011C25.1491 7.604 25.3231 7.718 25.3231 7.946C25.3231 8.126 25.1911 8.438 24.9271 8.882C24.4831 9.626 24.0691 10.46 23.6851 11.384C23.3131 12.296 22.8991 13.382 22.4431 14.642C22.0711 15.662 21.8011 16.376 21.6331 16.784C21.4531 17.168 21.2071 17.36 20.8951 17.36ZM34.2949 19.97C33.0109 19.094 32.0269 17.954 31.3429 16.55C30.6589 15.146 30.3169 13.604 30.3169 11.924C30.3169 10.268 30.6589 8.744 31.3429 7.352C32.0269 5.96 33.0169 4.808 34.3129 3.896C34.4089 3.848 34.4749 3.824 34.5109 3.824C34.6069 3.824 34.6909 3.896 34.7629 4.04C34.7869 4.112 34.7989 4.166 34.7989 4.202C34.7989 4.322 34.7449 4.43 34.6369 4.526C33.7969 5.33 33.1189 6.398 32.6029 7.73C32.0989 9.05 31.8469 10.454 31.8469 11.942C31.8469 13.43 32.0989 14.84 32.6029 16.172C33.1069 17.492 33.7789 18.548 34.6189 19.34C34.7269 19.436 34.7809 19.544 34.7809 19.664C34.7809 19.7 34.7689 19.754 34.7449 19.826C34.6729 19.97 34.5889 20.042 34.4929 20.042C34.4569 20.042 34.3909 20.018 34.2949 19.97ZM40.3199 17.216C40.1159 17.216 39.9359 17.186 39.7799 17.126C39.6239 17.066 39.5399 16.982 39.5279 16.874V14.12H35.2259C35.0339 14.12 34.8899 14.06 34.7939 13.94C34.6979 13.82 34.6499 13.67 34.6499 13.49C34.6499 13.334 34.6919 13.202 34.7759 13.094L39.8339 7.568C39.9539 7.448 40.1399 7.388 40.3919 7.388C40.5839 7.388 40.7459 7.442 40.8779 7.55C41.0099 7.646 41.0819 7.802 41.0939 8.018V13.238H42.1739C42.3419 13.238 42.4619 13.262 42.5339 13.31C42.6059 13.346 42.6479 13.466 42.6599 13.67C42.6599 13.802 42.6299 13.91 42.5699 13.994C42.5219 14.078 42.4379 14.12 42.3179 14.12H41.0939V16.874C41.0939 16.982 41.0159 17.066 40.8599 17.126C40.7039 17.186 40.5239 17.216 40.3199 17.216ZM35.6939 13.238H39.5279V8.972L35.6939 13.238ZM45.9736 17.396C45.9136 17.408 45.8236 17.414 45.7036 17.414C45.4636 17.414 45.3436 17.306 45.3436 17.09C45.3436 16.898 45.4516 16.772 45.6676 16.712C47.8636 16.028 49.1716 14.798 49.5916 13.022C49.1956 13.286 48.7996 13.472 48.4036 13.58C48.0196 13.688 47.6176 13.742 47.1976 13.742C46.6216 13.742 46.0936 13.616 45.6136 13.364C45.1336 13.1 44.7556 12.746 44.4796 12.302C44.2036 11.846 44.0656 11.33 44.0656 10.754C44.0656 10.106 44.2396 9.536 44.5876 9.044C44.9356 8.54 45.3916 8.15 45.9556 7.874C46.5196 7.598 47.1196 7.46 47.7556 7.46C48.8956 7.46 49.8016 7.814 50.4736 8.522C51.1576 9.23 51.4996 10.196 51.4996 11.42C51.4996 12.392 51.2656 13.298 50.7976 14.138C50.3416 14.978 49.6936 15.686 48.8536 16.262C48.0136 16.826 47.0536 17.204 45.9736 17.396ZM47.8096 12.932C48.1096 12.932 48.4216 12.86 48.7456 12.716C49.0696 12.56 49.3756 12.356 49.6636 12.104C49.7356 11.816 49.7716 11.582 49.7716 11.402C49.7716 10.922 49.7056 10.424 49.5736 9.908C49.4536 9.392 49.2376 8.954 48.9256 8.594C48.6256 8.222 48.2356 8.036 47.7556 8.036C47.1916 8.036 46.7236 8.276 46.3516 8.756C45.9796 9.224 45.7936 9.836 45.7936 10.592C45.7936 11.3 45.9796 11.87 46.3516 12.302C46.7236 12.722 47.2096 12.932 47.8096 12.932ZM55.1142 17.396C55.0542 17.408 54.9642 17.414 54.8442 17.414C54.6042 17.414 54.4842 17.306 54.4842 17.09C54.4842 16.898 54.5922 16.772 54.8082 16.712C57.0042 16.028 58.3122 14.798 58.7322 13.022C58.3362 13.286 57.9402 13.472 57.5442 13.58C57.1602 13.688 56.7582 13.742 56.3382 13.742C55.7622 13.742 55.2342 13.616 54.7542 13.364C54.2742 13.1 53.8962 12.746 53.6202 12.302C53.3442 11.846 53.2062 11.33 53.2062 10.754C53.2062 10.106 53.3802 9.536 53.7282 9.044C54.0762 8.54 54.5322 8.15 55.0962 7.874C55.6602 7.598 56.2602 7.46 56.8962 7.46C58.0362 7.46 58.9422 7.814 59.6142 8.522C60.2982 9.23 60.6402 10.196 60.6402 11.42C60.6402 12.392 60.4062 13.298 59.9382 14.138C59.4822 14.978 58.8342 15.686 57.9942 16.262C57.1542 16.826 56.1942 17.204 55.1142 17.396ZM56.9502 12.932C57.2502 12.932 57.5622 12.86 57.8862 12.716C58.2102 12.56 58.5162 12.356 58.8042 12.104C58.8762 11.816 58.9122 11.582 58.9122 11.402C58.9122 10.922 58.8462 10.424 58.7142 9.908C58.5942 9.392 58.3782 8.954 58.0662 8.594C57.7662 8.222 57.3762 8.036 56.8962 8.036C56.3322 8.036 55.8642 8.276 55.4922 8.756C55.1202 9.224 54.9342 9.836 54.9342 10.592C54.9342 11.3 55.1202 11.87 55.4922 12.302C55.8642 12.722 56.3502 12.932 56.9502 12.932ZM61.57 19.97C61.474 20.018 61.408 20.042 61.372 20.042C61.276 20.042 61.192 19.97 61.12 19.826C61.096 19.754 61.084 19.7 61.084 19.664C61.084 19.544 61.138 19.436 61.246 19.34C62.086 18.548 62.758 17.492 63.262 16.172C63.766 14.84 64.018 13.43 64.018 11.942C64.018 10.454 63.76 9.05 63.244 7.73C62.74 6.398 62.068 5.33 61.228 4.526C61.12 4.43 61.066 4.322 61.066 4.202C61.066 4.166 61.078 4.112 61.102 4.04C61.174 3.896 61.258 3.824 61.354 3.824C61.39 3.824 61.456 3.848 61.552 3.896C62.848 4.808 63.838 5.96 64.522 7.352C65.206 8.744 65.548 10.268 65.548 11.924C65.548 13.604 65.206 15.146 64.522 16.55C63.838 17.954 62.854 19.094 61.57 19.97ZM74.2893 17.36C73.4133 17.36 72.6693 17.192 72.0573 16.856C71.4573 16.508 71.1573 16.004 71.1573 15.344C71.1573 14.996 71.2653 14.696 71.4813 14.444C71.6973 14.192 71.9973 14.066 72.3813 14.066C72.6093 14.066 72.8013 14.126 72.9573 14.246C73.1253 14.366 73.2093 14.468 73.2093 14.552C73.2093 14.564 73.1553 14.612 73.0473 14.696C72.9393 14.768 72.8373 14.87 72.7413 15.002C72.6573 15.134 72.6153 15.302 72.6153 15.506C72.6153 15.878 72.7713 16.172 73.0833 16.388C73.4073 16.592 73.8273 16.694 74.3433 16.694C75.6273 16.694 76.2693 15.98 76.2693 14.552C76.2693 13.964 76.1133 13.496 75.8013 13.148C75.4893 12.788 75.0213 12.59 74.3973 12.554H73.7313C73.6473 12.554 73.5813 12.518 73.5333 12.446C73.4853 12.374 73.4613 12.29 73.4613 12.194C73.4613 12.086 73.4853 11.996 73.5333 11.924C73.5813 11.84 73.6473 11.792 73.7313 11.78H74.3973C74.8653 11.732 75.2373 11.522 75.5133 11.15C75.8013 10.778 75.9453 10.328 75.9453 9.8C75.9453 9.224 75.7833 8.786 75.4593 8.486C75.1353 8.174 74.7573 8.018 74.3253 8.018C73.9173 8.018 73.5633 8.138 73.2633 8.378C72.9753 8.606 72.8313 8.924 72.8313 9.332C72.8313 9.596 72.8793 9.776 72.9753 9.872C73.0833 9.956 73.1853 10.01 73.2813 10.034C73.3773 10.046 73.4253 10.058 73.4253 10.07C73.4253 10.154 73.3413 10.256 73.1733 10.376C73.0173 10.496 72.8253 10.556 72.5973 10.556C72.2133 10.556 71.9133 10.436 71.6973 10.196C71.4813 9.956 71.3733 9.65 71.3733 9.278C71.3733 8.69 71.6493 8.234 72.2013 7.91C72.7533 7.586 73.4673 7.424 74.3433 7.424C75.2793 7.424 76.0533 7.628 76.6653 8.036C77.2773 8.444 77.5833 9.032 77.5833 9.8C77.5833 10.304 77.4033 10.772 77.0433 11.204C76.6953 11.636 76.1913 11.942 75.5313 12.122V12.194C76.2033 12.266 76.7853 12.482 77.2773 12.842C77.7693 13.19 78.0153 13.748 78.0153 14.516C78.0153 15.488 77.6613 16.208 76.9533 16.676C76.2453 17.132 75.3573 17.36 74.2893 17.36ZM81.6747 17.396C81.6147 17.408 81.5247 17.414 81.4047 17.414C81.1647 17.414 81.0447 17.306 81.0447 17.09C81.0447 16.898 81.1527 16.772 81.3687 16.712C83.5647 16.028 84.8727 14.798 85.2927 13.022C84.8967 13.286 84.5007 13.472 84.1047 13.58C83.7207 13.688 83.3187 13.742 82.8987 13.742C82.3227 13.742 81.7947 13.616 81.3147 13.364C80.8347 13.1 80.4567 12.746 80.1807 12.302C79.9047 11.846 79.7667 11.33 79.7667 10.754C79.7667 10.106 79.9407 9.536 80.2887 9.044C80.6367 8.54 81.0927 8.15 81.6567 7.874C82.2207 7.598 82.8207 7.46 83.4567 7.46C84.5967 7.46 85.5027 7.814 86.1747 8.522C86.8587 9.23 87.2007 10.196 87.2007 11.42C87.2007 12.392 86.9667 13.298 86.4987 14.138C86.0427 14.978 85.3947 15.686 84.5547 16.262C83.7147 16.826 82.7547 17.204 81.6747 17.396ZM83.5107 12.932C83.8107 12.932 84.1227 12.86 84.4467 12.716C84.7707 12.56 85.0767 12.356 85.3647 12.104C85.4367 11.816 85.4727 11.582 85.4727 11.402C85.4727 10.922 85.4067 10.424 85.2747 9.908C85.1547 9.392 84.9387 8.954 84.6267 8.594C84.3267 8.222 83.9367 8.036 83.4567 8.036C82.8927 8.036 82.4247 8.276 82.0527 8.756C81.6807 9.224 81.4947 9.836 81.4947 10.592C81.4947 11.3 81.6807 11.87 82.0527 12.302C82.4247 12.722 82.9107 12.932 83.5107 12.932ZM94.0914 17.216C93.8874 17.216 93.7074 17.186 93.5514 17.126C93.3954 17.066 93.3114 16.982 93.2994 16.874V14.12H88.9974C88.8054 14.12 88.6614 14.06 88.5654 13.94C88.4694 13.82 88.4214 13.67 88.4214 13.49C88.4214 13.334 88.4634 13.202 88.5474 13.094L93.6054 7.568C93.7254 7.448 93.9114 7.388 94.1634 7.388C94.3554 7.388 94.5174 7.442 94.6494 7.55C94.7814 7.646 94.8534 7.802 94.8654 8.018V13.238H95.9454C96.1134 13.238 96.2334 13.262 96.3054 13.31C96.3774 13.346 96.4194 13.466 96.4314 13.67C96.4314 13.802 96.4014 13.91 96.3414 13.994C96.2934 14.078 96.2094 14.12 96.0894 14.12H94.8654V16.874C94.8654 16.982 94.7874 17.066 94.6314 17.126C94.4754 17.186 94.2954 17.216 94.0914 17.216ZM89.4654 13.238H93.2994V8.972L89.4654 13.238ZM98.5751 13.418C98.4551 13.418 98.3531 13.358 98.2691 13.238C98.1971 13.106 98.1611 12.974 98.1611 12.842C98.1611 12.71 98.1971 12.584 98.2691 12.464C98.3531 12.332 98.4551 12.266 98.5751 12.266H102.517C102.637 12.266 102.733 12.332 102.805 12.464C102.889 12.584 102.931 12.71 102.931 12.842C102.931 12.974 102.889 13.106 102.805 13.238C102.733 13.358 102.637 13.418 102.517 13.418H98.5751ZM104.287 17C103.867 17 103.657 16.784 103.657 16.352C103.669 16.1 103.735 15.896 103.855 15.74C103.987 15.584 104.197 15.41 104.485 15.218C105.433 14.582 106.165 14.06 106.681 13.652C107.209 13.232 107.683 12.704 108.103 12.068C108.523 11.432 108.733 10.718 108.733 9.926C108.733 9.35 108.577 8.906 108.265 8.594C107.965 8.27 107.539 8.108 106.987 8.108C106.519 8.108 106.129 8.228 105.817 8.468C105.517 8.696 105.367 9.014 105.367 9.422C105.367 9.626 105.415 9.8 105.511 9.944C105.607 10.076 105.703 10.184 105.799 10.268C105.907 10.352 105.961 10.4 105.961 10.412C105.961 10.496 105.877 10.598 105.709 10.718C105.553 10.838 105.361 10.898 105.133 10.898C104.761 10.898 104.461 10.784 104.233 10.556C104.017 10.316 103.909 10.016 103.909 9.656C103.909 9.176 104.071 8.768 104.395 8.432C104.719 8.096 105.127 7.85 105.619 7.694C106.123 7.538 106.633 7.46 107.149 7.46C108.049 7.46 108.823 7.682 109.471 8.126C110.131 8.57 110.461 9.248 110.461 10.16C110.461 10.82 110.281 11.42 109.921 11.96C109.561 12.5 109.129 12.962 108.625 13.346C108.133 13.718 107.485 14.162 106.681 14.678C106.045 15.074 105.571 15.392 105.259 15.632V15.722H110.083C110.383 15.722 110.599 15.758 110.731 15.83C110.875 15.89 110.947 16.064 110.947 16.352C110.947 16.784 110.737 17 110.317 17H104.287ZM114.569 17.36C114.413 17.36 114.275 17.288 114.155 17.144C114.035 17.012 113.975 16.826 113.975 16.586C113.975 16.058 114.269 15.2 114.857 14.012C115.457 12.812 116.237 11.348 117.197 9.62L117.611 8.882H114.461C114.137 8.882 113.891 8.906 113.723 8.954C113.567 9.002 113.435 9.116 113.327 9.296C113.231 9.476 113.159 9.758 113.111 10.142C113.087 10.238 113.045 10.31 112.985 10.358C112.937 10.394 112.841 10.412 112.697 10.412C112.493 10.412 112.391 10.31 112.391 10.106L112.463 8C112.463 7.736 112.637 7.604 112.985 7.604H118.475C118.823 7.604 118.997 7.718 118.997 7.946C118.997 8.126 118.865 8.438 118.601 8.882C118.157 9.626 117.743 10.46 117.359 11.384C116.987 12.296 116.573 13.382 116.117 14.642C115.745 15.662 115.475 16.376 115.307 16.784C115.127 17.168 114.881 17.36 114.569 17.36ZM119.897 13.418C119.777 13.418 119.675 13.358 119.591 13.238C119.519 13.106 119.483 12.974 119.483 12.842C119.483 12.71 119.519 12.584 119.591 12.464C119.675 12.332 119.777 12.266 119.897 12.266H123.839C123.959 12.266 124.055 12.332 124.127 12.464C124.211 12.584 124.253 12.71 124.253 12.842C124.253 12.974 124.211 13.106 124.127 13.238C124.055 13.358 123.959 13.418 123.839 13.418H119.897ZM125.609 17C125.189 17 124.979 16.784 124.979 16.352C124.991 16.1 125.057 15.896 125.177 15.74C125.309 15.584 125.519 15.41 125.807 15.218C126.755 14.582 127.487 14.06 128.003 13.652C128.531 13.232 129.005 12.704 129.425 12.068C129.845 11.432 130.055 10.718 130.055 9.926C130.055 9.35 129.899 8.906 129.587 8.594C129.287 8.27 128.861 8.108 128.309 8.108C127.841 8.108 127.451 8.228 127.139 8.468C126.839 8.696 126.689 9.014 126.689 9.422C126.689 9.626 126.737 9.8 126.833 9.944C126.929 10.076 127.025 10.184 127.121 10.268C127.229 10.352 127.283 10.4 127.283 10.412C127.283 10.496 127.199 10.598 127.031 10.718C126.875 10.838 126.683 10.898 126.455 10.898C126.083 10.898 125.783 10.784 125.555 10.556C125.339 10.316 125.231 10.016 125.231 9.656C125.231 9.176 125.393 8.768 125.717 8.432C126.041 8.096 126.449 7.85 126.941 7.694C127.445 7.538 127.955 7.46 128.471 7.46C129.371 7.46 130.145 7.682 130.793 8.126C131.453 8.57 131.783 9.248 131.783 10.16C131.783 10.82 131.603 11.42 131.243 11.96C130.883 12.5 130.451 12.962 129.947 13.346C129.455 13.718 128.807 14.162 128.003 14.678C127.367 15.074 126.893 15.392 126.581 15.632V15.722H131.405C131.705 15.722 131.921 15.758 132.053 15.83C132.197 15.89 132.269 16.064 132.269 16.352C132.269 16.784 132.059 17 131.639 17H125.609ZM138.933 17.216C138.729 17.216 138.549 17.186 138.393 17.126C138.237 17.066 138.153 16.982 138.141 16.874V14.12H133.839C133.647 14.12 133.503 14.06 133.407 13.94C133.311 13.82 133.263 13.67 133.263 13.49C133.263 13.334 133.305 13.202 133.389 13.094L138.447 7.568C138.567 7.448 138.753 7.388 139.005 7.388C139.197 7.388 139.359 7.442 139.491 7.55C139.623 7.646 139.695 7.802 139.707 8.018V13.238H140.787C140.955 13.238 141.075 13.262 141.147 13.31C141.219 13.346 141.261 13.466 141.273 13.67C141.273 13.802 141.243 13.91 141.183 13.994C141.135 14.078 141.051 14.12 140.931 14.12H139.707V16.874C139.707 16.982 139.629 17.066 139.473 17.126C139.317 17.186 139.137 17.216 138.933 17.216ZM134.307 13.238H138.141V8.972L134.307 13.238Z" fill="#181818"/>
<path d="M11.6885 15.5871L10.1889 13.8097C9.65329 13.1749 8.63745 13.3233 8.33794 14.063C8.11707 14.574 7.50624 14.816 6.9891 14.6539C5.84268 14.2611 4.39157 12.6056 4.20404 11.353C4.07346 10.8118 4.47507 10.2574 5.01729 10.1274C5.79883 9.95889 6.1184 8.98532 5.58281 8.35053L4.08316 6.57313C3.64968 6.12375 2.94678 6.06343 2.50164 6.43741L1.29341 7.45249C0.0801626 8.52602 1.04438 11.7295 3.56165 14.713C6.07892 17.6965 9.07304 19.2489 10.3449 18.1804L11.5531 17.1653C12.0033 16.7329 12.0635 16.0314 11.6885 15.5871Z" fill="#006BF6"/>
</svg>
