<svg width="130" height="132" viewBox="0 0 130 132" fill="none" xmlns="http://www.w3.org/2000/svg">
<path opacity="0.03" d="M125.804 69.3046C126.85 34.6786 99.9597 5.77586 65.7428 4.74854C31.5259 3.72122 2.93977 30.9583 1.89383 65.5843C0.847897 100.21 27.7383 129.113 61.9552 130.14C96.1721 131.168 124.758 103.931 125.804 69.3046Z" fill="#6B6B6B"/>
<path opacity="0.03" d="M125.934 69.1444C126.98 34.5184 100.089 5.61571 65.8722 4.58839C31.6553 3.56107 3.06916 30.7982 2.02323 65.4242C0.977292 100.05 27.8677 128.953 62.0846 129.98C96.3015 131.008 124.888 103.77 125.934 69.1444Z" fill="#6A6A6A"/>
<path opacity="0.03" d="M126.061 68.9828C127.107 34.3568 100.217 5.45408 65.9997 4.42676C31.7828 3.39944 3.1966 30.6366 2.15067 65.2626C1.10473 99.8886 27.9951 128.791 62.212 129.819C96.4289 130.846 125.015 103.609 126.061 68.9828Z" fill="#696969"/>
<path opacity="0.03" d="M126.184 68.8088C127.226 34.1828 100.333 5.28288 66.116 4.25897C31.8991 3.23507 3.31574 30.4749 2.27328 65.1009C1.23082 99.727 28.124 128.627 62.3409 129.651C96.5578 130.675 125.141 103.435 126.184 68.8088Z" fill="#686868"/>
<path opacity="0.03" d="M126.322 68.6659C127.368 34.0399 100.477 5.13719 66.2604 4.10987C32.0435 3.08255 3.45734 30.3197 2.41141 64.9457C1.36548 99.5717 28.2559 128.474 62.4728 129.502C96.6897 130.529 125.276 103.292 126.322 68.6659Z" fill="#676767"/>
<path opacity="0.03" d="M126.449 68.5033C127.495 33.8773 100.604 4.97459 66.3874 3.94727C32.1705 2.91995 3.5843 30.1571 2.53836 64.7831C1.49243 99.4091 28.3828 128.312 62.5997 129.339C96.8166 130.366 125.403 103.129 126.449 68.5033Z" fill="#666666"/>
<path opacity="0.06" d="M126.572 68.3303C127.614 33.7043 100.721 4.80437 66.5042 3.78046C32.2873 2.75655 3.70392 29.9964 2.66147 64.6224C1.61901 99.2484 28.5122 128.148 62.7291 129.172C96.946 130.196 125.529 102.956 126.572 68.3303Z" fill="#656565"/>
<path opacity="0.06" d="M126.702 68.1653C127.744 33.5393 100.851 4.63933 66.6341 3.61542C32.4172 2.59151 3.83381 29.8314 2.79135 64.4574C1.74889 99.0834 28.6421 127.983 62.859 129.007C97.0759 130.031 125.659 102.791 126.702 68.1653Z" fill="#646464"/>
<path opacity="0.06" d="M126.837 68.0199C127.883 33.3939 100.992 4.4912 66.7756 3.46388C32.5587 2.43655 3.97248 29.6737 2.92655 64.2997C1.88061 98.9257 28.771 127.828 62.9879 128.856C97.2048 129.883 125.791 102.646 126.837 68.0199Z" fill="#636363"/>
<path opacity="0.06" d="M126.955 67.8464C127.997 33.2204 101.104 4.32049 66.887 3.29658C32.6701 2.27267 4.08674 29.5125 3.04428 64.1385C2.00182 98.7646 28.895 127.665 63.1119 128.688C97.3288 129.712 125.912 102.472 126.955 67.8464Z" fill="#626262"/>
<path opacity="0.06" d="M127.085 67.6873C128.127 33.0613 101.234 4.1613 67.0169 3.13739C32.8 2.11348 4.21662 29.3534 3.17416 63.9794C2.1317 98.6054 29.0249 127.505 63.2418 128.529C97.4587 129.553 126.042 102.313 127.085 67.6873Z" fill="#616161"/>
<path opacity="0.06" d="M127.213 67.5276C128.256 32.9016 101.363 4.00164 67.1458 2.97773C32.9289 1.95382 4.34553 29.1937 3.30307 63.8197C2.26061 98.4457 29.1538 127.346 63.3707 128.37C97.5876 129.393 126.171 102.154 127.213 67.5276Z" fill="#606060"/>
<path opacity="0.09" d="M127.343 67.3674C128.385 32.7414 101.492 3.84148 67.2752 2.81757C33.0583 1.79367 4.47492 29.0335 3.43246 63.6595C2.39 98.2855 29.2832 127.186 63.5001 128.209C97.717 129.233 126.3 101.993 127.343 67.3674Z" fill="#5F5F5F"/>
<path opacity="0.09" d="M127.479 67.2226C128.524 32.5966 101.634 3.69383 67.4172 2.6665C33.2003 1.63918 4.61408 28.8763 3.56815 63.5023C2.52221 98.1283 29.4126 127.031 63.6295 128.058C97.8464 129.086 126.433 101.849 127.479 67.2226Z" fill="#5E5E5E"/>
<path opacity="0.09" d="M127.602 67.0481C128.644 32.4221 101.751 3.52215 67.534 2.49824C33.3171 1.47433 4.73371 28.7142 3.69125 63.3402C2.64879 97.9662 29.542 126.866 63.7589 127.89C97.9758 128.914 126.559 101.674 127.602 67.0481Z" fill="#5D5D5D"/>
<path opacity="0.09" d="M127.731 66.8889C128.773 32.2629 101.88 3.36297 67.6629 2.33906C33.446 1.31515 4.86262 28.555 3.82016 63.181C2.7777 97.807 29.6709 126.707 63.8878 127.731C98.1047 128.755 126.688 101.515 127.731 66.8889Z" fill="#5C5C5C"/>
<path opacity="0.1" d="M127.866 66.7426C128.912 32.1166 102.022 3.21384 67.8049 2.18652C33.588 1.1592 5.00178 28.3963 3.95584 63.0223C2.90991 97.6483 29.8003 126.551 64.0172 127.578C98.2341 128.606 126.82 101.369 127.866 66.7426Z" fill="#5B5B5B"/>
<path opacity="0.1" d="M127.983 66.5637C129.026 31.9377 102.133 3.03776 67.9158 2.01386C33.6989 0.989948 5.11555 28.2298 4.07309 62.8558C3.03063 97.4818 29.9238 126.382 64.1407 127.406C98.3576 128.43 126.941 101.19 127.983 66.5637Z" fill="#5A5A5A"/>
<path opacity="0.1" d="M128.113 66.4041C129.155 31.7781 102.262 2.8781 68.0452 1.85419C33.8283 0.83028 5.24494 28.0702 4.20248 62.6962C3.16002 97.3222 30.0532 126.222 64.2701 127.246C98.487 128.27 127.07 101.03 128.113 66.4041Z" fill="#595959"/>
<path d="M128.124 66.2627C127.078 100.89 98.494 128.128 64.2754 127.101C30.0569 126.08 3.16434 97.1769 4.21016 62.5494C5.25598 27.922 33.84 0.68397 68.0585 1.71072C102.277 2.73746 129.17 31.6406 128.124 66.2627Z" fill="url(#paint0_linear_1109_19856)"/>
<path d="M66.1056 125.149C99.7002 125.149 126.934 97.9962 126.934 64.5017C126.934 31.0072 99.7002 3.85449 66.1056 3.85449C32.5111 3.85449 5.27734 31.0072 5.27734 64.5017C5.27734 97.9962 32.5111 125.149 66.1056 125.149Z" fill="url(#paint1_linear_1109_19856)"/>
<path d="M108.674 40.7697C106.337 37.8065 102.037 37.2958 99.0646 39.626C99.0646 39.626 61.7992 70.8539 60.7214 71.7956L46.0479 58.8947C43.0172 56.2241 38.4177 55.9954 35.1095 58.5596C31.3744 61.4589 31.2357 65.7681 34.1437 69.492L52.4242 94.6606C52.5096 94.767 52.6163 94.9 52.707 95.0064C56.3994 99.3368 62.9144 99.8635 67.2578 96.1821L108.173 48.723L108.296 48.59C110.569 46.1695 110.793 43.4563 108.674 40.7697Z" fill="white"/>
<path d="M108.675 38.1096C106.338 35.1464 102.037 34.6357 99.0649 36.9658C99.0649 36.9658 61.7996 68.1938 60.7218 69.1354L46.0483 56.2346C43.0175 53.564 38.4181 53.3352 35.1099 55.8994C31.3748 58.7988 30.7025 64.1719 33.6105 67.8959L52.4246 92.0005C52.5099 92.1069 52.6167 92.2399 52.7074 92.3463C56.3998 96.6767 62.9148 97.2034 67.2581 93.522L108.173 47.1269L108.296 46.9939C110.569 44.5733 110.793 40.7961 108.675 38.1096Z" fill="url(#paint2_linear_1109_19856)"/>
<path d="M35.1102 60.1554C38.4184 57.5912 43.0179 57.8199 46.0486 60.4905L57.8781 74.0191C58.8599 75.1416 60.562 75.248 61.6772 74.2638C69.7663 67.1192 99.0653 41.2217 99.0653 41.2217C102.037 38.8916 106.338 39.4023 108.675 42.3655C109.182 43.0092 109.555 43.7168 109.796 44.4563C110.484 42.3602 110.142 39.9716 108.675 38.1096C106.338 35.1464 102.037 34.6357 99.0653 36.9658C99.0653 36.9658 61.7999 68.1938 60.7221 69.1354L46.0486 56.2346C43.0179 53.564 38.4184 53.3352 35.1102 55.8994C32.3249 58.0593 31.2471 61.5864 32.0741 64.789C32.5276 63.0122 33.5468 61.363 35.1102 60.1554Z" fill="#E0E0E0"/>
<defs>
<linearGradient id="paint0_linear_1109_19856" x1="39.6201" y1="121.173" x2="89.7164" y2="6.33501" gradientUnits="userSpaceOnUse">
<stop offset="0.1684" stop-color="#A4B3BD"/>
<stop offset="0.7313" stop-color="#EFF1F3"/>
<stop offset="0.8503" stop-color="white"/>
</linearGradient>
<linearGradient id="paint1_linear_1109_19856" x1="40.3923" y1="119.48" x2="91.5675" y2="9.40663" gradientUnits="userSpaceOnUse">
<stop stop-color="#FDFDFD"/>
<stop offset="0.3014" stop-color="white"/>
<stop offset="0.7865" stop-color="#E3E3E3"/>
<stop offset="1" stop-color="#F0F0F0"/>
</linearGradient>
<linearGradient id="paint2_linear_1109_19856" x1="31.8027" y1="71.8972" x2="110.14" y2="71.8972" gradientUnits="userSpaceOnUse">
<stop stop-color="#0068F3"/>
<stop offset="1" stop-color="#238FFF"/>
</linearGradient>
</defs>
</svg>
