<svg width="16" height="10" viewBox="0 0 16 10" fill="none" xmlns="http://www.w3.org/2000/svg">
<path d="M15.7727 5.57085L15.772 5.57161L11.7225 9.76516C11.4191 10.0793 10.9284 10.0781 10.6264 9.76242C10.3245 9.44674 10.3256 8.93613 10.629 8.62194L13.3479 5.80645L0.774999 5.80645C0.346967 5.80645 -3.98175e-07 5.4454 -4.37114e-07 5C-4.76052e-07 4.5546 0.346967 4.19355 0.774999 4.19355L13.3478 4.19355L10.629 1.37806C10.3257 1.06387 10.3245 0.553264 10.6265 0.237577C10.9284 -0.0781889 11.4192 -0.0792761 11.7225 0.234837L15.772 4.42839L15.7727 4.42915C16.0762 4.74439 16.0753 5.25665 15.7727 5.57085Z" fill="url(#paint0_linear_1330_18013)"/>
<defs>
<linearGradient id="paint0_linear_1330_18013" x1="-5.12481e-07" y1="3.98148" x2="16" y2="3.98148" gradientUnits="userSpaceOnUse">
<stop stop-color="#0068F3"/>
<stop offset="1" stop-color="#238FFF"/>
</linearGradient>
</defs>
</svg>
