<svg width="45" height="45" viewBox="0 0 45 45" fill="none" xmlns="http://www.w3.org/2000/svg">
<path d="M23.7305 7.91016H31.6406L23.7305 0V7.91016Z" fill="#006BF6"/>
<path d="M34.2773 23.9062C28.4892 23.9062 23.7305 28.6578 23.7305 34.4531C23.7305 40.3743 28.5938 45 34.2773 45C40.0941 45 44.8242 40.2686 44.8242 34.4531C44.8242 28.6377 40.0941 23.9062 34.2773 23.9062ZM32.959 38.9541L29.3902 35.3853L31.2544 33.521L32.959 35.2256L37.3003 30.8842L39.1646 32.7485L32.959 38.9541Z" fill="#006BF6"/>
<path d="M34.2773 21.2695V15.8203H20.3213L17.6846 13.1836H0V39.7266H22.2158C18.391 31.1942 24.735 21.2695 34.2773 21.2695Z" fill="#006BF6"/>
<path d="M2.63672 0V10.5469H18.7763L21.4131 13.1836H31.6406V10.5469H21.0937V0H2.63672ZM18.457 7.91016H7.91016V5.27344H18.457V7.91016Z" fill="#006BF6"/>
</svg>
