<svg width="58" height="58" viewBox="0 0 58 58" fill="none" xmlns="http://www.w3.org/2000/svg">
<g clip-path="url(#clip0_1109_4587)">
<path d="M20.2769 7.92964V37.6672C20.2769 41.4542 22.1699 44.9915 25.3214 47.0917L34.8343 53.4332L44.3451 47.0917C47.4966 44.9915 49.3892 41.455 49.3892 37.6672V7.92964L34.8065 3.07715L20.2769 7.92964Z" fill="#4DBBEB"/>
<path d="M28.9995 5.78711L13.1406 11.5653V37.6668C13.1406 39.9391 14.2765 42.0618 16.1673 43.3216L28.9995 51.8761L29.0017 51.8774L41.8326 43.3203C43.7234 42.0596 44.8584 39.9378 44.8584 37.6655V11.5653L28.9995 5.78711Z" fill="white"/>
<path d="M21.1831 11.566V37.6675C21.1831 39.9398 22.3195 42.0625 24.2098 43.3223L33.0218 49.197L41.8325 43.321C43.7233 42.0603 44.8584 39.9385 44.8584 37.6662V11.566L33.021 7.25293L21.1831 11.566Z" fill="#FEB756"/>
<path d="M13.1406 21.0693C13.7659 21.0693 14.2734 20.5618 14.2734 19.9365C14.2734 19.3113 13.7659 18.8037 13.1406 18.8037C12.5154 18.8037 12.0078 19.3113 12.0078 19.9365C12.0078 20.5618 12.5154 21.0693 13.1406 21.0693Z" fill="black"/>
<path d="M49.7472 6.85444L29.3194 0.0580234C29.0871 -0.0194147 28.8358 -0.0194147 28.6035 0.0584659L8.2505 6.85488C7.78853 7.00931 7.47656 7.44208 7.47656 7.92928V37.6668C7.47656 41.8432 9.55102 45.7191 13.0251 48.0343L27.1158 57.4273C27.6884 57.8092 28.3446 57.9999 29.0013 57.9999C29.6575 57.9999 30.3137 57.8092 30.8863 57.4273L44.9734 48.0343C48.448 45.7191 50.522 41.8432 50.522 37.6673V7.92972C50.522 7.44164 50.21 7.00887 49.7472 6.85444V6.85444ZM48.2564 37.6668C48.2564 41.0839 46.5594 44.2548 43.7167 46.1492L29.6296 55.5422C29.2477 55.7967 28.7548 55.7967 28.3725 55.5422L14.2818 46.1492C11.4392 44.2548 9.74218 41.0839 9.74218 37.6668V8.7457L28.9628 2.32674L48.2564 8.74658V37.6668Z" fill="black"/>
<path d="M29.1911 4.66669C28.9867 4.6251 28.7734 4.63926 28.5751 4.71183L12.7517 10.4989C12.3047 10.6622 12.0078 11.0874 12.0078 11.5631V15.3713C12.0078 15.997 12.5149 16.5041 13.1406 16.5041C13.7663 16.5041 14.2734 15.997 14.2734 15.3713V12.3547L27.8667 7.38322V25.6011H14.2734V24.5037C14.2734 23.878 13.7663 23.3709 13.1406 23.3709C12.5149 23.3709 12.0078 23.878 12.0078 24.5037V37.6677C12.0078 40.3254 13.3278 42.7919 15.539 44.265L28.3645 52.8155C28.3658 52.8159 28.3672 52.8168 28.3685 52.8177L28.3712 52.8199C28.3729 52.8208 28.3751 52.8217 28.3769 52.823C28.4114 52.8456 28.4473 52.866 28.484 52.885C28.4875 52.8867 28.4915 52.8898 28.4951 52.8916C28.5021 52.8952 28.5092 52.8974 28.5159 52.9005C28.542 52.9129 28.5681 52.9239 28.5946 52.9341C28.6092 52.9399 28.6234 52.9452 28.638 52.95C28.6606 52.9576 28.6836 52.9642 28.7066 52.9704C28.7247 52.9753 28.7424 52.9806 28.761 52.9845C28.7774 52.9876 28.7946 52.9903 28.8114 52.993C28.8743 53.004 28.938 53.0111 29.0017 53.0111C29.0199 53.0111 29.0376 53.008 29.0557 53.0071C29.0814 53.0058 29.107 53.0045 29.1323 53.0018C29.1566 52.9987 29.1809 52.9952 29.2053 52.9903C29.2278 52.9863 29.2504 52.981 29.2725 52.9757C29.311 52.966 29.3482 52.9545 29.3854 52.9412C29.4071 52.9332 29.4287 52.9257 29.4495 52.9164C29.4748 52.9058 29.4991 52.8938 29.5234 52.881C29.5394 52.8726 29.5549 52.8637 29.5703 52.8544C29.5903 52.8429 29.611 52.8336 29.6301 52.8208L42.4614 44.2637C44.6717 42.7897 45.9912 40.3236 45.9912 37.6664V11.5662C45.9912 11.0901 45.6934 10.6648 45.2465 10.502L29.4876 4.76006C29.3951 4.71625 29.2955 4.68439 29.1911 4.66669V4.66669ZM14.2734 37.6673V27.8667H27.8667V49.7605L16.7953 42.3799C15.216 41.3277 14.2734 39.5661 14.2734 37.6673V37.6673ZM41.2042 42.3786L30.1323 49.7627V27.8667H43.7256V37.6664C43.7256 39.5643 42.7831 41.3259 41.2042 42.3786ZM43.7256 25.6011H30.1323V7.40623L43.7256 12.3592V25.6011Z" fill="black"/>
</g>
<defs>
<clipPath id="clip0_1109_4587">
<rect width="58" height="58" fill="white"/>
</clipPath>
</defs>
</svg>
