<svg width="68" height="75" viewBox="0 0 68 75" fill="none" xmlns="http://www.w3.org/2000/svg">
<path d="M14.854 17.5156V18.6993C14.8545 19.4236 14.9317 20.1458 15.0845 20.8537L15.78 24.0301C16.1432 25.6945 16.3871 27.471 17.0292 29.0543C17.788 30.9135 19.0834 32.5045 20.7502 33.6244C22.4169 34.7444 24.3795 35.3425 26.3876 35.3425C28.3957 35.3425 30.3582 34.7444 32.025 33.6244C33.6918 32.5045 34.9872 30.9135 35.746 29.0543C36.3881 27.47 36.6319 25.6936 36.9947 24.0301L37.6907 20.8537C37.8434 20.1458 37.9207 19.4236 37.9211 18.6993V17.5156H14.854Z" fill="#F0D0B4"/>
<path d="M15.0861 20.8535C14.9313 20.1454 14.8533 19.4226 14.8533 18.6977V18.0953C14.7119 18.0749 14.5693 18.0642 14.4265 18.063C13.9547 18.0618 13.4886 18.1671 13.0631 18.3708C12.6375 18.5746 12.2634 18.8717 11.9685 19.24C11.6736 19.6083 11.4655 20.0384 11.3597 20.4982C11.2539 20.958 11.2531 21.4358 11.3575 21.896C11.4618 22.3561 11.6685 22.7868 11.9622 23.1561C12.2559 23.5253 12.6291 23.8236 13.054 24.0288C13.479 24.2339 13.9446 24.3406 14.4165 24.341C14.8883 24.3413 15.3541 24.2353 15.7794 24.0308L15.0861 20.8535Z" fill="#DDB79B"/>
<path d="M27.4049 24.614H26.5024C26.2747 24.614 26.0497 24.5648 25.8427 24.4698C25.6358 24.3748 25.4519 24.2362 25.3034 24.0636C25.155 23.8909 25.0457 23.6882 24.9828 23.4694C24.92 23.2505 24.9051 23.0207 24.9393 22.7956L25.2661 20.6352C25.282 20.5304 25.3183 20.4298 25.373 20.3391C25.4278 20.2484 25.4999 20.1694 25.5851 20.1065C25.6704 20.0437 25.7673 19.9982 25.8701 19.9728C25.9729 19.9474 26.0798 19.9424 26.1845 19.9583C26.2893 19.9742 26.3899 20.0105 26.4806 20.0652C26.5713 20.12 26.6503 20.192 26.7132 20.2773C26.7761 20.3626 26.8215 20.4594 26.8469 20.5623C26.8724 20.6651 26.8773 20.772 26.8614 20.8767L26.5388 23.0007H27.404C27.6179 23.0007 27.8231 23.0857 27.9743 23.237C28.1256 23.3883 28.2106 23.5934 28.2106 23.8074C28.2106 24.0213 28.1256 24.2265 27.9743 24.3777C27.8231 24.529 27.6179 24.614 27.404 24.614H27.4049Z" fill="#424242"/>
<path d="M21.3172 16.709C20.9373 16.7089 20.5659 16.8215 20.25 17.0325C19.934 17.2435 19.6878 17.5434 19.5423 17.8944C19.3969 18.2453 19.3588 18.6315 19.4328 19.0041C19.5069 19.3768 19.6898 19.719 19.9584 19.9877C20.227 20.2564 20.5692 20.4393 20.9418 20.5135C21.3144 20.5876 21.7007 20.5496 22.0516 20.4043C22.4026 20.2589 22.7026 20.0127 22.9137 19.6969C23.1248 19.381 23.2374 19.0096 23.2374 18.6297C23.2368 18.1206 23.0343 17.6324 22.6744 17.2724C22.3144 16.9123 21.8263 16.7097 21.3172 16.709V16.709Z" fill="#424242"/>
<path d="M31.4578 16.709C31.078 16.709 30.7066 16.8216 30.3907 17.0327C30.0749 17.2437 29.8287 17.5437 29.6833 17.8947C29.5379 18.2456 29.4999 18.6318 29.574 19.0044C29.6481 19.377 29.8311 19.7193 30.0997 19.9879C30.3683 20.2565 30.7105 20.4394 31.0831 20.5135C31.4557 20.5876 31.8419 20.5496 32.1929 20.4042C32.5438 20.2589 32.8438 20.0127 33.0549 19.6968C33.2659 19.3809 33.3786 19.0096 33.3786 18.6297C33.3781 18.1205 33.1756 17.6322 32.8155 17.2721C32.4554 16.912 31.9671 16.7095 31.4578 16.709V16.709Z" fill="#424242"/>
<path d="M26.33 29.2694C25.6383 29.2954 24.9492 29.1709 24.3104 28.9047C23.6715 28.6384 23.098 28.2366 22.6296 27.7271C22.502 27.5612 22.4439 27.3523 22.4676 27.1444C22.4912 26.9364 22.5947 26.7459 22.7562 26.6128C22.9177 26.4798 23.1246 26.4147 23.3332 26.4314C23.5417 26.448 23.7357 26.545 23.8741 26.702C24.193 27.0251 24.5767 27.2772 25 27.4417C25.4232 27.6061 25.8765 27.6792 26.33 27.6561C26.7832 27.679 27.2361 27.6059 27.6591 27.4416C28.0821 27.2772 28.4656 27.0253 28.7845 26.7024C28.8507 26.6174 28.9333 26.5464 29.0274 26.4938C29.1215 26.4413 29.2252 26.4081 29.3324 26.3962C29.4395 26.3844 29.548 26.3942 29.6513 26.425C29.7546 26.4557 29.8507 26.5069 29.9339 26.5755C30.0171 26.6441 30.0857 26.7286 30.1357 26.8241C30.1856 26.9197 30.216 27.0242 30.2248 27.1317C30.2337 27.2391 30.2209 27.3472 30.1873 27.4497C30.1536 27.5521 30.0998 27.6467 30.029 27.728C29.5607 28.2373 28.9874 28.6389 28.3488 28.905C27.7101 29.1711 27.0213 29.2955 26.33 29.2694V29.2694Z" fill="#424242"/>
<path d="M38.234 18.0632C38.1295 18.0654 38.0252 18.0734 37.9215 18.0872V18.6993C37.9211 19.4236 37.8438 20.1458 37.691 20.8537L36.995 24.0301L36.9854 24.0762C37.3786 24.2506 37.8038 24.3413 38.234 24.3426C39.0599 24.3326 39.8485 23.9975 40.429 23.4099C41.0095 22.8224 41.335 22.0298 41.335 21.2038C41.335 20.3779 41.0095 19.5853 40.429 18.9977C39.8485 18.4102 39.0599 18.0751 38.234 18.0651V18.0632Z" fill="#DDB79B"/>
<path d="M38.1098 40.3823C37.7046 40.3505 37.2985 40.3187 36.8957 40.274C36.282 40.2164 35.6746 40.105 35.0805 39.9412L26.3296 46.4404L32.372 49.2083L38.1098 40.3823Z" fill="#424242"/>
<path d="M51.9697 51.0854V58.1931H0.805664V51.0854C0.806876 48.8212 1.5518 46.62 2.92589 44.8204C4.29999 43.0207 6.22717 41.7222 8.41113 41.1246C10.3978 40.5807 12.4858 40.5208 14.5462 40.3687L20.2895 49.2094L25.5211 46.8079L26.3278 46.4392L27.1344 46.8079L32.3707 49.2094L38.1093 40.3825C38.6993 40.4286 39.2847 40.4701 39.8655 40.5208C41.3801 40.5879 42.8856 40.79 44.3643 41.1246C46.5482 41.7222 48.4754 43.0207 49.8495 44.8204C51.2236 46.62 51.9685 48.8212 51.9697 51.0854V51.0854Z" fill="#5E8569"/>
<path d="M26.3299 46.4403L17.6223 39.9729C17.1592 40.1345 16.6728 40.2197 16.1823 40.225C15.6407 40.2873 15.095 40.331 14.5479 40.3702L20.2874 49.2083L26.3299 46.4403Z" fill="#424242"/>
<path d="M27.1338 46.4395V58.1934H25.5205V46.4395C25.5205 46.2255 25.6055 46.0203 25.7568 45.8691C25.908 45.7178 26.1132 45.6328 26.3272 45.6328C26.5411 45.6328 26.7463 45.7178 26.8975 45.8691C27.0488 46.0203 27.1338 46.2255 27.1338 46.4395V46.4395Z" fill="#424242"/>
<path d="M44.4795 51.4497V58.1932H42.8662V51.4497C42.8662 51.2358 42.9512 51.0306 43.1025 50.8793C43.2537 50.728 43.4589 50.6431 43.6729 50.6431C43.8868 50.6431 44.092 50.728 44.2432 50.8793C44.3945 51.0306 44.4795 51.2358 44.4795 51.4497V51.4497Z" fill="#424242"/>
<path d="M9.10254 53.6841H13.8673C14.1289 53.6842 14.3799 53.7882 14.5649 53.9733C14.75 54.1583 14.854 54.4093 14.8541 54.6709C14.8541 54.8006 14.8795 54.9289 14.9291 55.0487C14.9787 55.1684 15.0514 55.2773 15.143 55.3689C15.2347 55.4606 15.3435 55.5332 15.4633 55.5828C15.583 55.6324 15.7114 55.6579 15.841 55.6578H19.452C19.7137 55.6579 19.9646 55.7619 20.1497 55.947C20.3347 56.132 20.4387 56.383 20.4388 56.6447V57.2066C20.4387 57.4683 20.3347 57.7192 20.1497 57.9042C19.9646 58.0893 19.7137 58.1933 19.452 58.1934H9.10254V53.6841Z" fill="#85BC94"/>
<path d="M50.1649 45.2673H44.0469C43.6801 45.2673 43.3284 45.413 43.0691 45.6723C42.8098 45.9317 42.6641 46.2834 42.6641 46.6501V46.7078C42.6641 47.0745 42.8098 47.4262 43.0691 47.6856C43.3284 47.9449 43.6801 48.0906 44.0469 48.0906H45.1706C45.5374 48.0906 45.8891 48.2363 46.1484 48.4956C46.4078 48.7549 46.5535 49.1066 46.5535 49.4734C46.5535 49.8401 46.6991 50.1919 46.9585 50.4512C47.2178 50.7105 47.5695 50.8562 47.9363 50.8562H51.9598C51.9178 48.8583 51.294 46.9161 50.1649 45.2673V45.2673Z" fill="#85BC94"/>
<path d="M32.2306 38.8809L33.3894 38.6445C33.3382 38.5647 33.2871 38.4845 33.2396 38.3956C33.0566 38.062 32.9365 37.6977 32.8851 37.3207L32.38 33.3677C30.6457 34.651 28.5452 35.3436 26.3878 35.3436C24.2303 35.3436 22.1298 34.651 20.3956 33.3677L19.8885 37.3207C19.818 37.7947 19.6398 38.2463 19.3677 38.6408L20.5426 38.8809C24.3988 39.6685 28.3744 39.6685 32.2306 38.8809V38.8809Z" fill="#DDB79B"/>
<path d="M33.3898 38.6446L32.2311 38.881C28.3756 39.6683 24.4008 39.6683 20.5454 38.881L19.3704 38.6409C18.9463 39.2614 18.3333 39.7286 17.6226 39.973L26.3301 46.4404L35.081 39.9412C34.3794 39.727 33.7788 39.2665 33.3898 38.6446Z" fill="#85BC94"/>
<path d="M1.12842 48.5123H10.9127C11.1745 48.5123 11.4255 48.4083 11.6106 48.2232C11.7956 48.0382 11.8996 47.7872 11.8996 47.5254V46.9635C11.8997 46.8339 11.8742 46.7056 11.8246 46.5858C11.775 46.466 11.7023 46.3572 11.6107 46.2656C11.519 46.1739 11.4102 46.1012 11.2905 46.0517C11.1707 46.0021 11.0423 45.9766 10.9127 45.9767H7.30175C7.04005 45.9765 6.78911 45.8725 6.60406 45.6875C6.41902 45.5024 6.31501 45.2515 6.31488 44.9898C6.31494 44.8602 6.28946 44.7318 6.23989 44.6121C6.19031 44.4923 6.11762 44.3835 6.02597 44.2918C5.93432 44.2002 5.82551 44.1275 5.70575 44.0779C5.58599 44.0284 5.45763 44.0029 5.32802 44.0029H3.629C2.42708 45.2701 1.56666 46.8217 1.12842 48.5123V48.5123Z" fill="#85BC94"/>
<path d="M32.0649 58.1934V55.9463C32.0651 55.5719 32.2139 55.2129 32.4786 54.9483C32.7434 54.6836 33.1024 54.5349 33.4768 54.5349H33.5326C33.9069 54.5348 34.2659 54.386 34.5306 54.1212C34.7953 53.8565 34.944 53.4974 34.944 53.1231C34.9441 52.7487 35.0929 52.3897 35.3576 52.125C35.6224 51.8604 35.9814 51.7117 36.3558 51.7117H36.4134C36.7877 51.7117 37.1467 51.8604 37.4114 52.1251C37.6761 52.3897 37.8248 52.7487 37.8248 53.1231V58.1934H32.0649Z" fill="#85BC94"/>
<path d="M39.1787 12.3899V16.5936C39.178 16.8379 39.0806 17.072 38.9079 17.2447C38.7352 17.4174 38.5011 17.5148 38.2568 17.5155H14.5186C14.2743 17.5148 14.0402 17.4174 13.8675 17.2447C13.6948 17.072 13.5974 16.8379 13.5967 16.5936V12.3899H39.1787Z" fill="#424242"/>
<path d="M31.6131 0.805664H24.4381C19.7278 0.805515 15.1973 2.61391 11.7817 5.85754L9.65817 7.87368C9.40056 8.11817 9.19541 8.41255 9.05523 8.73888C8.91504 9.06521 8.84276 9.41666 8.84277 9.77182C8.8429 10.4657 9.11864 11.1312 9.60936 11.6218C10.1001 12.1125 10.7656 12.3881 11.4595 12.3881H39.1734C39.7001 12.3879 40.2188 12.2587 40.6841 12.0118C41.1494 11.7649 41.5472 11.4079 41.8428 10.9718C42.1383 10.5358 42.3226 10.034 42.3795 9.51038C42.4365 8.98672 42.3644 8.45708 42.1695 7.96771C41.3285 5.85471 39.8729 4.04262 37.991 2.7658C36.109 1.48898 33.8873 0.806163 31.6131 0.805664V0.805664Z" fill="#5E8569"/>
<path d="M28.9084 7.48791L26.3876 9.3335L23.8667 7.48791V3.85986H28.9084V7.48791Z" fill="#FBB540"/>
<path d="M16.9248 12.3899H18.5381V17.5155H16.9248V12.3899Z" fill="#707070"/>
<path d="M21.2534 12.3899H22.8667V17.5155H21.2534V12.3899Z" fill="#707070"/>
<path d="M25.5811 12.3899H27.1943V17.5155H25.5811V12.3899Z" fill="#707070"/>
<path d="M29.9097 12.3899H31.5229V17.5155H29.9097V12.3899Z" fill="#707070"/>
<path d="M34.2373 12.3899H35.8506V17.5155H34.2373V12.3899Z" fill="#707070"/>
<path d="M9.90918 51.4497V58.1932H8.2959V51.4497C8.2959 51.2358 8.38088 51.0306 8.53216 50.8793C8.68343 50.728 8.8886 50.6431 9.10254 50.6431C9.31647 50.6431 9.52165 50.728 9.67292 50.8793C9.82419 51.0306 9.90918 51.2358 9.90918 51.4497V51.4497Z" fill="#424242"/>
<path d="M26.5029 24.6143H27.4054C27.6194 24.6143 27.8245 24.5293 27.9758 24.378C28.1271 24.2267 28.2121 24.0215 28.2121 23.8076C28.2121 23.5937 28.1271 23.3885 27.9758 23.2372C27.8245 23.086 27.6194 23.001 27.4054 23.001H26.5402L26.8629 20.877C26.8787 20.7722 26.8738 20.6654 26.8484 20.5625C26.823 20.4597 26.7775 20.3629 26.7147 20.2776C26.5877 20.1053 26.3976 19.9906 26.186 19.9586C25.9745 19.9265 25.7588 19.9798 25.5866 20.1068C25.4144 20.2337 25.2996 20.4239 25.2676 20.6354L24.9408 22.7959C24.9066 23.0209 24.9214 23.2506 24.9842 23.4694C25.047 23.6882 25.1563 23.8908 25.3046 24.0635C25.4529 24.2361 25.6368 24.3747 25.8436 24.4698C26.0504 24.5648 26.2753 24.6141 26.5029 24.6143V24.6143Z" fill="#332319"/>
<path d="M26.33 29.2696C27.0214 29.2957 27.7102 29.1714 28.3488 28.9053C28.9875 28.6391 29.5608 28.2376 30.029 27.7283C30.0999 27.647 30.1537 27.5523 30.1873 27.4499C30.221 27.3475 30.2337 27.2394 30.2249 27.1319C30.216 27.0245 30.1857 26.9199 30.1357 26.8244C30.0858 26.7288 30.0172 26.6443 29.934 26.5757C29.8508 26.5072 29.7547 26.456 29.6513 26.4252C29.548 26.3944 29.4396 26.3846 29.3324 26.3965C29.2253 26.4083 29.1216 26.4415 29.0275 26.4941C28.9334 26.5467 28.8507 26.6176 28.7845 26.7027C28.4657 27.0256 28.0822 27.2775 27.6592 27.4418C27.2362 27.6062 26.7832 27.6793 26.33 27.6564C25.8767 27.6793 25.4236 27.6062 25.0005 27.4417C24.5775 27.2773 24.1939 27.0253 23.8751 26.7022C23.7367 26.5453 23.5427 26.4482 23.3341 26.4316C23.1256 26.415 22.9187 26.48 22.7572 26.6131C22.5957 26.7461 22.4922 26.9367 22.4685 27.1446C22.4449 27.3525 22.503 27.5615 22.6305 27.7273C23.0989 28.2367 23.6722 28.6384 24.3109 28.9047C24.9496 29.171 25.6385 29.2955 26.33 29.2696V29.2696Z" fill="#332319"/>
<path d="M35.7074 44.078C35.6186 44.0202 35.5193 43.9804 35.4151 43.9609C35.3109 43.9415 35.2039 43.9428 35.1002 43.9648C34.9965 43.9867 34.8981 44.0289 34.8108 44.0889C34.7234 44.1489 34.6487 44.2256 34.591 44.3145L34.3988 44.6104C34.2822 44.7898 34.2417 45.0082 34.2861 45.2175C34.3306 45.4267 34.4563 45.6098 34.6357 45.7264C34.8151 45.8429 35.0335 45.8835 35.2428 45.839C35.452 45.7946 35.6351 45.6688 35.7517 45.4894L35.9439 45.1935C36.0604 45.0142 36.1009 44.796 36.0565 44.5868C36.0122 44.3777 35.8866 44.1947 35.7074 44.078V44.078Z" fill="#332319"/>
<path d="M52.7663 50.8415C52.7075 48.4448 51.8798 46.1306 50.4053 44.2403C48.9308 42.35 46.8875 40.9839 44.5773 40.3436C43.2919 40.0326 41.9801 39.843 40.6593 39.7771C40.0675 39.731 39.2433 39.6545 38.1569 39.5771C37.9218 39.554 37.7296 39.5439 37.0082 39.4743L36.6551 39.4282C36.2068 39.3838 35.7634 39.2988 35.3304 39.1742C34.8053 39.0185 34.3559 38.6749 34.0679 38.209C34.0278 38.1459 33.9868 38.0818 33.9494 38.0136C33.813 37.7671 33.7235 37.4975 33.6853 37.2185L33.24 33.7375C34.6787 32.5775 35.7985 31.0706 36.4943 29.3586C36.9645 28.082 37.3129 26.7639 37.5346 25.4217C37.5563 25.3101 37.5807 25.2014 37.6019 25.0903C37.8106 25.1269 38.022 25.1462 38.2338 25.1479C39.1507 25.1486 40.0392 24.8297 40.7464 24.2462C41.4537 23.6627 41.9355 22.8509 42.1089 21.9506C42.2824 21.0503 42.1367 20.1176 41.6969 19.3131C41.2571 18.5086 40.5507 17.8824 39.6992 17.5424C39.8858 17.2612 39.9853 16.9313 39.9854 16.5938V13.105C40.563 12.9877 41.1078 12.745 41.5812 12.394C42.0546 12.043 42.4451 11.5923 42.7251 11.0737C43.0052 10.5551 43.1678 9.98132 43.2016 9.39293C43.2354 8.80454 43.1395 8.21592 42.9207 7.66868C42.0265 5.40102 40.469 3.45594 38.4516 2.08775C36.4342 0.719562 34.0509 -0.00804527 31.6134 6.71039e-05H24.4384C20.9077 -0.000828075 17.4453 0.973117 14.4329 2.81455C14.3407 2.86889 14.2602 2.94102 14.1961 3.02677C14.1321 3.11251 14.0858 3.21014 14.0598 3.31397C14.0339 3.4178 14.0288 3.52576 14.045 3.63155C14.0612 3.73734 14.0983 3.83885 14.1541 3.93017C14.2099 4.02149 14.2834 4.10078 14.3701 4.16344C14.4569 4.2261 14.5553 4.27087 14.6595 4.29514C14.7637 4.3194 14.8717 4.32269 14.9773 4.30479C15.0828 4.2869 15.1837 4.24819 15.2741 4.19091C18.0334 2.50467 21.2047 1.61274 24.4384 1.61335H31.6134C33.7278 1.60641 35.7951 2.23762 37.5451 3.42447C39.295 4.61131 40.6461 6.29855 41.4217 8.2656C41.5681 8.6327 41.6223 9.03007 41.5796 9.42297C41.5369 9.81587 41.3986 10.1923 41.1768 10.5194C40.955 10.8465 40.6565 11.1143 40.3073 11.2994C39.9581 11.4845 39.5689 11.5812 39.1737 11.5811H11.4598C11.098 11.5809 10.7445 11.4722 10.445 11.2691C10.1455 11.0659 9.91384 10.7777 9.77985 10.4415C9.64587 10.1054 9.61574 9.73676 9.69336 9.38331C9.77098 9.02986 9.95279 8.70781 10.2153 8.45873L12.3393 6.44259C12.4161 6.36962 12.4778 6.28223 12.5208 6.18542C12.5639 6.08861 12.5874 5.98427 12.5902 5.87836C12.5929 5.77244 12.5747 5.66703 12.5367 5.56814C12.4987 5.46925 12.4415 5.37881 12.3686 5.302C12.2956 5.22519 12.2082 5.1635 12.1114 5.12045C12.0146 5.07741 11.9102 5.05386 11.8043 5.05114C11.6984 5.04842 11.593 5.06659 11.4941 5.10461C11.3952 5.14263 11.3048 5.19976 11.228 5.27273L9.10259 7.28887C8.60602 7.76022 8.26221 8.36964 8.11558 9.03841C7.96895 9.70717 8.02625 10.4045 8.28006 11.0404C8.53387 11.6763 8.97253 12.2214 9.53937 12.6054C10.1062 12.9894 10.7752 13.1946 11.4598 13.1944H12.7901V16.5938C12.791 16.9173 12.8837 17.234 13.0574 17.5069C12.1893 17.8276 11.4617 18.4436 11.002 19.2468C10.5423 20.05 10.3798 20.9894 10.5431 21.9003C10.7063 22.8113 11.1848 23.6358 11.8948 24.2295C12.6047 24.8231 13.5009 25.1481 14.4264 25.1474C14.676 25.146 14.9248 25.1206 15.1695 25.0714C15.193 25.1885 15.2179 25.3018 15.2409 25.4212C15.4624 26.7648 15.8111 28.0842 16.2822 29.3618C16.9775 31.0738 18.097 32.5807 19.5355 33.7407L19.0916 37.2129C19.038 37.5645 18.9047 37.8992 18.7021 38.1915C18.3735 38.6676 17.9007 39.0256 17.3534 39.2129C16.9723 39.3453 16.5722 39.4148 16.1688 39.4185C16.1425 39.4185 16.1167 39.4185 16.0909 39.4236C15.5322 39.4881 14.9689 39.5319 14.491 39.566C14.1752 39.5886 13.8585 39.6093 13.5423 39.6301C11.7417 39.6877 9.95156 39.9272 8.19916 40.345C5.84534 40.9909 3.76851 42.3914 2.28739 44.3314C0.806265 46.2715 0.00269458 48.644 0 51.0848V58.1934C0.000121752 58.4072 0.0850196 58.6121 0.236068 58.7633C0.387117 58.9146 0.591982 58.9997 0.805719 59.0001H51.9698C52.1837 59.0001 52.3889 58.9151 52.5402 58.7638C52.6914 58.6125 52.7764 58.4074 52.7764 58.1934V51.0871C52.7764 51.0046 52.7681 50.9244 52.7663 50.8415ZM50.0039 46.5465C50.5894 47.6335 50.9612 48.8226 51.0991 50.0496H47.9366C47.7838 50.0495 47.6373 49.9887 47.5293 49.8807C47.4213 49.7727 47.3605 49.6262 47.3604 49.4734C47.3597 48.893 47.1288 48.3365 46.7183 47.926C46.3079 47.5156 45.7514 47.2847 45.171 47.284H44.0472C43.8944 47.2837 43.748 47.2229 43.64 47.1149C43.532 47.0069 43.4713 46.8605 43.471 46.7078V46.6502C43.4713 46.4974 43.532 46.351 43.64 46.243C43.748 46.135 43.8944 46.0742 44.0472 46.074H49.7246C49.8213 46.2321 49.9163 46.3865 50.0039 46.5478V46.5465ZM19.1119 40.0749C19.3236 39.9125 19.5196 39.7306 19.6972 39.5314L20.3836 39.6697C24.3449 40.4833 28.4302 40.4833 32.3915 39.6697L33.0483 39.5356C33.2077 39.7241 33.3853 39.8966 33.5784 40.0505L27.0755 44.8825L26.3297 45.4356L21.8918 42.1394L19.1119 40.0749ZM40.5662 21.2032C40.5655 21.8215 40.3195 22.4143 39.8822 22.8514C39.445 23.2886 38.8521 23.5345 38.2338 23.5351C38.1336 23.535 38.0335 23.5282 37.9342 23.5148C38.2527 21.8974 38.6597 20.7653 38.7261 18.9234C39.2469 19.0365 39.7134 19.3242 40.0481 19.7389C40.3828 20.1536 40.5656 20.6703 40.5662 21.2032ZM38.3721 16.5938C38.3721 16.6244 38.36 16.6537 38.3384 16.6753C38.3168 16.6969 38.2875 16.7091 38.2569 16.7091H35.8513V13.1944H38.3721V16.5938ZM31.5231 16.7091V13.1944H34.238V16.7091H31.5231ZM22.8657 16.7091V13.1944H25.5811V16.7091H22.8657ZM21.2524 16.7091H18.5375V13.1944H21.2524V16.7091ZM27.1944 13.1944H29.9098V16.7091H27.1944V13.1944ZM16.9242 13.1944V16.7091H14.5181C14.4877 16.7088 14.4586 16.6966 14.4371 16.675C14.4156 16.6534 14.4035 16.6243 14.4034 16.5938V13.1944H16.9242ZM14.4264 23.5342C13.8404 23.5348 13.2755 23.3147 12.8444 22.9177C12.4132 22.5208 12.1474 21.976 12.0997 21.3919C12.0521 20.8077 12.2261 20.2271 12.5872 19.7655C12.9483 19.3039 13.47 18.9952 14.0485 18.9008C14.0024 19.8775 14.5661 22.2836 14.8371 23.4973C14.7016 23.5218 14.5641 23.5342 14.4264 23.5342V23.5342ZM17.777 28.7524C17.347 27.57 17.0279 26.3502 16.8238 25.1087C16.7408 24.6883 16.6583 24.2698 16.5684 23.8577L16.2158 22.2481L15.8738 20.6809C15.7174 19.9046 15.646 19.1136 15.6608 18.3219H19.4276C19.4087 18.4233 19.3982 18.5261 19.3962 18.6293C19.4041 19.1335 19.6098 19.6144 19.9691 19.9682C20.3285 20.322 20.8125 20.5203 21.3167 20.5203C21.821 20.5203 22.305 20.322 22.6643 19.9682C23.0237 19.6144 23.2294 19.1335 23.2372 18.6293C23.2354 18.5262 23.2251 18.4233 23.2064 18.3219H29.5682C29.5176 18.5988 29.5284 18.8836 29.6 19.1559C29.6716 19.4282 29.8021 19.6815 29.9824 19.8977C30.1627 20.114 30.3884 20.288 30.6434 20.4074C30.8984 20.5268 31.1765 20.5887 31.4581 20.5887C31.7396 20.5887 32.0178 20.5268 32.2728 20.4074C32.5278 20.288 32.7534 20.114 32.9337 19.8977C33.114 19.6815 33.2446 19.4282 33.3161 19.1559C33.3877 18.8836 33.3986 18.5988 33.3479 18.3219H37.1147V18.6989C37.1142 19.3653 37.0429 20.0296 36.9022 20.6809L36.1979 23.8983V23.9034C36.1117 24.3002 36.0315 24.7026 35.9517 25.1083C35.7475 26.3489 35.4287 27.5679 34.9994 28.7497C34.3695 30.2989 33.3326 31.6492 31.9983 32.6575C31.9353 32.6914 31.8772 32.7336 31.8254 32.7829C30.2411 33.9218 28.3392 34.5344 26.388 34.5344C24.4368 34.5344 22.5348 33.9218 20.9505 32.7829C20.8985 32.7329 20.8399 32.6902 20.7763 32.6561C19.4428 31.6492 18.4064 30.3003 17.777 28.7524V28.7524ZM26.3877 36.15C28.2632 36.1527 30.1076 35.6721 31.7434 34.7548L32.0845 37.4227C32.1129 37.6386 32.1604 37.8516 32.2264 38.0592L32.0688 38.0915C28.3205 38.8619 24.4546 38.8619 20.7062 38.0915L20.5389 38.0574C20.6075 37.851 20.6584 37.6391 20.691 37.424L21.0321 34.7548C22.6678 35.6722 24.5123 36.1528 26.3877 36.15V36.15ZM16.237 41.0309C16.6521 41.0218 17.0648 40.9655 17.4672 40.8631L19.3243 42.2422L24.7542 46.2754L20.5845 48.1851L15.9581 41.0608C16.0508 41.0512 16.1439 41.0415 16.237 41.0309ZM2.34156 47.4554C2.73758 46.4874 3.29372 45.593 3.98665 44.8096H5.32798C5.37578 44.8096 5.42162 44.8286 5.45542 44.8624C5.48921 44.8962 5.5082 44.9421 5.5082 44.9899C5.5093 45.4652 5.69861 45.9208 6.03472 46.2569C6.37083 46.593 6.82638 46.7823 7.30171 46.7834H10.9127C10.9364 46.7834 10.9598 46.788 10.9817 46.7971C11.0035 46.8062 11.0234 46.8194 11.0401 46.8362C11.0569 46.8529 11.0701 46.8728 11.0792 46.8946C11.0883 46.9165 11.0929 46.9399 11.0929 46.9636V47.525C11.0929 47.5729 11.0739 47.6188 11.0402 47.6526C11.0064 47.6865 10.9605 47.7056 10.9127 47.7057H2.2443C2.27611 47.6218 2.30745 47.5379 2.34156 47.4554V47.4554ZM1.61236 51.0871C1.61418 50.4941 1.67189 49.9026 1.78475 49.3204H10.9113C11.3867 49.3193 11.8423 49.1299 12.1785 48.7937C12.5146 48.4575 12.7038 48.0018 12.7048 47.5264V46.965C12.7036 46.49 12.5144 46.0348 12.1786 45.6988C11.8428 45.3628 11.3877 45.1734 10.9127 45.1719H7.30171C7.25391 45.1719 7.20807 45.1529 7.17427 45.1192C7.14047 45.0854 7.12148 45.0395 7.12148 44.9917C7.12059 44.5881 6.9836 44.1966 6.73267 43.8806C6.48174 43.5645 6.13153 43.3422 5.73867 43.2498C6.61717 42.64 7.59264 42.1833 8.62368 41.8993C10.2719 41.5101 11.9551 41.2885 13.6479 41.2378L14.1314 41.2056L19.612 49.6476C19.7175 49.8103 19.878 49.9295 20.0642 49.9835C20.2504 50.0375 20.4499 50.0227 20.626 49.9417L25.5253 47.6974V57.3868H21.2252C21.2344 57.3271 21.2406 57.2669 21.2437 57.2066V56.6447C21.2425 56.1697 21.0534 55.7146 20.7177 55.3786C20.382 55.0427 19.927 54.8532 19.452 54.8516H15.841C15.7932 54.8516 15.7474 54.8326 15.7136 54.7988C15.6798 54.765 15.6608 54.7192 15.6608 54.6714C15.6597 54.1961 15.4704 53.7405 15.1343 53.4044C14.7982 53.0683 14.3426 52.879 13.8673 52.8779H9.90923V51.4527C9.90923 51.2387 9.82425 51.0336 9.67297 50.8823C9.5217 50.731 9.31653 50.646 9.10259 50.646C8.88866 50.646 8.68349 50.731 8.53221 50.8823C8.38094 51.0336 8.29595 51.2387 8.29595 51.4527V57.3868H1.61236V51.0871ZM9.90923 57.3868V54.4907H13.8673C13.9151 54.4908 13.9608 54.5099 13.9946 54.5436C14.0284 54.5774 14.0474 54.6232 14.0475 54.6709C14.0486 55.1463 14.2379 55.6018 14.574 55.9379C14.9102 56.274 15.3657 56.4634 15.841 56.4644H19.452C19.4998 56.4646 19.5456 56.4836 19.5793 56.5174C19.6131 56.5511 19.6321 56.5969 19.6323 56.6447V57.2066C19.6321 57.2543 19.6131 57.3001 19.5793 57.3339C19.5456 57.3676 19.4998 57.3867 19.452 57.3868H9.90923ZM32.8713 57.3868V55.9464C32.8715 55.786 32.9354 55.6322 33.0489 55.5188C33.1623 55.4055 33.3161 55.3417 33.4765 55.3416H33.5323C34.1204 55.3409 34.6842 55.1069 35.1 54.691C35.5158 54.2751 35.7497 53.7112 35.7503 53.1231C35.7506 52.9627 35.8144 52.809 35.9279 52.6956C36.0413 52.5822 36.1951 52.5185 36.3555 52.5184H36.4131C36.5735 52.5185 36.7272 52.5822 36.8406 52.6956C36.954 52.809 37.0178 52.9628 37.0179 53.1231V57.3868H32.8713ZM44.4795 57.3868V51.4522C44.4795 51.2383 44.3946 51.0331 44.2433 50.8818C44.092 50.7306 43.8868 50.6456 43.6729 50.6456C43.459 50.6456 43.2538 50.7306 43.1025 50.8818C42.9512 51.0331 42.8663 51.2383 42.8663 51.4522V57.3868H38.6312V53.1231C38.6306 52.535 38.3967 51.9712 37.9809 51.5554C37.565 51.1396 37.0012 50.9057 36.4131 50.9051H36.3555C35.7674 50.9057 35.2036 51.1396 34.7876 51.5554C34.3717 51.9712 34.1378 52.535 34.137 53.1231C34.1369 53.2835 34.0732 53.4373 33.9598 53.5508C33.8464 53.6642 33.6927 53.7281 33.5323 53.7283H33.4765C32.8884 53.7289 32.3245 53.9628 31.9086 54.3786C31.4927 54.7944 31.2587 55.3582 31.258 55.9464V57.3868H27.1368V47.6974L32.0365 49.9417C32.2126 50.0228 32.412 50.0378 32.5983 49.9838C32.7845 49.9299 32.9451 49.8107 33.0506 49.6481L34.0674 48.0837C34.1251 47.9949 34.1648 47.8955 34.1841 47.7914C34.2035 47.6872 34.2021 47.5803 34.1801 47.4766C34.1581 47.373 34.1159 47.2747 34.0559 47.1874C33.9959 47.1001 33.9193 47.0255 33.8305 46.9678C33.7417 46.91 33.6423 46.8704 33.5382 46.851C33.434 46.8317 33.3271 46.8331 33.2235 46.8551C33.1198 46.8771 33.0216 46.9193 32.9343 46.9793C32.8469 47.0393 32.7723 47.1158 32.7146 47.2047L32.0771 48.1851L27.9075 46.2754L35.2442 40.8244C35.6415 40.9142 36.0434 40.9822 36.4482 41.0281L36.7058 41.0622L36.2776 41.7204C36.1611 41.8999 36.1206 42.1183 36.165 42.3276C36.2095 42.537 36.3353 42.72 36.5148 42.8366C36.6942 42.9532 36.9126 42.9937 37.122 42.9492C37.3313 42.9047 37.5144 42.7789 37.6309 42.5994L38.5252 41.2235H38.5537C38.9686 41.2554 39.3834 41.2876 39.7937 41.3231C40.0384 41.3448 40.2846 41.3646 40.5312 41.3844C41.7514 41.443 42.9635 41.6152 44.1518 41.8988C45.7922 42.3501 47.2811 43.2341 48.4625 44.4584H44.0476C43.4672 44.4591 42.9107 44.69 42.5003 45.1005C42.0898 45.5109 41.8589 46.0674 41.8582 46.6479V46.7055C41.8589 47.2859 42.0898 47.8424 42.5003 48.2528C42.9107 48.6633 43.4672 48.8942 44.0476 48.8949H45.1714C45.3241 48.8952 45.4706 48.956 45.5786 49.064C45.6866 49.172 45.7473 49.3184 45.7476 49.4711C45.7483 50.0516 45.9792 50.608 46.3897 51.0185C46.8001 51.4289 47.3566 51.6598 47.937 51.6606H51.1636V57.3868H44.4795Z" fill="#332319"/>
<path d="M25.911 9.98431C26.0493 10.0853 26.2161 10.1397 26.3873 10.1397C26.5586 10.1397 26.7254 10.0853 26.8637 9.98431L29.3846 8.14056C29.487 8.06572 29.5703 7.96778 29.6277 7.85469C29.6851 7.7416 29.7151 7.61655 29.7151 7.48972V3.85937C29.715 3.64548 29.6299 3.44038 29.4787 3.28913C29.3274 3.13788 29.1223 3.05286 28.9084 3.05273H23.8667C23.6528 3.05286 23.4477 3.13788 23.2965 3.28913C23.1452 3.44038 23.0602 3.64548 23.0601 3.85937V7.48833C23.0601 7.61517 23.09 7.74021 23.1474 7.8533C23.2048 7.96639 23.2881 8.06434 23.3906 8.13918L25.911 9.98431ZM24.6733 4.66601H28.1018V7.07902L26.3876 8.33369L24.6733 7.07902V4.66601Z" fill="#332319"/>
<path d="M55.5862 33.0002H46.8877L46.0127 54.0002L46.8877 75.0002H55.5862L67.8877 62.6988V45.3017L55.5862 33.0002Z" fill="#EFE2DD"/>
<path d="M38.1893 33.0002L25.8877 45.3017V62.6988L38.1893 75.0002H46.8877V33.0002H38.1893Z" fill="#F7F0EB"/>
<path d="M54.5668 35.4612H46.8877L46.0127 54.0002L46.8877 72.5393H54.5668L65.4268 61.6794V46.3211L54.5668 35.4612Z" fill="#C6001C"/>
<path d="M39.2087 35.4612L28.3486 46.3211V61.6794L39.2087 72.5393H46.8877V35.4612H39.2087Z" fill="#FF1F3D"/>
<path d="M33.7872 59.113C32.4059 59.113 31.1079 58.555 30.2261 57.5819L32.0496 55.9293C32.4597 56.3819 33.1093 56.6521 33.7872 56.6521C34.4302 56.6521 34.7953 56.273 34.8397 56.0169C34.8593 55.9037 34.9114 55.6031 34.25 55.3545C33.8215 55.1935 33.5049 55.116 33.1988 55.041C32.7301 54.9263 32.2454 54.8076 31.6892 54.446C30.7028 53.8051 30.3696 52.7182 30.3867 51.9149C30.4124 50.7009 31.2459 49.5805 32.4607 49.1272C34.5141 48.3609 36.1653 49.5874 37.1519 50.3202L35.6846 52.2958C34.2328 51.2177 33.7894 51.2581 33.321 51.4329C32.9813 51.5597 32.85 51.8279 32.8471 51.9671C32.8441 52.109 32.9072 52.3027 33.0302 52.3826C33.2264 52.5101 33.3771 52.551 33.784 52.6507C34.125 52.7342 34.5495 52.8382 35.1155 53.0509C36.6759 53.6371 37.5194 54.9663 37.2645 56.437C36.996 57.9876 35.5335 59.113 33.7872 59.113V59.113Z" fill="#FFFBF5"/>
<path d="M44.8793 48.9685H38.2197V51.4294H40.3105V59.0319H42.7715V51.4294H44.8793V48.9685Z" fill="#FFFBF5"/>
<path d="M60.2624 48.9685H56.915V59.032H59.376V55.7232C59.7165 55.7216 60.0513 55.7203 60.2624 55.7203C62.1471 55.7203 63.6803 54.206 63.6803 52.3444C63.6803 50.4829 62.1471 48.9685 60.2624 48.9685ZM60.2624 53.2594C60.0494 53.2594 59.72 53.2606 59.3841 53.2622C59.3825 52.9091 59.3805 51.7997 59.3795 51.4294H60.2624C60.7811 51.4294 61.2194 51.8485 61.2194 52.3444C61.2194 52.8404 60.7811 53.2594 60.2624 53.2594Z" fill="#F7F0EB"/>
<path d="M50.3785 59.0319C47.6039 59.0319 45.3467 56.7747 45.3467 54.0002C45.3467 51.2258 47.6039 48.9685 50.3785 48.9685C53.1529 48.9685 55.4102 51.2258 55.4102 54.0002C55.4102 56.7747 53.1529 59.0319 50.3785 59.0319ZM50.3785 51.4294C48.9609 51.4294 47.8076 52.5827 47.8076 54.0002C47.8076 55.4177 48.9609 56.571 50.3785 56.571C51.796 56.571 52.9492 55.4177 52.9492 54.0002C52.9492 52.5827 51.796 51.4294 50.3785 51.4294Z" fill="#F7F0EB"/>
</svg>
