<svg width="59" height="72" viewBox="0 0 59 72" fill="none" xmlns="http://www.w3.org/2000/svg">
<path d="M30.5241 8.585V4.62511L3.41281 4.625V8.58489C3.41281 14.8392 6.42417 20.7641 11.6068 24.568C12.5423 25.2546 13.1011 26.3403 13.1011 27.5007C13.1011 28.6588 12.5457 29.7444 11.612 30.4295C6.31825 34.3129 3.4126 40.2891 3.4126 46.4152V50.3751L30.5238 50.3752V46.4153C30.5238 40.2986 27.6264 34.3191 22.3241 30.4292C21.3905 29.7443 20.8356 28.6587 20.8356 27.5009V27.5008C20.8356 26.3401 21.3947 25.2545 22.3303 24.5677C27.5012 20.7722 30.524 14.8532 30.5241 8.585V8.585Z" fill="#D8ECFE"/>
<path d="M22.3305 24.5677C27.5015 20.7722 30.5242 14.8532 30.5242 8.585V4.62511L3.41309 4.625L26.0906 4.62511V8.585C26.0906 14.8532 23.0677 20.7722 17.8969 24.5677C16.9612 25.2544 16.4021 26.3401 16.4021 27.5008V27.5009C16.4021 28.6587 16.9572 29.7444 17.8907 30.4292C23.1929 34.3191 26.0905 40.2985 26.0904 46.4153V50.3752H30.5241V46.4153C30.5241 40.2986 27.6266 34.3191 22.3244 30.4292C21.3908 29.7443 20.8358 28.6587 20.8358 27.5009V27.5008C20.8357 26.3401 21.3949 25.2544 22.3305 24.5677V24.5677Z" fill="#C4E2FF"/>
<path d="M6.54102 47.1924V46.6657C6.54102 44.0471 7.89539 41.5687 10.3093 39.5822C12.1893 38.035 14.5502 37.22 16.9683 37.22C19.3865 37.22 21.7474 38.035 23.6275 39.5822C26.0415 41.5689 27.3959 44.0472 27.3959 46.6657V47.1924H6.54102Z" fill="#FFD15B"/>
<path d="M2.68265 4.62494H31.2537C32.2904 4.62494 33.1307 3.76997 33.1307 2.7153C33.1307 1.66063 32.2904 0.805664 31.2537 0.805664H2.68265C1.64603 0.805664 0.805664 1.66074 0.805664 2.71541C0.805771 3.77008 1.64613 4.62494 2.68265 4.62494V4.62494Z" fill="#596C76"/>
<path d="M2.68265 54.1943H31.2537C32.2904 54.1943 33.1307 53.3393 33.1307 52.2846C33.1307 51.23 32.2904 50.375 31.2537 50.375H2.68265C1.64603 50.375 0.805664 51.2301 0.805664 52.2847C0.805771 53.3394 1.64613 54.1943 2.68265 54.1943V54.1943Z" fill="#596C76"/>
<path d="M6.72217 11.0201C7.23919 14.4634 8.84364 17.6395 11.3081 20.1477C12.8076 21.6738 14.8471 22.5234 16.9682 22.5234C19.0891 22.5234 21.1286 21.6739 22.6281 20.1478C25.0926 17.6396 26.6971 14.4635 27.214 11.02H6.72217V11.0201Z" fill="#FEB137"/>
<path d="M31.254 0.805664H25.7729C26.8096 0.805664 27.6499 1.66063 27.6499 2.7153C27.6499 3.76997 26.8096 4.62494 25.7729 4.62494H31.254C32.2907 4.62494 33.131 3.76997 33.131 2.7153C33.131 1.66063 32.2907 0.805664 31.254 0.805664Z" fill="#465A61"/>
<path d="M31.254 50.375H25.7729C26.8096 50.375 27.6499 51.23 27.6499 52.2846C27.6499 53.3393 26.8096 54.1943 25.7729 54.1943H31.254C32.2907 54.1943 33.131 53.3393 33.131 52.2846C33.1309 51.23 32.2907 50.375 31.254 50.375Z" fill="#465A61"/>
<path d="M25.4312 41.4006C25.8662 43.034 26.0899 44.7192 26.0899 46.4153V47.1925H27.3954V46.6658C27.3954 44.7965 26.7043 42.9991 25.4312 41.4006Z" fill="#FFC344"/>
<path d="M25.9359 11.0203C25.4757 14.67 23.9902 18.1145 21.6621 20.9831C22.0032 20.7327 22.3269 20.4546 22.6282 20.148C25.0926 17.6398 26.6971 14.4638 27.214 11.0203H25.9359Z" fill="#F6AB31"/>
<path d="M5.73486 46.6658V47.1925C5.73486 47.6376 6.09559 47.9982 6.54053 47.9982H27.3953C27.8403 47.9982 28.201 47.6376 28.201 47.1925V46.6658C28.201 43.8527 26.7584 41.1161 24.1389 38.9603C22.1442 37.3187 19.5974 36.4146 16.9678 36.4146C14.3382 36.4146 11.7914 37.3186 9.79681 38.9602C7.17743 41.1159 5.73486 43.8524 5.73486 46.6658V46.6658ZM10.8208 40.2044C12.5277 38.7995 14.7108 38.0259 16.9678 38.0259C19.2248 38.0259 21.4079 38.7996 23.115 40.2045C25.2982 42.0014 26.493 44.1335 26.5841 46.387H7.35178C7.44298 44.1332 8.63762 42.001 10.8208 40.2044V40.2044Z" fill="black"/>
<path d="M2.60691 5.42867V8.58473C2.60691 12.2012 3.58198 15.7734 5.42663 18.9152C5.65189 19.2988 6.14561 19.4272 6.52932 19.202C6.91303 18.9766 7.0415 18.483 6.81613 18.0992C5.11661 15.2047 4.21824 11.9146 4.21824 8.58473V5.43061L29.7182 5.43071V8.58494C29.7182 13.5708 27.7577 18.2981 24.1982 21.8957C24.1982 21.8958 24.1981 21.8958 24.1981 21.8959C23.4759 22.6259 22.6871 23.3063 21.8534 23.9181C20.7114 24.7564 20.0296 26.0957 20.0296 27.5009C20.0296 28.9063 20.7091 30.2438 21.8472 31.0789C25.0587 33.435 27.4281 36.6354 28.6993 40.3342C28.8141 40.6683 29.1266 40.8782 29.4611 40.8782C29.5479 40.8782 29.6363 40.864 29.723 40.8343C30.1438 40.6897 30.3676 40.2313 30.223 39.8105C28.8447 35.7995 26.2779 32.3309 22.8003 29.7797C22.0742 29.247 21.6408 28.395 21.6408 27.5008C21.6408 26.6067 22.0767 25.753 22.8066 25.2171C23.7083 24.5554 24.5618 23.8191 25.3434 23.0291C25.3434 23.0291 25.3435 23.029 25.3434 23.0292C29.2035 19.1278 31.3294 13.998 31.3294 8.58494V5.42867C32.7736 5.38785 33.9363 4.18677 33.9363 2.7153C33.9363 1.21806 32.7329 0 31.2537 0H2.68254C1.19754 0 -0.000214815 1.21677 2.88982e-08 2.71552C0.000107451 4.18698 1.16284 5.38785 2.60691 5.42867V5.42867ZM2.68254 1.61133H31.2537C31.8445 1.61133 32.3251 2.10654 32.3251 2.7152C32.3251 3.32395 31.8445 3.81917 31.2537 3.81917H2.68254C2.09183 3.81917 1.61133 3.32396 1.61122 2.71541C1.61133 2.09559 2.10042 1.61133 2.68254 1.61133V1.61133Z" fill="black"/>
<path d="M31.3292 49.5713C31.3292 46.2512 31.3753 45.3375 31.1337 43.6108C31.072 43.1701 30.6656 42.8635 30.2241 42.9246C29.7835 42.9862 29.4762 43.3935 29.5379 43.8342C29.7589 45.4126 29.7178 46.1933 29.7178 49.5693H16.9679L4.21803 49.5692C4.21803 46.0777 3.99867 43.2126 5.65963 39.219C5.65984 39.2184 5.66017 39.2177 5.66038 39.2171C7.00122 35.9941 9.22399 33.18 12.0884 31.0787C13.2269 30.2435 13.9066 28.9058 13.9066 27.5004C13.9066 26.0952 13.225 24.756 12.0833 23.9181C10.9247 23.0676 9.86176 22.0928 8.92386 21.0204C8.63081 20.6855 8.12195 20.6514 7.78701 20.9443C7.45207 21.2373 7.41802 21.7462 7.71096 22.0812C8.7262 23.2421 9.87658 24.2971 11.13 25.2169C11.8597 25.7525 12.2953 26.6061 12.2953 27.5003C12.2953 28.3945 11.8616 29.2465 11.1353 29.7793C8.03408 32.0544 5.62643 35.1037 4.17269 38.598C4.17248 38.5988 4.17216 38.5994 4.17184 38.6002C2.3896 42.8853 2.6067 45.9395 2.6067 49.5711C1.91598 49.5904 1.27005 49.8716 0.780742 50.3695C0.277256 50.8819 -0.000107391 51.562 3.11914e-08 52.2848C0.000107453 53.782 1.20355 55 2.68254 55H31.2537C32.7329 55 33.9364 53.7819 33.9364 52.2848C33.9363 50.8132 32.7735 49.612 31.3292 49.5713ZM31.2537 53.3886H2.68254C2.09183 53.3886 1.61133 52.8935 1.61122 52.2849C1.61122 51.6663 2.09892 51.1808 2.68254 51.1808H16.9679H31.2537C31.8445 51.1808 32.3251 51.676 32.3251 52.2848C32.325 52.8934 31.8445 53.3886 31.2537 53.3886Z" fill="black"/>
<path d="M17.7734 24.9756C17.7734 24.5305 17.4127 24.1699 16.9678 24.1699C16.5228 24.1699 16.1621 24.5305 16.1621 24.9756V26.0498C16.1621 26.4949 16.5228 26.8555 16.9678 26.8555C17.4127 26.8555 17.7734 26.4949 17.7734 26.0498V24.9756Z" fill="black"/>
<path d="M16.9678 35.2344C17.4127 35.2344 17.7734 34.8738 17.7734 34.4287V33.3545C17.7734 32.9094 17.4127 32.5488 16.9678 32.5488C16.5228 32.5488 16.1621 32.9094 16.1621 33.3545V34.4287C16.1621 34.8738 16.5228 35.2344 16.9678 35.2344Z" fill="black"/>
<path d="M16.9678 28.3594C16.5228 28.3594 16.1621 28.72 16.1621 29.165V30.2393C16.1621 30.6843 16.5228 31.0449 16.9678 31.0449C17.4127 31.0449 17.7734 30.6843 17.7734 30.2393V29.165C17.7734 28.72 17.4127 28.3594 16.9678 28.3594Z" fill="black"/>
<path d="M28.0108 11.1398C28.0838 10.6533 27.7067 10.2146 27.214 10.2146H6.72234C6.23035 10.2146 5.85244 10.6527 5.92559 11.1398C6.46818 14.7532 8.13075 18.0633 10.7336 20.7125C12.3675 22.3753 14.64 23.3291 16.9683 23.3291C19.2965 23.3291 21.569 22.3754 23.2029 20.7126C25.8057 18.0635 27.4683 14.7534 28.0108 11.1398V11.1398ZM16.9682 21.7179C15.0693 21.7179 13.2158 20.9398 11.8829 19.5833C9.74422 17.4065 8.30509 14.7404 7.68645 11.8259H26.2498C25.6313 14.7406 24.1921 17.4067 22.0535 19.5833C20.7206 20.9399 18.867 21.7179 16.9682 21.7179V21.7179Z" fill="black"/>
<path d="M46.1662 30H37.4678L36.5928 51L37.4678 72H46.1662L58.4678 59.6985V42.3015L46.1662 30Z" fill="#EFE2DD"/>
<path d="M28.7693 30L16.4678 42.3015V59.6985L28.7693 72H37.4678V30H28.7693Z" fill="#F7F0EB"/>
<path d="M45.1468 32.4609H37.4678L36.5928 51L37.4678 69.5391H45.1468L56.0069 58.6791V43.3209L45.1468 32.4609Z" fill="#C6001C"/>
<path d="M29.7887 32.4609L18.9287 43.3209V58.6791L29.7887 69.5391H37.4678V32.4609H29.7887Z" fill="#FF1F3D"/>
<path d="M24.3673 56.1128C22.986 56.1128 21.688 55.5547 20.8062 54.5816L22.6297 52.9291C23.0398 53.3817 23.6894 53.6519 24.3673 53.6519C25.0103 53.6519 25.3754 53.2728 25.4198 53.0167C25.4394 52.9035 25.4915 52.6028 24.83 52.3543C24.4016 52.1933 24.085 52.1157 23.7789 52.0408C23.3102 51.926 22.8254 51.8074 22.2693 51.4458C21.2829 50.8048 20.9497 49.718 20.9668 48.9146C20.9924 47.7007 21.826 46.5803 23.0408 46.127C25.0942 45.3606 26.7454 46.5872 27.732 47.32L26.2647 49.2956C24.8129 48.2175 24.3695 48.2578 23.9011 48.4326C23.5613 48.5594 23.4301 48.8276 23.4272 48.9669C23.4242 49.1087 23.4873 49.3025 23.6103 49.3824C23.8064 49.5099 23.9572 49.5508 24.3641 49.6505C24.7051 49.734 25.1296 49.8379 25.6956 50.0506C27.2559 50.6369 28.0995 51.966 27.8446 53.4368C27.576 54.9873 26.1136 56.1128 24.3673 56.1128V56.1128Z" fill="#FFFBF5"/>
<path d="M35.4593 45.9683H28.7998V48.4292H30.8906V56.0317H33.3516V48.4292H35.4593V45.9683Z" fill="#FFFBF5"/>
<path d="M50.8425 45.9683H47.4951V56.0318H49.9561V52.723C50.2966 52.7214 50.6314 52.7201 50.8425 52.7201C52.7272 52.7201 54.2604 51.2057 54.2604 49.3442C54.2604 47.4826 52.7272 45.9683 50.8425 45.9683ZM50.8425 50.2591C50.6294 50.2591 50.3001 50.2604 49.9642 50.2619C49.9625 49.9089 49.9606 48.7995 49.9596 48.4292H50.8425C51.3612 48.4292 51.7995 48.8482 51.7995 49.3442C51.7995 49.8401 51.3612 50.2591 50.8425 50.2591Z" fill="#F7F0EB"/>
<path d="M40.9586 56.0317C38.184 56.0317 35.9268 53.7744 35.9268 51C35.9268 48.2255 38.184 45.9683 40.9586 45.9683C43.733 45.9683 45.9903 48.2255 45.9903 51C45.9903 53.7744 43.733 56.0317 40.9586 56.0317ZM40.9586 48.4292C39.541 48.4292 38.3877 49.5825 38.3877 51C38.3877 52.4175 39.541 53.5708 40.9586 53.5708C42.3761 53.5708 43.5293 52.4175 43.5293 51C43.5293 49.5825 42.3761 48.4292 40.9586 48.4292Z" fill="#F7F0EB"/>
</svg>
