<svg width="25" height="15" viewBox="0 0 25 15" fill="none" xmlns="http://www.w3.org/2000/svg">
<path d="M24.2775 12.8824C24.2775 12.7869 24.182 12.7869 24.182 12.6914C23.8001 11.9276 22.9409 10.9729 21.7951 9.92264C21.2223 9.44525 20.9358 9.06334 20.7449 8.87239C20.4585 8.49049 20.4585 8.20406 20.554 7.82216C20.6494 7.53573 21.0313 7.05834 21.6997 6.19905C22.0816 5.72167 22.2725 5.43525 22.5589 5.14882C23.9911 3.23929 24.6594 1.99809 24.4685 1.42523L24.373 1.32976C24.2775 1.23429 24.182 1.13881 23.9911 1.13881C23.8001 1.04334 23.5137 1.04334 23.2273 1.13881H19.5992C19.5037 1.13881 19.5037 1.13881 19.3127 1.13881C19.2173 1.13881 19.1218 1.13881 19.1218 1.13881H19.0263H18.9308L18.8354 1.23428C18.7399 1.32976 18.7399 1.32975 18.7399 1.42523C18.358 2.47547 17.8806 3.33476 17.4032 4.28952C17.1168 4.7669 16.8304 5.24429 16.5439 5.6262C16.2575 6.00811 16.0665 6.29453 15.8756 6.48548C15.6846 6.67643 15.4937 6.77191 15.3982 6.96286C15.3027 7.05834 15.1118 7.15382 15.1118 7.05835C15.0163 7.05835 14.9208 7.05834 14.9208 6.96286C14.8254 6.86739 14.7299 6.77191 14.6344 6.67643C14.5389 6.58095 14.5389 6.39 14.4434 6.19905C14.4434 6.0081 14.4434 5.81714 14.4434 5.72167C14.4434 5.62619 14.4434 5.33977 14.4434 5.14882C14.4434 4.86239 14.4434 4.67143 14.4434 4.57595C14.4434 4.28953 14.4434 3.90763 14.4434 3.52572C14.4434 3.14382 14.4434 2.85738 14.4434 2.66643C14.4434 2.47547 14.4434 2.18905 14.4434 1.9981C14.4434 1.71167 14.4434 1.52071 14.4434 1.42523C14.4434 1.32975 14.348 1.13881 14.348 1.04333C14.2525 0.947855 14.157 0.852376 14.0615 0.7569C13.9661 0.661423 13.7751 0.661426 13.6796 0.56595C13.2023 0.470473 12.6294 0.375 11.9611 0.375C10.4335 0.375 9.38322 0.470479 9.00131 0.661432C8.81036 0.756908 8.61941 0.852379 8.52393 1.04333C8.33298 1.23428 8.33297 1.32976 8.42845 1.32976C8.90583 1.42524 9.28774 1.61618 9.47869 1.90261L9.57418 2.09358C9.66965 2.18905 9.66963 2.38 9.76511 2.66643C9.86059 2.95286 9.86059 3.23929 9.86059 3.62119C9.86059 4.19405 9.86059 4.76691 9.86059 5.14882C9.86059 5.6262 9.76511 5.91262 9.76511 6.19905C9.76511 6.48548 9.66965 6.67644 9.57418 6.77191C9.4787 6.96287 9.47869 7.05835 9.38321 7.05835C9.38321 7.05835 9.38321 7.15381 9.28773 7.15381C9.19225 7.15381 9.09678 7.2493 8.90583 7.2493C8.81035 7.2493 8.61941 7.15382 8.52393 7.05835C8.33298 6.96287 8.14202 6.77192 8.04655 6.58096C7.8556 6.39001 7.66464 6.10357 7.47368 5.72167C7.28273 5.33976 6.99629 4.95786 6.80534 4.385L6.6144 4.0031C6.51893 3.81215 6.32797 3.43024 6.13702 2.95286C5.94607 2.47548 5.75511 2.09358 5.56416 1.6162C5.46868 1.42524 5.37322 1.32976 5.27774 1.23428H5.18226C5.18226 1.23428 5.08677 1.13881 4.99129 1.13881C4.89582 1.13881 4.80035 1.04333 4.70488 1.04333H1.26772C0.885815 1.04333 0.694865 1.13881 0.599388 1.23428L0.503906 1.32976C0.503906 1.32976 0.503906 1.42524 0.503906 1.52071C0.503906 1.61619 0.503912 1.71166 0.599388 1.90261C1.07677 3.04833 1.64963 4.19405 2.22248 5.33977C2.79534 6.39001 3.36821 7.34477 3.75011 8.01311C4.22749 8.68144 4.60939 9.34978 5.08677 9.92264C5.56416 10.4955 5.85058 10.8774 5.94606 11.0683C6.13701 11.2593 6.23248 11.3548 6.32796 11.4502L6.6144 11.7367C6.80536 11.9276 7.09178 12.2141 7.47368 12.5005C7.85559 12.7869 8.33297 13.0733 8.81035 13.3598C9.28773 13.6462 9.8606 13.8372 10.4335 14.0281C11.1018 14.2191 11.6746 14.3145 12.2475 14.2191H13.6796C13.9661 14.2191 14.157 14.1236 14.348 13.9326L14.4434 13.8372C14.4434 13.7417 14.5389 13.7417 14.5389 13.6462C14.5389 13.5507 14.5389 13.4553 14.5389 13.2643C14.5389 12.8824 14.5389 12.596 14.6344 12.3095C14.7299 12.0231 14.7299 11.8322 14.8254 11.6412C14.9209 11.4503 15.0163 11.3548 15.1118 11.2593C15.2073 11.1638 15.3028 11.0683 15.3028 11.0683H15.3982C15.5892 10.9729 15.8756 11.0683 16.0666 11.2593C16.353 11.4503 16.6394 11.7367 16.8304 12.0231C17.0213 12.3095 17.3078 12.596 17.6897 12.9779C18.0716 13.3598 18.358 13.6462 18.5489 13.7417L18.8354 13.9326C19.0263 14.0281 19.2173 14.1236 19.5037 14.2191C19.7901 14.3145 19.9811 14.3145 20.172 14.3145L23.4182 14.2191C23.7047 14.2191 23.9911 14.1236 24.182 14.0281C24.373 13.9326 24.4685 13.8372 24.4685 13.6462C24.4685 13.5507 24.4685 13.3598 24.4685 13.2643C24.2775 13.0734 24.2775 12.9779 24.2775 12.8824Z" fill="white"/>
</svg>
