<svg width="10" height="15" viewBox="0 0 10 15" fill="none" xmlns="http://www.w3.org/2000/svg">
<path d="M9.25564 8.04628L2.43832 14.2763C2.28064 14.4206 2.07016 14.5 1.84573 14.5C1.62129 14.5 1.41081 14.4206 1.25313 14.2763L0.751086 13.8176C0.4244 13.5188 0.4244 13.033 0.751086 12.7345L6.47575 7.5029L0.744734 2.26547C0.587058 2.12126 0.5 1.92901 0.5 1.72402C0.5 1.5188 0.587058 1.32656 0.744734 1.18224L1.24678 0.723657C1.40458 0.579446 1.61494 0.5 1.83938 0.5C2.06381 0.5 2.27429 0.579446 2.43197 0.723657L9.25564 6.95941C9.41369 7.10408 9.5005 7.29723 9.5 7.50256C9.5005 7.70869 9.41369 7.90173 9.25564 8.04628Z" fill="white"/>
</svg>
