<svg width="16" height="10" viewBox="0 0 16 10" fill="none" xmlns="http://www.w3.org/2000/svg">
<path d="M0.227318 5.57085L0.228017 5.57161L4.27754 9.76516C4.58092 10.0793 5.07161 10.0781 5.37359 9.76242C5.67553 9.44674 5.67436 8.93613 5.37099 8.62194L2.65214 5.80645L15.225 5.80645C15.653 5.80645 16 5.4454 16 5C16 4.5546 15.653 4.19355 15.225 4.19355L2.65218 4.19355L5.37095 1.37806C5.67433 1.06387 5.67549 0.553263 5.37355 0.237578C5.07157 -0.0781885 4.58084 -0.0792765 4.2775 0.234837L0.227978 4.42839L0.227279 4.42915C-0.0762491 4.74439 -0.0752801 5.25665 0.227318 5.57085Z" fill="url(#paint0_linear_1109_19825)"/>
<defs>
<linearGradient id="paint0_linear_1109_19825" x1="16" y1="3.98148" x2="5.12481e-07" y2="3.98148" gradientUnits="userSpaceOnUse">
<stop stop-color="#0068F3"/>
<stop offset="1" stop-color="#238FFF"/>
</linearGradient>
</defs>
</svg>
