<svg width="18" height="18" viewBox="0 0 18 18" fill="none" xmlns="http://www.w3.org/2000/svg">
<path d="M13.7461 17.4375C13.7461 16.5638 13.0378 15.8555 12.1641 15.8555H5.83594C4.9622 15.8555 4.25391 16.5638 4.25391 17.4375V18H13.7461V17.4375Z" fill="white"/>
<path d="M16.9453 4.25391V3.19922H10.4849C10.3256 2.75245 9.97411 2.401 9.52734 2.24167V0H8.47266V2.24167C8.02589 2.401 7.67443 2.75245 7.51511 3.19922H1.05469V4.25391H2.37319L0 10.0547C0 11.5085 1.1829 12.6914 2.63672 12.6914H3.69141C5.14522 12.6914 6.32812 11.5085 6.32812 10.0547L3.94421 4.25391H7.51514C7.67447 4.70067 8.02593 5.05213 8.47269 5.21146V12.7492C7.44209 12.9601 6.62681 13.7698 6.41668 14.8008H11.5834C11.3733 13.7698 10.558 12.9601 9.52738 12.7492V5.21146C9.97414 5.05213 10.3256 4.70067 10.4849 4.25391H14.0451L11.6719 10.0547C11.6719 11.5085 12.8548 12.6914 14.3086 12.6914H15.3633C16.8171 12.6914 18 11.5085 18 10.0547L15.6161 4.25391H16.9453ZM5.00963 9.52734H1.3185L3.16406 5.09745L5.00963 9.52734ZM16.6815 9.52734H12.9904L14.8359 5.09745L16.6815 9.52734Z" fill="white"/>
</svg>
