<svg width="150" height="150" viewBox="0 0 150 150" fill="none" xmlns="http://www.w3.org/2000/svg">
<circle cx="75" cy="75" r="70" stroke="url(#paint0_linear_1374_17781)" stroke-width="10"/>
<circle opacity="0.2" cx="75" cy="75" r="57.5" stroke="url(#paint1_linear_1374_17781)"/>
<path d="M100.945 63.0811C100.945 61.9155 100.001 60.9717 98.8359 60.9717H59.4961C58.914 60.9717 58.3866 61.2077 58.0047 61.5897C57.6228 61.9716 57.3867 62.4989 57.3867 63.0811C57.3867 64.2466 58.3306 65.1904 59.4961 65.1904H98.8359C99.4181 65.1904 99.9454 64.9544 100.327 64.5724C100.709 64.1905 100.945 63.6632 100.945 63.0811Z" fill="#FEB756"/>
<path d="M76.6875 49.4062C75.1978 50.0572 74.1562 51.5432 74.1562 53.2728V94.3001H79.2188V53.2728C79.2188 51.5432 78.1772 50.0572 76.6875 49.4062Z" fill="#FEB756"/>
<path d="M94.4602 85.2386C95.8622 84.7841 97.05 83.8543 97.8327 82.6381C98.468 81.6518 98.8359 80.478 98.8359 79.2178H90.082C90.082 82.0325 91.9195 84.4162 94.4602 85.2386V85.2386Z" fill="#FEB756"/>
<path d="M93.9844 94.3008H65.1914C62.8616 94.3008 60.9727 96.1897 60.9727 98.5195V100.945H98.2031V98.5195C98.2031 96.1897 96.3142 94.3008 93.9844 94.3008Z" fill="#91552C"/>
<path d="M79.8334 60.9727C80.1165 61.6191 80.2734 62.3322 80.2734 63.082C80.2734 63.8318 80.1165 64.545 79.8334 65.1914C79.6691 65.568 79.4622 65.9214 79.2175 66.2461C78.2559 67.5274 76.7246 68.3555 75 68.3555C73.2754 68.3555 71.7441 67.5274 70.7825 66.2461C70.5378 65.9214 70.3309 65.568 70.1666 65.1914C69.8835 64.545 69.7266 63.8318 69.7266 63.082C69.7266 62.3322 69.8835 61.6191 70.1666 60.9727C70.3309 60.5961 70.5378 60.2426 70.7825 59.918C71.7441 58.6367 73.2754 57.8086 75 57.8086C76.7246 57.8086 78.2559 58.6367 79.2175 59.918C79.4622 60.2426 79.6691 60.5961 79.8334 60.9727Z" fill="white"/>
<path d="M79.2175 59.9177C78.6519 59.1638 77.8876 58.5685 77.0039 58.2051C76.1202 58.5685 75.356 59.1638 74.7903 59.9177C74.5456 60.2424 74.3388 60.5958 74.1744 60.9724C73.8913 61.6188 73.7344 62.332 73.7344 63.0818C73.7344 63.8316 73.8913 64.5447 74.1744 65.1911C74.3388 65.5677 74.5456 65.9212 74.7903 66.2458C75.356 66.9998 76.1202 67.5951 77.0039 67.9585C77.8876 67.5951 78.6519 66.9998 79.2175 66.2458C79.4622 65.9212 79.6691 65.5677 79.8334 65.1911C80.1165 64.5447 80.2734 63.8316 80.2734 63.0818C80.2734 62.332 80.1165 61.6188 79.8334 60.9724C79.6691 60.5958 79.4622 60.2424 79.2175 59.9177V59.9177Z" fill="#91552C"/>
<path d="M59.5505 85.2037C60.9063 84.7377 62.0541 83.8248 62.8171 82.6391C63.4524 81.6528 63.8203 80.479 63.8203 79.2188H55.2773C55.2773 81.9943 57.0645 84.3505 59.5505 85.2037V85.2037Z" fill="#FEB756"/>
<path d="M75 54.3281C75.5821 54.3281 76.0547 53.8556 76.0547 53.2734C76.0547 52.6913 75.5821 52.2188 75 52.2188C74.4179 52.2188 73.9453 52.6913 73.9453 53.2734C73.9453 53.8556 74.4179 54.3281 75 54.3281Z" fill="black"/>
<path d="M75 89.0273C74.4179 89.0273 73.9453 89.4999 73.9453 90.082C73.9453 90.6642 74.4179 91.1367 75 91.1367C75.5821 91.1367 76.0547 90.6642 76.0547 90.082C76.0547 89.4999 75.5821 89.0273 75 89.0273Z" fill="black"/>
<path d="M75 71.5195C74.4174 71.5195 73.9453 71.9917 73.9453 72.5742V85.5469C73.9453 86.1294 74.4174 86.6016 75 86.6016C75.5826 86.6016 76.0547 86.1294 76.0547 85.5469V72.5742C76.0547 71.9917 75.5826 71.5195 75 71.5195Z" fill="black"/>
<path d="M101.073 65.3191C101.671 64.7213 102 63.927 102 63.082C102 61.3373 100.581 59.918 98.8359 59.918H80.4794C80.4139 59.8047 80.3455 59.6934 80.2734 59.5847V53.2734C80.2734 50.3656 77.9078 48 75 48C72.0922 48 69.7266 50.3656 69.7266 53.2734V59.5847C69.6545 59.6934 69.5861 59.8051 69.5206 59.918H51.1641C50.3191 59.918 49.5248 60.2471 48.927 60.8449C48.3292 61.4427 48 62.237 48 63.082C48 64.8268 49.4193 66.2461 51.1641 66.2461H55.8595L50.2029 78.7849C50.2017 78.7874 50.2008 78.7899 50.2 78.7919C50.1675 78.8661 50.1427 78.9444 50.1279 79.0264C50.1254 79.0379 50.1242 79.0498 50.1226 79.0614C50.1184 79.089 50.1151 79.117 50.1131 79.145C50.1123 79.1598 50.1114 79.1743 50.111 79.1891C50.1106 79.199 50.1094 79.2085 50.1094 79.2188C50.1094 83.2896 53.4213 86.6016 57.4922 86.6016C60.0148 86.6016 62.3367 85.3339 63.7041 83.2101C64.47 82.0203 64.875 80.6401 64.875 79.2188C64.875 79.2089 64.8738 79.199 64.8734 79.1891C64.8729 79.1743 64.8725 79.1594 64.8713 79.145C64.8692 79.1166 64.8659 79.089 64.8622 79.0614C64.8602 79.0498 64.8589 79.0379 64.8565 79.0264C64.8416 78.9444 64.8173 78.8661 64.7844 78.7919C64.7835 78.7899 64.7827 78.7874 64.7819 78.7849L59.1249 66.2461H69.5206C69.5861 66.3594 69.6545 66.4706 69.7266 66.5794V93.2461H56.0156C53.1078 93.2461 50.7422 95.6117 50.7422 98.5195V100.945C50.7422 101.528 51.2143 102 51.7969 102H98.2031C98.7857 102 99.2578 101.528 99.2578 100.945V98.5195C99.2578 95.6117 96.8922 93.2461 93.9844 93.2461H80.2734V66.5794C80.3455 66.4706 80.4139 66.359 80.4794 66.2461H90.8751L85.2181 78.7849C85.2173 78.7874 85.2165 78.7899 85.2156 78.7919C85.1827 78.8661 85.1584 78.9444 85.1435 79.0264C85.1411 79.0379 85.1398 79.0498 85.1378 79.0614C85.1341 79.089 85.1308 79.117 85.1287 79.145C85.1275 79.1598 85.1271 79.1743 85.1266 79.1891C85.1262 79.199 85.125 79.2085 85.125 79.2188C85.125 83.2896 88.437 86.6016 92.5078 86.6016C95.0304 86.6016 97.3524 85.3339 98.7198 83.2101C99.4856 82.0203 99.8906 80.6401 99.8906 79.2188C99.8906 79.2089 99.8894 79.199 99.889 79.1891C99.8886 79.1743 99.8882 79.1594 99.8869 79.145C99.8849 79.1166 99.8816 79.089 99.8779 79.0614C99.8758 79.0498 99.8746 79.0379 99.8721 79.0264C99.8573 78.9444 99.8329 78.8661 99.8 78.7919C99.7992 78.7899 99.7983 78.7874 99.7975 78.7849L94.1405 66.2461H98.8359C99.6809 66.2461 100.475 65.9169 101.073 65.3191V65.3191ZM57.4922 84.4922C54.9457 84.4922 52.8149 82.6778 52.325 80.2734H62.6593C62.53 80.9095 62.2848 81.5181 61.9305 82.0681C60.9533 83.5858 59.2942 84.4922 57.4922 84.4922ZM52.7968 78.1641L57.4922 67.756L62.1876 78.1641H52.7968ZM92.5078 84.4922C89.9613 84.4922 87.8305 82.6778 87.3407 80.2734H97.675C97.5456 80.9095 97.3005 81.5181 96.9462 82.0681C95.9689 83.5858 94.3098 84.4922 92.5078 84.4922ZM87.8124 78.1641L92.5078 67.756L97.2032 78.1641H87.8124ZM99.8906 63.082C99.8906 63.3634 99.781 63.6283 99.5816 63.8273C99.3822 64.0271 99.1173 64.1367 98.8359 64.1367H81.2391C81.2972 63.7906 81.3281 63.4388 81.3281 63.082C81.3281 62.7253 81.2972 62.3734 81.2391 62.0273H98.8359C99.4177 62.0273 99.8906 62.5003 99.8906 63.082ZM71.6246 65.6116C71.4293 65.3517 71.2637 65.0682 71.1327 64.7687C70.8995 64.2356 70.7812 63.6679 70.7812 63.082C70.7812 62.4962 70.8995 61.9285 71.1327 61.3949C71.2637 61.0958 71.4293 60.8124 71.6258 60.5512C72.4308 59.4784 73.661 58.8633 75 58.8633C76.339 58.8633 77.5692 59.4784 78.3754 60.5524C78.5707 60.8124 78.7363 61.0958 78.8673 61.3954C79.1005 61.9285 79.2188 62.4962 79.2188 63.082C79.2188 63.6679 79.1005 64.2356 78.8673 64.7691C78.7363 65.0682 78.5707 65.3517 78.3742 65.6129C77.5692 66.6857 76.339 67.3008 75 67.3008C73.661 67.3008 72.4308 66.6857 71.6246 65.6116V65.6116ZM75 50.1094C76.7448 50.1094 78.1641 51.5287 78.1641 53.2734V57.596C77.219 57.0493 76.1358 56.7539 75 56.7539C73.8642 56.7539 72.781 57.0493 71.8359 57.596V53.2734C71.8359 51.5287 73.2552 50.1094 75 50.1094ZM50.1094 63.082C50.1094 62.8006 50.219 62.5357 50.4184 62.3367C50.6178 62.1369 50.8827 62.0273 51.1641 62.0273H68.7609C68.7028 62.3734 68.6719 62.7253 68.6719 63.082C68.6719 63.4388 68.7028 63.7906 68.7609 64.1367H51.1641C50.5823 64.1367 50.1094 63.6638 50.1094 63.082ZM97.1484 98.5195V99.8906H52.8516V98.5195C52.8516 96.7748 54.2709 95.3555 56.0156 95.3555H93.9844C95.7291 95.3555 97.1484 96.7748 97.1484 98.5195ZM71.8359 93.2461V68.5681C72.781 69.1148 73.8642 69.4102 75 69.4102C76.1358 69.4102 77.219 69.1148 78.1641 68.5681V93.2461H71.8359Z" fill="black"/>
<defs>
<linearGradient id="paint0_linear_1374_17781" x1="1.28201e-07" y1="90.2778" x2="150" y2="90.2778" gradientUnits="userSpaceOnUse">
<stop stop-color="#0068F3"/>
<stop offset="1" stop-color="#238FFF"/>
</linearGradient>
<linearGradient id="paint1_linear_1374_17781" x1="17" y1="86.8148" x2="133" y2="86.8148" gradientUnits="userSpaceOnUse">
<stop stop-color="#0068F3"/>
<stop offset="1" stop-color="#238FFF"/>
</linearGradient>
</defs>
</svg>
