<svg width="150" height="150" viewBox="0 0 150 150" fill="none" xmlns="http://www.w3.org/2000/svg">
<circle cx="75" cy="75" r="70" stroke="url(#paint0_linear_1374_17859)" stroke-width="10"/>
<circle opacity="0.2" cx="75" cy="75" r="57.5" stroke="url(#paint1_linear_1374_17859)"/>
<path d="M56.6484 49.0547C54.3186 49.0547 52.4297 50.9436 52.4297 53.2734V57.4922H57.4922L57.3867 49.0547H56.6484Z" fill="#C0E3F0"/>
<path d="M100.945 96.7266V94.6172H96.0938V53.2734C96.0938 50.9436 94.2048 49.0547 91.875 49.0547H65.1914L65.2969 57.4922V96.7266C65.2969 99.0564 67.1858 100.945 69.5156 100.945H96.7266C99.0564 100.945 100.945 99.0564 100.945 96.7266Z" fill="#C0E3F0"/>
<path d="M83.4375 89.3425C82.1562 88.3809 81.3281 86.8496 81.3281 85.125C81.3281 82.2131 83.6896 79.8516 86.6016 79.8516C89.5135 79.8516 91.875 82.2131 91.875 85.125C91.875 86.8496 91.0469 88.3809 89.7656 89.3425C88.884 90.0062 87.7881 90.3984 86.6016 90.3984C85.415 90.3984 84.3192 90.0062 83.4375 89.3425Z" fill="white"/>
<path d="M88.6055 80.2461C86.6873 81.0355 85.3359 82.922 85.3359 85.1244C85.3359 86.849 86.164 88.3804 87.4453 89.3419C87.8 89.6089 88.1898 89.831 88.6055 90.0024C89.0212 89.831 89.4109 89.6089 89.7656 89.3419C91.0469 88.3804 91.875 86.849 91.875 85.1244C91.875 82.922 90.5237 81.0355 88.6055 80.2461Z" fill="#FEB756"/>
<path d="M89.7656 94.6174V97.9059L86.6016 95.7966L83.4375 97.9059V89.3428C84.3192 90.0065 85.415 90.3987 86.6016 90.3987C87.7881 90.3987 88.884 90.0065 89.7656 89.3428V94.6174Z" fill="white"/>
<path d="M89.7656 90.3885C89.661 90.3947 89.5555 90.3988 89.4492 90.3988C88.9557 90.3988 88.4786 90.33 88.0254 90.2031C87.5722 90.33 87.0951 90.3988 86.6016 90.3988C86.4953 90.3988 86.3898 90.3947 86.2852 90.3885V96.0076L86.6016 95.7967L89.7656 97.9061V90.3885Z" fill="#FD3A4E"/>
<path d="M63.8203 70.043C64.4025 70.043 64.875 69.5704 64.875 68.9883C64.875 68.4061 64.4025 67.9336 63.8203 67.9336C63.2382 67.9336 62.7656 68.4061 62.7656 68.9883C62.7656 69.5704 63.2382 70.043 63.8203 70.043Z" fill="black"/>
<path d="M100.945 93.5625H97.1484V53.2734C97.1484 50.3656 94.7828 48 91.875 48H53.2734C50.3656 48 48 50.3656 48 53.2734V57.4922C48 58.0747 48.4721 58.5469 49.0547 58.5469H56.4375V96.7266C56.4375 99.6344 58.8031 102 61.7109 102H96.7266C99.6344 102 102 99.6344 102 96.7266V94.6172C102 94.0346 101.528 93.5625 100.945 93.5625ZM50.1094 53.2734C50.1094 51.5287 51.5287 50.1094 53.2734 50.1094C54.118 50.1094 54.9123 50.4386 55.5105 51.0363C56.1083 51.6346 56.4375 52.4289 56.4375 53.2734V56.4375H50.1094V53.2734ZM58.5469 96.7266V53.2734C58.5469 52.117 58.1761 51.0174 57.4918 50.1094H91.875C93.6198 50.1094 95.0391 51.5287 95.0391 53.2734V93.5625H90.8203V89.8381C92.1663 88.6388 92.9297 86.9505 92.9297 85.125C92.9297 81.6355 90.0911 78.7969 86.6016 78.7969C84.7316 78.7969 83.0494 79.6126 81.8901 80.9062H63.8203C63.2378 80.9062 62.7656 81.3784 62.7656 81.9609C62.7656 82.5435 63.2378 83.0156 63.8203 83.0156H80.6364C80.402 83.676 80.2734 84.3855 80.2734 85.125C80.2734 85.8579 80.3974 86.5682 80.6315 87.2344H63.8203C63.2378 87.2344 62.7656 87.7065 62.7656 88.2891C62.7656 88.8716 63.2378 89.3438 63.8203 89.3438H81.3281C81.4942 89.3438 81.6503 89.3042 81.79 89.2362C81.9725 89.448 82.1706 89.649 82.3828 89.8381V93.5625H65.9297C65.3471 93.5625 64.875 94.0346 64.875 94.6172V96.7266C64.875 98.4713 63.4557 99.8906 61.7109 99.8906C59.9662 99.8906 58.5469 98.4713 58.5469 96.7266ZM89.1316 88.5C88.3978 89.0521 87.5228 89.3438 86.6016 89.3438C85.6812 89.3438 84.8069 89.0525 84.0736 88.5016C84.0724 88.5004 84.0715 88.4996 84.0699 88.4988C82.9979 87.6937 82.3828 86.464 82.3828 85.125C82.3828 82.7989 84.2755 80.9062 86.6016 80.9062C88.9276 80.9062 90.8203 82.7989 90.8203 85.125C90.8203 86.4644 90.2052 87.6942 89.1316 88.5ZM84.4922 91.0926C85.1625 91.3299 85.8723 91.4531 86.6016 91.4531C87.3312 91.4531 88.041 91.3299 88.7109 91.093V95.9347L87.1866 94.9188C86.8323 94.6823 86.3708 94.6823 86.0165 94.9188L84.4922 95.9347V91.0926ZM99.8906 96.7266C99.8906 98.4713 98.4713 99.8906 96.7266 99.8906H65.9268C66.5905 99.0086 66.9844 97.9127 66.9844 96.7266V95.6719H82.3828V97.9057C82.3828 98.2946 82.597 98.6522 82.9398 98.8355C83.283 99.0193 83.6991 98.9991 84.0225 98.7832L86.6016 97.064L89.1806 98.7832C89.3569 98.901 89.5609 98.9604 89.7656 98.9604C89.9362 98.9604 90.1072 98.9192 90.2633 98.8355C90.6061 98.6522 90.8203 98.2946 90.8203 97.9057V95.6719H99.8906V96.7266Z" fill="black"/>
<path d="M70.1484 56.4375H81.3281C81.9107 56.4375 82.3828 55.9654 82.3828 55.3828C82.3828 54.8003 81.9107 54.3281 81.3281 54.3281H70.1484C69.5659 54.3281 69.0938 54.8003 69.0938 55.3828C69.0938 55.9654 69.5659 56.4375 70.1484 56.4375Z" fill="black"/>
<path d="M89.7656 67.9336H68.0391C67.4565 67.9336 66.9844 68.4057 66.9844 68.9883C66.9844 69.5708 67.4565 70.043 68.0391 70.043H89.7656C90.3482 70.043 90.8203 69.5708 90.8203 68.9883C90.8203 68.4057 90.3482 67.9336 89.7656 67.9336Z" fill="black"/>
<path d="M63.8203 76.6875H89.7656C90.3482 76.6875 90.8203 76.2154 90.8203 75.6328C90.8203 75.0503 90.3482 74.5781 89.7656 74.5781H63.8203C63.2378 74.5781 62.7656 75.0503 62.7656 75.6328C62.7656 76.2154 63.2378 76.6875 63.8203 76.6875Z" fill="black"/>
<path d="M63.8203 63.082H89.7656C90.3482 63.082 90.8203 62.6099 90.8203 62.0273C90.8203 61.4448 90.3482 60.9727 89.7656 60.9727H63.8203C63.2378 60.9727 62.7656 61.4448 62.7656 62.0273C62.7656 62.6099 63.2378 63.082 63.8203 63.082Z" fill="black"/>
<defs>
<linearGradient id="paint0_linear_1374_17859" x1="1.28201e-07" y1="90.2778" x2="150" y2="90.2778" gradientUnits="userSpaceOnUse">
<stop stop-color="#0068F3"/>
<stop offset="1" stop-color="#238FFF"/>
</linearGradient>
<linearGradient id="paint1_linear_1374_17859" x1="17" y1="86.8148" x2="133" y2="86.8148" gradientUnits="userSpaceOnUse">
<stop stop-color="#0068F3"/>
<stop offset="1" stop-color="#238FFF"/>
</linearGradient>
</defs>
</svg>
