<svg width="150" height="150" viewBox="0 0 150 150" fill="none" xmlns="http://www.w3.org/2000/svg">
<circle cx="75" cy="75" r="70" stroke="url(#paint0_linear_1374_17944)" stroke-width="10"/>
<circle opacity="0.2" cx="75" cy="75" r="57.5" stroke="url(#paint1_linear_1374_17944)"/>
<g clip-path="url(#clip0_1374_17944)">
<path d="M86.5469 92.1914V58.7578L77.346 49.0547H63.4492C62.2841 49.0547 61.3398 49.999 61.3398 51.1641V92.1914C61.3398 93.3565 62.2841 94.3008 63.4492 94.3008H84.4375C85.6026 94.3008 86.5469 93.3565 86.5469 92.1914Z" fill="#C0E3F0"/>
<path d="M99.2031 68.0391V98.8359C99.2031 100.001 98.2593 100.945 97.0938 100.945H71.7812C70.6157 100.945 69.6719 100.001 69.6719 98.8359V68.0391C69.6719 66.8736 70.6157 65.9297 71.7812 65.9297H97.0938C98.2593 65.9297 99.2031 66.8736 99.2031 68.0391Z" fill="white"/>
<path d="M99.2031 98.8359V68.0391C99.2031 66.8736 98.2592 65.9297 97.0937 65.9297H80.7111C79.5455 65.9297 78.6017 66.8736 78.6017 68.0391V98.8359C78.6017 100.001 79.5455 100.945 80.7111 100.945H97.0937C98.2592 100.945 99.2031 100.001 99.2031 98.8359Z" fill="#57555C"/>
<path d="M90.7656 83.7539H94.9844V96.4102H90.7656V83.7539Z" fill="#C0E3F0"/>
<path d="M94.9844 70.4648V79.5352H73.8906V70.4648H94.9844Z" fill="white"/>
<path d="M94.9844 70.4648V79.5352H78.7422V70.4648H94.9844Z" fill="#3BCD92"/>
<path d="M82.3281 92.1914H86.5469V96.4102H82.3281V92.1914Z" fill="#C0E3F0"/>
<path d="M82.3281 83.7539H86.5469V87.9727H82.3281V83.7539Z" fill="#C0E3F0"/>
<path d="M86.5469 58.5038V59.6017H80.2188C79.0532 59.6017 78.1094 58.6579 78.1094 57.4924V49.1982C78.3912 49.307 78.6495 49.4767 78.8633 49.6984L85.954 57.0379C86.3347 57.4314 86.5469 57.9563 86.5469 58.5038Z" fill="#FEB756"/>
<path d="M73.8906 92.1914H78.1094V96.4102H73.8906V92.1914Z" fill="#C0E3F0"/>
<path d="M73.8906 83.7539H78.1094V87.9727H73.8906V83.7539Z" fill="#C0E3F0"/>
<path d="M78.1094 75.7383C78.6915 75.7383 79.1641 75.2657 79.1641 74.6836C79.1641 74.1015 78.6915 73.6289 78.1094 73.6289C77.5272 73.6289 77.0547 74.1015 77.0547 74.6836C77.0547 75.2657 77.5272 75.7383 78.1094 75.7383Z" fill="black"/>
<path d="M59.125 62.7656C58.6743 62.7656 58.1878 62.4822 57.7556 61.968C57.3807 61.5218 56.7153 61.4642 56.2695 61.8391C55.8234 62.214 55.7661 62.8793 56.141 63.3251C56.7046 63.9958 57.3679 64.4634 58.0703 64.6987V65.9297C58.0703 66.5122 58.5425 66.9844 59.125 66.9844C59.7076 66.9844 60.1797 66.5122 60.1797 65.9297V64.6937C61.4074 64.2583 62.2891 63.0857 62.2891 61.7109C62.2891 59.9662 60.8698 58.5469 59.125 58.5469C58.5433 58.5469 58.0703 58.0739 58.0703 57.4922C58.0703 56.9105 58.5433 56.4375 59.125 56.4375C59.4987 56.4375 59.893 56.6283 60.2658 56.9887C60.6844 57.3937 61.3522 57.3826 61.7572 56.9644C62.1622 56.5454 62.1511 55.878 61.7325 55.473C61.1973 54.9548 60.6617 54.6618 60.1797 54.502V53.2734C60.1797 52.6909 59.7076 52.2188 59.125 52.2188C58.5425 52.2188 58.0703 52.6909 58.0703 53.2734V54.5094C56.8426 54.9449 55.961 56.1174 55.961 57.4922C55.961 59.237 57.3803 60.6562 59.125 60.6562C59.7068 60.6562 60.1797 61.1292 60.1797 61.7109C60.1797 62.2927 59.7068 62.7656 59.125 62.7656Z" fill="black"/>
<path d="M78.1094 82.6992H73.8906C73.3081 82.6992 72.8359 83.1714 72.8359 83.7539V87.9727C72.8359 88.5552 73.3081 89.0273 73.8906 89.0273H78.1094C78.6919 89.0273 79.1641 88.5552 79.1641 87.9727V83.7539C79.1641 83.1714 78.6919 82.6992 78.1094 82.6992ZM77.0547 86.918H74.9453V84.8086H77.0547V86.918Z" fill="black"/>
<path d="M86.5469 82.6992H82.3281C81.7456 82.6992 81.2734 83.1714 81.2734 83.7539V87.9727C81.2734 88.5552 81.7456 89.0273 82.3281 89.0273H86.5469C87.1294 89.0273 87.6016 88.5552 87.6016 87.9727V83.7539C87.6016 83.1714 87.1294 82.6992 86.5469 82.6992ZM85.4922 86.918H83.3828V84.8086H85.4922V86.918Z" fill="black"/>
<path d="M78.1094 91.1367H73.8906C73.3081 91.1367 72.8359 91.6089 72.8359 92.1914V96.4102C72.8359 96.9927 73.3081 97.4648 73.8906 97.4648H78.1094C78.6919 97.4648 79.1641 96.9927 79.1641 96.4102V92.1914C79.1641 91.6089 78.6919 91.1367 78.1094 91.1367ZM77.0547 95.3555H74.9453V93.2461H77.0547V95.3555Z" fill="black"/>
<path d="M86.5469 91.1367H82.3281C81.7456 91.1367 81.2734 91.6089 81.2734 92.1914V96.4102C81.2734 96.9927 81.7456 97.4648 82.3281 97.4648H86.5469C87.1294 97.4648 87.6016 96.9927 87.6016 96.4102V92.1914C87.6016 91.6089 87.1294 91.1367 86.5469 91.1367ZM85.4922 95.3555H83.3828V93.2461H85.4922V95.3555Z" fill="black"/>
<path d="M94.9844 82.6992H90.7656C90.1831 82.6992 89.7109 83.1714 89.7109 83.7539V96.4102C89.7109 96.9927 90.1831 97.4648 90.7656 97.4648H94.9844C95.5669 97.4648 96.0391 96.9927 96.0391 96.4102V83.7539C96.0391 83.1714 95.5669 82.6992 94.9844 82.6992ZM93.9297 95.3555H91.8203V84.8086H93.9297V95.3555Z" fill="black"/>
<path d="M94.9844 69.4102H73.8906C73.3081 69.4102 72.8359 69.8823 72.8359 70.4648V79.5352C72.8359 80.1177 73.3081 80.5898 73.8906 80.5898H94.9844C95.5669 80.5898 96.0391 80.1177 96.0391 79.5352V70.4648C96.0391 69.8823 95.5669 69.4102 94.9844 69.4102ZM93.9297 78.4805H74.9453V71.5195H93.9297V78.4805Z" fill="black"/>
<path d="M97.0938 64.875H87.6016V58.5036C87.6016 57.678 87.2856 56.8969 86.7125 56.3048L79.6218 48.9649C79.3169 48.6493 78.942 48.398 78.5395 48.2352C78.5251 48.2287 78.5107 48.2229 78.4958 48.2171C78.495 48.2167 78.4942 48.2163 78.4929 48.2159C78.1267 48.0725 77.7406 48 77.346 48H54.9062C53.1615 48 51.7422 49.4193 51.7422 51.1641V92.1914C51.7422 93.9362 53.1615 95.3555 54.9062 95.3555H68.6172V98.8359C68.6172 100.581 70.0365 102 71.7812 102H97.0938C98.8385 102 100.258 100.581 100.258 98.8359V68.0391C100.258 66.2943 98.8385 64.875 97.0938 64.875ZM85.1964 57.7711C85.3871 57.9684 85.4922 58.2284 85.4922 58.5036V58.5469H80.2188C79.637 58.5469 79.1641 58.0739 79.1641 57.4922V51.527L85.1964 57.7711ZM54.9062 93.2461C54.3245 93.2461 53.8516 92.7731 53.8516 92.1914V51.1641C53.8516 50.5823 54.3245 50.1094 54.9062 50.1094H77.0547V57.4922C77.0547 59.237 78.474 60.6562 80.2188 60.6562H85.4922V64.875H71.7812C70.0365 64.875 68.6172 66.2943 68.6172 68.0391V93.2461H54.9062ZM98.1484 98.8359C98.1484 99.4177 97.6755 99.8906 97.0938 99.8906H71.7812C71.1995 99.8906 70.7266 99.4177 70.7266 98.8359V68.0391C70.7266 67.4573 71.1995 66.9844 71.7812 66.9844H97.0938C97.6755 66.9844 98.1484 67.4573 98.1484 68.0391V98.8359Z" fill="black"/>
<path d="M82.3281 75.7383H90.7656C91.3482 75.7383 91.8203 75.2661 91.8203 74.6836C91.8203 74.101 91.3482 73.6289 90.7656 73.6289H82.3281C81.7456 73.6289 81.2734 74.101 81.2734 74.6836C81.2734 75.2661 81.7456 75.7383 82.3281 75.7383Z" fill="black"/>
<path d="M65.4531 62.7656H73.8906C74.4732 62.7656 74.9453 62.2935 74.9453 61.7109C74.9453 61.1284 74.4732 60.6562 73.8906 60.6562H65.4531C64.8706 60.6562 64.3984 61.1284 64.3984 61.7109C64.3984 62.2935 64.8706 62.7656 65.4531 62.7656Z" fill="black"/>
<path d="M65.4531 58.5469H73.8906C74.4732 58.5469 74.9453 58.0747 74.9453 57.4922C74.9453 56.9096 74.4732 56.4375 73.8906 56.4375H65.4531C64.8706 56.4375 64.3984 56.9096 64.3984 57.4922C64.3984 58.0747 64.8706 58.5469 65.4531 58.5469Z" fill="black"/>
<path d="M65.4531 69.4102H57.0156C56.4331 69.4102 55.9609 69.8823 55.9609 70.4648C55.9609 71.0474 56.4331 71.5195 57.0156 71.5195H65.4531C66.0357 71.5195 66.5078 71.0474 66.5078 70.4648C66.5078 69.8823 66.0357 69.4102 65.4531 69.4102Z" fill="black"/>
<path d="M59.125 73.6289H57.0156C56.4331 73.6289 55.9609 74.101 55.9609 74.6836C55.9609 75.2661 56.4331 75.7383 57.0156 75.7383H59.125C59.7076 75.7383 60.1797 75.2661 60.1797 74.6836C60.1797 74.101 59.7076 73.6289 59.125 73.6289Z" fill="black"/>
<path d="M65.4531 73.6289H63.3438C62.7612 73.6289 62.2891 74.101 62.2891 74.6836C62.2891 75.2661 62.7612 75.7383 63.3438 75.7383H65.4531C66.0357 75.7383 66.5078 75.2661 66.5078 74.6836C66.5078 74.101 66.0357 73.6289 65.4531 73.6289Z" fill="black"/>
<path d="M59.125 78.4805H57.0156C56.4331 78.4805 55.9609 78.9526 55.9609 79.5352C55.9609 80.1177 56.4331 80.5898 57.0156 80.5898H59.125C59.7076 80.5898 60.1797 80.1177 60.1797 79.5352C60.1797 78.9526 59.7076 78.4805 59.125 78.4805Z" fill="black"/>
<path d="M65.4531 78.4805H63.3438C62.7612 78.4805 62.2891 78.9526 62.2891 79.5352C62.2891 80.1177 62.7612 80.5898 63.3438 80.5898H65.4531C66.0357 80.5898 66.5078 80.1177 66.5078 79.5352C66.5078 78.9526 66.0357 78.4805 65.4531 78.4805Z" fill="black"/>
<path d="M59.125 82.6992H57.0156C56.4331 82.6992 55.9609 83.1714 55.9609 83.7539C55.9609 84.3365 56.4331 84.8086 57.0156 84.8086H59.125C59.7076 84.8086 60.1797 84.3365 60.1797 83.7539C60.1797 83.1714 59.7076 82.6992 59.125 82.6992Z" fill="black"/>
<path d="M65.4531 82.6992H63.3438C62.7612 82.6992 62.2891 83.1714 62.2891 83.7539C62.2891 84.3365 62.7612 84.8086 63.3438 84.8086H65.4531C66.0357 84.8086 66.5078 84.3365 66.5078 83.7539C66.5078 83.1714 66.0357 82.6992 65.4531 82.6992Z" fill="black"/>
<path d="M59.125 86.918H57.0156C56.4331 86.918 55.9609 87.3901 55.9609 87.9727C55.9609 88.5552 56.4331 89.0273 57.0156 89.0273H59.125C59.7076 89.0273 60.1797 88.5552 60.1797 87.9727C60.1797 87.3901 59.7076 86.918 59.125 86.918Z" fill="black"/>
<path d="M65.4531 86.918H63.3438C62.7612 86.918 62.2891 87.3901 62.2891 87.9727C62.2891 88.5552 62.7612 89.0273 63.3438 89.0273H65.4531C66.0357 89.0273 66.5078 88.5552 66.5078 87.9727C66.5078 87.3901 66.0357 86.918 65.4531 86.918Z" fill="black"/>
</g>
<defs>
<linearGradient id="paint0_linear_1374_17944" x1="1.28201e-07" y1="90.2778" x2="150" y2="90.2778" gradientUnits="userSpaceOnUse">
<stop stop-color="#0068F3"/>
<stop offset="1" stop-color="#238FFF"/>
</linearGradient>
<linearGradient id="paint1_linear_1374_17944" x1="17" y1="86.8148" x2="133" y2="86.8148" gradientUnits="userSpaceOnUse">
<stop stop-color="#0068F3"/>
<stop offset="1" stop-color="#238FFF"/>
</linearGradient>
<clipPath id="clip0_1374_17944">
<rect width="54" height="54" fill="white" transform="translate(49 48)"/>
</clipPath>
</defs>
</svg>
