<svg width="150" height="150" viewBox="0 0 150 150" fill="none" xmlns="http://www.w3.org/2000/svg">
<circle cx="75" cy="75" r="70" stroke="url(#paint0_linear_1374_17817)" stroke-width="10"/>
<circle opacity="0.2" cx="75" cy="75" r="57.5" stroke="url(#paint1_linear_1374_17817)"/>
<g clip-path="url(#clip0_1374_17817)">
<path d="M66.277 53.9296V83.6672C66.277 87.4542 68.17 90.9915 71.3215 93.0917L80.8345 99.4332L90.3452 93.0917C93.4967 90.9915 95.3893 87.455 95.3893 83.6672V53.9296L80.8066 49.0771L66.277 53.9296Z" fill="#4DBBEB"/>
<path d="M74.9995 51.7871L59.1406 57.5653V83.6668C59.1406 85.9391 60.2765 88.0618 62.1673 89.3216L74.9995 97.8761L75.0017 97.8774L87.8326 89.3203C89.7234 88.0596 90.8584 85.9378 90.8584 83.6655V57.5653L74.9995 51.7871Z" fill="white"/>
<path d="M67.1832 57.566V83.6675C67.1832 85.9398 68.3196 88.0625 70.21 89.3223L79.022 95.197L87.8327 89.321C89.7235 88.0603 90.8585 85.9385 90.8585 83.6662V57.566L79.0211 53.2529L67.1832 57.566Z" fill="#FEB756"/>
<path d="M59.1406 67.0693C59.7659 67.0693 60.2734 66.5618 60.2734 65.9365C60.2734 65.3113 59.7659 64.8037 59.1406 64.8037C58.5154 64.8037 58.0078 65.3113 58.0078 65.9365C58.0078 66.5618 58.5154 67.0693 59.1406 67.0693Z" fill="black"/>
<path d="M95.7473 52.8544L75.3195 46.058C75.0872 45.9806 74.8359 45.9806 74.6036 46.0585L54.2506 52.8549C53.7886 53.0093 53.4767 53.4421 53.4767 53.9293V83.6669C53.4767 87.8432 55.5511 91.7191 59.0252 94.0343L73.1159 103.427C73.6885 103.809 74.3447 104 75.0014 104C75.6576 104 76.3139 103.809 76.8864 103.427L90.9735 94.0343C94.4481 91.7191 96.5221 87.8432 96.5221 83.6673V53.9297C96.5221 53.4416 96.2101 53.0089 95.7473 52.8544ZM94.2565 83.6669C94.2565 87.0839 92.5595 90.2548 89.7168 92.1492L75.6297 101.542C75.2479 101.797 74.7549 101.797 74.3726 101.542L60.2819 92.1492C57.4393 90.2548 55.7423 87.0839 55.7423 83.6669V54.7457L74.9629 48.3267L94.2565 54.7466V83.6669Z" fill="black"/>
<path d="M75.1911 50.6667C74.9867 50.6251 74.7734 50.6393 74.5751 50.7118L58.7517 56.4989C58.3047 56.6622 58.0078 57.0874 58.0078 57.5631V61.3713C58.0078 61.997 58.5149 62.5041 59.1406 62.5041C59.7663 62.5041 60.2734 61.997 60.2734 61.3713V58.3547L73.8667 53.3832V71.6011H60.2734V70.5037C60.2734 69.878 59.7663 69.3709 59.1406 69.3709C58.5149 69.3709 58.0078 69.878 58.0078 70.5037V83.6677C58.0078 86.3254 59.3278 88.7919 61.539 90.265L74.3645 98.8155C74.3658 98.8159 74.3672 98.8168 74.3685 98.8177L74.3712 98.8199C74.3729 98.8208 74.3751 98.8217 74.3769 98.823C74.4114 98.8456 74.4473 98.866 74.484 98.885C74.4875 98.8867 74.4915 98.8898 74.4951 98.8916C74.5021 98.8952 74.5092 98.8974 74.5159 98.9005C74.542 98.9129 74.5681 98.9239 74.5946 98.9341C74.6092 98.9398 74.6234 98.9452 74.638 98.95C74.6606 98.9576 74.6836 98.9642 74.7066 98.9704C74.7247 98.9753 74.7424 98.9806 74.761 98.9845C74.7774 98.9876 74.7946 98.9903 74.8114 98.993C74.8743 99.004 74.938 99.0111 75.0017 99.0111C75.0199 99.0111 75.0376 99.008 75.0557 99.0071C75.0814 99.0058 75.107 99.0045 75.1323 99.0018C75.1566 98.9987 75.1809 98.9952 75.2053 98.9903C75.2278 98.9863 75.2504 98.981 75.2725 98.9757C75.311 98.966 75.3482 98.9545 75.3854 98.9412C75.4071 98.9332 75.4287 98.9257 75.4495 98.9164C75.4748 98.9058 75.4991 98.8938 75.5234 98.881C75.5394 98.8726 75.5549 98.8637 75.5703 98.8544C75.5903 98.8429 75.611 98.8336 75.6301 98.8208L88.4614 90.2637C90.6717 88.7897 91.9912 86.3236 91.9912 83.6664V57.5662C91.9912 57.0901 91.6934 56.6648 91.2465 56.502L75.4876 50.7601C75.3951 50.7163 75.2955 50.6844 75.1911 50.6667ZM60.2734 83.6673V73.8667H73.8667V95.7605L62.7953 88.3799C61.216 87.3277 60.2734 85.5661 60.2734 83.6673ZM87.2042 88.3786L76.1323 95.7627V73.8667H89.7256V83.6664C89.7256 85.5643 88.7831 87.3259 87.2042 88.3786ZM89.7256 71.6011H76.1323V53.4062L89.7256 58.3592V71.6011Z" fill="black"/>
</g>
<defs>
<linearGradient id="paint0_linear_1374_17817" x1="1.28201e-07" y1="90.2778" x2="150" y2="90.2778" gradientUnits="userSpaceOnUse">
<stop stop-color="#0068F3"/>
<stop offset="1" stop-color="#238FFF"/>
</linearGradient>
<linearGradient id="paint1_linear_1374_17817" x1="17" y1="86.8148" x2="133" y2="86.8148" gradientUnits="userSpaceOnUse">
<stop stop-color="#0068F3"/>
<stop offset="1" stop-color="#238FFF"/>
</linearGradient>
<clipPath id="clip0_1374_17817">
<rect width="58" height="58" fill="white" transform="translate(46 46)"/>
</clipPath>
</defs>
</svg>
