<svg width="150" height="150" viewBox="0 0 150 150" fill="none" xmlns="http://www.w3.org/2000/svg">
<circle cx="75" cy="75" r="70" stroke="url(#paint0_linear_1374_17895)" stroke-width="10"/>
<circle opacity="0.2" cx="75" cy="75" r="57.5" stroke="url(#paint1_linear_1374_17895)"/>
<g clip-path="url(#clip0_1374_17895)">
<path d="M99.4872 98.6033C100.143 97.0127 99.9884 95.1226 99.0476 93.6686C98.7271 93.1722 98.352 92.7454 97.9354 92.3912L92.5991 87.7363L88.5933 91.7422L93.2426 97.0836C93.3378 97.1964 93.4382 97.3058 93.5446 97.4118C95.1515 99.0182 97.5086 99.4138 99.4872 98.6033Z" fill="#91552C"/>
<path d="M88.5931 91.743L92.6708 87.665L89.3656 84.7832L89.3626 84.7866L85.7144 88.4344L88.5931 91.743Z" fill="#57555C"/>
<path d="M73.0067 55.1953L59.0857 69.1163L63.976 74.0061L64.7488 74.7794L68.5958 70.9329C68.6022 70.9252 68.6086 70.9184 68.6154 70.912L74.8024 64.725C74.8088 64.7182 74.8156 64.7118 74.8233 64.7054L78.6698 60.8585L73.0067 55.1953Z" fill="#FEB756"/>
<path d="M75.0602 70.6548C75.4879 70.228 75.7011 69.6683 75.7011 69.1082C75.7011 68.5481 75.4879 67.9884 75.0602 67.5607C74.2112 66.7131 72.8419 66.7062 71.987 67.5411L68.5959 70.9321C68.1811 71.3551 67.9747 71.9062 67.9747 72.4578C67.9747 73.0175 68.1879 73.5776 68.6156 74.0053C69.4697 74.8594 70.8552 74.8594 71.7097 74.0053L72.4826 73.232L85.7136 88.4326L85.7332 88.415L89.4699 84.6784L89.4729 84.6749L74.2869 71.4282L75.0602 70.6548Z" fill="#91552C"/>
<path d="M73.1554 93.5449H60.3226C57.9066 93.5449 55.9476 95.5034 55.9476 97.9195V99.0132H77.53V97.9195C77.53 95.5034 75.5715 93.5449 73.1554 93.5449Z" fill="#91552C"/>
<path d="M75.3429 90.8105C75.3429 89.3002 74.1188 88.0762 72.6085 88.0762H60.8695C60.1146 88.0762 59.4301 88.3825 58.9358 88.8768C58.4415 89.3712 58.1351 90.056 58.1351 90.8105C58.1351 92.3209 59.3588 93.5449 60.8695 93.5449H72.6085C73.3631 93.5449 74.0479 93.2386 74.5423 92.7443C75.0366 92.2499 75.3429 91.5651 75.3429 90.8105Z" fill="#91552C"/>
<path d="M73.2881 50.8363C72.0072 52.1172 72.0072 54.1949 73.2881 55.4758L77.8968 60.0849C79.1776 61.3654 81.2553 61.3654 82.5362 60.0845C83.818 58.8027 83.818 56.7259 82.5362 55.4442L77.9284 50.8363C77.2875 50.1954 76.4475 49.875 75.6076 49.875C74.7689 49.875 73.9289 50.1954 73.2881 50.8363Z" fill="#91552C"/>
<path d="M63.9761 78.6451C65.2566 77.3643 65.2566 75.2866 63.9761 74.0057L59.367 69.3965C58.7274 68.757 57.8875 68.4365 57.0475 68.4365C56.2075 68.4365 55.3676 68.757 54.7275 69.3965C53.4458 70.6787 53.4458 72.7556 54.7275 74.0373L59.3354 78.6451C60.6171 79.9269 62.694 79.9269 63.9761 78.6451Z" fill="#91552C"/>
<path d="M59.3352 63.1782C58.9075 63.6059 58.9075 64.298 59.3352 64.7248C59.7616 65.1525 60.455 65.1525 60.8818 64.7248C61.309 64.298 61.309 63.6059 60.8818 63.1782C60.455 62.7518 59.7616 62.7518 59.3352 63.1782Z" fill="black"/>
<path d="M75.6937 93.0779C76.1761 92.4251 76.4367 91.6377 76.4367 90.8105C76.4367 88.7 74.7191 86.9824 72.6085 86.9824H54.0152C52.9924 86.9824 52.0311 87.3806 51.3086 88.1035C50.5857 88.826 50.1875 89.7877 50.1875 90.8105C50.1875 91.6582 50.4648 92.4418 50.9326 93.0767C49.1912 93.9922 48 95.8191 48 97.9195V99.0132C48 99.6174 48.4896 100.107 49.0938 100.107H77.53C78.1341 100.107 78.6237 99.6174 78.6237 99.0132V97.9195C78.6237 95.82 77.4339 93.9944 75.6937 93.0779ZM52.8552 89.6501C53.165 89.3404 53.5768 89.1699 54.0152 89.1699H72.6085C73.513 89.1699 74.2492 89.9056 74.2492 90.8105C74.2492 91.2489 74.0783 91.6608 73.7685 91.9705C73.4592 92.2803 73.0469 92.4507 72.6085 92.4507H54.0152C53.1107 92.4507 52.375 91.715 52.375 90.8105C52.375 90.3718 52.5455 89.9599 52.8552 89.6501ZM50.1875 97.9195C50.1875 96.1105 51.6594 94.6387 53.4688 94.6387H73.1554C74.9644 94.6387 76.4367 96.1105 76.4367 97.9195H50.1875Z" fill="black"/>
<path d="M102.982 90.0602C102.611 89.4847 102.168 88.9758 101.665 88.5473L96.554 84.0898C96.5142 84.03 96.4681 83.9732 96.4155 83.9202C96.3267 83.8318 96.2258 83.7626 96.119 83.7104L93.0283 81.0149L78.7232 68.5364C79.3086 67.9241 79.6311 67.1234 79.6311 66.2724C79.6311 65.3952 79.2898 64.5711 78.6694 63.9507C78.399 63.6807 78.0914 63.4679 77.7624 63.3124L79.086 61.9888C79.456 62.0875 79.8358 62.1375 80.2165 62.1375C81.3363 62.1375 82.4565 61.7111 83.3093 60.8587C84.136 60.032 84.5911 58.9331 84.5911 57.765C84.5911 56.5965 84.136 55.4976 83.3093 54.6713L74.0291 45.3911C73.2028 44.5644 72.1039 44.1094 70.935 44.1094C69.7669 44.1094 68.6684 44.5644 67.8421 45.3911C66.6997 46.5331 66.3237 48.1554 66.7116 49.6144L53.5072 62.8189C53.1423 62.722 52.7625 62.6707 52.375 62.6707C51.206 62.6707 50.1076 63.1253 49.2817 63.9511C47.5757 65.6571 47.5757 68.4325 49.2817 70.1385L58.5619 79.4188C59.4147 80.2715 60.5354 80.6979 61.6556 80.6979C62.7758 80.6979 63.8961 80.2715 64.7493 79.4188C65.8913 78.2763 66.2677 76.6545 65.8798 75.1954L67.2004 73.8744C67.3589 74.2059 67.5743 74.5118 67.8421 74.7793C68.4616 75.3988 69.2858 75.7402 70.1625 75.7402C71.0127 75.7402 71.813 75.4184 72.4261 74.8335L87.6625 92.3395C87.7044 92.4049 87.7535 92.4673 87.8108 92.525C87.8304 92.5442 87.8514 92.5621 87.8719 92.5801L92.4122 97.7963C92.525 97.9296 92.6459 98.0608 92.7711 98.186C94.0178 99.4323 95.6649 100.109 97.3943 100.109C97.699 100.109 98.0066 100.088 98.3151 100.045C100.374 99.7604 102.154 98.5282 103.198 96.665C104.341 94.6223 104.256 92.0294 102.982 90.0602ZM87.2092 88.4862L92.3605 83.3345L94.0131 84.7756L88.6486 90.1401L87.2092 88.4862ZM73.9778 73.2843L77.1741 70.0877L90.7084 81.8934L85.7698 86.8319L73.9778 73.2843ZM69.3888 46.9377C69.8019 46.5246 70.3514 46.2969 70.935 46.2969C71.5194 46.2969 72.0693 46.5246 72.4825 46.9377L81.7627 56.218C82.1763 56.6311 82.4036 57.1806 82.4036 57.765C82.4036 58.3491 82.1763 58.8985 81.7627 59.3117C80.9103 60.1645 79.5226 60.1645 78.6698 59.3117L69.3892 50.031C69.3892 50.031 69.3892 50.031 69.3888 50.0306C68.536 49.1778 68.536 47.7905 69.3888 46.9377ZM63.2022 77.8721C62.3495 78.7249 60.9613 78.7249 60.1085 77.8721L50.8283 68.5919C49.9755 67.7391 49.9755 66.351 50.8283 65.4982C51.241 65.0855 51.7901 64.8582 52.375 64.8582C52.959 64.8582 53.508 65.0855 53.9207 65.4978L63.2022 74.7793C64.055 75.6321 64.055 77.0193 63.2022 77.8721ZM55.4682 63.9516L67.8421 51.5772L77.1228 60.8583L74.059 63.9225C74.0492 63.9319 74.0393 63.9409 74.0291 63.9511L67.8451 70.1351C67.8323 70.1479 67.8199 70.1612 67.8075 70.1744L64.7493 73.2326L55.4682 63.9516ZM70.1625 73.5527C69.8698 73.5527 69.5951 73.439 69.3888 73.2326C69.182 73.0259 69.0679 72.7507 69.0679 72.458C69.0679 72.1718 69.1773 71.9026 69.3755 71.6993L75.5881 65.4867C76.0141 65.0727 76.7024 65.0778 77.1232 65.4982C77.33 65.705 77.4436 65.9797 77.4436 66.2724C77.4436 66.5646 77.3304 66.8389 77.1232 67.0453L76.3576 67.8113C76.352 67.8164 76.3469 67.8216 76.3418 67.8267L71.7126 72.4559C71.7104 72.458 71.7083 72.4602 71.7062 72.4623L70.9363 73.2326C70.7295 73.439 70.4547 73.5527 70.1625 73.5527ZM101.29 95.596C100.583 96.8564 99.39 97.6882 98.0151 97.8784C96.6432 98.0685 95.2953 97.6165 94.3173 96.6389C94.2336 96.5552 94.1528 96.4676 94.0781 96.3787C94.0742 96.3745 94.0708 96.3702 94.0674 96.3663L90.0884 91.794L95.6653 86.2171L100.232 90.1999C100.235 90.2029 100.239 90.2059 100.242 90.2089C100.584 90.4998 100.888 90.8485 101.145 91.2475C101.972 92.5254 102.03 94.2733 101.29 95.596Z" fill="black"/>
<path d="M68.6155 55.4441C68.1882 55.0173 67.4961 55.0173 67.0684 55.4441L62.4281 60.0849C62.0009 60.5121 62.0009 61.2047 62.4281 61.6315C62.6417 61.8451 62.9216 61.952 63.2014 61.952C63.4813 61.952 63.7611 61.8451 63.9747 61.6315L68.6155 56.9908C69.0427 56.564 69.0427 55.8714 68.6155 55.4441Z" fill="black"/>
</g>
<defs>
<linearGradient id="paint0_linear_1374_17895" x1="1.28201e-07" y1="90.2778" x2="150" y2="90.2778" gradientUnits="userSpaceOnUse">
<stop stop-color="#0068F3"/>
<stop offset="1" stop-color="#238FFF"/>
</linearGradient>
<linearGradient id="paint1_linear_1374_17895" x1="17" y1="86.8148" x2="133" y2="86.8148" gradientUnits="userSpaceOnUse">
<stop stop-color="#0068F3"/>
<stop offset="1" stop-color="#238FFF"/>
</linearGradient>
<clipPath id="clip0_1374_17895">
<rect width="56" height="56" fill="white" transform="translate(48 44)"/>
</clipPath>
</defs>
</svg>
