<svg width="150" height="150" viewBox="0 0 150 150" fill="none" xmlns="http://www.w3.org/2000/svg">
<circle cx="75" cy="75" r="70" stroke="url(#paint0_linear_1374_9954)" stroke-width="10"/>
<circle opacity="0.2" cx="75" cy="75" r="57.5" stroke="url(#paint1_linear_1374_9954)"/>
<path d="M101.906 97.9688V67.3438H60.125V97.9688C60.125 99.1774 61.1038 100.156 62.3125 100.156H99.7188C100.927 100.156 101.906 99.1774 101.906 97.9688Z" fill="#C0E3F0"/>
<path d="M99.7188 58.5938H62.2031C60.9944 58.5938 60.0156 59.5726 60.0156 60.7812V67.3438H101.906V60.7812C101.906 59.5726 100.927 58.5938 99.7188 58.5938Z" fill="#4DBBEB"/>
<path d="M79.375 58.5938V60.7812H70.625V54.2188C70.625 51.8027 72.5839 49.8438 75 49.8438C76.2074 49.8438 77.3011 50.3338 78.0933 51.1255C78.8849 51.9176 79.375 53.0114 79.375 54.2188V58.5938Z" fill="white"/>
<path d="M79.375 54.2183C79.375 53.0109 78.8849 51.9172 78.0933 51.1251C77.7233 50.7555 77.2866 50.4521 76.8043 50.2334C75.2888 50.9208 74.2344 52.4461 74.2344 54.2183V60.7808H79.375V54.2183Z" fill="#C0E3F0"/>
<path d="M72.8125 71.7188H54.6562C53.4476 71.7188 52.4688 72.6976 52.4688 73.9062V91.4062C52.4688 92.6149 53.4476 93.5938 54.6562 93.5938H72.8125C74.0212 93.5938 75 92.6149 75 91.4062V73.9062C75 72.6976 74.0212 71.7188 72.8125 71.7188Z" fill="white"/>
<path d="M75 91.4062V73.9062C75 72.6976 74.0212 71.7188 72.8125 71.7188H63.4062C62.1976 71.7188 61.2188 72.6976 61.2188 73.9062V91.4062C61.2188 92.6149 62.1976 93.5938 63.4062 93.5938H72.8125C74.0212 93.5938 75 92.6149 75 91.4062Z" fill="#FEB756"/>
<path d="M68.3751 86.7655C67.1874 85.5786 65.5468 84.8438 63.7344 84.8438C60.1096 84.8438 57.1719 87.7815 57.1719 91.4062V93.5938H70.2969V91.4062C70.2969 89.5939 69.562 87.9532 68.3751 86.7655Z" fill="white"/>
<path d="M68.1094 80.4688C68.1094 82.8848 66.1505 84.8438 63.7344 84.8438C61.3183 84.8438 59.3594 82.8848 59.3594 80.4688C59.3594 78.0527 61.3183 76.0938 63.7344 76.0938C66.1505 76.0938 68.1094 78.0527 68.1094 80.4688Z" fill="white"/>
<path d="M68.3751 86.7651C67.6236 86.0145 66.6909 85.4454 65.648 85.1279C62.9576 85.947 61 88.4472 61 91.4059V93.5934H70.2969V91.4059C70.2969 89.5935 69.562 87.9529 68.3751 86.7651Z" fill="#57555C"/>
<path d="M65.6484 76.5342C64.1915 77.2443 63.1875 78.7392 63.1875 80.4687C63.1875 82.1982 64.1915 83.6931 65.6484 84.4032C67.1053 83.6931 68.1094 82.1982 68.1094 80.4687C68.1094 78.7392 67.1053 77.2443 65.6484 76.5342Z" fill="#57555C"/>
<path d="M95.0156 92.5C94.4119 92.5 93.9219 92.9901 93.9219 93.5938C93.9219 94.1974 94.4119 94.6875 95.0156 94.6875C95.6193 94.6875 96.1094 94.1974 96.1094 93.5938C96.1094 92.9901 95.6193 92.5 95.0156 92.5Z" fill="black"/>
<path d="M88.125 92.5C87.5213 92.5 87.0312 92.9901 87.0312 93.5938C87.0312 94.1974 87.5213 94.6875 88.125 94.6875C88.7287 94.6875 89.2188 94.1974 89.2188 93.5938C89.2188 92.9901 88.7287 92.5 88.125 92.5Z" fill="black"/>
<path d="M81.5625 75C82.1662 75 82.6562 74.5099 82.6562 73.9062C82.6562 73.3026 82.1662 72.8125 81.5625 72.8125C80.9588 72.8125 80.4688 73.3026 80.4688 73.9062C80.4688 74.5099 80.9588 75 81.5625 75Z" fill="black"/>
<path d="M81.5625 92.5C80.9588 92.5 80.4688 92.9901 80.4688 93.5938C80.4688 94.1974 80.9588 94.6875 81.5625 94.6875C82.1662 94.6875 82.6562 94.1974 82.6562 93.5938C82.6562 92.9901 82.1662 92.5 81.5625 92.5Z" fill="black"/>
<path d="M75 53.125C74.3963 53.125 73.9062 53.6151 73.9062 54.2188C73.9062 54.8224 74.3963 55.3125 75 55.3125C75.6037 55.3125 76.0938 54.8224 76.0938 54.2188C76.0938 53.6151 75.6037 53.125 75 53.125Z" fill="black"/>
<path d="M95.0156 72.8125H85.9375C85.3334 72.8125 84.8438 73.3021 84.8438 73.9062C84.8438 74.5104 85.3334 75 85.9375 75H95.0156C95.6198 75 96.1094 74.5104 96.1094 73.9062C96.1094 73.3021 95.6198 72.8125 95.0156 72.8125Z" fill="black"/>
<path d="M95.0156 79.375H81.5625C80.9584 79.375 80.4688 79.8646 80.4688 80.4688C80.4688 81.0729 80.9584 81.5625 81.5625 81.5625H95.0156C95.6198 81.5625 96.1094 81.0729 96.1094 80.4688C96.1094 79.8646 95.6198 79.375 95.0156 79.375Z" fill="black"/>
<path d="M95.0156 85.9375H81.5625C80.9584 85.9375 80.4688 86.4271 80.4688 87.0312C80.4688 87.6354 80.9584 88.125 81.5625 88.125H95.0156C95.6198 88.125 96.1094 87.6354 96.1094 87.0312C96.1094 86.4271 95.6198 85.9375 95.0156 85.9375Z" fill="black"/>
<path d="M99.7188 57.5H80.4688V54.2188C80.4688 52.7589 79.8997 51.3857 78.8666 50.3522C77.8331 49.3191 76.4599 48.75 75 48.75C71.9845 48.75 69.5312 51.2032 69.5312 54.2188V57.5H50.2812C48.4719 57.5 47 58.9719 47 60.7812V97.9688C47 99.7781 48.4719 101.25 50.2812 101.25H99.7188C101.528 101.25 103 99.7781 103 97.9688V60.7812C103 58.9719 101.528 57.5 99.7188 57.5ZM71.7188 54.2188C71.7188 52.4094 73.1906 50.9375 75 50.9375C75.8759 50.9375 76.6996 51.2789 77.3199 51.8988C77.9399 52.5192 78.2812 53.3429 78.2812 54.2188V59.6875H71.7188V54.2188ZM50.2812 59.6875H69.5312V60.7812C69.5312 61.3854 70.0209 61.875 70.625 61.875H79.375C79.9791 61.875 80.4688 61.3854 80.4688 60.7812V59.6875H99.7188C100.322 59.6875 100.812 60.178 100.812 60.7812V66.25H49.1875V60.7812C49.1875 60.178 49.678 59.6875 50.2812 59.6875ZM99.7188 99.0625H50.2812C49.678 99.0625 49.1875 98.572 49.1875 97.9688V68.4375H100.812V97.9688C100.812 98.572 100.322 99.0625 99.7188 99.0625Z" fill="black"/>
<path d="M72.8125 70.625H54.6562C52.8469 70.625 51.375 72.0969 51.375 73.9062V91.4062C51.375 93.2156 52.8469 94.6875 54.6562 94.6875H72.8125C74.6219 94.6875 76.0938 93.2156 76.0938 91.4062V73.9062C76.0938 72.0969 74.6219 70.625 72.8125 70.625ZM60.4531 80.4688C60.4531 78.6594 61.925 77.1875 63.7344 77.1875C65.5438 77.1875 67.0156 78.6594 67.0156 80.4688C67.0156 82.2781 65.5438 83.75 63.7344 83.75C61.925 83.75 60.4531 82.2781 60.4531 80.4688ZM69.2031 92.5H58.2656V91.4062C58.2656 88.3907 60.7189 85.9375 63.7344 85.9375C65.1947 85.9375 66.5683 86.5062 67.6014 87.5388C68.6345 88.5723 69.2031 89.9459 69.2031 91.4062V92.5ZM73.9062 91.4062C73.9062 92.0095 73.4158 92.5 72.8125 92.5H71.3906V91.4062C71.3906 89.3619 70.5947 87.4393 69.148 85.9918C68.5917 85.4355 67.9641 84.9771 67.2869 84.6212C68.4584 83.6176 69.2031 82.129 69.2031 80.4688C69.2031 77.4532 66.7499 75 63.7344 75C60.7189 75 58.2656 77.4532 58.2656 80.4688C58.2656 82.1312 59.012 83.6214 60.1861 84.625C57.7465 85.9067 56.0781 88.4647 56.0781 91.4062V92.5H54.6562C54.053 92.5 53.5625 92.0095 53.5625 91.4062V73.9062C53.5625 73.303 54.053 72.8125 54.6562 72.8125H72.8125C73.4158 72.8125 73.9062 73.303 73.9062 73.9062V91.4062Z" fill="black"/>
<defs>
<linearGradient id="paint0_linear_1374_9954" x1="1.28201e-07" y1="90.2778" x2="150" y2="90.2778" gradientUnits="userSpaceOnUse">
<stop stop-color="#0068F3"/>
<stop offset="1" stop-color="#238FFF"/>
</linearGradient>
<linearGradient id="paint1_linear_1374_9954" x1="17" y1="86.8148" x2="133" y2="86.8148" gradientUnits="userSpaceOnUse">
<stop stop-color="#0068F3"/>
<stop offset="1" stop-color="#238FFF"/>
</linearGradient>
</defs>
</svg>
