<svg width="81" height="91" viewBox="0 0 81 91" fill="none" xmlns="http://www.w3.org/2000/svg">
<path d="M79.9787 85.6194L75.9866 62.2478C75.5564 59.7297 73.7701 57.7069 71.3242 56.9691L60.5566 53.7202C60.3336 51.0881 59.2545 48.6048 57.4584 46.6393C56.0218 45.0671 54.2149 43.9223 52.223 43.2907C52.5639 42.9124 52.8799 42.5354 53.1699 42.1667C55.7305 38.9101 57.1014 35.3223 57.4503 32.874H58.281C60.4415 32.874 62.1993 31.1164 62.1993 28.9557V26.9471C62.1993 25.5052 61.3882 24.1986 60.1683 23.5206V18.6906C60.1683 17.9607 59.5766 17.369 58.8468 17.369C58.1169 17.369 57.5254 17.9606 57.5254 18.6906V24.1128C57.0108 24.2022 56.3967 24.3566 55.7685 24.6211C55.7042 24.6446 55.6416 24.6717 55.5824 24.7043C55.4405 24.769 55.2985 24.8372 55.1569 24.9141V14.2645C55.1569 11.3224 52.7634 8.92885 49.8212 8.92885H46.1737C44.9156 8.92885 43.6866 9.36719 42.7126 10.1635L42.3547 10.4561C41.6973 10.9936 40.8675 11.2897 40.0181 11.2897C39.1687 11.2897 38.3388 10.9936 37.6813 10.4561L37.3235 10.1635C36.3496 9.36736 35.1206 8.92885 33.8625 8.92885H30.2146C27.2724 8.92885 24.8789 11.3224 24.8789 14.2645V24.9141C24.7374 24.8372 24.5953 24.769 24.4534 24.7043C24.3942 24.6717 24.3318 24.6446 24.2675 24.6211C23.6393 24.3566 23.0251 24.2022 22.5106 24.1128V10.4023C22.5106 6.12326 25.9919 2.64193 30.271 2.64193H49.7647C54.0439 2.64193 57.5251 6.12326 57.5251 10.4023V12.4796C57.5251 13.2095 58.1167 13.8012 58.8464 13.8012C59.5761 13.8012 60.168 13.2097 60.168 12.4796V10.4023C60.168 4.66601 55.501 -0.000976562 49.7647 -0.000976562H30.271C24.5345 -0.000976562 19.8677 4.66601 19.8677 10.4023V23.5208C18.6478 24.1988 17.8367 25.5052 17.8367 26.9473V28.9559C17.8367 31.1166 19.5945 32.8741 21.755 32.8741H22.5857C22.9345 35.3225 24.3055 38.9103 26.8661 42.1669C27.1557 42.5352 27.4716 42.9119 27.8121 43.2898C23.233 44.7442 19.8938 48.8611 19.4794 53.7202L8.71144 56.9691C6.26559 57.7069 4.47909 59.7297 4.04904 62.2478L2.42787 71.7388C2.30502 72.4583 2.78866 73.1409 3.50794 73.2638C4.22705 73.387 4.91003 72.9032 5.03306 72.1837L6.65422 62.6927C6.91437 61.1692 7.99515 59.9456 9.47479 59.4994L19.4339 56.4944V59.1084C17.1511 59.5286 15.2086 61.0967 14.4086 63.2694C14.1962 63.8461 14.0642 64.4499 14.0163 65.064L13.0538 77.4184C12.9812 78.349 13.3032 79.2757 13.9368 79.9605C14.5704 80.6454 15.4691 81.0385 16.4024 81.0385H18.05C18.7799 81.0385 19.3715 80.4469 19.3715 79.7169C19.3715 78.9869 18.7799 78.3955 18.05 78.3955H16.4024C16.2034 78.3955 16.012 78.312 15.8768 78.1657C15.7418 78.0198 15.6732 77.8224 15.6887 77.6241L16.6513 65.2695C16.6803 64.8974 16.7602 64.5317 16.8888 64.1826C17.4455 62.6712 18.9485 61.6477 20.6294 61.6359L20.8471 61.6343C20.8573 61.6341 20.8674 61.6341 20.8774 61.6341C22.5111 61.6341 23.9573 62.5605 24.5673 64.0007C24.7384 64.4045 24.8424 64.8313 24.8766 65.2695L25.8395 77.6243C25.8548 77.8224 25.7862 78.0198 25.6512 78.1659C25.5162 78.3118 25.3246 78.3955 25.1256 78.3955H23.478C22.7482 78.3955 22.1565 78.9871 22.1565 79.7169C22.1565 80.4468 22.7482 81.0385 23.478 81.0385H25.1256C26.0589 81.0385 26.9578 80.6456 27.5912 79.9605C28.225 79.2754 28.5471 78.3488 28.4744 77.4186L27.5116 65.064C27.4552 64.341 27.2833 63.6362 27.0008 62.9694C26.1303 60.9148 24.2689 59.4863 22.0767 59.0998V55.6971L26.6194 54.3263C27.0327 55.1969 27.8517 57.078 29.4741 61.133C31.1092 65.2246 33.1416 70.4689 35.0908 75.5672C35.1047 75.6101 35.1207 75.6518 35.1387 75.6927C36.4395 79.0963 37.7013 82.43 38.7804 85.3057C38.974 85.8214 39.4669 86.163 40.0177 86.163C40.5685 86.163 41.0615 85.8214 41.255 85.3057C42.334 82.43 43.5958 79.0963 44.8968 75.6927C44.9149 75.6518 44.9308 75.6099 44.9447 75.5672C46.8925 70.4719 48.9238 65.2309 50.5582 61.1406C52.1827 57.0803 53.0024 55.1976 53.4159 54.3263L57.9586 55.6971V63.5024C54.8111 64.1138 52.427 66.8898 52.427 70.2136C52.427 73.9838 55.4943 77.0513 59.2647 77.0513C63.0351 77.0513 66.1024 73.984 66.1024 70.2136C66.1024 66.9007 63.7339 64.1314 60.6015 63.508V56.4946L70.5609 59.4995C72.0405 59.9458 73.1211 61.1693 73.3814 62.6929L77.3735 86.0645C77.4398 86.452 77.3367 86.831 77.0831 87.1315C76.8296 87.4318 76.4734 87.5975 76.0802 87.5975H3.95527C3.56205 87.5975 3.20602 87.432 2.9524 87.1315C2.69895 86.831 2.59566 86.4522 2.66193 86.0645L3.97942 78.3513C4.10227 77.6318 3.61863 76.9492 2.89934 76.8264C2.18023 76.703 1.49726 77.1872 1.37423 77.9064L0.0567459 85.6196C-0.139775 86.7709 0.179418 87.9431 0.932368 88.8359C1.68567 89.7284 2.78742 90.2402 3.95527 90.2402H76.0802C77.248 90.2402 78.35 89.7284 79.1031 88.8357C79.8561 87.943 80.1752 86.7707 79.9787 85.6194ZM57.5409 26.8051C58.245 26.6295 58.8103 26.6327 58.8166 26.6329C59.0444 26.6359 59.2657 26.5826 59.4624 26.4795C59.5213 26.626 59.556 26.7834 59.556 26.9473V28.9559C59.556 29.6591 58.9839 30.2312 58.2807 30.2312H57.5409V26.8051ZM22.4946 30.2312H21.7548C21.0516 30.2312 20.4795 29.6591 20.4795 28.9559V26.9473C20.4795 26.7834 20.5144 26.626 20.573 26.4797C20.7696 26.5828 20.9909 26.636 21.2188 26.6329C21.2289 26.6346 21.7925 26.6315 22.4946 26.8058V30.2312ZM25.1375 31.713V28.2412C25.5379 28.3612 25.9759 28.3448 26.3802 28.1761C27.0738 27.8867 27.5218 27.2147 27.5218 26.4637V14.2645C27.5218 12.7798 28.7298 11.5718 30.2146 11.5718H33.8621C34.5121 11.5718 35.1472 11.7982 35.6504 12.2096L36.0082 12.5022C37.1364 13.4247 38.5603 13.9325 40.0177 13.9325C41.4752 13.9325 42.8991 13.4245 44.0273 12.5022L44.3851 12.2096C44.8881 11.7982 45.5233 11.5718 46.1733 11.5718H49.8209C51.3056 11.5718 52.5137 12.7798 52.5137 14.2645V26.4638C52.5137 27.2147 52.9617 27.8869 53.6553 28.1763C53.8869 28.2729 54.1294 28.3198 54.3698 28.3198C54.549 28.3198 54.7269 28.2935 54.898 28.2424V31.713C54.898 33.6424 53.5641 37.3892 51.092 40.5332C50.2732 41.5747 49.2206 42.6935 47.9246 43.6714C47.8835 43.6989 47.8442 43.7286 47.8067 43.7604C45.799 45.2448 43.2174 46.3819 40.0177 46.3819C36.8181 46.3819 34.2365 45.2448 32.2286 43.7602C32.1911 43.7286 32.1519 43.6989 32.1111 43.6715C30.8151 42.6935 29.7625 41.5747 28.9435 40.5332C26.4715 37.3894 25.1375 33.6424 25.1375 31.713ZM48.6753 53.0633L40.0177 59.5343L31.3602 53.0633C32.2188 51.9721 32.6997 50.5715 32.6997 49.3215V47.1913C34.7356 48.2862 37.1649 49.025 40.0177 49.025C42.8706 49.025 45.3 48.2862 47.3357 47.1913V49.3215C47.3357 50.5715 47.8167 51.9721 48.6753 53.0633ZM29.1548 51.5883C28.4491 51.3195 27.6667 51.2754 26.9266 51.4762C26.8942 51.4837 26.8624 51.4924 26.8316 51.5016L22.2661 52.8791C23.0383 49.0823 26.1213 46.0603 30.0568 45.475V49.3215C30.0568 50.1506 29.6867 51.0077 29.1548 51.5883ZM32.7413 62.1965C32.7389 62.1904 32.7364 62.1842 32.7341 62.1782C32.6671 62.0088 32.601 61.8417 32.5355 61.6766C32.5237 61.6466 32.5119 61.6169 32.5 61.5872C32.4359 61.4256 32.3723 61.2652 32.3095 61.1075C32.3051 61.0964 32.3007 61.0854 32.2963 61.0742C32.1005 60.5819 31.9117 60.1097 31.7302 59.6573C31.717 59.6245 31.7037 59.5912 31.6905 59.5586C31.6383 59.4289 31.5871 59.3011 31.5361 59.1749C31.5174 59.1285 31.4989 59.0827 31.4804 59.0369C31.4311 58.9146 31.3821 58.7929 31.3338 58.674C31.3193 58.6384 31.3052 58.6038 31.291 58.5684C31.2034 58.3523 31.1177 58.1417 31.0342 57.9363C31.0116 57.8808 30.9885 57.8242 30.9661 57.7694C30.9333 57.6894 30.9014 57.6115 30.8694 57.5331C30.8348 57.4485 30.8003 57.3646 30.7664 57.2821C30.7537 57.2513 30.7405 57.2186 30.7278 57.188C30.7176 57.1633 30.7083 57.1406 30.6982 57.1161C30.5456 56.7452 30.4005 56.3957 30.2629 56.067C30.2618 56.0644 30.2606 56.0617 30.2595 56.0591C30.1862 55.8841 30.1145 55.7131 30.0456 55.5502C30.0098 55.4658 29.9745 55.3828 29.94 55.3014L37.3858 60.8664L34.2746 62.1881C34.2691 62.1904 34.2635 62.1927 34.258 62.1951L32.959 62.747C32.8853 62.5607 32.8132 62.3781 32.7413 62.1965ZM35.8945 70.2879C35.6335 69.6106 35.3705 68.9294 35.107 68.2489C34.6949 67.1845 34.3013 66.1724 33.9247 65.2083L34.4179 64.9988L36.4328 67.341L35.8945 70.2879ZM40.0433 81.0284C40.0054 80.9498 39.9603 80.8756 39.9081 80.8065C39.311 79.2282 38.5531 77.231 37.7143 75.0337L38.9481 68.2788H41.0874L42.3212 75.0337C41.4422 77.3357 40.6528 79.4173 40.0433 81.0284ZM41.583 65.6361H38.4524L36.971 63.9141L40.0177 62.6199L43.0644 63.9141L41.583 65.6361ZM44.9285 68.2489C44.665 68.9294 44.402 69.6106 44.141 70.2879L43.6027 67.3408L45.6176 64.9986L46.1108 65.2082C45.7341 66.1723 45.3406 67.1845 44.9285 68.2489ZM49.9901 55.5502C49.9247 55.7046 49.8567 55.8666 49.7874 56.0319C49.7784 56.0534 49.7692 56.0751 49.7603 56.0968C49.6917 56.2607 49.6219 56.4282 49.5496 56.6025C49.5449 56.6139 49.5399 56.6261 49.5352 56.6377C49.4728 56.7881 49.4088 56.9432 49.3438 57.1013C49.3316 57.1309 49.3202 57.1582 49.308 57.188C49.2935 57.2234 49.278 57.2609 49.2634 57.2967C49.2345 57.3672 49.2051 57.4391 49.1755 57.5111C49.1391 57.5997 49.103 57.688 49.0658 57.7788C49.054 57.8077 49.0419 57.8378 49.0299 57.8669C48.9379 58.0923 48.8434 58.3246 48.7468 58.5633C48.7317 58.6006 48.7167 58.6373 48.7015 58.6752C48.6538 58.7931 48.6051 58.9135 48.5563 59.0346C48.5373 59.082 48.518 59.1292 48.4988 59.1772C48.4484 59.3021 48.3975 59.4287 48.346 59.557C48.3316 59.5928 48.3169 59.6294 48.3025 59.6654C48.1232 60.1117 47.9373 60.5771 47.7443 61.0622C47.7379 61.0782 47.7316 61.0939 47.7253 61.1101C47.6629 61.2668 47.5998 61.4261 47.536 61.5867C47.5241 61.6167 47.5122 61.6466 47.5002 61.6768C47.4343 61.8428 47.3678 62.0106 47.3005 62.181C47.2993 62.1842 47.298 62.1874 47.2968 62.1904C47.2242 62.374 47.1512 62.5587 47.0768 62.7473L45.7766 62.195C45.772 62.193 45.7674 62.1911 45.763 62.1891L42.6501 60.8667L50.0958 55.3017C50.0609 55.3828 50.0257 55.4656 49.9901 55.5502ZM53.2039 51.5017C53.2037 51.5017 53.2034 51.5016 53.2032 51.5016C53.2021 51.5012 53.2009 51.501 53.1998 51.5005C52.4331 51.2705 51.6153 51.3086 50.8809 51.5883C50.3488 51.0077 49.9788 50.1506 49.9788 49.3215V45.473C53.939 46.0568 57.0127 49.0504 57.7748 52.8807L53.2039 51.5017ZM63.4595 70.2136C63.4595 72.5267 61.5776 74.4084 59.2647 74.4084C56.9517 74.4084 55.0699 72.5267 55.0699 70.2136C55.0699 67.9004 56.9517 66.0188 59.2647 66.0188C61.5776 66.0188 63.4595 67.9004 63.4595 70.2136Z" fill="black"/>
<path fill-rule="evenodd" clip-rule="evenodd" d="M52.8245 43.499C52.6261 43.4243 52.4256 43.3548 52.2232 43.2907C52.5641 42.9124 52.8801 42.5354 53.17 42.1667C55.7306 38.9101 57.1015 35.3223 57.4505 32.874H58.2812C60.4417 32.874 62.1995 31.1164 62.1995 28.9557V26.9471C62.1995 25.5052 61.3883 24.1986 60.1685 23.5206V18.6906C60.1685 17.9607 59.5768 17.369 58.847 17.369C58.1171 17.369 57.5256 17.9606 57.5256 18.6906V24.1128C57.0109 24.2022 56.3969 24.3566 55.7687 24.6211C55.7044 24.6446 55.6418 24.6717 55.5826 24.7043C55.4407 24.769 55.2986 24.8372 55.1571 24.9141V14.2645C55.1571 11.3224 52.7636 8.92885 49.8214 8.92885H46.1739C44.9158 8.92885 43.6868 9.36719 42.7128 10.1635L42.3549 10.4561C41.6974 10.9936 40.8676 11.2897 40.0183 11.2897C39.1689 11.2897 38.3389 10.9936 37.6815 10.4561L37.3237 10.1635C36.3498 9.36736 35.1207 8.92885 33.8627 8.92885H30.2148C27.2726 8.92885 24.8791 11.3224 24.8791 14.2645V24.9141C24.7375 24.8372 24.5955 24.769 24.4536 24.7043C24.3944 24.6717 24.332 24.6446 24.2677 24.6211C23.6395 24.3566 23.0253 24.2022 22.5108 24.1128V10.4023C22.5108 6.12326 25.9921 2.64193 30.2712 2.64193H49.7649C54.0441 2.64193 57.5252 6.12326 57.5252 10.4023V12.4796C57.5252 13.2095 58.1169 13.8012 58.8466 13.8012C59.5763 13.8012 60.1681 13.2097 60.1681 12.4796V10.4023C60.1681 4.66601 55.5012 -0.000976562 49.7649 -0.000976562H30.2712C24.5347 -0.000976562 19.8679 4.66601 19.8679 10.4023V23.5208C18.648 24.1988 17.8369 25.5052 17.8369 26.9473V28.9559C17.8369 31.1166 19.5947 32.8741 21.7552 32.8741H22.5859C22.9347 35.3225 24.3057 38.9103 26.8663 42.1669C27.1559 42.5352 27.4717 42.9119 27.8123 43.2898C27.609 43.3543 27.4082 43.4241 27.21 43.499H31.887C30.6933 42.5633 29.7149 41.5139 28.9436 40.5332C26.4717 37.3894 25.1376 33.6424 25.1376 31.713V28.2412C25.5381 28.3612 25.9761 28.3448 26.3804 28.1761C27.0739 27.8867 27.522 27.2147 27.522 26.4637V14.2645C27.522 12.7798 28.73 11.5718 30.2148 11.5718H33.8623C34.5123 11.5718 35.1474 11.7982 35.6506 12.2096L36.0084 12.5022C37.1365 13.4247 38.5605 13.9325 40.0179 13.9325C41.4754 13.9325 42.8993 13.4245 44.0275 12.5022L44.3853 12.2096C44.8883 11.7982 45.5235 11.5718 46.1735 11.5718H49.8211C51.3058 11.5718 52.5139 12.7798 52.5139 14.2645V26.4638C52.5139 27.2147 52.9619 27.8869 53.6554 28.1763C53.887 28.2729 54.1296 28.3198 54.37 28.3198C54.5492 28.3198 54.7271 28.2935 54.8982 28.2424V31.713C54.8982 33.6424 53.5643 37.3892 51.0922 40.5332C50.3211 41.514 49.3426 42.5634 48.1489 43.499H52.8245ZM58.8168 26.6329C58.8105 26.6327 58.2452 26.6295 57.5411 26.8051V30.2312H58.2808C58.9841 30.2312 59.5562 29.6591 59.5562 28.9559V26.9473C59.5562 26.7834 59.5215 26.626 59.4626 26.4795C59.2659 26.5826 59.0445 26.6359 58.8168 26.6329ZM20.4796 28.9559C20.4796 29.6591 21.0518 30.2312 21.755 30.2312H22.4947V26.8058C21.8557 26.6471 21.3313 26.6355 21.2348 26.6334C21.2253 26.6331 21.2199 26.633 21.219 26.6329C20.9911 26.636 20.7698 26.5828 20.5732 26.4797C20.5145 26.626 20.4796 26.7834 20.4796 26.9473V28.9559Z" fill="#006BF6"/>
<path fill-rule="evenodd" clip-rule="evenodd" d="M22.0769 58.999H19.4342V59.1084C17.1514 59.5286 15.2089 61.0967 14.4089 63.2694C14.1965 63.8461 14.0645 64.4499 14.0165 65.064L13.054 77.4184C12.9814 78.349 13.3034 79.2757 13.9371 79.9605C14.5707 80.6454 15.4694 81.0385 16.4027 81.0385H18.0503C18.7801 81.0385 19.3718 80.4469 19.3718 79.7169C19.3718 78.9869 18.7801 78.3955 18.0503 78.3955H16.4027C16.2037 78.3955 16.0123 78.312 15.8771 78.1657C15.7421 78.0198 15.6735 77.8224 15.689 77.6241L16.6515 65.2695C16.6806 64.8974 16.7604 64.5317 16.8891 64.1826C17.4457 62.6712 18.9488 61.6477 20.6297 61.6359L20.8474 61.6343C20.8576 61.6341 20.8677 61.6341 20.8777 61.6341C22.5114 61.6341 23.9575 62.5605 24.5675 64.0007C24.7387 64.4045 24.8427 64.8313 24.8769 65.2695L25.8397 77.6243C25.8551 77.8224 25.7865 78.0198 25.6515 78.1659C25.5165 78.3118 25.3249 78.3955 25.1259 78.3955H23.4783C22.7484 78.3955 22.1568 78.9871 22.1568 79.7169C22.1568 80.4468 22.7484 81.0385 23.4783 81.0385H25.1259C26.0592 81.0385 26.9581 80.6456 27.5915 79.9605C28.2253 79.2754 28.5473 78.3488 28.4747 77.4186L27.5118 65.064C27.4554 64.341 27.2836 63.6362 27.0011 62.9694C26.1305 60.9148 24.2691 59.4863 22.0769 59.0998V58.999Z" fill="#006BF6"/>
<path fill-rule="evenodd" clip-rule="evenodd" d="M57.9584 63.499V63.5024C54.8109 64.1138 52.4268 66.8898 52.4268 70.2136C52.4268 73.9838 55.4941 77.0513 59.2645 77.0513C63.0349 77.0513 66.1022 73.984 66.1022 70.2136C66.1022 66.9007 63.7337 64.1314 60.6013 63.508V63.499H57.9584ZM59.2645 74.4084C61.5774 74.4084 63.4593 72.5267 63.4593 70.2136C63.4593 67.9004 61.5774 66.0188 59.2645 66.0188C56.9515 66.0188 55.0697 67.9004 55.0697 70.2136C55.0697 72.5267 56.9515 74.4084 59.2645 74.4084Z" fill="#006BF6"/>
</svg>
