<svg width="76" height="84" viewBox="0 0 76 84" fill="none" xmlns="http://www.w3.org/2000/svg">
<path d="M2.70968 8.12806H43.3548V17.6119C43.3548 18.3615 43.9601 18.9668 44.7097 18.9668H54.1935V29.8055H56.9032V17.6119C56.9032 17.2368 56.7504 16.8981 56.505 16.6527L45.6702 5.81795C45.4235 5.57119 45.0848 5.41838 44.7097 5.41838H8.12903V2.7087H59.6129V32.5152H62.3226V1.35386C62.3226 0.604335 61.7173 -0.000976562 60.9677 -0.000976562H6.77419C6.02467 -0.000976562 5.41935 0.604335 5.41935 1.35386V5.41838H1.35484C0.605311 5.41838 0 6.02369 0 6.77322V82.6442C0 83.3937 0.605311 83.999 1.35484 83.999H47.4193V81.2893H2.70968V8.12806ZM46.0645 10.0439L52.2777 16.2571H46.0645V10.0439Z" fill="black"/>
<path d="M74.5164 40.6441H72.4762C66.4264 40.6441 60.7365 37.9794 56.8645 33.3334L56.5906 33.004C56.0772 32.3847 55.0214 32.3847 54.508 33.004L54.2342 33.3321C50.3608 37.9794 44.6709 40.6441 38.6211 40.6441H36.5809C35.8314 40.6441 35.2261 41.2494 35.2261 41.9989V63.9416C35.2261 69.277 38.1038 74.2359 42.7359 76.8821L54.8765 83.8203C55.0843 83.9394 55.3171 83.9989 55.5487 83.9989C55.7802 83.9989 56.0131 83.9394 56.2208 83.8203L68.3614 76.8821C72.9935 74.2359 75.8712 69.277 75.8712 63.9416V41.9989C75.8712 41.2494 75.2659 40.6441 74.5164 40.6441ZM73.1616 63.9416C73.1616 68.3072 70.8084 72.3637 67.0172 74.5283L55.5487 81.0848L44.0802 74.5303C40.2889 72.3637 37.9358 68.3072 37.9358 63.9416V43.3538H38.6211C45.0864 43.3538 51.1917 40.6673 55.5487 35.9412C59.9042 40.6673 66.0109 43.3538 72.4762 43.3538H73.1616V63.9416Z" fill="#006BF6"/>
<path d="M55.5487 44.7085C47.3317 44.7085 40.6455 51.3947 40.6455 59.6117C40.6455 67.8287 47.3317 74.5149 55.5487 74.5149C63.7657 74.5149 70.452 67.8287 70.452 59.6117C70.452 51.3947 63.7657 44.7085 55.5487 44.7085ZM55.5487 71.8053C48.8248 71.8053 43.3552 66.3356 43.3552 59.6117C43.3552 52.8878 48.8248 47.4182 55.5487 47.4182C62.2726 47.4182 67.7423 52.8878 67.7423 59.6117C67.7423 66.3356 62.2726 71.8053 55.5487 71.8053Z" fill="#006BF6"/>
<path d="M54.902 63.8239L52.4417 61.3637L50.5259 63.2795L54.5904 67.344C54.8464 67.6014 55.1931 67.7409 55.5483 67.7409C55.6581 67.7409 55.7693 67.7277 55.8791 67.7006C56.3422 67.5835 56.708 67.2316 56.8463 66.7751L60.9108 53.2267L58.3149 52.4487L54.902 63.8239Z" fill="#006BF6"/>
<path d="M5.41943 21.6763H40.6452V24.3859H5.41943V21.6763Z" fill="black"/>
<path d="M5.41943 27.0962H40.6452V29.8059H5.41943V27.0962Z" fill="black"/>
<path d="M5.41943 32.5151H40.6452V35.2248H5.41943V32.5151Z" fill="black"/>
<path d="M5.41943 37.9341H32.5162V40.6438H5.41943V37.9341Z" fill="black"/>
<path d="M5.41943 43.354H32.5162V46.0637H5.41943V43.354Z" fill="black"/>
<path d="M5.41943 48.7734H32.5162V51.4831H5.41943V48.7734Z" fill="black"/>
<path d="M5.41943 65.0312H32.5162V67.7409H5.41943V65.0312Z" fill="black"/>
<path d="M5.41943 70.4507H32.5162V73.1604H5.41943V70.4507Z" fill="black"/>
<path d="M5.41943 75.8696H32.5162V78.5793H5.41943V75.8696Z" fill="black"/>
<path d="M6.77441 10.8379H9.48409V13.5476H6.77441V10.8379Z" fill="#006BF6"/>
<path d="M12.1938 10.8379H14.9035V13.5476H12.1938V10.8379Z" fill="#006BF6"/>
<path d="M17.6133 10.8379H20.323V13.5476H17.6133V10.8379Z" fill="#006BF6"/>
<path d="M23.0322 10.8379H40.6451V13.5476H23.0322V10.8379Z" fill="#006BF6"/>
</svg>
