<svg width="70" height="84" viewBox="0 0 70 84" fill="none" xmlns="http://www.w3.org/2000/svg">
<rect x="1.5" y="1.49902" width="66.1765" height="81" rx="1.79412" stroke="#181818" stroke-width="3"/>
<rect x="13.1768" y="18.9399" width="42.8235" height="1.64706" fill="#181818"/>
<rect x="13.1768" y="23.8809" width="42.8235" height="1.64706" fill="#181818"/>
<rect x="18.2148" y="28.8223" width="32.7474" height="1.64706" fill="#181818"/>
<path d="M9.15659 50.3516V42.7403H11.8226C12.7461 42.7403 13.4466 42.9181 13.9241 43.2736C14.4015 43.6255 14.6402 44.1431 14.6402 44.8261C14.6402 45.199 14.5444 45.5283 14.3527 45.8141C14.161 46.0964 13.8944 46.3037 13.5529 46.4362C13.9432 46.5338 14.2499 46.7307 14.4729 47.0269C14.6995 47.3231 14.8127 47.6855 14.8127 48.1142C14.8127 48.846 14.5792 49.4002 14.1122 49.7765C13.6453 50.1529 12.9796 50.3446 12.1153 50.3516H9.15659ZM10.7248 47.0373V49.0917H12.0683C12.4377 49.0917 12.7252 49.0046 12.9308 48.8304C13.1399 48.6526 13.2445 48.4087 13.2445 48.0985C13.2445 47.4015 12.8838 47.0478 12.1624 47.0373H10.7248ZM10.7248 45.9291H11.8853C12.6764 45.9152 13.072 45.5998 13.072 44.9829C13.072 44.6379 12.9709 44.3905 12.7688 44.2406C12.5701 44.0873 12.2547 44.0106 11.8226 44.0106H10.7248V45.9291ZM22.2462 46.7185C22.2462 47.4677 22.1138 48.1247 21.8489 48.6892C21.5841 49.2538 21.2042 49.6894 20.7093 49.9961C20.2179 50.3028 19.6534 50.4561 19.0156 50.4561C18.3848 50.4561 17.822 50.3045 17.3271 50.0013C16.8323 49.6981 16.4489 49.266 16.1771 48.7049C15.9053 48.1403 15.7676 47.4921 15.7641 46.7603V46.3839C15.7641 45.6346 15.8983 44.976 16.1666 44.4079C16.4385 43.8364 16.8201 43.399 17.3115 43.0958C17.8063 42.7891 18.3709 42.6358 19.0052 42.6358C19.6394 42.6358 20.2023 42.7891 20.6936 43.0958C21.1885 43.399 21.5701 43.8364 21.8385 44.4079C22.1103 44.976 22.2462 45.6329 22.2462 46.3787V46.7185ZM20.6571 46.3734C20.6571 45.5754 20.5142 44.969 20.2284 44.5543C19.9426 44.1396 19.5349 43.9322 19.0052 43.9322C18.4789 43.9322 18.0729 44.1378 17.7872 44.5491C17.5014 44.9568 17.3568 45.5562 17.3533 46.3473V46.7185C17.3533 47.4956 17.4962 48.0985 17.7819 48.5272C18.0677 48.9558 18.4789 49.1702 19.0156 49.1702C19.5419 49.1702 19.9461 48.9645 20.2284 48.5533C20.5107 48.1386 20.6536 47.5357 20.6571 46.7446V46.3734ZM27.9651 47.053H24.954V49.0917H28.4878V50.3516H23.3858V42.7403H28.4774V44.0106H24.954V45.8246H27.9651V47.053ZM35.6024 50.3516H34.0342V47.0896H30.9761V50.3516H29.4079V42.7403H30.9761V45.8246H34.0342V42.7403H35.6024V50.3516ZM43.1718 50.3516H41.6036V47.0896H38.5455V50.3516H36.9773V42.7403H38.5455V45.8246H41.6036V42.7403H43.1718V50.3516ZM46.141 45.4848H47.3643C48.2599 45.4848 48.9691 45.7026 49.4918 46.1382C50.0181 46.5704 50.2812 47.1541 50.2812 47.8894C50.2812 48.6282 50.0198 49.2224 49.4971 49.672C48.9778 50.1181 48.286 50.3446 47.4218 50.3516H44.5623V42.7403H46.141V45.4848ZM52.5029 50.3516H50.9346V42.7403H52.5029V50.3516ZM46.141 46.7498V49.0917H47.3904C47.7912 49.0917 48.11 48.982 48.347 48.7624C48.5875 48.5429 48.7077 48.2484 48.7077 47.879C48.7077 47.5339 48.5927 47.2621 48.3627 47.0635C48.1362 46.8613 47.8243 46.7568 47.427 46.7498H46.141ZM58.4465 42.7403H60.02V50.3516H58.4465V45.2966L55.3989 50.3516H53.8307V42.7403H55.3989V47.8058L58.4465 42.7403ZM58.7497 40.7382C58.7497 41.2017 58.5824 41.5764 58.2479 41.8621C57.9168 42.1479 57.4812 42.2908 56.941 42.2908C56.4008 42.2908 55.9635 42.1496 55.6289 41.8674C55.2978 41.5851 55.1323 41.2087 55.1323 40.7382H56.2039C56.2039 40.9578 56.2684 41.1285 56.3973 41.2505C56.5298 41.369 56.711 41.4283 56.941 41.4283C57.1675 41.4283 57.3453 41.369 57.4742 41.2505C57.6032 41.1285 57.6676 40.9578 57.6676 40.7382H58.7497ZM22.9258 56.0106H19.5279V57.4848H20.7511C21.6468 57.4848 22.356 57.7026 22.8787 58.1382C23.405 58.5704 23.6681 59.1541 23.6681 59.8894C23.6681 60.6282 23.4067 61.2224 22.884 61.672C22.3647 62.1181 21.6729 62.3446 20.8087 62.3516H17.944V54.7403H22.9258V56.0106ZM19.5279 58.7498V61.0917H20.7773C21.1781 61.0917 21.4969 60.982 21.7339 60.7624C21.9744 60.5429 22.0946 60.2484 22.0946 59.879C22.0946 59.5339 21.9796 59.2621 21.7496 59.0635C21.5231 58.8613 21.2112 58.7568 20.8139 58.7498H19.5279ZM29.2354 54.7403H30.8088V62.3516H29.2354V57.2966L26.1877 62.3516H24.6195V54.7403H26.1877V59.8058L29.2354 54.7403ZM38.4514 54.7403V62.3516H36.8779V56.0106H34.8497L34.7242 58.6976C34.6719 59.6036 34.5569 60.3181 34.3792 60.8408C34.2015 61.3601 33.9418 61.7417 33.6003 61.9856C33.2588 62.2261 32.7918 62.3481 32.1993 62.3516H31.7916V61.0917L32.053 61.0656C32.4468 61.0133 32.7273 60.7868 32.8946 60.386C33.0654 59.9818 33.1734 59.2639 33.2187 58.2323L33.3494 54.7403H38.4514ZM44.4003 59.053H41.3892V61.0917H44.923V62.3516H39.821V54.7403H44.9126V56.0106H41.3892V57.8246H44.4003V59.053ZM51.6769 56.0106H49.3455V62.3516H47.7772V56.0106H45.4771V54.7403H51.6769V56.0106Z" fill="#006BF6"/>
</svg>
