<svg width="84" height="102" viewBox="0 0 84 102" fill="none" xmlns="http://www.w3.org/2000/svg">
<path fill-rule="evenodd" clip-rule="evenodd" d="M0 4C0 1.79086 1.79086 0 4 0H80C82.2091 0 84 1.79086 84 4V98C84 100.209 82.2091 102 80 102H4C1.79086 102 0 100.209 0 98V4ZM16 23H68V25H16V23ZM68 29H16V31H68V29ZM22.1176 35H61.8824V37H22.1176V35ZM16.2524 58.9814C16.5741 58.2959 16.7349 57.4982 16.7349 56.5884V56.1758C16.7349 55.2702 16.5698 54.4725 16.2397 53.7827C15.9139 53.0887 15.4505 52.5576 14.8496 52.1895C14.2529 51.8171 13.5695 51.6309 12.7993 51.6309C12.0291 51.6309 11.3436 51.8171 10.7427 52.1895C10.146 52.5576 9.68262 53.0887 9.35254 53.7827C9.02669 54.4725 8.86377 55.2723 8.86377 56.1821V56.6392C8.868 57.5278 9.03516 58.3149 9.36523 59.0005C9.69531 59.6818 10.1608 60.2065 10.7617 60.5747C11.3626 60.9429 12.0461 61.127 12.812 61.127C13.5864 61.127 14.272 60.9408 14.8687 60.5684C15.4696 60.196 15.9308 59.667 16.2524 58.9814ZM14.2847 53.9604C14.6317 54.464 14.8052 55.2004 14.8052 56.1694V56.6201C14.8009 57.5807 14.6274 58.3128 14.2847 58.8164C13.9419 59.3158 13.451 59.5654 12.812 59.5654C12.1603 59.5654 11.661 59.3052 11.314 58.7847C10.967 58.2642 10.7935 57.5321 10.7935 56.5884V56.1377C10.7977 55.1771 10.9733 54.4492 11.3203 53.9541C11.6673 53.4548 12.1603 53.2051 12.7993 53.2051C13.4425 53.2051 13.9377 53.4569 14.2847 53.9604ZM21.6987 53.3003H24.5298V51.7578H17.0015V53.3003H19.7944V61H21.6987V53.3003ZM31.5947 60.27C32.2591 59.6987 32.6273 58.9159 32.6992 57.9214H30.7949C30.7526 58.4842 30.5854 58.901 30.2935 59.1719C30.0057 59.4385 29.5677 59.5718 28.9795 59.5718C28.3278 59.5718 27.8496 59.3411 27.5449 58.8799C27.2445 58.4186 27.0942 57.6886 27.0942 56.6899V55.9917C27.1027 55.0353 27.2635 54.3307 27.5767 53.8779C27.894 53.4209 28.3701 53.1924 29.0049 53.1924C29.5889 53.1924 30.0226 53.3278 30.3062 53.5986C30.5939 53.8652 30.7611 54.2969 30.8076 54.8936H32.7119C32.6104 53.861 32.2337 53.0591 31.582 52.4878C30.9303 51.9165 30.0713 51.6309 29.0049 51.6309C28.2347 51.6309 27.5576 51.8128 26.9736 52.1768C26.3939 52.5365 25.9474 53.0549 25.6343 53.7319C25.3211 54.409 25.1646 55.1919 25.1646 56.0806V56.6455C25.1646 58.0378 25.5031 59.1338 26.1802 59.9336C26.8615 60.7292 27.7946 61.127 28.9795 61.127C30.0628 61.127 30.9346 60.8413 31.5947 60.27ZM35.854 61V57.7437H37.5234C38.6195 57.7437 39.4764 57.4834 40.0942 56.9629C40.7163 56.4382 41.0273 55.723 41.0273 54.8174C41.0273 54.2207 40.8856 53.6896 40.6021 53.2241C40.3185 52.7544 39.9123 52.3926 39.3833 52.1387C38.8586 51.8848 38.2492 51.7578 37.5552 51.7578H33.9497V61H35.854ZM37.5552 56.2012H35.854V53.3003H37.5996C38.0693 53.3088 38.4375 53.4526 38.7041 53.7319C38.9707 54.0112 39.104 54.3773 39.104 54.8301C39.104 55.2702 38.9707 55.6087 38.7041 55.8457C38.4417 56.0827 38.0588 56.2012 37.5552 56.2012ZM49.4507 58.9814C49.7723 58.2959 49.9331 57.4982 49.9331 56.5884V56.1758C49.9331 55.2702 49.7681 54.4725 49.438 53.7827C49.1121 53.0887 48.6488 52.5576 48.0479 52.1895C47.4512 51.8171 46.7677 51.6309 45.9976 51.6309C45.2274 51.6309 44.5418 51.8171 43.9409 52.1895C43.3442 52.5576 42.8809 53.0887 42.5508 53.7827C42.2249 54.4725 42.062 55.2723 42.062 56.1821V56.6392C42.0662 57.5278 42.2334 58.3149 42.5635 59.0005C42.8936 59.6818 43.3591 60.2065 43.96 60.5747C44.5609 60.9429 45.2443 61.127 46.0103 61.127C46.7847 61.127 47.4702 60.9408 48.0669 60.5684C48.6678 60.196 49.1291 59.667 49.4507 58.9814ZM47.4829 53.9604C47.8299 54.464 48.0034 55.2004 48.0034 56.1694V56.6201C47.9992 57.5807 47.8257 58.3128 47.4829 58.8164C47.1401 59.3158 46.6493 59.5654 46.0103 59.5654C45.3586 59.5654 44.8592 59.3052 44.5122 58.7847C44.1652 58.2642 43.9917 57.5321 43.9917 56.5884V56.1377C43.9959 55.1771 44.1716 54.4492 44.5186 53.9541C44.8656 53.4548 45.3586 53.2051 45.9976 53.2051C46.6408 53.2051 47.1359 53.4569 47.4829 53.9604ZM58.6929 61V51.7578H56.7822V55.96C56.2025 56.0827 55.5973 56.144 54.9668 56.144C54.3447 56.144 53.9067 56.0277 53.6528 55.7949C53.4032 55.5622 53.2762 55.1813 53.272 54.6523V51.7578H51.3613V54.6904C51.3783 55.6595 51.6893 56.4001 52.2944 56.9121C52.9038 57.4242 53.7946 57.6802 54.9668 57.6802C55.5973 57.6802 56.2025 57.6188 56.7822 57.4961V61H58.6929ZM62.2729 57.2231H63.3711L65.7515 61H67.9795H68.0239H70.0044L70.6392 59.0957H73.978L74.6191 61H76.644L73.1846 51.7578H71.4199L67.9957 60.9564L64.8755 56.1313L67.7256 51.7578H65.4023L63.1426 55.4585H62.2729V51.7578H60.3687V61H62.2729V57.2231ZM73.4639 57.5532H71.1533L72.3022 54.0938L73.4639 57.5532ZM17.4014 73.9814C17.723 73.2959 17.8838 72.4982 17.8838 71.5884V71.1758C17.8838 70.2702 17.7188 69.4725 17.3887 68.7827C17.0628 68.0887 16.5994 67.5576 15.9985 67.1895C15.4019 66.8171 14.7184 66.6309 13.9482 66.6309C13.1781 66.6309 12.4925 66.8171 11.8916 67.1895C11.2949 67.5576 10.8315 68.0887 10.5015 68.7827C10.1756 69.4725 10.0127 70.2723 10.0127 71.1821V71.6392C10.0169 72.5278 10.1841 73.3149 10.5142 74.0005C10.8442 74.6818 11.3097 75.2065 11.9106 75.5747C12.5116 75.9429 13.195 76.127 13.9609 76.127C14.7354 76.127 15.4209 75.9408 16.0176 75.5684C16.6185 75.196 17.0798 74.667 17.4014 73.9814ZM15.4336 68.9604C15.7806 69.464 15.9541 70.2004 15.9541 71.1694V71.6201C15.9499 72.5807 15.7764 73.3128 15.4336 73.8164C15.0908 74.3158 14.5999 74.5654 13.9609 74.5654C13.3092 74.5654 12.8099 74.3052 12.4629 73.7847C12.1159 73.2642 11.9424 72.5321 11.9424 71.5884V71.1377C11.9466 70.1771 12.1222 69.4492 12.4692 68.9541C12.8162 68.4548 13.3092 68.2051 13.9482 68.2051C14.5915 68.2051 15.0866 68.4569 15.4336 68.9604ZM22.8477 68.3003H25.6787V66.7578H18.1504V68.3003H20.9434V76H22.8477V68.3003ZM31.5059 74.0957H34.8447L35.4858 76H37.5107L34.0513 66.7578H32.2866L28.8462 76H30.8711L31.5059 74.0957ZM34.3306 72.5532H32.02L33.1689 69.0938L34.3306 72.5532ZM40.2783 76V72.7437H41.9478C43.0438 72.7437 43.9007 72.4834 44.5186 71.9629C45.1406 71.4381 45.4517 70.723 45.4517 69.8174C45.4517 69.2207 45.3099 68.6896 45.0264 68.2241C44.7428 67.7544 44.3366 67.3926 43.8076 67.1387C43.2829 66.8848 42.6735 66.7578 41.9795 66.7578H38.374V76H40.2783ZM41.9795 71.2012H40.2783V68.3003H42.0239C42.4937 68.3088 42.8618 68.4526 43.1284 68.7319C43.395 69.0112 43.5283 69.3773 43.5283 69.8301C43.5283 70.2702 43.395 70.6087 43.1284 70.8457C42.866 71.0827 42.4831 71.2012 41.9795 71.2012ZM51.6279 73.4609L49.2539 66.7578H46.7656V76H48.6699V73.4736L48.4795 69.1191L50.9678 76H52.2754L54.77 69.1128L54.5796 73.4736V76H56.4902V66.7578H53.9893L51.6279 73.4609ZM65.6055 66.7578H63.6948L59.9941 72.9087V66.7578H58.0898V76H59.9941L63.6948 69.8618V76H65.6055V66.7578ZM74.708 66.7578H72.7974L69.0967 72.9087V66.7578H67.1924V76H69.0967L72.7974 69.8618V76H74.708V66.7578Z" fill="white"/>
</svg>
