<svg width="84" height="116" viewBox="0 0 84 116" fill="none" xmlns="http://www.w3.org/2000/svg">
<path fill-rule="evenodd" clip-rule="evenodd" d="M4 0C1.79086 0 0 1.79086 0 4V98C0 100.209 1.79086 102 4 102H22.0063C22.0021 101.834 22 101.667 22 101.5C22 90.7304 30.7304 82 41.5 82C52.2696 82 61 90.7304 61 101.5C61 101.667 60.9979 101.834 60.9937 102H80C82.2091 102 84 100.209 84 98V4C84 1.79086 82.2091 0 80 0H4ZM16 23H68V25H16V23ZM68 29H16V31H68V29ZM22.1176 35H61.8824V37H22.1176V35ZM11.1187 51.7578V61H14.7114C15.7609 60.9915 16.5692 60.7588 17.1362 60.3018C17.7033 59.8447 17.9868 59.1719 17.9868 58.2832C17.9868 57.7627 17.8493 57.3226 17.5742 56.9629C17.3034 56.6032 16.931 56.3641 16.457 56.2456C16.8717 56.0848 17.1955 55.833 17.4282 55.4902C17.661 55.1432 17.7773 54.7433 17.7773 54.2905C17.7773 53.4611 17.4875 52.8327 16.9077 52.4053C16.328 51.9736 15.4774 51.7578 14.356 51.7578H11.1187ZM13.0229 59.4702V56.9756H14.7686C15.6445 56.9883 16.0825 57.4178 16.0825 58.2642C16.0825 58.6408 15.9556 58.937 15.7017 59.1528C15.452 59.3644 15.1029 59.4702 14.6543 59.4702H13.0229ZM14.4321 55.6299H13.0229V53.3003H14.356C14.8807 53.3003 15.2637 53.3934 15.5049 53.5796C15.7503 53.7616 15.873 54.062 15.873 54.481C15.873 55.23 15.3927 55.613 14.4321 55.6299ZM26.5308 58.9814C26.8524 58.2959 27.0132 57.4982 27.0132 56.5884V56.1758C27.0132 55.2702 26.8481 54.4725 26.5181 53.7827C26.1922 53.0887 25.7288 52.5576 25.1279 52.1895C24.5312 51.8171 23.8478 51.6309 23.0776 51.6309C22.3075 51.6309 21.6219 51.8171 21.021 52.1895C20.4243 52.5576 19.9609 53.0887 19.6309 53.7827C19.305 54.4725 19.1421 55.2723 19.1421 56.1821V56.6392C19.1463 57.5278 19.3135 58.3149 19.6436 59.0005C19.9736 59.6818 20.4391 60.2065 21.04 60.5747C21.641 60.9429 22.3244 61.127 23.0903 61.127C23.8647 61.127 24.5503 60.9408 25.147 60.5684C25.7479 60.196 26.2091 59.667 26.5308 58.9814ZM24.563 53.9604C24.91 54.464 25.0835 55.2004 25.0835 56.1694V56.6201C25.0793 57.5807 24.9058 58.3128 24.563 58.8164C24.2202 59.3158 23.7293 59.5654 23.0903 59.5654C22.4386 59.5654 21.9393 59.3052 21.5923 58.7847C21.2453 58.2642 21.0718 57.5321 21.0718 56.5884V56.1377C21.076 55.1771 21.2516 54.4492 21.5986 53.9541C21.9456 53.4548 22.4386 53.2051 23.0776 53.2051C23.7209 53.2051 24.216 53.4569 24.563 53.9604ZM30.3013 56.9946H33.9575V55.5029H30.3013V53.3003H34.5796V51.7578H28.397V61H34.5923V59.4702H30.3013V56.9946ZM41.3271 61H43.2314V51.7578H41.3271V55.5029H37.6138V51.7578H35.7095V61H37.6138V57.0391H41.3271V61ZM50.5186 61H52.4229V51.7578H50.5186V55.5029H46.8052V51.7578H44.9009V61H46.8052V57.0391H50.5186V61ZM57.5137 55.0903H56.0283V51.7578H54.1113V61H57.5835C58.633 60.9915 59.473 60.7165 60.1035 60.1748C60.7383 59.6289 61.0557 58.9074 61.0557 58.0103C61.0557 57.1174 60.7362 56.4085 60.0972 55.8838C59.4624 55.3548 58.6012 55.0903 57.5137 55.0903ZM61.8491 61H63.7534V51.7578H61.8491V61ZM56.0283 59.4702V56.6265H57.5898C58.0723 56.6349 58.451 56.7619 58.7261 57.0073C59.0054 57.2485 59.145 57.5786 59.145 57.9976C59.145 58.4461 58.999 58.8037 58.707 59.0703C58.4193 59.3369 58.0321 59.4702 57.5454 59.4702H56.0283ZM72.8813 51.7578H70.9707L67.27 57.9087V51.7578H65.3657V61H67.27L70.9707 54.8618V61H72.8813V51.7578ZM70.7295 50.6914C71.1357 50.3444 71.3389 49.8895 71.3389 49.3267H70.0249C70.0249 49.5933 69.9466 49.8006 69.79 49.9487C69.6335 50.0926 69.4176 50.1646 69.1426 50.1646C68.8633 50.1646 68.6432 50.0926 68.4824 49.9487C68.3258 49.8006 68.2476 49.5933 68.2476 49.3267H66.9463C66.9463 49.8979 67.1473 50.355 67.5493 50.6978C67.9556 51.0405 68.4867 51.2119 69.1426 51.2119C69.7985 51.2119 70.3275 51.0384 70.7295 50.6914ZM23.7124 68.3003H27.8384V66.7578H21.7891V76H25.2676C26.3171 75.9915 27.1571 75.7165 27.7876 75.1748C28.4224 74.6289 28.7397 73.9074 28.7397 73.0103C28.7397 72.1173 28.4202 71.4085 27.7812 70.8838C27.1465 70.3548 26.2853 70.0903 25.1978 70.0903H23.7124V68.3003ZM23.7124 74.4702V71.6265H25.2739C25.7563 71.6349 26.1351 71.7619 26.4102 72.0073C26.6895 72.2485 26.8291 72.5786 26.8291 72.9976C26.8291 73.4461 26.6831 73.8037 26.3911 74.0703C26.1034 74.3369 25.7161 74.4702 25.2295 74.4702H23.7124ZM37.4106 66.7578H35.5L31.7993 72.9087V66.7578H29.895V76H31.7993L35.5 69.8618V76H37.4106V66.7578ZM46.6909 76V66.7578H40.4956L40.3369 70.998C40.2819 72.2506 40.1507 73.1224 39.9434 73.6133C39.7402 74.0999 39.3996 74.375 38.9214 74.4385L38.604 74.4702V76H39.0991C39.8185 75.9958 40.3856 75.8477 40.8003 75.5557C41.215 75.2594 41.5303 74.7961 41.7461 74.1655C41.9619 73.5308 42.1016 72.6632 42.165 71.563L42.3174 68.3003H44.7803V76H46.6909ZM50.2583 71.9946H53.9146V70.5029H50.2583V68.3003H54.5366V66.7578H48.354V76H54.5493V74.4702H50.2583V71.9946ZM59.9194 68.3003H62.7505V66.7578H55.2222V68.3003H58.0151V76H59.9194V68.3003Z" fill="white"/>
<circle cx="41.5" cy="101.5" r="14.5" fill="white"/>
<path d="M48.9265 109.22C46.0153 111.593 36.9253 111.593 34.0735 109.22C31.1623 106.847 31.4594 96.7006 34.0735 94.0306C36.6876 91.3606 46.3124 91.3606 48.9265 94.0306C51.5407 96.7006 51.8377 106.847 48.9265 109.22Z" fill="url(#paint0_linear_1232_7114)"/>
<path opacity="0.2" d="M41.5595 105.067C38.9454 107.143 36.0342 108.211 33.3013 108.271C31.2812 104.829 31.6971 96.4634 34.0736 94.0307C36.2125 91.8354 42.926 91.42 46.7878 92.7847C47.7384 96.7007 45.7778 101.685 41.5595 105.067Z" fill="white"/>
<path d="M47.1439 101.507C47.1439 102.1 46.6686 102.575 46.0745 102.575H42.5098V106.135C42.5098 106.728 42.0345 107.203 41.4404 107.203C40.8463 107.203 40.371 106.728 40.371 106.135V102.575H36.8062C36.2121 102.575 35.7368 102.1 35.7368 101.507C35.7368 100.913 36.2121 100.439 36.8062 100.439H40.3709V96.8788C40.3709 96.2855 40.8462 95.8108 41.4404 95.8108C42.0345 95.8108 42.5098 96.2855 42.5098 96.8788V100.439H46.0745C46.6686 100.439 47.1439 100.913 47.1439 101.507Z" fill="white"/>
<defs>
<linearGradient id="paint0_linear_1232_7114" x1="32" y1="103.446" x2="51" y2="103.446" gradientUnits="userSpaceOnUse">
<stop stop-color="#0068F3"/>
<stop offset="1" stop-color="#238FFF"/>
</linearGradient>
</defs>
</svg>
